<svg width="24" height="24" viewBox="0 0 24 24" fill="none" xmlns="http://www.w3.org/2000/svg">
<mask id="mask0_3188_5977" style="mask-type:alpha" maskUnits="userSpaceOnUse" x="0" y="0" width="24" height="24">
<rect width="24" height="24" fill="#D9D9D9"/>
</mask>
<g mask="url(#mask0_3188_5977)">
<path d="M5.75031 16.25V10.25C5.75031 10.0375 5.82221 9.85934 5.96603 9.71559C6.10985 9.57185 6.28805 9.49999 6.50063 9.49999C6.71322 9.49999 6.89131 9.57185 7.03491 9.71559C7.17849 9.85934 7.25028 10.0375 7.25028 10.25V16.25C7.25028 16.4625 7.17837 16.6406 7.03456 16.7844C6.89074 16.9281 6.71254 17 6.49996 17C6.28737 17 6.10928 16.9281 5.96568 16.7844C5.8221 16.6406 5.75031 16.4625 5.75031 16.25ZM11.2503 16.25V10.25C11.2503 10.0375 11.3222 9.85934 11.466 9.71559C11.6098 9.57185 11.788 9.49999 12.0006 9.49999C12.2132 9.49999 12.3913 9.57185 12.5349 9.71559C12.6784 9.85934 12.7502 10.0375 12.7502 10.25V16.25C12.7502 16.4625 12.6783 16.6406 12.5345 16.7844C12.3907 16.9281 12.2125 17 11.9999 17C11.7873 17 11.6092 16.9281 11.4657 16.7844C11.3221 16.6406 11.2503 16.4625 11.2503 16.25ZM3.51953 20.5C3.30703 20.5 3.12891 20.4281 2.98516 20.2843C2.84141 20.1404 2.76953 19.9622 2.76953 19.7497C2.76953 19.5371 2.84141 19.359 2.98516 19.2154C3.12891 19.0718 3.30703 19 3.51953 19H20.481C20.6935 19 20.8716 19.0719 21.0154 19.2157C21.1591 19.3595 21.231 19.5377 21.231 19.7503C21.231 19.9629 21.1591 20.141 21.0154 20.2846C20.8716 20.4282 20.6935 20.5 20.481 20.5H3.51953ZM16.7502 16.25V10.25C16.7502 10.0375 16.8221 9.85934 16.966 9.71559C17.1098 9.57185 17.288 9.49999 17.5006 9.49999C17.7131 9.49999 17.8912 9.57185 18.0348 9.71559C18.1784 9.85934 18.2502 10.0375 18.2502 10.25V16.25C18.2502 16.4625 18.1783 16.6406 18.0345 16.7844C17.8907 16.9281 17.7125 17 17.4999 17C17.2873 17 17.1092 16.9281 16.9656 16.7844C16.822 16.6406 16.7502 16.4625 16.7502 16.25ZM20.5195 7.49999H3.40991C3.23202 7.49999 3.08082 7.43785 2.95631 7.31356C2.83179 7.1893 2.76953 7.0384 2.76953 6.86086V6.47029C2.76953 6.3401 2.80215 6.22788 2.86738 6.13361C2.9326 6.03936 3.01857 5.96278 3.12531 5.90386L11.206 1.95004C11.4557 1.82954 11.72 1.76929 11.999 1.76929C12.278 1.76929 12.5432 1.82954 12.7945 1.95004L20.8348 5.87886C20.9605 5.94296 21.0579 6.0327 21.1271 6.14809C21.1964 6.26347 21.231 6.38741 21.231 6.51991V6.79091C21.231 6.99568 21.164 7.16505 21.03 7.29901C20.896 7.433 20.7259 7.49999 20.5195 7.49999ZM6.31563 6.00001H17.6849L12.1349 3.30771C12.09 3.28848 12.0451 3.27886 12.0003 3.27886C11.9554 3.27886 11.9105 3.28848 11.8656 3.30771L6.31563 6.00001Z" fill="#691A1E"/>
</g>
</svg>
