<svg width="24" height="24" viewBox="0 0 24 24" fill="none" xmlns="http://www.w3.org/2000/svg">
<mask id="mask0_3188_5997" style="mask-type:alpha" maskUnits="userSpaceOnUse" x="0" y="0" width="24" height="24">
<rect width="24" height="24" fill="#D9D9D9"/>
</mask>
<g mask="url(#mask0_3188_5997)">
</g>
<g clip-path="url(#clip0_3188_5997)">
<path d="M4.98 16.48V10.48C4.98 10.27 5.05 10.09 5.2 9.95C5.34 9.81 5.52 9.73 5.73 9.73C5.94 9.73 6.12 9.8 6.26 9.95C6.4 10.09 6.48 10.27 6.48 10.48V16.48C6.48 16.69 6.41 16.87 6.26 17.01C6.12 17.15 5.94 17.23 5.73 17.23C5.52 17.23 5.34 17.16 5.2 17.01C5.06 16.87 4.98 16.69 4.98 16.48ZM10.48 16.48V10.48C10.48 10.27 10.55 10.09 10.7 9.95C10.84 9.81 11.02 9.73 11.23 9.73C11.44 9.73 11.62 9.8 11.76 9.95C11.9 10.09 11.98 10.27 11.98 10.48V16.48C11.98 16.69 11.91 16.87 11.76 17.01C11.62 17.15 11.44 17.23 11.23 17.23C11.02 17.23 10.84 17.16 10.7 17.01C10.56 16.87 10.48 16.69 10.48 16.48ZM2.63 20.73C2.45 20.73 2.3 20.66 2.18 20.51C2.06 20.37 2 20.19 2 19.98C2 19.77 2.06 19.59 2.18 19.45C2.3 19.31 2.45 19.23 2.63 19.23H12.85C13.03 19.23 13.18 19.3 13.3 19.45C13.42 19.59 13.48 19.77 13.48 19.98C13.48 20.19 13.42 20.37 13.3 20.51C13.18 20.65 13.03 20.73 12.85 20.73H2.63ZM19.75 7.73H2.64C2.46 7.73 2.31 7.67 2.19 7.54C2.06 7.42 2 7.27 2 7.09V6.7C2 6.57 2.03 6.46 2.1 6.36C2.17 6.27 2.25 6.19 2.36 6.13L10.44 2.18C10.69 2.06 10.95 2 11.23 2C11.51 2 11.77 2.06 12.03 2.18L20.07 6.11C20.2 6.17 20.29 6.26 20.36 6.38C20.43 6.5 20.46 6.62 20.46 6.75V7.02C20.46 7.22 20.39 7.39 20.26 7.53C20.13 7.66 19.96 7.73 19.75 7.73ZM15.98 12.48V10.48C15.98 10.27 16.05 10.09 16.2 9.95C16.34 9.81 16.52 9.73 16.73 9.73C16.94 9.73 17.12 9.8 17.26 9.95C17.4 10.09 17.48 10.27 17.48 10.48V12.48C17.48 12.69 17.41 12.87 17.26 13.01C17.12 13.15 16.94 13.23 16.73 13.23C16.52 13.23 16.34 13.16 16.2 13.01C16.06 12.87 15.98 12.69 15.98 12.48ZM5.55 6.23H16.92L11.37 3.54C11.37 3.54 11.28 3.51 11.24 3.51C11.2 3.51 11.15 3.51 11.11 3.54L5.56 6.23H5.55Z" fill="#691A1E"/>
<path d="M21.7302 16.7299C21.6002 16.5999 21.4302 16.5299 21.2402 16.5299H19.2802V14.5699C19.2802 14.3799 19.2102 14.2099 19.0802 14.0799C18.8202 13.8099 18.3602 13.8099 18.0902 14.0799C17.9602 14.2099 17.8902 14.3799 17.8902 14.5699V16.5299H15.9302C15.7402 16.5299 15.5702 16.5999 15.4402 16.7299C15.3102 16.8599 15.2402 17.0299 15.2402 17.2199C15.2402 17.4099 15.3102 17.5799 15.4402 17.7099C15.5702 17.8399 15.7402 17.9099 15.9302 17.9099H17.8902V19.8699C17.8902 20.0599 17.9602 20.2299 18.0902 20.3599C18.2202 20.4899 18.3902 20.5599 18.5802 20.5599C18.7702 20.5599 18.9402 20.4899 19.0702 20.3599C19.2002 20.2299 19.2702 20.0599 19.2702 19.8699V17.9099H21.2302C21.4202 17.9099 21.5902 17.8399 21.7202 17.7099C21.8502 17.5799 21.9202 17.4099 21.9202 17.2199C21.9202 17.0299 21.8502 16.8599 21.7202 16.7199L21.7302 16.7299Z" fill="#691A1E"/>
</g>
<defs>
<clipPath id="clip0_3188_5997">
<rect width="19.94" height="18.73" fill="white" transform="translate(2 2)"/>
</clipPath>
</defs>
</svg>
