<svg width="88" height="28" viewBox="0 0 88 28" fill="none" xmlns="http://www.w3.org/2000/svg">
<g clip-path="url(#clip0_14975_11975)">
<path d="M13.7443 0.5C6.15411 0.5 0 6.54435 0 13.9992C0 21.4541 6.15411 27.4984 13.7443 27.4984C21.3346 27.4984 27.4887 21.4541 27.4887 13.9992C27.4887 6.54435 21.3362 0.5 13.7443 0.5ZM13.2829 21.0708C13.0077 20.9007 12.7065 20.7305 12.4458 20.5381C12.1123 20.298 11.7788 20.0308 11.476 19.7462C11.353 19.6444 11.0599 19.3264 10.9433 19.2055C10.7442 18.9988 10.5596 18.7428 10.3767 18.5186C10.2099 18.2737 10.0318 18.0304 9.8877 17.7712C9.82455 17.6583 9.69826 17.4356 9.63674 17.3243C8.06138 14.2234 8.45158 10.3926 10.2471 7.48098C10.341 7.33468 10.4285 7.20428 10.5353 7.06117C10.8834 6.61909 11.5732 6.98484 11.3951 7.51437C10.6292 10.1287 10.1063 12.9576 10.8494 15.6276C11.3692 17.4627 12.4685 18.9702 13.8771 20.3187C14.2802 20.7242 13.7832 21.3555 13.2829 21.0756V21.0708ZM18.6793 13.3711C18.5287 13.9006 17.0764 13.9674 15.4039 13.9754C13.7314 13.9658 12.2791 13.9006 12.1269 13.3711C11.9714 12.8543 13.4205 12.0003 15.4039 12.0035C17.3856 12.0003 18.8363 12.8543 18.6793 13.3711ZM18.8266 8.68476C18.676 9.2143 17.2674 9.29222 15.6516 9.30176C14.0358 9.29222 12.6272 9.2143 12.4766 8.68476C12.3212 8.16794 13.7265 7.32673 15.6516 7.32832C17.5767 7.32514 18.982 8.16635 18.8266 8.68476Z" fill="white"/>
<path d="M39.1129 6.75731C39.3121 6.75731 39.4789 6.82092 39.6149 6.94972C39.7509 7.07694 39.8189 7.23914 39.8189 7.43473C39.8189 7.63033 39.7509 7.79094 39.6149 7.91974C39.4789 8.04855 39.3105 8.11216 39.1129 8.11216H34.4403C34.2411 8.11216 34.0744 8.04855 33.9384 7.91974C33.8024 7.79094 33.7344 7.63033 33.7344 7.43473C33.7344 7.22801 33.8024 7.06263 33.9384 6.94177C34.0744 6.82092 34.2428 6.7589 34.4403 6.7589H39.1129V6.75731ZM38.5932 2.57031C38.8037 2.57031 39.0239 2.59735 39.2538 2.653C39.4837 2.70707 39.6829 2.79294 39.8496 2.90902C40.0164 3.02511 40.1006 3.18731 40.1006 3.39404C40.1006 3.58963 40.0391 3.75024 39.9144 3.87905C39.7897 4.00785 39.6408 4.07146 39.4675 4.07146C39.3558 4.07146 39.2004 4.04125 39.0028 3.98082C38.8037 3.92039 38.5997 3.89018 38.3892 3.89018C38.1043 3.89018 37.8711 3.95061 37.6914 4.07305C37.5117 4.1955 37.3805 4.35611 37.3012 4.55806C37.2202 4.76002 37.1798 4.98105 37.1798 5.22595V15.3189C37.1798 15.5257 37.1085 15.7022 36.9661 15.8485C36.8236 15.9948 36.6471 16.0679 36.435 16.0679C36.2116 16.0679 36.0318 15.9948 35.8958 15.8485C35.7598 15.7022 35.6918 15.5257 35.6918 15.3189V5.22117C35.6918 4.41653 35.9493 3.77409 36.4641 3.29226C36.979 2.81043 37.6898 2.57031 38.5965 2.57031H38.5932Z" fill="white"/>
<path d="M42.4272 5.23836C42.1163 5.23836 41.888 5.17794 41.7391 5.05549C41.5901 4.93464 41.5156 4.74381 41.5156 4.48938V4.23336C41.5156 3.97734 41.5966 3.7881 41.7569 3.66725C41.9188 3.5448 42.1471 3.48438 42.445 3.48438C42.7429 3.48438 42.9663 3.5448 43.1153 3.66725C43.2642 3.78969 43.3387 3.97893 43.3387 4.23336V4.48938C43.3387 4.7454 43.261 4.93464 43.1056 5.05549C42.9501 5.17794 42.7235 5.23836 42.4255 5.23836H42.4272ZM43.1914 15.3139C43.1914 15.5206 43.1201 15.6971 42.9777 15.8434C42.8352 15.9897 42.6587 16.0629 42.4466 16.0629C42.2232 16.0629 42.0402 15.9897 41.8977 15.8434C41.7553 15.6971 41.684 15.5206 41.684 15.3139V7.21339C41.684 7.00667 41.7553 6.83015 41.8977 6.68386C42.0402 6.53756 42.2232 6.46441 42.4466 6.46441C42.6571 6.46441 42.8336 6.53756 42.9777 6.68386C43.1201 6.83015 43.1914 7.00667 43.1914 7.21339V15.3139Z" fill="white"/>
<path d="M50.6577 6.375C51.5013 6.375 52.1651 6.54515 52.6492 6.88704C53.1333 7.22894 53.4782 7.68532 53.6822 8.2578C53.8862 8.83027 53.9898 9.47748 53.9898 10.1963V15.3167C53.9898 15.5234 53.9186 15.6999 53.7761 15.8462C53.6336 15.9925 53.4571 16.0657 53.245 16.0657C53.0216 16.0657 52.8419 15.9925 52.7059 15.8462C52.5699 15.6999 52.5019 15.5234 52.5019 15.3167V10.2328C52.5019 9.77008 52.4306 9.34867 52.2882 8.9718C52.1457 8.59492 51.9061 8.29278 51.5709 8.06697C51.2358 7.84116 50.7889 7.72826 50.2303 7.72826C49.709 7.72826 49.2313 7.84116 48.7974 8.06697C48.3635 8.29278 48.0154 8.59492 47.7547 8.9718C47.4941 9.35026 47.3646 9.77008 47.3646 10.2328V15.3167C47.3646 15.5234 47.2933 15.6999 47.1508 15.8462C47.0084 15.9925 46.8319 16.0657 46.6198 16.0657C46.4077 16.0657 46.2312 15.9925 46.0887 15.8462C45.9462 15.6999 45.875 15.5234 45.875 15.3167V7.36251C45.875 7.14307 45.9462 6.96337 46.0887 6.82344C46.2312 6.6835 46.4077 6.61353 46.6198 6.61353C46.8432 6.61353 47.0229 6.6835 47.1589 6.82344C47.2949 6.96337 47.3629 7.14307 47.3629 7.36251V8.64262L46.9905 9.04495C47.0521 8.7285 47.1945 8.40887 47.4196 8.08446C47.643 7.76165 47.9215 7.47224 48.2567 7.21622C48.5918 6.96019 48.9642 6.75665 49.3738 6.60399C49.7835 6.45133 50.2109 6.375 50.6577 6.375Z" fill="white"/>
<path d="M64.0814 14.6898C64.2806 14.6898 64.4506 14.7566 64.5931 14.8901C64.7355 15.0237 64.8068 15.1891 64.8068 15.3831C64.8068 15.5771 64.7355 15.7393 64.5931 15.8681C64.4506 15.9969 64.279 16.0605 64.0814 16.0605H57.3412C57.1178 16.0605 56.9348 15.9969 56.7924 15.8681C56.6499 15.7393 56.5786 15.566 56.5786 15.3465C56.5786 15.1509 56.6531 14.9744 56.8021 14.817L61.0101 10.3008C61.6188 9.64247 62.0803 9.02388 62.3976 8.44505C62.7149 7.86622 62.872 7.35099 62.872 6.89938C62.872 6.16788 62.6453 5.57633 62.192 5.1263C61.7386 4.67469 61.1396 4.45047 60.3948 4.45047C60.0597 4.45047 59.7245 4.52044 59.3894 4.66037C59.0542 4.80031 58.7498 4.98955 58.4778 5.22649C58.2042 5.46342 57.9808 5.73535 57.8075 6.04067C57.7088 6.18697 57.6051 6.28397 57.4999 6.33326C57.3947 6.38256 57.2862 6.40641 57.1745 6.40641C56.9883 6.40641 56.8183 6.34281 56.6628 6.214C56.5074 6.08519 56.4297 5.93094 56.4297 5.74807C56.4297 5.61449 56.4702 5.48887 56.5511 5.37278C56.6321 5.2567 56.7341 5.1263 56.8587 4.98C57.1194 4.62698 57.4448 4.30576 57.8367 4.01952C58.2285 3.73329 58.6559 3.5043 59.1206 3.33415C59.5853 3.164 60.0418 3.07812 60.4887 3.07812C61.2821 3.07812 61.975 3.23396 62.5644 3.54405C63.1537 3.85573 63.6103 4.28827 63.9325 4.84166C64.2547 5.39664 64.4166 6.05816 64.4166 6.82623C64.4166 7.47185 64.2174 8.18267 63.8208 8.95709C63.4241 9.73152 62.8396 10.5266 62.0705 11.344L58.813 14.8726L58.6268 14.6898H64.0814Z" fill="white"/>
<path d="M71.1746 6.375C71.7202 6.375 72.2238 6.46405 72.682 6.64056C73.1402 6.81708 73.5417 7.04606 73.8833 7.32594C74.2249 7.60581 74.4921 7.89841 74.6831 8.20373C74.8758 8.50905 74.9713 8.79528 74.9713 9.06244L74.5989 8.84299V7.25279C74.5989 7.04606 74.6702 6.87114 74.8127 6.73121C74.9551 6.59127 75.1316 6.5213 75.3437 6.5213C75.5672 6.5213 75.7501 6.59127 75.8926 6.73121C76.0351 6.87114 76.1063 7.04447 76.1063 7.25279V15.261C76.1063 16.2613 75.8926 17.0929 75.4635 17.7577C75.0361 18.4224 74.4613 18.9153 73.7408 19.2381C73.0204 19.5609 72.214 19.7231 71.3203 19.7231C70.9479 19.7231 70.5383 19.677 70.0914 19.5864C69.6446 19.4957 69.2479 19.3797 68.8998 19.2381C68.5517 19.0982 68.3283 18.9551 68.2295 18.8088C68.0433 18.6752 67.9284 18.5353 67.8846 18.389C67.8409 18.2427 67.8636 18.0964 67.9494 17.9501C68.0741 17.7799 68.2214 17.694 68.3963 17.694C68.5711 17.694 68.7929 17.7481 69.0666 17.8578C69.1912 17.8944 69.3742 17.9548 69.6154 18.0407C69.8583 18.1266 70.1303 18.2029 70.4347 18.2697C70.7391 18.3365 71.0402 18.3699 71.3381 18.3699C72.3921 18.3699 73.2001 18.098 73.7586 17.5557C74.3172 17.0134 74.5957 16.2963 74.5957 15.4073V13.7074L74.7997 13.7981C74.7252 14.1399 74.5763 14.4564 74.3529 14.749C74.1294 15.0416 73.8526 15.3008 73.5239 15.5266C73.1952 15.7524 72.8325 15.9289 72.4342 16.0577C72.0376 16.1865 71.6279 16.2501 71.2054 16.2501C70.3359 16.2501 69.5571 16.0371 68.869 15.6109C68.1809 15.1847 67.6337 14.5995 67.2305 13.8553C66.8274 13.1111 66.625 12.2651 66.625 11.3142C66.625 10.3632 66.8258 9.49815 67.2305 8.75394C67.6337 8.01132 68.1761 7.42771 68.8593 7.0079C69.541 6.58809 70.3116 6.37659 71.1681 6.37659L71.1746 6.375ZM71.3802 7.72826C70.7472 7.72826 70.1789 7.8841 69.677 8.19419C69.175 8.50587 68.7832 8.93204 68.5047 9.4743C68.2263 10.0166 68.0854 10.6288 68.0854 11.3126C68.0854 11.9964 68.2246 12.5895 68.5047 13.1318C68.7832 13.674 69.175 14.1034 69.677 14.4214C70.1789 14.7379 70.7472 14.8969 71.3802 14.8969C72.0133 14.8969 72.5962 14.741 73.0932 14.431C73.5903 14.1193 73.9805 13.6963 74.2654 13.1604C74.5504 12.6245 74.6929 12.0091 74.6929 11.3142C74.6929 10.6192 74.5504 10.0007 74.2654 9.4584C73.9805 8.91614 73.5886 8.49315 73.0932 8.18783C72.5962 7.88251 72.0262 7.73144 71.3802 7.73144V7.72826Z" fill="white"/>
<path d="M88.0064 11.311C88.0064 12.2619 87.7927 13.1095 87.3636 13.8521C86.9362 14.5963 86.3582 15.1815 85.6328 15.6077C84.9075 16.0339 84.0898 16.247 83.1848 16.247C82.2797 16.247 81.4589 16.0339 80.727 15.6077C79.9952 15.1815 79.414 14.5963 78.9865 13.8521C78.5591 13.1079 78.3438 12.2619 78.3438 11.311C78.3438 10.36 78.5575 9.51247 78.9865 8.76984C79.4156 8.02722 79.9952 7.44202 80.727 7.01426C81.4589 6.58809 82.2781 6.375 83.1848 6.375C84.0915 6.375 84.9075 6.58809 85.6328 7.01426C86.3582 7.44043 86.9362 8.02563 87.3636 8.76984C87.7927 9.51406 88.0064 10.36 88.0064 11.311ZM86.4974 11.311C86.4974 10.6049 86.3517 9.98475 86.0603 9.45522C85.7688 8.92568 85.3722 8.50428 84.8686 8.19419C84.3667 7.88251 83.8049 7.72826 83.1832 7.72826C82.5614 7.72826 81.9818 7.8841 81.4799 8.19419C80.978 8.50587 80.5765 8.92568 80.2785 9.45522C79.9806 9.98634 79.8317 10.6049 79.8317 11.311C79.8317 12.017 79.9806 12.6213 80.2785 13.1572C80.5765 13.6931 80.9764 14.1177 81.4799 14.4278C81.9818 14.7395 82.5501 14.8937 83.1832 14.8937C83.8162 14.8937 84.3651 14.7379 84.8686 14.4278C85.3705 14.1161 85.7688 13.6931 86.0603 13.1572C86.3517 12.6213 86.4974 12.0059 86.4974 11.311Z" fill="white"/>
<path d="M67.7109 25.2268V22.6094H70.2464V23.1962H68.4719V23.8275H70.0262V24.392H68.4768V25.2253H67.7109V25.2268Z" fill="white"/>
<path d="M70.6562 25.2268V22.6094H71.4172V25.2268H70.6562Z" fill="white"/>
<path d="M72.0234 25.227V22.6016H72.7018L74.1719 24.2617V22.6079H74.8568V25.2302H74.1784L72.7083 23.6257V25.227H72.0234Z" fill="white"/>
<path d="M75.2031 25.2223L76.411 22.5938H77.2448L78.4558 25.2223H77.5945L77.3889 24.7357H76.2167L76.011 25.2223H75.2031ZM76.398 24.2046H77.2059L76.8028 23.1615L76.3996 24.2046H76.398Z" fill="white"/>
<path d="M78.7969 25.227V22.6016H79.4753L80.9454 24.2617V22.6079H81.6303V25.2302H80.9519L79.4817 23.6257V25.227H78.7969Z" fill="white"/>
<path d="M82.1172 23.9729C82.1172 23.6469 82.1819 23.3797 82.3115 23.1746C82.441 22.9695 82.6337 22.8168 82.8879 22.7182C83.1437 22.6196 83.4578 22.5703 83.8302 22.5703C83.9548 22.5703 84.0666 22.5735 84.1653 22.5783C84.2641 22.583 84.3564 22.591 84.4438 22.6021C84.5296 22.6132 84.6138 22.6276 84.6964 22.6435C84.7789 22.6594 84.8648 22.68 84.9538 22.7055L84.8016 23.2398C84.6899 23.2175 84.583 23.2 84.4794 23.1857C84.3774 23.1714 84.2754 23.1619 84.1766 23.1539C84.0779 23.146 83.9791 23.1428 83.8804 23.1428C83.7071 23.1428 83.5598 23.1587 83.4351 23.1889C83.3104 23.2207 83.2084 23.2684 83.1307 23.3336C83.0514 23.3988 82.9931 23.4831 82.9559 23.5864C82.917 23.6898 82.8992 23.8139 82.8992 23.9586C82.8992 24.089 82.917 24.2003 82.9542 24.2957C82.9915 24.3911 83.0482 24.4674 83.1275 24.5263C83.2068 24.5851 83.3056 24.628 83.4238 24.6567C83.5436 24.6853 83.6861 24.6996 83.8545 24.6996C84.0228 24.6996 84.2009 24.6885 84.3823 24.6678C84.5636 24.6471 84.7352 24.6169 84.8988 24.5803L85.0364 25.1003C84.9506 25.1258 84.8631 25.148 84.7741 25.1671C84.685 25.1878 84.5895 25.2037 84.4859 25.218C84.3823 25.2323 84.2706 25.2434 84.1491 25.2514C84.0277 25.2593 83.8917 25.2641 83.7411 25.2641C83.4772 25.2641 83.2441 25.2403 83.0417 25.191C82.8393 25.1417 82.6709 25.0669 82.5333 24.9652C82.3957 24.8634 82.292 24.7298 82.2224 24.5676C82.1528 24.4038 82.1172 24.2066 82.1172 23.9745V23.9729Z" fill="white"/>
<path d="M85.4453 25.2268V22.6094H88.0035V23.1771H86.1998V23.6223H87.895V24.1503H86.1998V24.6623H88.0035V25.2268H85.4453Z" fill="white"/>
<path fill-rule="evenodd" clip-rule="evenodd" d="M42.1553 22.6073H44.1938C44.6568 22.6073 45.0341 22.9651 45.0341 23.4024V25.2248H41.987C41.7052 25.2248 41.4753 25.0069 41.4753 24.7398V24.1069C41.4753 23.8588 41.6891 23.6569 41.9513 23.6569H43.6417L43.4619 24.0258H42.2185C42.1634 24.0258 42.1035 24.0655 42.1035 24.1228V24.6205C42.1035 24.6778 42.1634 24.7175 42.2185 24.7175H44.3751V23.5233C44.3751 23.2911 44.1646 23.1146 43.9315 23.1146H41.9076L42.1537 22.6073H42.1553ZM58.9031 21.6548V25.2248H55.9321C55.6503 25.2248 55.4204 25.0069 55.4204 24.7398V23.4024C55.4204 22.9651 55.7993 22.6073 56.2607 22.6073H57.9543L57.705 23.1146H56.523C56.2899 23.1146 56.0794 23.2911 56.0794 23.5233V24.6205C56.0794 24.6778 56.1393 24.7175 56.1944 24.7175H58.2473V21.6548H58.9063H58.9031ZM48.4616 25.2264H49.1206V23.404C49.1206 22.9667 48.7417 22.6089 48.2803 22.6089H46.8814L46.6321 23.1162H48.018C48.2512 23.1162 48.4616 23.2927 48.4616 23.5249V25.2264ZM45.7238 21.6548V25.2248H46.3828V21.6548H45.7238ZM40.2367 25.2264H40.8957V23.404C40.8957 22.9667 40.5168 22.6089 40.0554 22.6089H35.7422V25.228H36.4012V23.2148C36.4012 23.1575 36.4611 23.1178 36.5161 23.1178H37.8761C37.9312 23.1178 37.9911 23.1575 37.9911 23.2148V25.228H38.65V23.2148C38.65 23.1575 38.71 23.1178 38.765 23.1178H39.7964C40.0295 23.1178 40.24 23.2943 40.24 23.5265V25.2296L40.2367 25.2264ZM62.3371 22.6073H60.6857C60.2226 22.6073 59.8454 22.9651 59.8454 23.4024V25.2248H60.5043V23.5217C60.5043 23.2895 60.7148 23.113 60.948 23.113H62.0894L62.3388 22.6057L62.3371 22.6073ZM53.9131 22.6073C54.3761 22.6073 54.7534 22.9651 54.7534 23.4024V25.2248H54.0944V23.5217C54.0944 23.2895 53.8839 23.113 53.6508 23.113H52.0689V25.2232H51.41V22.6057C52.2422 22.6057 53.076 22.6057 53.9115 22.6057L53.9131 22.6073ZM49.9366 22.7727L50.5956 22.4054V25.2264H49.9366V22.7727ZM50.5956 22.0364V21.6484H49.9366V22.4038L50.5956 22.0364ZM62.7953 22.6073H64.8337C65.2968 22.6073 65.674 22.9651 65.674 23.4024V25.2248H62.6269C62.3452 25.2248 62.1153 25.0069 62.1153 24.7398V24.1069C62.1153 23.8588 62.329 23.6569 62.5913 23.6569H64.2816L64.1019 24.0258H62.8585C62.8034 24.0258 62.7435 24.0655 62.7435 24.1228V24.6205C62.7435 24.6778 62.8034 24.7175 62.8585 24.7175H65.0151V23.5233C65.0151 23.2911 64.8046 23.1146 64.5715 23.1146H62.5476L62.7937 22.6073H62.7953Z" fill="white"/>
</g>
<defs>
<clipPath id="clip0_14975_11975">
<rect width="88" height="27" fill="white" transform="translate(0 0.5)"/>
</clipPath>
</defs>
</svg>
