<svg width="31" height="44" viewBox="0 0 31 44" fill="none" xmlns="http://www.w3.org/2000/svg">
<path d="M28.2574 0.727424C28.1068 0.495922 27.7971 0.430285 27.5656 0.580821L23.7931 3.03395C23.5616 3.18448 23.4959 3.49419 23.6465 3.72569C23.797 3.95719 24.1067 4.02283 24.3382 3.87229L27.6916 1.69174L29.8722 5.04512C30.0227 5.27662 30.3324 5.34226 30.5639 5.19172C30.7954 5.04119 30.861 4.73148 30.7105 4.49998L28.2574 0.727424ZM0.703732 43.4995C6.2535 43.2459 10.509 41.7753 13.8284 39.3523C17.1446 36.9316 19.4884 33.5881 21.2632 29.6511C23.0361 25.7182 24.2501 21.1724 25.296 16.3255C25.8192 13.9006 26.3018 11.3934 26.7908 8.84556C27.2801 6.29589 27.776 3.70497 28.3273 1.10366L27.3491 0.896329C26.7954 3.50875 26.2977 6.10938 25.8087 8.65707C25.3194 11.2066 24.8389 13.7026 24.3185 16.1146C23.2768 20.9417 22.0803 25.405 20.3515 29.2402C18.6245 33.0713 16.3752 36.2551 13.2388 38.5446C10.1054 40.8318 6.0486 42.2542 0.658084 42.5006L0.703732 43.4995Z" fill="white"/>
</svg>
