<svg width="26" height="37" viewBox="0 0 26 37" fill="none" xmlns="http://www.w3.org/2000/svg">
<path d="M25.0079 33.3208C25.1931 33.116 25.1772 32.7998 24.9723 32.6146L21.6344 29.5966C21.4296 29.4114 21.1134 29.4274 20.9282 29.6322C20.743 29.837 20.7589 30.1532 20.9637 30.3384L23.9308 33.021L21.2482 35.9881C21.063 36.1929 21.0789 36.5091 21.2837 36.6943C21.4885 36.8795 21.8047 36.8636 21.9899 36.6588L25.0079 33.3208ZM1.38387 0.731315C-0.616663 9.20373 -0.660211 17.6738 2.76273 23.9058C6.21586 30.1927 13.1161 34.0661 24.6621 33.4849L24.6119 32.4861C13.3289 33.0541 6.85668 29.2822 3.63922 23.4244C0.391567 17.5115 0.379275 9.33739 2.35711 0.96112L1.38387 0.731315Z" fill="white"/>
</svg>
