<svg width="42" height="33" viewBox="0 0 42 33" fill="none" xmlns="http://www.w3.org/2000/svg">
<path d="M19.324 10.608C19.3 9.864 19.108 9.336 18.748 9.024C18.388 8.688 17.752 8.52 16.84 8.52H11.728C9.904 8.52 8.416 8.352 7.264 8.016C6.136 7.656 5.248 7.116 4.6 6.396C4.144 5.892 3.808 5.304 3.592 4.632C3.4 3.936 3.304 3.144 3.304 2.256C3.304 1.896 3.316 1.572 3.34 1.284C3.364 0.971998 3.412 0.599998 3.484 0.167998L7.984 0.455998C7.96 0.671999 7.936 0.863998 7.912 1.032C7.912 1.2 7.912 1.356 7.912 1.5C7.912 2.004 7.96 2.46 8.056 2.868C8.176 3.252 8.368 3.576 8.632 3.84C8.896 4.08 9.232 4.26 9.64 4.38C10.048 4.5 10.708 4.56 11.62 4.56H16.876C18.292 4.56 19.408 4.668 20.224 4.884C21.064 5.1 21.772 5.484 22.348 6.036C22.804 6.492 23.152 7.092 23.392 7.836C23.656 8.556 23.8 9.48 23.824 10.608H19.324ZM28.036 10.608V14.568H15.508V19.212C15.508 19.572 15.568 19.884 15.688 20.148C15.808 20.388 16.06 20.508 16.444 20.508C16.756 20.508 17.092 20.4 17.452 20.184C17.812 19.944 18.172 19.62 18.532 19.212C18.916 18.78 19.3 18.3 19.684 17.772L23.896 16.98C24.712 18.156 25.324 19.344 25.732 20.544C26.14 21.72 26.344 22.992 26.344 24.36C26.344 25.872 25.972 27.228 25.228 28.428C24.508 29.604 23.416 30.54 21.952 31.236C20.512 31.932 18.724 32.28 16.588 32.28C15.004 32.28 13.48 32.052 12.016 31.596C10.552 31.14 9.172 30.372 7.876 29.292C6.604 28.188 5.428 26.688 4.348 24.792C3.292 22.872 2.368 20.472 1.576 17.592L6.076 16.332C6.868 19.188 7.768 21.492 8.776 23.244C9.784 24.972 10.9 26.232 12.124 27.024C13.372 27.792 14.728 28.176 16.192 28.176C17.92 28.176 19.252 27.792 20.188 27.024C21.148 26.232 21.628 25.14 21.628 23.748C21.628 22.812 21.46 22.044 21.124 21.444C20.788 20.844 20.404 20.28 19.972 19.752L23.644 19.464C22.78 20.616 21.904 21.564 21.016 22.308C20.128 23.052 19.228 23.604 18.316 23.964C17.428 24.324 16.504 24.504 15.544 24.504C14.776 24.504 14.092 24.396 13.492 24.18C12.892 23.94 12.388 23.592 11.98 23.136C11.572 22.68 11.26 22.092 11.044 21.372C10.852 20.652 10.756 19.728 10.756 18.6V14.568H0.64V10.608H28.036ZM29.9876 15.936C29.9876 14.88 30.2276 13.956 30.7076 13.164C31.2116 12.372 31.8836 11.748 32.7236 11.292C33.5636 10.836 34.5116 10.608 35.5676 10.608C36.6236 10.608 37.5716 10.836 38.4116 11.292C39.2516 11.748 39.9116 12.372 40.3916 13.164C40.8956 13.956 41.1476 14.88 41.1476 15.936C41.1476 16.992 40.8956 17.928 40.3916 18.744C39.9116 19.536 39.2516 20.16 38.4116 20.616C37.5716 21.072 36.6236 21.3 35.5676 21.3C34.5116 21.3 33.5636 21.084 32.7236 20.652C31.8836 20.196 31.2116 19.56 30.7076 18.744C30.2276 17.928 29.9876 16.992 29.9876 15.936ZM33.6236 15.936C33.6236 16.512 33.8036 16.992 34.1636 17.376C34.5476 17.736 35.0156 17.916 35.5676 17.916C36.1196 17.916 36.5756 17.736 36.9356 17.376C37.3196 16.992 37.5116 16.512 37.5116 15.936C37.5116 15.384 37.3196 14.928 36.9356 14.568C36.5756 14.184 36.1196 13.992 35.5676 13.992C35.0156 13.992 34.5476 14.184 34.1636 14.568C33.8036 14.928 33.6236 15.384 33.6236 15.936ZM29.9876 27.636C29.9876 26.58 30.2276 25.656 30.7076 24.864C31.2116 24.072 31.8836 23.448 32.7236 22.992C33.5636 22.536 34.5116 22.308 35.5676 22.308C36.6236 22.308 37.5716 22.536 38.4116 22.992C39.2516 23.448 39.9116 24.072 40.3916 24.864C40.8956 25.656 41.1476 26.58 41.1476 27.636C41.1476 28.692 40.8956 29.628 40.3916 30.444C39.9116 31.236 39.2516 31.86 38.4116 32.316C37.5716 32.772 36.6236 33 35.5676 33C34.5116 33 33.5636 32.784 32.7236 32.352C31.8836 31.896 31.2116 31.26 30.7076 30.444C30.2276 29.628 29.9876 28.692 29.9876 27.636ZM33.6236 27.636C33.6236 28.212 33.8036 28.692 34.1636 29.076C34.5476 29.436 35.0156 29.616 35.5676 29.616C36.1196 29.616 36.5756 29.436 36.9356 29.076C37.3196 28.692 37.5116 28.212 37.5116 27.636C37.5116 27.084 37.3196 26.628 36.9356 26.268C36.5756 25.884 36.1196 25.692 35.5676 25.692C35.0156 25.692 34.5476 25.884 34.1636 26.268C33.8036 26.628 33.6236 27.084 33.6236 27.636Z" fill="#EDE0E3"/>
</svg>
