<svg width="36" height="25" viewBox="0 0 36 25" fill="none" xmlns="http://www.w3.org/2000/svg">
<path d="M35.68 0.119998V4.52H22.64V6.92L22.72 8.56V25H17.44C16.4533 23.56 15.2533 22.2933 13.84 21.2C12.4533 20.1067 10.9067 19.2 9.2 18.48C7.49333 17.7333 5.64 17.2 3.64 16.88L1.64 12.16C4.09333 10.8 6.77333 9.49333 9.68 8.24C12.6133 6.96 15.4933 5.94667 18.32 5.2L17.56 6.36V4.52H0.6V0.119998H35.68ZM17.44 9.04L18.28 9.92C17.1067 10.2667 15.9733 10.64 14.88 11.04C13.8133 11.44 12.7467 11.88 11.68 12.36C10.6133 12.8133 9.50667 13.32 8.36 13.88C9.45333 14.0933 10.5867 14.4667 11.76 15C12.96 15.5067 14.12 16.1733 15.24 17C16.3867 17.8267 17.4133 18.7867 18.32 19.88L17.6 20.32C17.5733 19.84 17.5333 19.3067 17.48 18.72C17.4533 18.1333 17.44 17.5067 17.44 16.84V9.04ZM34 14.68C34 15.56 33.8133 16.4 33.44 17.2C33.0933 18 32.48 18.6533 31.6 19.16C30.72 19.6667 29.4933 19.92 27.92 19.92C27.36 19.92 26.84 19.9067 26.36 19.88C25.9067 19.8267 25.48 19.76 25.08 19.68L25.24 15.28C25.3733 15.3067 25.5333 15.3333 25.72 15.36C25.9333 15.36 26.2 15.36 26.52 15.36C27.48 15.36 28.1067 15.2 28.4 14.88C28.6933 14.5333 28.84 14.12 28.84 13.64C28.84 12.7333 28.2667 11.9333 27.12 11.24C25.9733 10.5467 24.2933 10.0133 22.08 9.64V5.28C24.2667 5.57333 26.2533 6.13333 28.04 6.96C29.8533 7.76 31.2933 8.81333 32.36 10.12C33.4533 11.4 34 12.92 34 14.68Z" fill="#EDE0E3"/>
</svg>
