<svg width="24" height="24" viewBox="0 0 24 24" fill="none" xmlns="http://www.w3.org/2000/svg">
    <mask id="mask0_3780_31411" style="mask-type:alpha" maskUnits="userSpaceOnUse" x="0" y="0" width="24" height="24">
        <rect width="24" height="24" fill="#D9D9D9"/>
    </mask>
    <g mask="url(#mask0_3780_31411)">
        <path d="M3.99998 8.40385H20V6.3077C20 6.23077 19.9679 6.16024 19.9038 6.09613C19.8397 6.03203 19.7692 5.99998 19.6923 5.99998H4.3077C4.23077 5.99998 4.16024 6.03203 4.09613 6.09613C4.03202 6.16024 3.99998 6.23077 3.99998 6.3077V8.40385ZM2.5 6.3077C2.5 5.80257 2.675 5.375 3.025 5.025C3.375 4.675 3.80257 4.5 4.3077 4.5H19.6923C20.1974 4.5 20.625 4.675 20.975 5.025C21.325 5.375 21.5 5.80257 21.5 6.3077V10.6923C21.5 10.95 21.4137 11.165 21.2413 11.3375C21.0688 11.5099 20.8538 11.5961 20.5961 11.5961H3.99998V17.6923C3.99998 17.7692 4.03202 17.8397 4.09613 17.9038C4.16024 17.9679 4.23077 18 4.3077 18H7.93657C8.14939 18 8.32759 18.0718 8.47118 18.2154C8.61476 18.3589 8.68655 18.5371 8.68655 18.75C8.68655 18.9628 8.61476 19.141 8.47118 19.2846C8.32759 19.4282 8.14939 19.5 7.93657 19.5H4.3077C3.80257 19.5 3.375 19.325 3.025 18.975C2.675 18.625 2.5 18.1974 2.5 17.6923V6.3077ZM3.99998 6.3077V18V14.4057V16.0365V5.99998V6.3077ZM14.7961 20.9076C14.682 20.9076 14.5715 20.8858 14.4644 20.8422C14.3574 20.7986 14.257 20.7301 14.1634 20.6365L11.4192 17.8923C11.2808 17.7538 11.2074 17.5823 11.199 17.3778C11.1907 17.1733 11.2641 16.9935 11.4192 16.8384C11.5641 16.6936 11.7371 16.6211 11.9384 16.6211C12.1397 16.6211 12.3179 16.6936 12.473 16.8384L14.7961 19.1308L19.9231 14.0038C20.0718 13.8551 20.2484 13.7817 20.4529 13.7836C20.6573 13.7855 20.8371 13.8641 20.9923 14.0192C21.1371 14.1743 21.2121 14.35 21.2173 14.5461C21.2224 14.7423 21.1474 14.9179 20.9923 15.073L15.4288 20.6365C15.3352 20.7301 15.2365 20.7986 15.1327 20.8422C15.0288 20.8858 14.9166 20.9076 14.7961 20.9076Z" fill="#691A1E"/>
    </g>
</svg>
