<svg width="80" height="73" viewBox="0 0 80 73" fill="none" xmlns="http://www.w3.org/2000/svg">
<path d="M79.2729 50.8018C79.3881 49.3733 79.996 47.9475 79.9986 46.519C80.0012 44.5536 80.0274 42.5544 79.6685 40.6124C79.4851 39.6167 79.4039 38.6679 79.8755 37.7347C79.9541 37.5809 79.5558 37.3697 79.5296 37.1951C79.3829 36.2124 79.3252 35.2297 79.3226 34.2366C79.3226 33.2669 79.4615 32.2868 79.1733 31.3302C79.1471 31.2415 79.1497 31.1425 79.1366 31.0486C79.0999 30.7515 79.1052 30.4413 79.0187 30.1572C78.5681 28.6401 77.845 27.2039 77.5725 25.6294C77.562 25.5747 77.5411 25.5043 77.5018 25.4757C77.1062 25.1811 77.0747 24.7197 76.9359 24.3079C76.6791 23.5467 76.404 22.7908 76.1735 22.0219C75.7202 20.51 75.584 18.9408 75.3429 17.3925C75.2931 17.0719 75.3062 16.7356 75.2119 16.428C74.9709 15.6434 74.6879 14.8745 74.4233 14.0977C74.3866 13.9908 74.3552 13.8787 74.3395 13.7666C74.1797 12.7474 74.0382 11.7282 73.8626 10.7117C73.784 10.2607 73.6871 9.80715 73.5247 9.37966C72.8618 7.64104 72.0287 5.98061 70.944 4.45312C70.5667 3.92137 70.1528 3.40264 69.6786 2.95691C69.2306 2.53724 68.7013 2.19056 68.1721 1.86473C66.9276 1.09577 65.5181 0.736052 64.1033 0.418042C63.4955 0.282497 62.8588 0.266857 62.2588 0.118278C61.6091 -0.0433334 60.9751 -0.0329066 60.3437 0.110459C59.7542 0.243397 59.1647 0.397189 58.5988 0.603113C57.7918 0.895057 57.0058 1.24435 56.2146 1.57278C56.1255 1.60928 56.0496 1.67444 55.9736 1.7344C55.3736 2.19316 54.7553 2.63108 54.1841 3.12113C53.2855 3.8953 52.4471 4.72942 51.8655 5.76947C51.5642 6.30644 51.2655 6.84341 50.938 7.36473C50.5607 7.96687 50.0498 8.51166 49.7878 9.15549C49.5232 9.80194 48.9757 9.9036 48.4674 10.1304C48.2368 10.232 47.9853 10.2894 47.7469 10.378C47.5085 10.4666 47.3041 10.4354 47.0762 10.3181C46.4919 10.0131 46.0623 9.51 45.4361 9.2363C44.8518 8.98085 44.3619 8.52469 43.8222 8.15194C43.4606 8.15194 43.0729 8.178 42.6878 8.14412C42.3786 8.11545 42.0825 7.98511 41.7734 7.95123C40.6206 7.82611 39.625 8.18322 38.7578 8.91829C38.6452 9.01213 38.5194 9.13204 38.3858 9.15289C37.8015 9.24412 37.3273 9.52564 36.8714 9.86971C36.7221 9.9818 36.5413 10.0678 36.3632 10.1278C35.454 10.4301 34.5449 10.7325 33.6306 11.014C33.0777 11.1835 32.5747 11.5249 31.9276 11.5067C31.8726 11.3581 31.8071 11.2226 31.773 11.0766C31.6604 10.5918 31.5241 10.1095 31.456 9.61948C31.2831 8.35526 30.6805 7.32824 29.7216 6.48369C29.6404 6.41071 29.5198 6.35857 29.4098 6.34554C29.1976 6.31686 28.967 6.27776 28.7679 6.32729C28.2203 6.46023 27.6833 6.64009 27.1383 6.79388C26.6143 6.94246 26.0877 7.1953 25.5585 7.20312C23.9577 7.22658 22.3962 7.45336 20.8556 7.85218C20.7089 7.89128 20.5098 7.93819 20.4469 8.04507C20.2688 8.35004 20.0068 8.2953 19.7317 8.30312C18.9483 8.32658 18.1545 8.30834 17.3842 8.42564C16.0061 8.63417 14.9529 9.40834 14.0726 10.4327C13.9416 10.5865 13.787 10.7899 13.6115 10.829C12.946 10.9775 12.4037 11.3555 11.8115 11.6396C10.9024 12.0749 10.2265 12.8022 9.4562 13.4095C8.70427 14.0038 8.06762 14.7155 7.53577 15.487C7.05107 16.1934 6.65546 16.9754 6.3201 17.7626C5.93759 18.6541 5.34023 19.4674 5.21709 20.4605C5.20923 20.5335 5.16995 20.6065 5.13065 20.6742C4.81887 21.2242 4.52019 21.7768 4.04336 22.2226C3.67918 22.564 3.33858 22.9342 3.00847 23.3095C2.90105 23.4321 2.77268 23.6302 2.80674 23.7553C2.88272 24.029 2.71765 24.1932 2.61285 24.3887C2.29846 24.983 1.85832 25.5408 1.67754 26.1716C1.22429 27.7539 0.826047 29.3543 0.522131 30.9705C0.294195 32.1878 0.212976 33.4363 0.129138 34.6745C0.0426789 35.9908 -0.0201925 37.3124 0.00600712 38.6288C0.0269668 39.6949 0.192015 40.761 0.291574 41.8271C0.414712 43.1252 0.637419 44.3999 1.08805 45.6354C1.55178 46.9074 2.17532 48.1065 2.99275 49.1752C3.8783 50.3352 4.8372 51.456 6.06858 52.3032C6.30438 52.4648 6.57948 52.5769 6.84147 52.702C6.88601 52.7228 6.95151 52.7046 7.02487 52.7046C7.03273 52.5821 7.03797 52.4752 7.04059 52.4231C7.75584 52.3319 8.45014 52.251 9.14443 52.152C9.49812 52.0999 9.8387 52.0529 10.1636 52.2719C10.25 52.3292 10.3863 52.3371 10.4963 52.3292C11.0413 52.298 11.1487 52.3423 11.2456 52.8714C11.4447 53.961 11.6098 55.0584 11.7853 56.1532C11.9137 56.9638 12.0238 57.7771 12.1548 58.5852C12.3277 59.6435 12.9591 60.5219 13.373 61.4838C13.8918 62.6932 14.5677 63.8402 15.1336 65.034C15.6 66.0219 15.9877 67.0437 16.4515 68.0342C16.6008 68.3522 16.8785 68.6155 17.1038 68.8996C17.2584 69.0951 17.4549 69.2646 17.5755 69.4757C17.9187 70.0778 18.4924 70.3489 19.1238 70.4819C20.1273 70.6904 21.1465 70.5992 22.1604 70.5262C22.5874 70.4949 23.0197 70.474 23.4337 70.3828C23.9472 70.2681 24.445 70.0857 24.9506 69.9293C25.1733 69.8589 25.3908 69.7677 25.6161 69.7103C26.127 69.58 26.5121 69.262 26.9025 68.9413C27.3924 68.5373 27.94 68.1854 28.3723 67.7293C29.2867 66.7674 30.146 65.7508 31.0211 64.7551C31.0944 64.6691 31.1442 64.5622 31.1966 64.4605C31.3171 64.2233 31.4141 63.9731 31.5529 63.7463C31.9381 63.1051 32.318 62.4586 32.7424 61.8409C33.0673 61.3691 33.4603 60.9416 33.814 60.4854C33.9764 60.2743 34.1493 60.0553 34.2567 59.8155C34.4427 59.3985 34.5816 58.9605 34.744 58.533C34.8724 58.1942 35.0008 57.8527 35.1397 57.5165C35.4043 56.883 35.7265 56.2679 35.9361 55.6162C36.3344 54.3781 36.6566 53.1138 37.2749 51.9513C37.3928 51.7323 37.5081 51.5056 37.5841 51.271C37.6391 51.0989 37.6758 50.8956 37.6365 50.7236C37.5395 50.3039 37.5107 50.2909 37.8854 50.1136C38.5744 49.7878 39.2739 49.488 39.9682 49.1726C41.2258 48.5965 42.5201 48.0856 43.6781 47.3141C43.7515 47.2645 43.8536 47.2619 43.9532 47.2333C44.1078 47.4965 44.0266 47.7285 43.9899 47.9735C43.8982 48.6148 43.7646 49.2638 43.7986 49.9025C43.8222 50.356 43.851 50.8044 43.8248 51.2605C43.7541 52.4048 43.6257 53.5387 43.3532 54.6544C43.2406 55.1183 43.1043 55.5797 43.0205 56.0489C42.7664 57.4617 42.5122 58.8719 42.3026 60.2899C42.169 61.1944 42.0721 62.1094 42.0275 63.0243C41.983 63.9366 41.9358 64.8515 42.0799 65.7665C42.19 66.4781 42.1402 67.2105 42.2581 67.9221C42.3943 68.7615 42.5044 69.6034 43.0546 70.3489C43.6755 71.1909 44.4064 71.8347 45.4204 72.1267C46.9426 72.562 48.4517 73.0807 50.076 72.9895C50.6813 72.9556 51.2996 72.9764 51.8864 72.8591C53.0759 72.6193 54.247 72.3091 55.3867 71.8738C57.3805 71.1101 59.314 70.2369 61.1558 69.1681C61.2868 69.0925 61.4414 68.9961 61.5803 68.9987C61.9025 69.0039 62.1357 68.8449 62.3898 68.6963C63.2937 68.1646 64.1767 67.6041 65.1775 67.2366C65.8482 66.989 66.4717 66.6162 67.1058 66.2748C67.7738 65.915 68.4027 65.4797 69.0943 65.1748C69.6393 64.935 70.2078 64.7342 70.7606 64.497C71.5623 64.153 72.1387 63.5639 72.7465 63.0086C73.4854 62.3361 74.198 61.6271 74.8792 60.8973C75.563 60.1648 76.2101 59.4011 76.8468 58.6295C77.5699 57.7537 77.9314 56.6875 78.4056 55.684C79.0606 54.2999 79.5532 52.8845 79.2388 51.3205C79.2074 51.1589 79.2598 50.979 79.2729 50.807V50.8018ZM78.5288 32.2686C78.4895 32.3285 78.4607 32.3702 78.4345 32.4119C78.3978 32.3806 78.3375 32.352 78.3323 32.3181C78.3271 32.2738 78.369 32.2269 78.3926 32.1799C78.4345 32.206 78.4764 32.2321 78.5288 32.2686ZM78.3664 31.6821C78.3349 31.6768 78.3061 31.6742 78.2746 31.669C78.2877 31.5752 78.2982 31.4814 78.3113 31.3849C78.3428 31.3901 78.3768 31.3927 78.4083 31.3979C78.3952 31.4918 78.3795 31.5856 78.3664 31.6795V31.6821ZM78.1541 30.4986C78.2275 30.7671 78.2799 30.9522 78.3297 31.1399C77.9603 31.0096 78.0258 30.8036 78.1541 30.4986ZM74.4102 18.701L74.5307 18.6932C74.5465 18.8131 74.5648 18.933 74.5805 19.0529C74.5229 19.0555 74.4678 19.0581 74.4102 19.0633V18.701ZM74.9001 20.7524C74.536 20.4083 74.4574 20.0929 74.5648 19.4022C74.7823 19.728 74.9001 20.205 74.9001 20.7524ZM74.3814 17.9425C74.3866 18.0259 74.3919 18.1067 74.3997 18.1901L74.3054 18.2057C74.2819 18.1223 74.2583 18.0389 74.2347 17.9555L74.3814 17.9425ZM51.5642 10.0079C51.6611 10.1851 51.6847 10.3754 51.4987 10.4979C51.255 10.6569 51.0061 10.8915 50.6682 10.6856C50.7703 10.1929 50.8909 10.1017 51.5668 10.0105L51.5642 10.0079ZM50.1389 10.4588C50.5031 10.8681 49.5992 11.0922 50.0629 11.4858C50.9118 11.0974 51.7659 10.7038 52.675 10.2868C52.5624 10.1643 52.4838 10.0809 52.3921 9.97919C52.5702 9.68725 52.7798 9.84886 52.9842 9.94009C52.9397 9.78891 52.8951 9.63772 52.8506 9.48654C53.034 9.46047 53.2252 9.38488 53.3955 9.42137C53.7283 9.48914 54.1475 9.95312 54.2889 10.3389C54.0269 10.5344 53.7702 10.4301 53.5318 10.305C53.3274 10.1981 53.1414 10.0548 52.9475 9.92966C53.1309 10.1512 53.3091 10.3754 53.4951 10.5944C53.6156 10.7351 53.7466 10.8654 53.8697 10.9958C54.0138 10.9098 54.1055 10.8394 54.2077 10.7977C54.6269 10.6309 54.7422 10.6595 54.9806 11.0271C55.4103 11.6865 55.8295 12.3512 56.2487 13.0159C56.2984 13.0941 56.3246 13.1828 56.3928 13.3392C55.9369 13.274 55.8085 12.9273 55.5858 12.7031C55.3579 12.4764 55.1378 12.2444 54.8706 12.0463C54.8391 12.3564 55.0906 12.4998 55.2452 12.6927C55.6173 13.1567 56.0522 13.579 56.3535 14.082C56.7674 14.7676 57.1028 15.5001 57.4303 16.2325C57.8888 17.2647 58.3001 18.3126 58.7455 19.3501C58.8346 19.556 58.9787 19.7358 59.0966 19.9287C59.0913 19.9235 59.0861 19.9183 59.0808 19.9131C59.3114 20.411 59.5419 20.9088 59.7725 21.4067C59.7673 21.4119 59.762 21.4171 59.7568 21.4223C59.7647 21.4223 59.7725 21.4223 59.7804 21.4223C59.7804 21.4223 59.7804 21.4275 59.783 21.4302C59.783 21.4302 59.783 21.4249 59.783 21.4223C59.9926 21.4354 60.1838 21.4927 60.0502 21.7534C59.9297 21.9854 60.0267 22.1522 60.1262 22.3425C60.755 23.5363 61.0275 24.837 61.2868 26.1351C61.41 26.7451 61.4545 27.3524 61.279 27.9963C61.1637 28.4159 61.148 28.9008 61.258 29.3908C61.3943 30.0086 61.52 30.6603 61.3628 31.3171C61.3183 31.5022 61.3969 31.7316 61.4703 31.9219C61.6039 32.2686 61.5436 32.5918 61.4336 32.9228C61.3733 33.1053 61.334 33.2956 61.2711 33.5406C60.9882 33.551 60.7733 33.7596 60.5925 34.0463C60.3908 34.3669 60.1419 34.6588 59.9166 34.9638C59.8563 34.9247 59.7987 34.8987 59.8013 34.8856C60.0031 34.1245 59.5813 33.3503 59.8616 32.5918C59.6861 32.0079 59.8302 31.4292 59.8616 30.8453C59.8826 30.4491 59.8275 30.0503 59.8223 29.6515C59.7935 27.8347 59.6284 26.0335 59.1332 24.274C58.8215 23.1714 58.3001 22.147 57.7578 21.1408C57.6137 20.8749 57.2783 20.7055 57.0242 20.4996C56.7229 20.2546 56.4032 20.3614 56.0757 20.4527C55.7378 20.5465 55.3867 20.5986 55.054 20.7003C54.7474 20.7941 54.5274 20.7524 54.3518 20.4735C53.9117 19.7749 53.4348 19.0972 53.013 18.3882C52.4445 17.4316 51.9467 16.4332 51.3598 15.487C50.7441 14.4939 50.0577 13.5425 49.4001 12.5728C49.3346 12.4764 49.2612 12.3851 49.2115 12.2809C49.0307 11.8899 48.7373 11.5249 48.3626 11.2643C48.8944 10.8394 49.5337 10.6856 50.1363 10.4562L50.1389 10.4588ZM62.0676 11.8482C61.7113 11.9889 61.3576 12.1505 60.9855 12.2496C60.5192 12.3747 60.3777 12.2861 60.1524 11.8586C59.8642 11.3216 59.5839 10.7794 59.2799 10.2503C59.1096 9.95573 58.9001 9.68203 58.6486 9.3145C58.8346 8.3344 59.5341 7.49506 59.9769 6.51236C60.4144 6.83559 60.5664 7.23961 60.7288 7.66971C61.1218 8.70976 61.7113 9.65858 62.3322 10.5865C62.5339 10.8863 62.72 11.1991 62.906 11.4884C62.6047 11.6188 62.3374 11.7387 62.0676 11.8455V11.8482ZM64.0614 18.1979C64.3443 19.1285 64.2815 20.0903 64.3024 21.0418C64.3077 21.3181 64.0902 21.4249 63.8099 21.5918C63.7024 21.4171 63.5924 21.2998 63.5557 21.1643C63.3907 20.5621 63.2623 19.9496 63.0894 19.3501C62.8981 18.6749 62.6807 18.0076 62.4632 17.3377C62.2274 16.6131 62.0021 15.8858 61.7323 15.1716C61.5384 14.6581 61.2764 14.1707 61.0537 13.665C60.9567 13.4434 60.886 13.2114 60.7786 12.9117C61.258 12.6979 61.693 12.505 62.1907 12.2835C62.2772 12.5155 62.3584 12.7005 62.4187 12.8934C62.9689 14.6607 63.5217 16.428 64.0614 18.1979ZM58.9734 11.6553C59.1987 12.2183 59.5577 12.7448 59.5603 13.3861C59.5603 13.5086 59.6494 13.6415 59.7227 13.751C60.3489 14.6711 60.6947 15.7112 61.0248 16.746C61.727 18.9565 62.4003 21.1747 63.0501 23.4008C63.3828 24.5399 63.6448 25.6972 63.9252 26.852C63.9907 27.1257 64.0142 27.4098 64.0509 27.6887C64.0588 27.7434 64.0509 27.8112 64.0247 27.8529C63.6763 28.3534 63.3173 28.846 62.7566 29.2449C62.5994 28.7209 62.4501 28.2622 62.5837 27.7877C62.6545 27.5375 62.6702 27.3707 62.4449 27.183C62.3479 27.1022 62.2877 26.8467 62.3453 26.7373C62.5313 26.3854 62.4554 26.083 62.3113 25.752C62.2379 25.5851 62.2038 25.3818 62.2169 25.1994C62.2589 24.5659 62.1095 23.9534 62.0361 23.333C61.9366 22.4858 61.6536 21.7117 61.2659 20.961C61.2056 20.8463 61.1873 20.7081 61.1585 20.5804C61.1192 20.4136 61.1192 20.2311 61.051 20.0773C60.7183 19.3266 60.3699 18.5811 60.024 17.8356C59.7751 17.296 59.5079 16.7617 59.2721 16.2169C58.4783 14.4027 57.4276 12.724 56.3456 11.0688C55.9421 10.4484 56.1989 10.3311 56.6338 10.1017C57.1971 9.80194 57.9595 9.9844 58.3315 10.5083C58.5857 10.8654 58.811 11.2564 58.9734 11.6605V11.6553ZM66.8569 30.8219C66.7888 31.02 66.5268 31.0278 66.1731 30.8088C65.8875 31.2859 65.2037 30.9861 64.9731 31.4162C64.4125 31.3901 63.8701 31.3641 63.2728 31.3354C63.223 31.2754 63.1182 31.1607 63.0344 31.0356C62.7514 30.6107 62.8719 30.0607 63.3173 29.7975C63.8492 29.4847 64.3312 29.1302 64.7504 28.6688C65.0255 28.3664 65.3556 28.1031 65.6438 27.8034C65.8901 27.5505 66.2333 27.3889 66.6158 27.1309C66.684 27.4411 66.7285 27.6574 66.7809 27.8738C66.8516 28.1683 66.9538 28.4603 66.9957 28.7574C67.0508 29.1693 67.1163 29.5915 67.0691 29.9956C67.0455 30.1989 66.7809 30.3735 66.6001 30.5951C66.6761 30.6629 66.7678 30.7437 66.8569 30.8219ZM64.6535 31.7837H63.878C64.14 31.5882 64.3993 31.497 64.6535 31.7837ZM59.7804 21.4015C59.762 21.2607 59.7437 21.1226 59.7254 20.9818C59.969 21.1382 59.9271 21.2764 59.7804 21.4015ZM59.0966 19.9313C59.0153 19.642 58.9577 19.3448 58.8477 19.0659C58.5097 18.1953 58.156 17.3299 57.8023 16.4671C57.7525 16.3472 57.6634 16.2403 57.6032 16.123C57.5089 15.9301 57.4224 15.732 57.3333 15.5392C57.3753 15.5131 57.4198 15.487 57.4617 15.4583C57.556 15.5574 57.6792 15.6434 57.7394 15.7581C57.9883 16.2534 58.232 16.7512 58.4468 17.2595C58.8582 18.224 59.2485 19.1989 59.6441 20.1711C59.6834 20.265 59.6887 20.3745 59.7332 20.5726C59.4712 20.3093 59.2826 20.119 59.0966 19.9313ZM57.7813 23.3278C56.9534 23.0332 56.5133 22.0375 56.8984 21.3337C57.2652 21.9776 57.5979 22.5953 57.7813 23.3278ZM40.6128 8.75928C40.6835 8.68891 40.7909 8.64459 40.8931 8.64459H41.6712C41.7786 8.64459 41.8729 8.68891 41.9515 8.75928C42.0301 8.82966 42.0616 8.93654 42.0668 9.0382C42.0721 9.13725 42.0197 9.24933 41.9515 9.31711C41.8808 9.38748 41.7734 9.4318 41.6712 9.4318H40.8931C40.7857 9.4318 40.6914 9.38748 40.6128 9.31711C40.5342 9.24673 40.5001 9.13985 40.4975 9.0382C40.4922 8.93914 40.5446 8.82706 40.6128 8.75928ZM37.1806 11.0974C37.1623 11.0505 37.1492 11.001 37.1465 10.9489C37.1361 10.7351 37.3352 10.5553 37.5422 10.5553H39.0355C39.1063 10.5553 39.1692 10.5787 39.2242 10.6126C39.2818 10.6152 39.3421 10.6204 39.3997 10.623C39.3761 10.6517 39.3552 10.6778 39.3316 10.7012C39.3892 10.769 39.4259 10.855 39.4311 10.9489C39.4416 11.1626 39.2425 11.3425 39.0355 11.3425H37.5422C37.4452 11.3425 37.3614 11.3034 37.2933 11.246C37.157 11.2382 37.0286 11.2304 36.8557 11.22C37.0103 11.147 37.0994 11.1053 37.178 11.0974H37.1806ZM37.3588 12.3982C36.9108 13.2922 36.1326 13.4382 35.2392 12.7657C35.8575 12.2365 36.654 12.1062 37.3588 12.3982ZM31.8254 12.8048C31.8306 12.2678 32.1712 12.0436 32.6454 11.9055C33.3974 11.6865 34.1388 11.4337 34.8881 11.2069C35.1265 11.1365 35.3781 11.1079 35.7475 11.0349C35.6165 11.2147 35.5719 11.3086 35.5012 11.3711C35.1292 11.7074 34.7676 12.0567 34.3694 12.3617C34.1938 12.4946 33.9423 12.5311 33.7747 12.5937C33.6672 12.9247 33.6017 13.2166 33.4786 13.4877C33.3319 13.8136 33.0673 14.0117 32.6978 14.1107C32.2839 14.2202 31.8726 14.361 31.4874 14.5382C30.6674 14.9188 30.3556 15.6538 30.1513 16.4541C30.0674 16.7825 29.9626 17.1083 29.8893 17.4368C29.8578 17.5723 29.884 17.7209 29.884 17.7939C29.6037 17.8929 29.381 17.9659 29.1635 18.0493C28.7496 18.2057 28.3382 18.37 27.8797 18.5472C27.8928 18.4273 27.8797 18.3674 27.9059 18.3283C28.3618 17.6297 28.4483 16.8555 28.354 16.0657C28.3147 15.7268 28.4195 15.5783 28.7129 15.4531C28.9015 15.3723 29.0797 15.2368 29.2186 15.0856C29.4072 14.8797 29.4963 14.632 29.3915 14.3401C29.3443 14.2098 29.3522 14.0638 29.3207 13.8214C29.491 13.9439 29.5696 13.9908 29.6404 14.0482C30.0491 14.3818 30.2377 14.3792 30.6595 14.0586C30.9058 13.8735 31.1652 13.7041 31.4167 13.5268C31.6682 13.347 31.8176 13.1072 31.8228 12.8022L31.8254 12.8048ZM33.3293 15.0569C34.0498 14.9136 34.8724 14.997 35.4541 15.3046C35.0584 15.5913 34.6943 15.9041 34.2463 15.9745C33.9685 16.0188 33.6515 15.8389 33.3581 15.7451C33.138 15.6747 32.9232 15.5809 32.6586 15.4818C32.7896 15.156 33.0646 15.1117 33.3319 15.0595L33.3293 15.0569ZM31.7861 15.3332C32.0507 15.1377 32.3153 14.9631 32.7738 15.0465C32.4175 15.2837 32.1634 15.487 31.7861 15.3332ZM36.6697 28.3143C36.6828 28.4133 36.5728 28.502 36.4811 28.502C36.371 28.502 36.3055 28.4159 36.2924 28.3143C36.1588 27.3055 35.7056 26.3671 35.813 25.3271C35.8366 25.0899 36.2112 25.0873 36.1876 25.3271C36.0828 26.3567 36.5361 27.3081 36.6671 28.3143H36.6697ZM37.4505 32.1695C38.1369 35.3731 37.9823 38.707 37.419 41.9209C36.9867 44.392 36.1641 47.3897 34.2253 49.1361C32.4359 50.7496 29.3286 50.8565 27.078 50.3925C26.4781 50.2674 26.2004 49.8451 26.1742 49.3864C23.9262 48.0074 22.6241 45.088 22.4512 42.351C22.3045 41.569 22.2442 40.774 22.1656 40.1458C21.8041 37.2472 21.8617 34.5337 22.4276 31.656C23.1507 27.965 24.576 21.3624 29.3836 21.0678C29.829 20.6977 30.4787 20.6169 30.9739 21.1825C31.0499 21.2685 31.1206 21.3572 31.1966 21.4432C31.3224 21.4875 31.4429 21.5605 31.5582 21.6543C32.0481 21.4901 32.5957 21.6178 32.8708 22.2408C33.6594 24.0159 34.896 25.5095 35.7815 27.2273C36.578 28.7731 37.0889 30.4752 37.4505 32.1669V32.1695ZM30.4709 52.225C30.2089 52.2693 30.0753 52.3266 29.9679 52.298C29.8683 52.2693 29.8002 52.1468 29.719 52.0634C29.8395 52.0008 29.9652 51.8861 30.0831 51.8913C30.1801 51.8965 30.2718 52.0425 30.4735 52.225H30.4709ZM26.258 50.8617C26.1427 50.8435 26.0091 50.8617 25.9384 50.8044C25.5978 50.5281 25.2467 50.2518 24.948 49.9337C24.6729 49.6418 24.4528 49.2977 24.2223 48.9667C24.1018 48.7946 23.9891 48.6122 23.9184 48.4167C23.8607 48.2551 24.0389 48.1065 24.1358 48.1977C24.5079 48.5496 25.1367 48.4532 25.4196 48.9302C25.4668 49.011 25.5113 49.0918 25.5585 49.1726C25.5349 49.2039 25.5113 49.2352 25.4877 49.2664C25.3593 49.2143 25.231 49.1622 25.1026 49.1127C25.4301 49.7356 26.2265 50.0198 26.258 50.8617ZM23.1822 47.5356C22.8049 47.3532 22.7865 47.3089 22.8625 46.7693C22.949 46.8032 23.0616 46.8084 23.1009 46.8657C23.2372 47.0586 23.2477 47.2359 23.1822 47.5382V47.5356ZM17.2558 45.6458C17.2794 45.5937 17.303 45.539 17.3108 45.4842C17.5204 44.1314 18.0575 42.8802 18.571 41.6212C18.6889 41.3318 18.6549 40.9825 19.0112 40.7036C19.1527 41.2927 19.2575 41.8323 19.412 42.3589C19.7579 43.5449 19.9282 44.7856 20.6172 45.8622C20.8583 46.2401 20.7954 46.4826 20.3736 46.7067C19.2051 47.3245 18.0235 47.9214 16.8366 48.5079C16.3834 48.7321 15.9065 48.9119 15.4376 49.1022C15.3223 49.1491 15.1913 49.1544 15.0681 49.1778C15.0393 49.1335 15.0079 49.0892 14.9791 49.0475C15.076 48.9172 15.1546 48.7634 15.2751 48.6565C16.2209 47.8302 16.7528 46.7484 17.2558 45.6484V45.6458ZM15.6576 43.2894C15.6664 43.0722 15.7738 42.8541 15.9799 42.6352C16.0585 43.0105 15.9511 43.2286 15.6576 43.2894ZM15.938 19.3657C15.841 19.3031 15.7231 19.2223 15.6917 19.1259C15.4926 18.5368 14.9581 18.31 14.4839 18.0102C14.3765 17.9425 14.29 17.8486 14.1459 17.7261C15.0236 17.2621 15.9196 17.0406 16.8104 16.7382C16.6218 16.7147 16.4332 16.6887 16.2026 16.66C17.2113 15.9275 18.3326 16.342 18.6863 17.2595C19.1448 18.4456 19.7605 19.5456 20.7142 20.4396C21.0548 20.7602 21.4818 20.8906 21.9141 21.0157C21.9508 21.0261 21.9953 21.0261 22.0294 21.0131C22.501 20.8437 22.9988 20.7185 23.4284 20.4787C23.693 20.3328 23.8896 20.0304 24.0572 19.7619C24.2092 19.5221 24.2747 19.2302 24.3926 18.9669C24.5314 18.6567 24.6965 18.5785 24.9768 18.6775C25.2755 18.7844 25.2153 18.9773 25.1078 19.1858C25.0921 19.2145 25.1078 19.2588 25.1078 19.3527C25.6921 19.5299 26.2135 19.3214 26.7741 19.2745C26.2554 19.6238 25.7392 19.9757 25.2179 20.3197C24.5183 20.7811 23.9839 21.4093 23.3865 21.9802C22.3752 22.9498 21.7097 24.1358 20.9945 25.2932C20.6853 25.7963 20.481 26.3593 20.2268 26.8963C20.1509 27.0579 20.0618 27.2169 19.9675 27.3967C19.323 26.706 19.0872 25.9188 18.8304 25.1264C18.4112 23.8361 17.9763 22.5458 17.4706 21.2868C17.1615 20.5204 16.6663 19.8427 15.9354 19.3683L15.938 19.3657ZM16.1476 21.365C16.1109 21.3937 16.0768 21.4328 16.0637 21.4275C16.0166 21.4093 15.9747 21.3754 15.9301 21.3493C15.9642 21.3207 16.0061 21.2659 16.0323 21.2738C16.0768 21.2842 16.1109 21.3311 16.1502 21.3676L16.1476 21.365ZM15.9013 20.9193C15.7074 21.1382 15.5345 21.0652 15.393 20.8697C15.2489 20.6716 15.1258 20.4605 14.9922 20.2493C15.2996 20.192 15.6035 20.4153 15.9039 20.9193H15.9013ZM23.4572 18.4951C23.4232 18.774 23.4022 19.0607 23.3263 19.3292C23.2581 19.5742 23.0354 19.6811 22.7787 19.6707C22.5272 19.6602 22.4695 19.4647 22.4433 19.2719C22.3962 18.933 22.3595 18.5941 22.3254 18.2553C22.2992 17.9972 22.3411 17.7392 22.1473 17.4993C21.9901 17.3065 22.1368 17.0745 22.2966 16.9467C22.6058 16.6991 22.9516 16.4958 23.3446 16.2325C23.5673 16.9102 23.824 17.4785 23.4756 18.1093C23.4206 18.211 23.4756 18.3674 23.4572 18.4951ZM24.7908 17.5437C24.8013 17.5254 24.8118 17.5046 24.8249 17.4863C24.8799 17.515 24.9375 17.5437 24.9926 17.5723C24.9795 17.601 24.969 17.6271 24.9559 17.6557L24.7908 17.5437ZM27.0021 16.4358C27.0125 16.7408 27.0387 17.0458 26.7767 17.283C26.5069 17.528 26.2606 17.4733 26.1846 17.124C26.127 16.8477 26.1165 16.561 26.0929 16.2794C26.0851 16.2038 26.1244 16.1204 26.1008 16.0527C25.8152 15.2524 26.5016 14.9527 26.8868 14.4574C27.1173 14.8189 26.9829 15.1794 26.4833 15.5392C26.7243 15.7998 26.989 16.0527 27.0021 16.4332V16.4358ZM24.259 22.3816C24.4817 21.6986 25.1707 21.0991 25.975 20.9714C25.8964 21.1095 25.8519 21.292 25.734 21.378C25.2834 21.7091 24.8118 22.0088 24.259 22.379V22.3816ZM24.8353 23.9794C24.7646 24.0733 24.6939 24.1697 24.6231 24.2636C24.5576 24.201 24.4921 24.1411 24.424 24.0785C24.5105 24.0029 24.5996 23.9273 24.686 23.8517C24.7358 23.896 24.7856 23.9377 24.8353 23.9821V23.9794ZM24.3428 24.6285C24.2092 24.8266 24.0756 25.0221 23.9446 25.2202C23.7035 25.5851 23.4494 25.9422 23.2293 26.3202C22.9018 26.8832 22.6058 27.4593 22.2888 28.0276C22.2573 28.0849 22.1839 28.124 22.1315 28.1683C21.9141 28.0588 21.9717 27.9207 22.0241 27.7721C22.4643 26.5027 23.0616 25.3375 24.1751 24.5086L24.3428 24.6285ZM20.5465 38.866C20.6539 39.0406 20.7142 39.1032 20.7273 39.1709C20.7561 39.3091 20.7666 39.4498 20.7639 39.5906C20.7639 39.6062 20.5753 39.648 20.5648 39.6297C20.4941 39.5046 20.4338 39.369 20.3998 39.2283C20.3867 39.1683 20.4495 39.0927 20.5439 38.866H20.5465ZM20.2583 37.1325C19.9334 36.6555 19.9622 35.016 20.3264 34.4503C20.5386 35.3314 20.5858 36.2046 20.2583 37.1325ZM17.9527 32.0366C17.9449 32.1799 17.9187 32.3233 17.8951 32.4667L17.7379 32.4328V31.9714C17.8401 32.0027 17.9527 32.0209 17.9527 32.0366ZM17.2191 30.8688C17.1903 30.9131 17.1694 30.9392 17.151 30.9678C17.117 30.9392 17.075 30.9157 17.0515 30.8792C17.0436 30.8662 17.0829 30.8245 17.0986 30.7984C17.1379 30.8219 17.1772 30.8453 17.2191 30.8714V30.8688ZM16.4803 43.9958C16.4803 43.6231 16.5537 43.2712 16.8183 42.9532C16.8829 43.1408 16.7703 43.4884 16.4803 43.9958ZM20.5229 40.7167C20.4784 40.4716 20.5543 40.2084 20.5805 39.9034C20.9342 40.0311 21.1491 40.3387 21.0967 40.4716C20.9814 40.7688 21.3718 41.0477 21.0181 41.3579C21.4792 41.3188 21.5945 41.5482 21.6076 41.9053C21.6207 42.2572 21.6914 42.6065 21.7464 43.034C21.4084 42.9349 21.1962 42.8724 20.9814 42.8098C20.8268 42.1112 20.6513 41.4179 20.5229 40.7167ZM22.0006 44.7935C22.1944 45.2496 22.6005 45.6198 22.5822 46.1619C21.9482 45.8309 21.8172 45.2131 21.5342 44.6605C21.7805 44.5276 21.9508 44.6735 22.0006 44.7935ZM28.5295 20.0148C28.9277 19.5794 29.7845 19.3944 30.4683 19.6081C29.7766 19.7541 29.1897 19.8766 28.5295 20.0148ZM30.7014 18.3178L31.532 18.1197C31.5451 18.164 31.5555 18.2083 31.5686 18.2527C31.3433 18.4925 31.0499 18.5185 30.7381 18.4951C30.725 18.4351 30.7119 18.3778 30.6988 18.3178H30.7014ZM27.9688 12.6406C28.464 13.3626 28.7103 14.4887 28.4876 14.8875C28.0186 14.1785 27.7409 13.4669 27.9688 12.6406ZM30.9294 11.7647C30.7643 11.882 30.6281 11.9759 30.4159 12.1271C30.5783 12.2313 30.6857 12.3147 30.8062 12.3799C31.0892 12.5311 31.1337 12.6666 30.9503 12.9091C30.8927 12.9846 30.8193 13.0498 30.7434 13.1072C30.6569 13.1749 30.5573 13.2271 30.4656 13.287C29.9652 12.5102 30.0412 11.624 30.7119 11.1183C30.7984 11.3737 30.8613 11.5614 30.9294 11.7647ZM26.8527 7.86C27.437 7.60976 27.9898 7.2735 28.6579 7.23961C28.857 7.22919 28.9854 7.26829 29.1216 7.40123C29.3548 7.63061 29.6351 7.81568 29.8447 8.06071C29.9967 8.23796 30.0858 8.47516 30.1617 8.69933C30.2927 9.07469 30.3975 9.46047 30.5023 9.84625C30.5573 10.0522 30.4892 10.2112 30.2849 10.3233C29.8316 10.5709 29.6718 11.0088 29.5827 11.4624C29.4963 11.9055 29.4648 12.3617 29.3941 12.9351C29.2578 12.8491 29.1059 12.81 29.0666 12.724C28.8753 12.2861 28.65 11.8508 28.5531 11.392C28.2911 10.1486 27.7776 9.04341 26.8815 8.11545C26.8449 8.07635 26.8291 8.01639 26.8108 7.97469C26.8265 7.92777 26.8291 7.87042 26.8527 7.86ZM22.8494 8.17018C23.7769 8.00597 24.7017 7.86782 25.6213 8.26663C26.072 8.46213 26.4047 8.74104 26.6431 9.1581C26.8029 9.43701 27.0335 9.67943 27.1776 9.96355C27.3662 10.3389 27.5208 10.7325 27.6597 11.1287C27.8142 11.5718 27.5837 11.882 27.2379 12.2131C26.2135 10.1903 24.6441 8.92872 22.3883 8.52208C22.4643 8.22493 22.6817 8.19886 22.852 8.17018H22.8494ZM15.8253 9.73677C16.3572 9.40052 16.9493 9.23109 17.6069 9.25715C18.1911 9.28061 18.7806 9.18417 19.3675 9.20502C20.6722 9.24933 21.9875 9.25976 23.1874 9.88014C23.4808 10.0313 23.7978 10.146 24.0808 10.3128C24.4004 10.5005 24.6651 10.7351 24.8301 11.0922C25.0476 11.5588 25.3515 11.9863 25.6004 12.4425C25.7471 12.7109 25.8781 12.9925 25.9829 13.2792C26.1401 13.7041 26.0851 13.91 25.713 14.1785C25.0974 14.6242 24.9454 15.2003 25.1419 15.8963C25.2546 16.2951 25.3934 16.6939 25.3541 17.124C24.7568 17.0666 24.3323 16.7382 24.2852 16.2169C24.217 15.4245 23.9289 14.6946 23.6642 13.9647C23.3656 13.141 22.894 12.4633 22.0739 11.9837C21.3665 11.5692 20.5884 11.3346 19.8731 10.9515C19.5195 10.7638 19.04 10.7977 18.6129 10.7455C17.3973 10.5996 16.1869 10.6413 14.9764 10.8133C14.869 10.829 14.7564 10.8133 14.5677 10.8133C14.9031 10.2868 15.3773 10.0183 15.8227 9.73677H15.8253ZM6.6345 19.2901C7.00915 18.4508 7.42049 17.6245 7.7637 16.7721C8.24577 15.5704 9.11559 14.679 10.0955 13.8735C10.8133 13.2844 11.5653 12.7318 12.3172 12.187C12.6997 11.9081 13.1477 11.783 13.635 11.7517C14.573 11.6944 15.5109 11.5901 16.4489 11.5301C17.4837 11.4624 18.4741 11.6709 19.4382 12.0254C19.9858 12.2261 20.5543 12.3877 21.0783 12.6354C21.8879 13.0185 22.4355 13.6728 22.7682 14.4756C23.2293 15.5887 23.3603 15.2759 22.294 16.0344C22.2311 16.0787 22.1656 16.123 22.0975 16.1621C21.4216 16.5583 21.1988 17.1292 21.3639 17.8747C21.4608 18.3152 21.5132 18.7662 21.6023 19.311C21.2224 19.2197 21.0364 19.1285 20.9054 18.9095C20.5465 18.2996 20.1587 17.7053 19.8024 17.0927C19.6505 16.832 19.5142 16.5557 19.4225 16.269C19.2679 15.7868 19.0374 15.3854 18.6156 15.0569C18.2514 14.7754 17.8165 14.7858 17.4445 14.6216C17.0174 14.4339 16.6716 14.4835 16.2628 14.5825C15.4454 14.7806 14.6175 14.9266 13.7949 15.1091C13.0613 15.2707 12.5425 15.7946 11.9635 16.2065C11.822 16.3081 11.767 16.5271 11.6779 16.6965C11.3819 17.2595 10.9784 17.7313 10.3313 17.8982C9.0763 18.224 8.02046 18.8939 6.99081 19.6211C6.91221 19.6759 6.82838 19.7254 6.74716 19.7775C6.73144 19.788 6.71048 19.7854 6.66594 19.7958C6.46682 19.6472 6.5559 19.4674 6.63188 19.2953L6.6345 19.2901ZM13.8813 16.832C13.656 16.9233 13.4333 17.0145 13.1687 17.124C13.3189 16.8998 13.5564 16.8025 13.8813 16.832ZM12.3801 17.4889C12.367 17.4681 12.3539 17.4446 12.3382 17.4238L12.5661 17.2986C12.5792 17.3195 12.5897 17.3403 12.6028 17.3612C12.5294 17.4029 12.4534 17.4472 12.3801 17.4889ZM12.5478 19.1076C12.312 19.7593 11.9897 19.8297 11.133 19.3761C11.6701 19.3657 12.0133 18.8626 12.5478 19.1076ZM8.93744 19.8662H8.4606L8.93482 19.7828C8.93482 19.8114 8.93744 19.8375 8.94006 19.8662H8.93744ZM8.45275 19.8662C8.36105 20.3275 7.89994 20.2911 7.59864 20.4709C7.74536 20.0825 8.0781 19.947 8.45275 19.8662ZM5.97951 22.5849C5.69393 22.9238 5.43718 23.2496 5.15684 23.5572C4.9813 23.7475 4.92629 23.7396 4.54378 23.6536C4.86341 22.9785 5.34024 22.6136 5.97951 22.5875V22.5849ZM3.56915 25.2489C3.6556 25.4939 3.56391 25.5956 3.31502 25.5721C3.39886 25.4652 3.48269 25.3584 3.56915 25.2489ZM1.41815 37.3254C1.1221 36.7859 1.27407 33.1861 1.61204 32.425C1.6854 32.5475 1.76138 32.6152 1.75614 32.6752C1.65134 34.2027 1.53605 35.7302 1.41815 37.3254ZM2.867 46.6363C2.63382 46.1124 2.25392 45.6328 2.27226 45.0098C2.58928 44.9108 2.71766 45.0411 2.79888 45.2679C3.01109 45.857 3.2207 46.4487 3.44339 47.0352C3.56915 47.3662 3.72634 47.6868 3.88092 48.0387C3.55081 47.8406 3.17877 47.3454 2.86438 46.6363H2.867ZM5.50792 50.601C5.21973 50.2179 4.93939 49.8269 4.66953 49.4333C4.63023 49.3759 4.65381 49.2743 4.65119 49.1961C4.71669 49.1856 4.74813 49.1752 4.75337 49.183C5.07301 49.647 5.5315 49.9494 6.00047 50.2465C6.14457 50.3378 6.22055 50.5307 6.37775 50.7444C5.96118 50.8591 5.69918 50.8539 5.50792 50.5984V50.601ZM9.25971 50.0745C9.11299 49.9129 8.9715 49.8243 8.94268 49.7096C8.89552 49.5167 9.03961 49.3525 9.22825 49.3785C9.36449 49.3968 9.48239 49.5584 9.60815 49.6548C9.51121 49.7721 9.41428 49.8868 9.25708 50.0745H9.25971ZM9.86752 50.1423C10.1802 49.8121 10.4998 49.6166 10.8264 49.5558C10.7138 50.0954 10.6614 50.1266 9.86752 50.1423ZM8.9191 48.6148C7.39952 49.0345 6.21268 48.779 5.28259 48.1039C5.27997 48.1039 5.27736 48.1065 5.27212 48.1065C5.24068 48.1065 5.19091 48.0596 5.18043 48.0231C2.57095 46.0003 2.08364 40.5942 2.12032 37.7477C2.157 34.9795 2.41636 31.9896 3.16043 29.2214C3.29929 28.1084 3.75516 26.4062 4.09576 25.9761C4.07742 26.2212 4.04598 26.4662 4.0093 26.7086C4.04074 26.633 4.06956 26.5574 4.101 26.4818C4.97869 24.446 6.61878 21.7143 8.8929 20.8411C9.0763 20.4735 9.43 20.1894 9.95661 20.1659C15.4664 19.9053 16.6034 26.3697 16.813 30.5638C16.9283 32.8577 16.8943 35.2323 16.5799 37.5105C16.4724 38.2951 16.2786 39.051 16.0375 39.7939C15.3642 43.5735 12.7835 47.5409 8.9191 48.6122V48.6148ZM18.7361 69.911H19.2077C19.0426 70.1769 18.9142 70.1169 18.7361 69.911ZM37.2906 50.5724C36.2846 51.4456 35.8549 52.6368 35.4095 53.8176C35.2759 54.1747 35.1685 54.5449 35.0794 54.9176C34.8567 55.8404 34.427 56.6745 33.9633 57.4982C33.7851 57.8162 33.607 58.1368 33.4603 58.4705C32.9441 59.6565 32.2053 60.7148 31.511 61.8018C31.2097 62.2736 30.911 62.7454 30.6386 63.2328C29.6639 64.9793 28.409 66.512 26.9601 67.9013C26.8475 68.0082 26.7453 68.1255 26.6327 68.2297C26.0222 68.7902 25.341 69.2437 24.5026 69.3845C22.8494 69.6634 21.1936 69.7885 19.5719 69.189C18.8095 68.9075 18.2435 68.4513 17.8532 67.7241C17.5047 67.0776 17.2846 66.3921 17.0017 65.7248C16.7475 65.1252 16.4515 64.5413 16.158 63.9601C15.3983 62.4534 14.6149 60.9546 13.8708 59.4402C13.6874 59.0674 13.5931 58.6477 13.504 58.2411C13.2499 57.0838 13.0508 55.916 12.7731 54.7638C12.5713 53.9297 12.2831 53.1138 12.0342 52.2901C11.9897 52.1442 11.9425 51.9982 11.9216 51.847C11.898 51.6619 11.9635 51.5368 12.1574 51.4378C12.7966 51.1119 13.4228 50.76 14.0542 50.4186C14.1564 50.3638 14.256 50.2961 14.3608 50.2491C16.3781 49.3551 18.3929 48.461 20.4155 47.5773C21.225 47.2228 21.2329 47.2333 21.6521 47.9683C21.7281 48.0987 21.7831 48.2446 21.825 48.3906C21.9298 48.7608 22.1551 48.998 22.4957 49.2117C22.7682 49.3811 22.9306 49.7174 23.135 49.9859C23.2031 50.0745 23.2293 50.1944 23.3079 50.27C24.0939 51.0181 24.9506 51.6698 25.975 52.0947C26.2161 52.1937 26.4126 52.3892 26.7139 52.6003C27.175 52.5039 27.6308 52.6916 28.0317 52.9731C28.7522 53.4788 29.5303 53.4762 30.332 53.2885C31.1521 53.0956 31.9354 52.7958 32.6795 52.397C32.9965 52.2276 33.3266 52.1181 33.7354 52.139C33.9947 52.152 34.3641 52.0582 34.6157 51.7792C34.8253 51.5473 35.1528 51.4065 35.441 51.2501C35.9021 50.9999 36.371 50.7627 36.8452 50.5359C36.9762 50.4733 37.1334 50.4655 37.288 50.4316C37.288 50.515 37.3037 50.5672 37.288 50.5828L37.2906 50.5724ZM43.589 38.4437C43.3768 40.5733 43.1882 42.7055 42.9759 44.8326C42.9288 45.307 42.8083 45.7736 42.7323 46.2454C42.6563 46.7093 42.2528 46.9205 41.9096 47.0769C40.8014 47.58 39.8241 48.289 38.7762 48.8807C38.4094 49.0866 37.9771 49.1882 37.5684 49.3212C37.4898 49.3473 37.385 49.3029 37.2356 49.2847C37.5212 48.7347 37.4898 48.1508 37.9142 47.6503C38.2967 47.1968 38.488 46.5712 38.6923 45.9977C39.1561 44.6814 39.5962 43.3546 40.0049 42.0226C40.2669 41.1702 40.5708 40.3153 40.4241 39.3951C40.4084 39.3013 40.4765 39.1761 40.5394 39.0901C40.7804 38.7539 40.8695 38.3916 40.8485 37.9823C40.7961 37.0674 40.7778 36.1498 40.7254 35.2349C40.6835 34.4972 40.6756 33.7517 40.5394 33.0297C40.3822 32.193 40.1071 31.3745 39.8713 30.5534C39.7822 30.2406 39.6486 29.9408 39.5517 29.6306C39.1587 28.369 38.6373 27.1595 37.9718 26.01C37.7518 25.6294 37.5631 25.228 37.3797 24.8266C36.9448 23.8726 36.3108 23.0306 35.6086 22.2721C34.8908 21.5005 34.2489 20.6482 33.3555 20.0278C32.8 19.6446 32.2367 19.3292 31.5634 19.2067C31.38 19.1728 31.1992 19.1129 30.9294 19.0399C31.5005 18.6124 32.0638 18.5602 32.6507 18.6306C33.0699 18.6801 33.4629 18.8261 33.9161 18.7349C34.131 18.6906 34.4506 18.9278 34.6576 19.1102C34.8384 19.2719 34.9982 19.397 35.2445 19.4439C35.4252 19.4778 35.6008 19.5873 35.7606 19.6863C36.9841 20.4422 38.1972 21.2034 39.0591 22.3842C39.2609 22.6579 39.5595 22.8638 39.7744 23.1297C40.1988 23.651 40.6521 24.1645 40.9926 24.738C41.3935 25.4105 41.7524 26.1247 42.017 26.8572C42.638 28.5932 43.0546 30.3787 43.1856 32.2242C43.2668 33.366 43.4345 34.5051 43.5314 35.6468C43.6126 36.5773 43.6886 37.5105 43.5943 38.4489L43.589 38.4437ZM42.8869 25.8979C42.5725 25.2645 42.2738 24.6259 41.9306 24.0055C41.6922 23.5702 41.4276 23.1401 41.1132 22.7569C40.4398 21.9411 39.8268 21.0678 39.0067 20.3745C38.2522 19.7384 37.4924 19.1181 36.6147 18.6384C35.7029 18.1406 34.7964 17.6375 33.7563 17.4733C33.007 17.356 32.2394 17.3351 31.4822 17.2621C31.2621 17.2413 31.0473 17.1787 30.8193 17.1344C31.0211 16.5557 31.477 16.256 31.9983 16.3394C32.5197 16.4228 33.0384 16.5297 33.552 16.6574C33.8611 16.7356 34.1231 16.7226 34.3851 16.5375C34.8593 16.1986 35.3519 15.8858 35.8182 15.5365C35.9807 15.414 36.1248 15.3801 36.3029 15.4479C36.523 15.5287 36.7483 15.5991 36.9553 15.706C38.6137 16.5531 40.1333 17.601 41.5638 18.7688C42.1638 19.2588 42.6982 19.8166 43.1253 20.4709C43.4737 21.0001 43.9401 21.4562 44.2807 21.9906C44.9514 23.0463 45.5671 24.1332 46.209 25.2046C46.3924 25.5069 46.4893 25.8797 46.8535 26.0622C47.1417 25.8927 47.1102 25.6712 47.0133 25.4522C46.8587 25.1029 46.7015 24.751 46.5181 24.4148C46.0361 23.5389 45.5645 22.6579 45.0379 21.8081C44.6737 21.2216 44.2414 20.6768 43.8117 20.132C43.1803 19.3292 42.6013 18.4716 41.7708 17.846C40.7175 17.0536 39.6774 16.2325 38.5482 15.5548C37.6234 14.9996 36.6723 14.4365 35.5955 14.1733C35.1082 14.0534 34.6078 13.9856 34.1231 13.897C34.2986 13.5399 34.3563 13.4982 34.744 13.5764C35.1659 13.6598 35.585 13.764 36.0069 13.8579C36.4706 13.9621 36.8531 13.8579 37.1439 13.4695C37.3168 13.2375 37.5107 13.0211 37.6994 12.8022C37.9509 12.5102 38.0662 12.4737 38.4015 12.6771C38.8181 12.9273 39.2163 13.2062 39.6015 13.5008C40.3874 14.1029 41.1891 14.692 41.9332 15.3437C43.0546 16.3264 44.1156 17.369 44.9802 18.5915C45.7688 19.7072 46.6308 20.7759 47.4561 21.8681C47.9093 22.4676 48.3442 23.0802 48.6639 23.7631C48.7844 24.0212 48.9311 24.2792 49.2927 24.3261C49.3032 24.2688 49.3346 24.2114 49.3215 24.1723C48.9495 23.2105 48.7137 22.1965 48.1032 21.3285C47.65 20.6847 47.2596 19.9991 46.8194 19.3448C46.6622 19.1129 46.4264 18.933 46.2457 18.714C45.2448 17.515 44.3147 16.2508 43.1436 15.1977C42.3681 14.5017 41.5533 13.8474 40.7438 13.188C40.2171 12.7605 39.6696 12.3591 39.1377 11.9368C39.0565 11.8716 39.0198 11.7491 38.9465 11.624C39.2137 11.4311 39.4442 11.2304 39.7089 11.0818C39.963 10.9384 40.2224 10.9019 40.542 11.0323C41.6136 11.4754 42.4624 12.2053 43.2903 12.9638C44.8702 14.4131 46.2116 16.0474 47.3487 17.8512C48.3023 19.3657 49.2927 20.8567 50.2752 22.3529C50.3852 22.5223 50.5503 22.6579 50.731 22.8534C50.9223 22.5015 50.9092 22.1887 50.7782 21.9202C50.2804 20.9062 49.9843 19.8166 49.4551 18.8053C48.9442 17.833 48.3181 16.9493 47.7076 16.0501C47.6211 15.9223 47.5399 15.7633 47.4115 15.7008C47.0657 15.5313 46.8849 15.2759 46.9164 14.8614C46.8771 14.8719 46.8351 14.8823 46.7958 14.8901C46.7696 14.9631 46.7461 15.0387 46.7042 15.1586C46.416 14.8223 45.9758 14.6164 46.0727 14.082C46.0832 14.0273 46.0177 13.9361 45.9627 13.8944C44.7916 13.0133 43.7829 11.9498 42.6406 11.0375C42.2974 10.7638 41.9384 10.5109 41.4878 10.1773C41.797 10.0548 41.983 9.95312 42.1821 9.91142C42.431 9.85929 42.6851 9.86189 42.8292 9.5908C42.8607 9.53085 43.0519 9.49436 43.1384 9.52564C44.1838 9.92445 45.1715 10.4301 46.0387 11.1339C46.2011 11.2669 46.2666 11.5119 46.395 11.7413C46.7435 11.6865 46.9845 11.9316 47.2753 12.1349C48.1949 12.7839 48.9049 13.6207 49.5809 14.4861C49.9477 14.9553 50.2306 15.4844 50.5476 15.9875C51.4934 17.4863 52.4104 18.9982 53.1676 20.596C53.1912 20.6482 53.2121 20.7055 53.2514 20.7472C53.9693 21.5136 54.2916 22.4702 54.6086 23.4294C54.6374 23.5207 54.6846 23.6041 54.7422 23.7396C54.9727 23.6223 55.1719 23.651 55.2767 23.9169C55.3264 24.042 55.4155 24.1489 55.4627 24.274C56.1124 26.0074 56.5447 27.7851 56.7203 29.6254C56.7805 30.251 56.9718 30.8636 57.0713 31.4866C57.2076 32.3546 57.3124 33.2304 57.4381 34.101C57.4748 34.3643 57.5403 34.625 57.5848 34.8908C57.6268 35.1333 57.7682 35.2088 58.0486 35.1489C58.1848 34.1193 58.397 33.1027 58.1639 32.0261C57.8573 30.6081 57.708 29.1588 57.4041 27.7408C57.1945 26.7529 56.8722 25.7832 56.5395 24.8266C56.2565 24.0159 55.8924 23.2287 55.5465 22.4389C55.4339 22.1809 55.2662 21.9463 55.1221 21.696C55.3841 21.3806 55.6801 21.2373 56.0705 21.2555C56.2827 21.5292 56.2172 21.842 56.2041 22.1392C56.1753 22.8742 56.453 23.4503 57.1211 23.81C57.3229 23.9195 57.5508 24.0133 57.7761 24.0368C58.0591 24.0655 58.2058 24.1854 58.266 24.4408C58.5123 25.5226 58.8084 26.5965 58.7455 27.7226C58.7245 28.0979 58.8634 28.4889 58.604 28.8382C58.5673 28.8877 58.5804 28.9868 58.5935 29.0598C58.8529 30.4778 58.8581 31.9141 58.7638 33.3373C58.604 35.7224 58.3577 38.1022 58.135 40.4821C58.0905 40.9565 57.9778 41.4257 57.9176 41.9001C57.8337 42.5648 57.4355 43.0653 57.0163 43.5423C55.8059 44.9238 54.4042 46.0603 52.6515 46.7589C50.9459 47.4392 49.2665 48.1821 47.5609 48.865C46.9845 49.0944 46.3714 49.2482 45.761 49.3864C45.1924 49.5167 45.0981 49.4228 45.0588 48.8728C45.0274 48.4349 44.954 47.9944 44.9881 47.5591C45.0405 46.8579 45.161 46.1619 45.2658 45.466C45.292 45.2783 45.3575 45.0984 45.4256 44.8404C45.0326 44.8612 45.0379 44.6084 45.03 44.4129C45.0064 43.7664 45.0064 43.1174 44.9986 42.4709C44.9802 40.9643 45.0012 39.4551 44.9357 37.951C44.8833 36.7702 44.7392 35.5946 44.6029 34.419C44.4877 33.4337 44.3147 32.4536 44.189 31.4683C44.1418 31.093 44.1576 30.7072 44.1445 30.3266C44.0973 28.747 43.5838 27.2925 42.8869 25.8875V25.8979ZM47.815 16.8607L47.9251 16.7695C47.9827 16.8477 48.0403 16.9259 48.1006 17.0067C48.077 17.0301 48.0508 17.0536 48.0272 17.0745C47.9565 17.0041 47.8858 16.9311 47.815 16.8607ZM48.5853 17.9451L48.6508 17.9112C48.7032 17.992 48.7582 18.0702 48.8106 18.151L48.7189 18.2031C48.6744 18.1171 48.6298 18.0311 48.5879 17.9451H48.5853ZM76.7001 50.1814C76.5114 51.7219 76.2101 53.2364 75.8197 54.7378C75.7962 54.829 75.7831 54.9255 75.7752 55.0219C75.6888 55.9212 75.3115 56.7084 74.8111 57.4513C74.7272 57.5764 74.625 57.7172 74.6146 57.8553C74.5674 58.5148 74.1613 58.9892 73.7474 59.4454C72.9693 60.303 72.1702 61.1397 71.3737 61.979C70.965 62.4091 70.5458 62.8314 70.1161 63.2432C69.3721 63.9575 68.3896 64.2781 67.4909 64.7394C66.2255 65.3885 64.9417 66.0089 63.692 66.684C62.1488 67.5181 60.6528 68.4383 59.0966 69.2463C57.9412 69.8459 56.7176 70.3255 55.5282 70.8624C55.0828 71.0632 54.6295 71.2482 54.2077 71.488C53.2305 72.0433 52.1196 72.1136 51.0611 72.3717C51.0061 72.3847 50.8961 72.3951 50.8908 72.3795C50.7756 72.0485 50.5241 72.1553 50.283 72.1788C49.9896 72.2049 49.6935 72.1892 49.4001 72.2075C48.7661 72.2466 48.1478 72.2101 47.553 71.9624C46.8876 71.6835 46.1933 71.4594 45.5487 71.1413C44.582 70.6669 44.0423 69.8172 43.72 68.8527C43.2825 67.5442 43.2825 66.1757 43.2248 64.8176C43.141 62.7845 43.3506 60.7669 43.6964 58.765C43.9348 57.3887 44.2492 56.0255 44.4667 54.6492C44.6527 53.4788 44.7523 52.298 44.8912 51.1198C44.9174 50.893 44.9383 50.6662 44.9645 50.4003C45.1348 50.343 45.2946 50.257 45.4597 50.2439C46.4317 50.1605 47.3198 49.7904 48.2342 49.5063C49.4682 49.1231 50.6655 48.6487 51.8209 48.0752C52.3947 47.7911 53.0261 47.6112 53.5737 47.2906C54.378 46.8188 55.1404 46.274 55.9002 45.7345C56.1648 45.5468 56.3718 45.2783 56.5945 45.0359C56.7674 44.8482 56.9403 44.6735 57.2993 44.6605C57.3674 44.9081 57.4643 45.1532 57.4984 45.406C57.5665 45.9169 57.6687 46.4356 57.632 46.9439C57.5927 47.4913 57.6451 48.0257 57.6503 48.5679C57.6582 49.2169 57.6949 49.8529 57.9071 50.4759C58.1455 51.1771 58.1324 51.8965 58.004 52.6186C57.784 53.8619 57.5377 55.1027 57.37 56.3539C57.2731 57.089 57.294 57.8423 57.2862 58.5878C57.2809 58.9866 57.391 59.1039 57.708 59.1717C58.1665 59.2681 58.397 59.2056 58.5752 58.8902C58.6564 58.7442 58.714 58.5695 58.7219 58.4053C58.7429 57.871 58.701 57.334 58.7481 56.8022C58.8031 56.1766 58.9001 55.5511 59.0258 54.9359C59.2485 53.8307 59.5157 52.7359 59.7411 51.6333C59.9271 50.7157 60.0293 49.7799 60.2651 48.8781C60.4773 48.0674 60.7917 47.2776 61.1165 46.5008C61.3654 45.9065 61.5279 45.26 61.9943 44.7674C62.1095 44.6449 62.2064 44.5041 62.3296 44.3868C62.6597 44.0792 62.9112 43.756 62.5628 43.206C62.9924 43.2086 63.1549 43.0235 63.2937 42.7681C63.5741 42.2468 63.8832 41.7411 64.1819 41.2302C64.7819 40.211 65.6019 39.3586 66.3696 38.4645C66.6158 38.1778 66.8097 37.8442 66.9905 37.5131C67.035 37.4323 66.9722 37.242 66.8936 37.1664C66.7468 37.0257 66.553 36.9318 66.3984 36.8354C65.2063 37.6252 64.3417 38.6731 63.3619 39.601C63.0527 39.893 62.7907 40.2292 62.492 40.5316C61.8554 41.1754 61.4414 41.9574 61.0746 42.7577C60.6109 43.7664 60.1943 44.7987 59.7961 45.8335C59.5158 46.5608 59.2983 47.3115 59.052 48.0518C59.0127 48.0518 58.9734 48.0518 58.9341 48.0491C58.8843 47.7468 58.8031 47.447 58.7953 47.142C58.7691 46.3418 58.7717 45.5416 58.7717 44.7387C58.7717 44.4337 58.7953 44.1288 58.8084 43.8238C58.811 43.7664 58.845 43.6987 58.8215 43.6544C58.5516 43.0965 58.8398 42.6247 59.0494 42.1373C59.0939 42.033 59.1332 41.9183 59.1463 41.8062C59.2302 41.0321 59.2904 40.2553 59.3874 39.4837C59.4607 38.8816 59.5027 38.2612 60.0817 37.8546C60.1786 37.7868 60.2048 37.6278 60.2624 37.5079C60.3122 37.4062 60.3384 37.2368 60.4118 37.216C60.8677 37.0856 60.7969 36.5434 61.1585 36.3427C61.2973 36.2671 61.4021 36.1264 61.5043 36.0013C61.6248 35.8579 61.7453 35.7067 61.8344 35.5451C62.0414 35.1671 62.2458 34.8022 62.5759 34.492C62.7802 34.2991 62.8798 33.9655 62.9453 33.6761C63.037 33.2773 63.0501 32.8629 63.1025 32.4041C63.2675 32.4197 63.4274 32.4041 63.5584 32.4536C64.5775 32.8472 65.5679 32.6309 66.4613 32.1799C67.559 31.6247 68.6515 31.4631 69.8646 31.6273C70.8864 31.7655 71.8715 31.9636 72.757 32.4875C73.1422 32.7143 73.509 32.9776 73.8496 33.2617C74.0303 33.4129 74.1404 33.6475 74.3631 33.9577C73.8915 33.8795 73.5718 33.8273 73.2522 33.7726C73.2391 33.8091 73.226 33.8482 73.2129 33.8847C73.3963 34.0411 73.5718 34.2053 73.7631 34.3513C74.3526 34.7892 74.7822 35.36 75.1386 35.9778C75.5054 36.6112 75.8224 37.2681 76.1604 37.9171C76.197 37.9849 76.2337 38.0553 76.2468 38.1309C76.5088 39.3847 76.8992 40.6046 77.0145 41.8949C77.2607 44.6788 77.0276 47.434 76.6896 50.1918L76.7001 50.1814ZM77.7009 49.17C77.6197 47.0065 77.7769 41.6238 77.659 39.4629C77.5044 39.3925 77.376 39.2596 77.3393 39.0979C77.2634 38.7513 77.211 38.3968 77.1769 38.0423C76.6529 38.097 76.087 37.7894 76.0896 37.1143C76.0948 36.0091 75.9036 35.0029 75.584 34.0541C75.2486 34.1844 74.8608 34.1558 74.5805 33.8456C74.2163 33.4415 73.8207 32.8889 73.3937 32.2998C73.2365 32.0991 73.0793 31.8958 72.9247 31.6925C72.7701 31.6247 72.6234 31.5178 72.5055 31.351C71.8374 30.4152 71.0567 29.4638 69.9248 29.6228C69.8855 29.6697 69.8489 29.7167 69.807 29.761C69.7493 29.8235 69.6838 29.8704 69.6131 29.9122C69.7834 30.0477 69.8987 30.1415 70.0139 30.2354C69.71 30.3344 69.6209 30.2093 69.5528 29.946C69.3275 30.0529 69.0576 30.0633 68.8166 29.9904C68.793 30.0164 68.772 30.0425 68.7432 30.0529C68.7249 30.0607 68.6777 30.0086 68.6437 29.9851C68.6594 29.9695 68.6751 29.9565 68.6908 29.9408C68.6096 29.9043 68.531 29.86 68.4629 29.8053C68.0804 29.6332 67.8368 29.2188 67.9206 28.6896C67.9625 28.4342 68.0018 28.1787 68.0437 27.9233C68.0359 27.8764 68.0332 27.8321 68.0306 27.7851C67.7765 27.514 67.6691 27.11 67.8917 26.6695C67.973 26.5105 68.0699 26.3645 68.1695 26.2212C68.1931 26.1821 68.2166 26.1403 68.2402 26.1012C68.0856 24.0629 69.1651 21.4693 70.42 20.5778C70.5379 20.4944 70.6663 20.4501 70.7947 20.437C70.8418 19.8714 70.8549 19.3031 70.834 18.7375C70.8261 18.5185 70.8811 18.3413 70.9754 18.1979C70.9571 18.0884 70.9361 17.9816 70.9178 17.8721C70.7056 18.4899 70.4541 19.0894 70.1476 19.6707C69.938 20.0695 69.6314 20.3171 69.1755 20.424C68.4734 20.5856 68.138 21.0131 68.0332 21.6986C67.9625 22.1496 67.8603 22.6031 67.6953 23.028C67.394 23.8126 67.2761 24.6676 66.7547 25.3662C66.4089 25.8276 66.0604 26.2863 65.6988 26.7347C65.636 26.8129 65.4997 26.8389 65.2744 26.9484C65.0648 26.4088 64.8343 25.9475 64.7059 25.4626C64.4727 24.5764 64.3076 23.6745 64.0928 22.783C64.0168 22.4676 64.1636 22.2539 64.3837 22.087C64.7347 21.8185 65.1094 21.5813 65.4893 21.3181C65.4683 21.3024 65.4159 21.2607 65.3556 21.2294C64.9993 21.0418 64.9286 20.8958 65.1356 20.5647C65.2744 20.3432 65.2797 20.1451 65.2299 19.9131C65.1854 19.7098 65.188 19.496 65.1513 19.2901C65.1172 19.092 65.0596 18.8991 64.9967 18.6358C65.3426 18.3752 65.1775 18.0076 65.0675 17.6323C64.8317 16.8294 64.6168 16.0214 64.381 15.2211C64.1714 14.5069 63.9461 13.8005 63.7287 13.0889C63.6422 12.8022 63.5662 12.5128 63.4509 12.1036C63.6684 12.2496 63.7863 12.3095 63.878 12.3955C65.1644 13.5764 66.4481 14.7546 67.7267 15.9432C68.3136 16.4906 69.0157 16.3941 69.4375 15.6903C69.5004 15.5835 69.5659 15.4766 69.634 15.3645C68.0751 15.315 66.739 14.1628 65.6229 12.9429C65.5548 12.9117 65.4866 12.8778 65.4211 12.8465C62.8536 11.5901 61.6982 8.61592 60.6292 6.14743C60.6188 6.12397 60.6135 6.10312 60.603 6.07966C60.3306 5.95976 59.8773 5.76426 59.6415 5.64175C59.6179 5.68085 59.5944 5.72516 59.5603 5.7799C59.4529 5.95976 59.3559 6.14483 59.2564 6.32729C59.0311 6.73914 58.8162 7.17705 58.4756 7.5081C58.3839 7.59933 58.2844 7.65928 58.1848 7.7062C58.1193 7.87303 58.0486 8.03725 57.9647 8.19364C57.9647 8.21189 57.9647 8.23014 57.9647 8.24838C57.9857 8.86616 57.522 9.17635 57.0425 9.18417C56.8617 9.27801 56.6679 9.33796 56.4609 9.36403C56.474 10.0548 55.6015 10.5735 54.9806 10.1982C54.5614 9.94531 54.1815 9.65075 53.8697 9.29886C53.7938 9.23369 53.7335 9.1581 53.6863 9.07469C53.5632 8.91308 53.4558 8.73843 53.3641 8.55597C53.2069 8.68891 53.0392 8.81402 52.8584 8.92872C52.1825 9.3536 51.1005 8.63156 51.4227 7.83132C51.8524 6.76781 52.6436 6.03013 53.5318 5.3498C53.9536 4.69554 54.3728 4.03345 54.9727 3.55383C55.6251 3.0325 56.3482 2.57895 57.1185 2.25312C57.1002 2.21923 57.0818 2.18795 57.0635 2.15406C57.3674 1.90904 57.7211 1.79174 58.1403 1.82823C57.9647 1.90643 57.7918 1.98724 57.6163 2.06544C57.8783 1.97681 58.1455 1.89861 58.418 1.84387C58.9839 1.50501 59.6389 1.31733 60.4039 1.34079C61.3209 1.11401 62.2405 1.0697 63.1444 1.28866C63.2151 1.26781 63.2911 1.25477 63.3723 1.24956C64.9757 1.14008 66.2674 2.34174 67.3678 3.41828C67.8053 3.65809 68.2297 3.92136 68.628 4.21852C68.6201 4.14293 68.6253 4.06212 68.6437 3.98132C69.1388 4.2107 69.2646 4.34364 69.2122 4.70336C69.2961 4.78156 69.3773 4.86757 69.4559 4.95099C69.8332 4.9171 70.2707 5.04222 70.441 5.41236C71.4837 7.6671 72.3038 9.99744 72.9483 12.3773C73.0269 12.578 73.1002 12.7813 73.1657 12.9899C73.4696 13.9778 73.674 14.9918 73.8443 16.0136C73.9046 16.1361 73.9386 16.2794 73.936 16.4463C73.936 16.4984 73.936 16.5531 73.936 16.6053C74.0094 17.0875 74.0801 17.5697 74.1482 18.0519C74.177 18.2553 74.1456 18.4351 74.0775 18.5941C74.5281 21.7742 75.9377 24.7588 76.9752 27.7982C77.0695 28.0719 77.0406 28.3065 76.9359 28.4941C77.4101 29.8418 77.8686 31.2077 78.1122 32.6074C78.686 34.028 79.0423 35.506 79.0606 37.2446C79.0633 37.5705 78.9349 37.8077 78.741 37.9641C78.7934 40.6306 78.741 46.5112 78.8406 49.1778C78.8694 49.9181 77.714 49.9155 77.6878 49.1778L77.7009 49.17Z" fill="#691A1E"/>
</svg>
