<svg width="24" height="24" viewBox="0 0 24 24" fill="none" xmlns="http://www.w3.org/2000/svg">
    <mask id="mask0_3780_31434" style="mask-type:alpha" maskUnits="userSpaceOnUse" x="0" y="0" width="24" height="24">
        <rect width="24" height="24" fill="#D9D9D9"/>
    </mask>
    <g mask="url(#mask0_3780_31434)">
        <path d="M17.75 15.8461C16.6884 15.8461 15.782 15.4705 15.0307 14.7192C14.2795 13.9679 13.9038 13.0615 13.9038 12C13.9038 10.9384 14.2795 10.032 15.0307 9.28075C15.782 8.52947 16.6884 8.15383 17.75 8.15383C18.8115 8.15383 19.7179 8.52947 20.4692 9.28075C21.2205 10.032 21.5961 10.9384 21.5961 12C21.5961 13.0615 21.2205 13.9679 20.4692 14.7192C19.7179 15.4705 18.8115 15.8461 17.75 15.8461ZM17.75 14.6538C18.0012 14.6538 18.2419 14.6192 18.4721 14.55C18.7022 14.4807 18.9282 14.3769 19.15 14.2385L15.5115 10.6C15.373 10.8218 15.2692 11.0477 15.2 11.2779C15.1307 11.508 15.0961 11.7487 15.0961 12C15.0961 12.7384 15.3538 13.3654 15.8692 13.8808C16.3846 14.3961 17.0115 14.6538 17.75 14.6538ZM19.9884 13.4C20.1397 13.1718 20.2468 12.9442 20.3096 12.7173C20.3724 12.4904 20.4038 12.2513 20.4038 12C20.4038 11.2615 20.1461 10.6346 19.6307 10.1192C19.1153 9.60382 18.4884 9.34613 17.75 9.34613C17.4987 9.34613 17.258 9.38074 17.0278 9.44998C16.7977 9.51921 16.5717 9.62305 16.35 9.7615L19.9884 13.4ZM7.3077 22.5C6.80898 22.5 6.38302 22.3233 6.02982 21.9701C5.67661 21.6169 5.5 21.191 5.5 20.6923V3.3077C5.5 2.80898 5.67661 2.38302 6.02982 2.02982C6.38302 1.67661 6.80898 1.5 7.3077 1.5H16.6922C17.191 1.5 17.6169 1.67661 17.9701 2.02982C18.3233 2.38302 18.5 2.80898 18.5 3.3077V6.21152C18.5 6.42434 18.4282 6.60254 18.2845 6.74613C18.141 6.88971 17.9628 6.9615 17.75 6.9615C17.5371 6.9615 17.3589 6.88971 17.2154 6.74613C17.0718 6.60254 17 6.42434 17 6.21152V5.74995H6.99997V18.25H17V17.7884C17 17.5756 17.0718 17.3974 17.2154 17.2538C17.3589 17.1102 17.5371 17.0385 17.75 17.0385C17.9628 17.0385 18.141 17.1102 18.2845 17.2538C18.4282 17.3974 18.5 17.5756 18.5 17.7884V20.6923C18.5 21.191 18.3233 21.6169 17.9701 21.9701C17.6169 22.3234 17.191 22.5 16.6922 22.5L7.3077 22.5ZM6.99997 19.75V20.6923C6.99997 20.7692 7.03202 20.8397 7.09613 20.9038C7.16024 20.9679 7.23077 21 7.3077 21H16.6922C16.7692 21 16.8397 20.9679 16.9038 20.9038C16.9679 20.8397 17 20.7692 17 20.6923V19.75H6.99997ZM6.99997 4.25H17V3.3077C17 3.23077 16.9679 3.16024 16.9038 3.09613C16.8397 3.03203 16.7692 2.99998 16.6922 2.99998H7.3077C7.23077 2.99998 7.16024 3.03203 7.09613 3.09613C7.03202 3.16024 6.99997 3.23077 6.99997 3.3077V4.25Z" fill="#691A1E"/>
    </g>
</svg>
