<svg width="14" height="14" viewBox="0 0 14 14" fill="none" xmlns="http://www.w3.org/2000/svg">
<path d="M7.00031 7.70237L9.04904 9.75109C9.14134 9.8434 9.25737 9.89062 9.39711 9.89275C9.53684 9.8949 9.655 9.84768 9.75158 9.75109C9.84817 9.65451 9.89646 9.53742 9.89646 9.39982C9.89646 9.26222 9.84817 9.14513 9.75158 9.04855L7.70286 6.99982L9.75158 4.95109C9.84389 4.85879 9.89111 4.74277 9.89324 4.60302C9.89539 4.46329 9.84817 4.34513 9.75158 4.24855C9.655 4.15197 9.53791 4.10367 9.40031 4.10367C9.26271 4.10367 9.14562 4.15197 9.04904 4.24855L7.00031 6.29727L4.95158 4.24855C4.85928 4.15624 4.74325 4.10902 4.60351 4.10689C4.46378 4.10474 4.34562 4.15197 4.24904 4.24855C4.15245 4.34513 4.10416 4.46222 4.10416 4.59982C4.10416 4.73742 4.15245 4.85451 4.24904 4.95109L6.29776 6.99982L4.24904 9.04855C4.15673 9.14085 4.10951 9.25688 4.10738 9.39662C4.10523 9.53635 4.15245 9.65451 4.24904 9.75109C4.34562 9.84768 4.46271 9.89597 4.60031 9.89597C4.73791 9.89597 4.855 9.84768 4.95158 9.75109L7.00031 7.70237ZM7.00143 13.3331C6.12547 13.3331 5.30211 13.1669 4.53136 12.8345C3.76059 12.502 3.09014 12.0509 2.51999 11.481C1.94984 10.9111 1.49846 10.2409 1.16588 9.47049C0.833287 8.70008 0.666992 7.87689 0.666992 7.00094C0.666992 6.12498 0.833215 5.30163 1.16566 4.53087C1.4981 3.7601 1.94927 3.08965 2.51916 2.5195C3.08906 1.94935 3.75922 1.49798 4.52964 1.16539C5.30005 0.832799 6.12324 0.666504 6.99919 0.666504C7.87515 0.666504 8.6985 0.832727 9.46926 1.16517C10.24 1.49762 10.9105 1.94878 11.4806 2.51867C12.0508 3.08857 12.5022 3.75873 12.8347 4.52915C13.1673 5.29957 13.3336 6.12275 13.3336 6.9987C13.3336 7.87466 13.1674 8.69802 12.835 9.46877C12.5025 10.2395 12.0513 10.91 11.4815 11.4801C10.9116 12.0503 10.2414 12.5017 9.47098 12.8343C8.70056 13.1668 7.87738 13.3331 7.00143 13.3331Z" fill="#9A0D00"/>
</svg>
