<svg width="20" height="18" viewBox="0 0 20 18" fill="none" xmlns="http://www.w3.org/2000/svg">
<path d="M4.03845 15.5L2.03655 17.5019C1.75193 17.7865 1.42469 17.8509 1.05483 17.6951C0.684942 17.5393 0.5 17.2589 0.5 16.8538V2.3077C0.5 1.80257 0.675 1.375 1.025 1.025C1.375 0.675 1.80257 0.5 2.3077 0.5H17.6923C18.1974 0.5 18.625 0.675 18.975 1.025C19.325 1.375 19.5 1.80257 19.5 2.3077V13.6923C19.5 14.1974 19.325 14.625 18.975 14.975C18.625 15.325 18.1974 15.5 17.6923 15.5H4.03845ZM3.4 14H17.6923C17.7692 14 17.8397 13.9679 17.9038 13.9038C17.9679 13.8397 18 13.7692 18 13.6923V2.3077C18 2.23077 17.9679 2.16024 17.9038 2.09613C17.8397 2.03203 17.7692 1.99998 17.6923 1.99998H2.3077C2.23077 1.99998 2.16024 2.03203 2.09613 2.09613C2.03202 2.16024 1.99998 2.23077 1.99998 2.3077V15.3846L3.4 14ZM4.99998 11.75H11C11.2128 11.75 11.391 11.6782 11.5346 11.5346C11.6782 11.391 11.75 11.2128 11.75 11C11.75 10.7872 11.6782 10.609 11.5346 10.4654C11.391 10.3218 11.2128 10.25 11 10.25H4.99998C4.78716 10.25 4.60896 10.3218 4.46538 10.4654C4.32179 10.609 4.25 10.7872 4.25 11C4.25 11.2128 4.32179 11.391 4.46538 11.5346C4.60896 11.6782 4.78716 11.75 4.99998 11.75ZM4.99998 8.74995H15C15.2128 8.74995 15.391 8.67816 15.5346 8.53458C15.6782 8.39099 15.75 8.21279 15.75 7.99998C15.75 7.78716 15.6782 7.60896 15.5346 7.46538C15.391 7.32179 15.2128 7.25 15 7.25H4.99998C4.78716 7.25 4.60896 7.32179 4.46538 7.46538C4.32179 7.60896 4.25 7.78716 4.25 7.99998C4.25 8.21279 4.32179 8.39099 4.46538 8.53458C4.60896 8.67816 4.78716 8.74995 4.99998 8.74995ZM4.99998 5.74995H15C15.2128 5.74995 15.391 5.67816 15.5346 5.53457C15.6782 5.39099 15.75 5.21279 15.75 4.99998C15.75 4.78716 15.6782 4.60896 15.5346 4.46538C15.391 4.32179 15.2128 4.25 15 4.25H4.99998C4.78716 4.25 4.60896 4.32179 4.46538 4.46538C4.32179 4.60896 4.25 4.78716 4.25 4.99998C4.25 5.21279 4.32179 5.39099 4.46538 5.53457C4.60896 5.67816 4.78716 5.74995 4.99998 5.74995Z" fill="#E31837"/>
</svg>
