<svg width="16" height="16" viewBox="0 0 16 16" fill="none" xmlns="http://www.w3.org/2000/svg">
<mask id="mask0_2378_26513" style="mask-type:alpha" maskUnits="userSpaceOnUse" x="0" y="0" width="16" height="16">
<rect width="16" height="16" fill="#D9D9D9"/>
</mask>
<g mask="url(#mask0_2378_26513)">
<path d="M7.05382 9.43079L5.50509 7.88207C5.41279 7.78976 5.29677 7.74254 5.15702 7.7404C5.01728 7.73826 4.89912 7.78548 4.80254 7.88207C4.70596 7.97865 4.65767 8.09574 4.65767 8.23334C4.65767 8.37094 4.70596 8.48803 4.80254 8.5846L6.63202 10.4141C6.75253 10.5346 6.89313 10.5949 7.05382 10.5949C7.2145 10.5949 7.3551 10.5346 7.47561 10.4141L11.1846 6.70512C11.2769 6.61282 11.3241 6.4968 11.3262 6.35705C11.3284 6.21731 11.2812 6.09915 11.1846 6.00257C11.088 5.90599 10.9709 5.8577 10.8333 5.8577C10.6957 5.8577 10.5786 5.90599 10.482 6.00257L7.05382 9.43079ZM8.00109 14.3333C7.12513 14.3333 6.30178 14.1671 5.53102 13.8347C4.76026 13.5022 4.0898 13.051 3.51966 12.4812C2.9495 11.9113 2.49813 11.2411 2.16554 10.4707C1.83295 9.70026 1.66666 8.87708 1.66666 8.00112C1.66666 7.12516 1.83288 6.30181 2.16532 5.53105C2.49777 4.76029 2.94893 4.08983 3.51882 3.51969C4.08872 2.94953 4.75888 2.49816 5.52931 2.16557C6.29972 1.83298 7.1229 1.66669 7.99886 1.66669C8.87481 1.66669 9.69817 1.83291 10.4689 2.16535C11.2397 2.4978 11.9101 2.94896 12.4803 3.51885C13.0504 4.08875 13.5018 4.75892 13.8344 5.52934C14.167 6.29975 14.3333 7.12293 14.3333 7.99889C14.3333 8.87484 14.1671 9.6982 13.8346 10.469C13.5022 11.2397 13.051 11.9102 12.4811 12.4803C11.9112 13.0505 11.2411 13.5018 10.4706 13.8344C9.70023 14.167 8.87705 14.3333 8.00109 14.3333Z" fill="#238823"/>
</g>
</svg>
