<svg width="16" height="16" viewBox="0 0 16 16" fill="none" xmlns="http://www.w3.org/2000/svg">
<mask id="mask0_2474_880" style="mask-type:alpha" maskUnits="userSpaceOnUse" x="0" y="0" width="16" height="16">
<rect width="16" height="16" fill="white"/>
</mask>
<g mask="url(#mask0_2474_880)">
<path d="M7.05385 9.43073L5.50512 7.88201C5.41282 7.7897 5.2968 7.74248 5.15705 7.74034C5.01731 7.7382 4.89915 7.78542 4.80257 7.88201C4.70599 7.97859 4.6577 8.09568 4.6577 8.23328C4.6577 8.37088 4.70599 8.48797 4.80257 8.58454L6.63205 10.414C6.75256 10.5345 6.89316 10.5948 7.05385 10.5948C7.21453 10.5948 7.35513 10.5345 7.47564 10.414L11.1846 6.70506C11.2769 6.61276 11.3241 6.49674 11.3263 6.35699C11.3284 6.21725 11.2812 6.09909 11.1846 6.00251C11.088 5.90593 10.9709 5.85764 10.8333 5.85764C10.6957 5.85764 10.5786 5.90593 10.4821 6.00251L7.05385 9.43073ZM8.00112 14.3333C7.12516 14.3333 6.30181 14.167 5.53105 13.8346C4.76029 13.5021 4.08983 13.051 3.51969 12.4811C2.94953 11.9112 2.49816 11.241 2.16557 10.4706C1.83298 9.7002 1.66669 8.87702 1.66669 8.00106C1.66669 7.1251 1.83291 6.30175 2.16535 5.53099C2.4978 4.76023 2.94896 4.08977 3.51885 3.51963C4.08875 2.94947 4.75891 2.4981 5.52934 2.16551C6.29975 1.83292 7.12293 1.66663 7.99889 1.66663C8.87484 1.66663 9.6982 1.83285 10.469 2.16529C11.2397 2.49774 11.9102 2.9489 12.4803 3.51879C13.0505 4.08869 13.5018 4.75885 13.8344 5.52928C14.167 6.29969 14.3333 7.12287 14.3333 7.99883C14.3333 8.87478 14.1671 9.69814 13.8347 10.4689C13.5022 11.2397 13.051 11.9101 12.4812 12.4803C11.9113 13.0504 11.2411 13.5018 10.4707 13.8344C9.70026 14.167 8.87708 14.3333 8.00112 14.3333ZM8 13.3333C9.48889 13.3333 10.75 12.8166 11.7833 11.7833C12.8167 10.7499 13.3333 9.48883 13.3333 7.99994C13.3333 6.51105 12.8167 5.24994 11.7833 4.21661C10.75 3.18328 9.48889 2.66661 8 2.66661C6.51111 2.66661 5.25 3.18328 4.21667 4.21661C3.18334 5.24994 2.66667 6.51105 2.66667 7.99994C2.66667 9.48883 3.18334 10.7499 4.21667 11.7833C5.25 12.8166 6.51111 13.3333 8 13.3333Z" fill="#691A1E"/>
</g>
</svg>
