<svg width="125" height="178" viewBox="0 0 125 178" fill="none" xmlns="http://www.w3.org/2000/svg">
<g opacity="0.4" clip-path="url(#clip0_8033_12325)">
<path d="M56.8365 177.13C53.4517 175.019 49.7641 172.887 46.5595 170.491C42.4646 167.489 38.366 164.158 34.6676 160.613C33.15 159.339 29.5526 155.387 28.1395 153.873C25.6955 151.287 23.421 148.105 21.1897 145.307C19.1422 142.246 16.9577 139.222 15.1806 135.982C14.4128 134.579 12.8628 131.803 12.1022 130.404C-7.22254 91.7479 -2.43911 43.9933 19.5928 7.69998C20.7391 5.88028 21.8133 4.25477 23.1254 2.46024C27.4042 -3.04921 35.8572 1.51083 33.6727 8.10636C24.2681 40.6992 17.8517 75.9532 26.9716 109.237C33.3447 132.119 46.8443 150.895 64.1324 167.704C69.078 172.761 62.9789 180.629 56.8365 177.13Z" fill="#EDE0E3"/>
<path d="M123.04 81.1593C121.198 87.762 103.362 88.5856 82.8473 88.7007C62.3185 88.5856 44.4969 87.762 42.6405 81.1593C40.73 74.7112 58.5156 64.0664 82.8473 64.1095C107.175 64.0664 124.965 74.7112 123.04 81.1593Z" fill="#EDE0E3"/>
<path d="M124.848 22.7348C122.996 29.3411 105.715 30.3121 85.8889 30.4344C66.0522 30.3121 48.7749 29.3411 46.9185 22.7348C45.0044 16.2903 62.2493 5.80007 85.8889 5.83603C109.518 5.80007 126.762 16.2903 124.848 22.7348Z" fill="#EDE0E3"/>
</g>
<defs>
<clipPath id="clip0_8033_12325">
<rect width="125" height="178" fill="white"/>
</clipPath>
</defs>
</svg>
