<svg width="46" height="36" viewBox="0 0 46 36" fill="none" xmlns="http://www.w3.org/2000/svg">
<path d="M5.05146 35.4999C3.89152 35.4999 2.89855 35.0869 2.07255 34.2608C1.24652 33.4348 0.833496 32.4419 0.833496 31.2819V24.8878C0.833496 24.5049 0.943435 24.1654 1.16331 23.8692C1.38319 23.5731 1.67709 23.3712 2.04502 23.2635C3.06811 22.7878 3.89975 22.0815 4.53994 21.1445C5.18009 20.2076 5.50016 19.1591 5.50016 17.999C5.50016 16.839 5.18009 15.7907 4.53994 14.8544C3.89975 13.918 3.06811 13.2121 2.04502 12.7364C1.67709 12.6287 1.38319 12.4268 1.16331 12.1307C0.943435 11.8345 0.833496 11.495 0.833496 11.1121V4.71797C0.833496 3.55803 1.24652 2.56506 2.07255 1.73906C2.89855 0.913021 3.89152 0.5 5.05146 0.5H40.9487C42.1087 0.5 43.1017 0.913021 43.9277 1.73906C44.7537 2.56506 45.1667 3.55803 45.1667 4.71797V11.1121C45.1667 11.495 45.0568 11.8345 44.8369 12.1307C44.617 12.4268 44.3231 12.6287 43.9552 12.7364C42.9321 13.2121 42.1005 13.9184 41.4603 14.8554C40.8201 15.7923 40.5 16.8408 40.5 18.0009C40.5 19.1609 40.8201 20.2091 41.4603 21.1455C42.1005 22.0818 42.9321 22.7878 43.9552 23.2635C44.3231 23.3712 44.617 23.5731 44.8369 23.8692C45.0568 24.1654 45.1667 24.5049 45.1667 24.8878V31.2819C45.1667 32.4419 44.7537 33.4348 43.9277 34.2608C43.1017 35.0869 42.1087 35.4999 40.9487 35.4999H5.05146ZM5.05146 31.9999H40.9487C41.1582 31.9999 41.3302 31.9326 41.4648 31.798C41.5995 31.6634 41.6668 31.4913 41.6668 31.2819V26.0499C40.2279 25.1944 39.0904 24.0569 38.2543 22.6374C37.4182 21.218 37.0001 19.6722 37.0001 17.9999C37.0001 16.3277 37.4182 14.7819 38.2543 13.3624C39.0904 11.943 40.2279 10.8055 41.6668 9.94994V4.71797C41.6668 4.50855 41.5995 4.33652 41.4648 4.20189C41.3302 4.06726 41.1582 3.99994 40.9487 3.99994H5.05146C4.84205 3.99994 4.67002 4.06726 4.53539 4.20189C4.40075 4.33652 4.33344 4.50855 4.33344 4.71797V9.94994C5.77233 10.8055 6.90983 11.943 7.74594 13.3624C8.58205 14.7819 9.0001 16.3277 9.0001 17.9999C9.0001 19.6722 8.58205 21.218 7.74594 22.6374C6.90983 24.0569 5.77233 25.1944 4.33344 26.0499V31.2819C4.33344 31.4913 4.40075 31.6634 4.53539 31.798C4.67002 31.9326 4.84205 31.9999 5.05146 31.9999ZM23.0009 28.8589C23.4969 28.8589 23.9125 28.6911 24.2475 28.3555C24.5825 28.02 24.75 27.6042 24.75 27.1081C24.75 26.6121 24.5823 26.1965 24.2467 25.8615C23.9112 25.5264 23.4954 25.3589 22.9993 25.3589C22.5033 25.3589 22.0877 25.5267 21.7527 25.8623C21.4177 26.1979 21.2502 26.6137 21.2502 27.1097C21.2502 27.6057 21.4179 28.0213 21.7535 28.3563C22.089 28.6914 22.5048 28.8589 23.0009 28.8589ZM23.0009 19.7499C23.4969 19.7499 23.9125 19.5821 24.2475 19.2466C24.5825 18.911 24.75 18.4952 24.75 17.9992C24.75 17.5031 24.5823 17.0876 24.2467 16.7525C23.9112 16.4175 23.4954 16.25 22.9993 16.25C22.5033 16.25 22.0877 16.4178 21.7527 16.7533C21.4177 17.0889 21.2502 17.5047 21.2502 18.0007C21.2502 18.4968 21.4179 18.9123 21.7535 19.2473C22.089 19.5824 22.5048 19.7499 23.0009 19.7499ZM23.0009 10.641C23.4969 10.641 23.9125 10.4732 24.2475 10.1376C24.5825 9.80203 24.75 9.38623 24.75 8.8902C24.75 8.39417 24.5823 7.97862 24.2467 7.64356C23.9112 7.30853 23.4954 7.14102 22.9993 7.14102C22.5033 7.14102 22.0877 7.3088 21.7527 7.64438C21.4177 7.97991 21.2502 8.39571 21.2502 8.89178C21.2502 9.3878 21.4179 9.80335 21.7535 10.1384C22.089 10.4734 22.5048 10.641 23.0009 10.641Z" fill="#E31837"/>
</svg>
