<svg width="48" height="88" viewBox="0 0 48 88" fill="none" xmlns="http://www.w3.org/2000/svg">
<path d="M16.9798 8.53713C12.7936 23.0893 9.947 38.8149 13.9962 53.6718C16.8276 63.8812 22.8405 72.2621 30.5279 79.7744C32.72 82.0296 30.0103 85.5343 27.2855 83.98C25.7785 83.0353 24.1344 82.0905 22.7187 81.0239C20.892 79.683 19.0805 78.2049 17.4213 76.6201C16.7515 76.0563 15.1531 74.2887 14.5138 73.6183C13.4177 72.4602 12.4131 71.0431 11.4236 69.7935C10.5102 68.4221 9.536 67.0812 8.74442 65.6336C8.40953 65.0088 7.70929 63.7746 7.37439 63.1498C-1.21113 45.87 0.920025 24.5674 10.7081 8.36952C11.2257 7.56191 11.6976 6.83049 12.2761 6.03812C14.1789 3.56957 17.9388 5.61145 16.9646 8.55237L16.9798 8.53713Z" fill="#E31837"/>
<path d="M37.2167 5.56584L28.4942 11.8896C26.9415 13.4438 26.9415 15.9581 28.4942 17.5124L37.3994 24.0037C37.5668 24.1256 37.719 24.2628 37.8713 24.3999C41.4029 27.5542 46.9439 23.8361 45.2238 19.2952L44.0516 16.2171C43.6863 15.2419 43.6863 14.1753 44.0516 13.2L45.1324 10.3505C46.883 5.7487 41.2659 2.00017 37.7038 5.1849C37.5516 5.32204 37.3994 5.45918 37.2319 5.58108L37.2167 5.56584Z" fill="#E31837"/>
<path d="M37.2167 31.1386L28.4942 37.4623C26.9415 39.0166 26.9415 41.5309 28.4942 43.0851L37.3994 49.5765C37.5668 49.6984 37.719 49.8355 37.8713 49.9727C41.4029 53.1269 46.9439 49.4241 45.2238 44.868L44.0516 41.7899C43.6863 40.8147 43.6863 39.748 44.0516 38.7728L45.1324 35.9233C46.883 31.3215 41.2659 27.5729 37.7038 30.7576C37.5516 30.8948 37.3994 31.0319 37.2319 31.1538L37.2167 31.1386Z" fill="#E31837"/>
</svg>
