<svg width="10" height="14" viewBox="0 0 10 14" fill="none" xmlns="http://www.w3.org/2000/svg">
<path d="M3.5 8.56412C3.38548 8.56412 3.29061 8.52651 3.21539 8.4513C3.14018 8.37608 3.10257 8.2812 3.10257 8.16668C3.10257 8.05216 3.14018 7.95729 3.21539 7.88206C3.29061 7.80685 3.38548 7.76925 3.5 7.76925H6.5C6.61453 7.76925 6.7094 7.80685 6.78462 7.88206C6.85983 7.95729 6.89744 8.05216 6.89744 8.16668C6.89744 8.2812 6.85983 8.37608 6.78462 8.4513C6.7094 8.52651 6.61453 8.56412 6.5 8.56412H3.5ZM2.83334 6.56412C2.71881 6.56412 2.62394 6.52651 2.54872 6.4513C2.47351 6.37608 2.4359 6.2812 2.4359 6.16668C2.4359 6.05216 2.47351 5.95729 2.54872 5.88206C2.62394 5.80685 2.71881 5.76925 2.83334 5.76925H7.16667C7.28119 5.76925 7.37607 5.80685 7.45129 5.88206C7.5265 5.95729 7.5641 6.05216 7.5641 6.16668C7.5641 6.2812 7.5265 6.37608 7.45129 6.4513C7.37607 6.52651 7.28119 6.56412 7.16667 6.56412H2.83334ZM1.87182 14C1.53506 14 1.25002 13.8833 1.01669 13.65C0.783354 13.4167 0.666687 13.1316 0.666687 12.7949V1.20516C0.666687 0.868409 0.783354 0.583364 1.01669 0.350031C1.25002 0.116697 1.53506 3.05176e-05 1.87182 3.05176e-05H8.12819C8.46494 3.05176e-05 8.74999 0.116697 8.98332 0.350031C9.21665 0.583364 9.33332 0.868409 9.33332 1.20516V12.7949C9.33332 13.1316 9.21665 13.4167 8.98332 13.65C8.74999 13.8833 8.46494 14 8.12819 14L1.87182 14ZM1.66667 12.1667V12.7949C1.66667 12.8462 1.68804 12.8932 1.73077 12.9359C1.77351 12.9787 1.82053 13 1.87182 13H8.12819C8.17948 13 8.22649 12.9787 8.26924 12.9359C8.31197 12.8932 8.33334 12.8462 8.33334 12.7949V12.1667H1.66667ZM1.66667 11.1667H8.33334V2.83335H1.66667V11.1667ZM1.66667 1.83338H8.33334V1.20518C8.33334 1.15389 8.31197 1.10688 8.26924 1.06413C8.22649 1.0214 8.17948 1.00003 8.12819 1.00003H1.87182C1.82053 1.00003 1.77351 1.0214 1.73077 1.06413C1.68804 1.10688 1.66667 1.15389 1.66667 1.20518V1.83338Z" fill="#691A1E"/>
</svg>
