<svg width="10" height="14" viewBox="0 0 10 14" fill="none" xmlns="http://www.w3.org/2000/svg">
<path d="M3.49994 8.56412C3.38542 8.56412 3.29055 8.52651 3.21533 8.4513C3.14012 8.37608 3.10251 8.2812 3.10251 8.16668C3.10251 8.05216 3.14012 7.95729 3.21533 7.88206C3.29055 7.80685 3.38542 7.76925 3.49994 7.76925H6.49994C6.61447 7.76925 6.70934 7.80685 6.78456 7.88206C6.85977 7.95729 6.89738 8.05216 6.89738 8.16668C6.89738 8.2812 6.85977 8.37608 6.78456 8.4513C6.70934 8.52651 6.61447 8.56412 6.49994 8.56412H3.49994ZM2.83328 6.56412C2.71875 6.56412 2.62388 6.52651 2.54866 6.4513C2.47345 6.37608 2.43584 6.2812 2.43584 6.16668C2.43584 6.05216 2.47345 5.95729 2.54866 5.88206C2.62388 5.80685 2.71875 5.76925 2.83328 5.76925H7.16661C7.28113 5.76925 7.376 5.80685 7.45123 5.88206C7.52644 5.95729 7.56404 6.05216 7.56404 6.16668C7.56404 6.2812 7.52644 6.37608 7.45123 6.4513C7.376 6.52651 7.28113 6.56412 7.16661 6.56412H2.83328ZM1.87176 14C1.535 14 1.24996 13.8833 1.01663 13.65C0.783293 13.4167 0.666626 13.1316 0.666626 12.7949V1.20516C0.666626 0.868409 0.783293 0.583364 1.01663 0.350031C1.24996 0.116697 1.535 3.05176e-05 1.87176 3.05176e-05H8.12813C8.46488 3.05176e-05 8.74993 0.116697 8.98326 0.350031C9.21659 0.583364 9.33326 0.868409 9.33326 1.20516V12.7949C9.33326 13.1316 9.21659 13.4167 8.98326 13.65C8.74993 13.8833 8.46488 14 8.12813 14L1.87176 14ZM1.66661 12.1667V12.7949C1.66661 12.8462 1.68798 12.8932 1.73071 12.9359C1.77345 12.9787 1.82047 13 1.87176 13H8.12813C8.17941 13 8.22643 12.9787 8.26918 12.9359C8.31191 12.8932 8.33328 12.8462 8.33328 12.7949V12.1667H1.66661ZM1.66661 11.1667H8.33328V2.83335H1.66661V11.1667ZM1.66661 1.83338H8.33328V1.20518C8.33328 1.15389 8.31191 1.10688 8.26918 1.06413C8.22643 1.0214 8.17941 1.00003 8.12813 1.00003H1.87176C1.82047 1.00003 1.77345 1.0214 1.73071 1.06413C1.68798 1.10688 1.66661 1.15389 1.66661 1.20518V1.83338Z" fill="#D3B9BD"/>
</svg>
