<svg width="24" height="24" viewBox="0 0 24 24" fill="none" xmlns="http://www.w3.org/2000/svg">
    <mask id="mask0_3913_21115" style="mask-type:alpha" maskUnits="userSpaceOnUse" x="0" y="0" width="24" height="24">
        <rect width="24" height="24" fill="#D9D9D9"/>
    </mask>
    <g mask="url(#mask0_3913_21115)">
        <path d="M5.00236 11.5558L2.84836 9.40202C2.6677 9.22118 2.57895 9.01027 2.58211 8.76927C2.58528 8.52827 2.67728 8.31735 2.85811 8.13652L5.00236 5.99227C5.18303 5.8116 5.39395 5.72126 5.63511 5.72126C5.87611 5.72126 6.08695 5.8116 6.26761 5.99227L8.41186 8.13652C8.5927 8.31735 8.68311 8.52827 8.68311 8.76927C8.68311 9.01027 8.5927 9.22118 8.41186 9.40202L6.26761 11.5463C6.08695 11.7269 5.87611 11.8188 5.63511 11.822C5.39395 11.8253 5.18303 11.7366 5.00236 11.5558ZM10.3081 21.5C10.0519 21.5 9.83728 21.4133 9.66411 21.24C9.49095 21.0668 9.40436 20.8522 9.40436 20.596V16.702C8.54653 16.6343 7.69736 16.5414 6.85686 16.4233C6.0162 16.3051 5.17561 16.1531 4.33511 15.9673C4.11578 15.9134 3.93628 15.7952 3.79661 15.6125C3.65678 15.4298 3.61895 15.2305 3.68311 15.0145C3.74728 14.7985 3.87803 14.6398 4.07536 14.5385C4.27286 14.4372 4.4812 14.4134 4.70036 14.4673C5.89786 14.7443 7.10678 14.9359 8.32711 15.0423C9.54745 15.1488 10.7719 15.202 12.0004 15.202C13.2289 15.202 14.4533 15.1488 15.6736 15.0423C16.8939 14.9359 18.1029 14.7443 19.3004 14.4673C19.5195 14.4134 19.7279 14.4368 19.9256 14.5375C20.1233 14.6383 20.2539 14.7957 20.3176 15.0095C20.3818 15.2288 20.3439 15.4298 20.2041 15.6125C20.0644 15.7952 19.8849 15.9134 19.6656 15.9673C18.8251 16.1531 17.9845 16.3051 17.1439 16.4233C16.3034 16.5414 15.4542 16.6343 14.5964 16.702V20.596C14.5964 20.8522 14.5098 21.0668 14.3366 21.24C14.1634 21.4133 13.9488 21.5 13.6926 21.5H10.3081ZM5.63511 10.0905L6.94661 8.76927L5.63511 7.45777L4.31386 8.76927L5.63511 10.0905ZM12.0004 7.19227C11.2632 7.19227 10.6366 6.93426 10.1206 6.41826C9.60461 5.90227 9.34661 5.27568 9.34661 4.53851C9.34661 3.80135 9.60461 3.17476 10.1206 2.65876C10.6366 2.14276 11.2632 1.88477 12.0004 1.88477C12.7375 1.88477 13.3641 2.14276 13.8801 2.65876C14.3961 3.17476 14.6541 3.80135 14.6541 4.53851C14.6541 5.27568 14.3961 5.90227 13.8801 6.41826C13.3641 6.93426 12.7375 7.19227 12.0004 7.19227ZM12.0004 13.8943C11.4927 13.8943 11.0581 13.7135 10.6966 13.352C10.3349 12.9903 10.1541 12.5557 10.1541 12.048C10.1541 11.5403 10.3349 11.1058 10.6966 10.7443C11.0581 10.3828 11.4927 10.202 12.0004 10.202C12.508 10.202 12.9426 10.3828 13.3041 10.7443C13.6658 11.1058 13.8466 11.5403 13.8466 12.048C13.8466 12.5557 13.6658 12.9903 13.3041 13.352C12.9426 13.7135 12.508 13.8943 12.0004 13.8943ZM12.0004 5.69227C12.3222 5.69227 12.5949 5.58043 12.8186 5.35677C13.0423 5.1331 13.1541 4.86035 13.1541 4.53851C13.1541 4.21668 13.0423 3.94393 12.8186 3.72027C12.5949 3.4966 12.3222 3.38477 12.0004 3.38477C11.6785 3.38477 11.4058 3.4966 11.1821 3.72027C10.9584 3.94393 10.8466 4.21668 10.8466 4.53851C10.8466 4.86035 10.9584 5.1331 11.1821 5.35677C11.4058 5.58043 11.6785 5.69227 12.0004 5.69227ZM16.7659 11.4713L15.7601 9.72126C15.6831 9.5861 15.6446 9.43593 15.6446 9.27077C15.6446 9.1056 15.6831 8.95443 15.7601 8.81727L16.7659 7.06727C16.8427 6.91993 16.9492 6.80777 17.0854 6.73076C17.2214 6.65393 17.3725 6.61552 17.5389 6.61552H19.4906C19.6569 6.61552 19.8082 6.65393 19.9444 6.73076C20.0804 6.80777 20.1869 6.91993 20.2639 7.06727L21.2696 8.81727C21.3464 8.95243 21.3849 9.1026 21.3849 9.26777C21.3849 9.43293 21.3464 9.5841 21.2696 9.72126L20.2639 11.4713C20.1869 11.6186 20.0804 11.7308 19.9444 11.8078C19.8082 11.8846 19.6569 11.923 19.4906 11.923H17.5389C17.3725 11.923 17.2214 11.8846 17.0854 11.8078C16.9492 11.7308 16.8427 11.6186 16.7659 11.4713ZM17.8766 10.423H19.1561L19.7926 9.26927L19.1529 8.11552H17.8734L17.2369 9.26927L17.8766 10.423Z" fill="#691A1E"/>
    </g>
</svg>