<svg width="24" height="62" viewBox="0 0 24 62" fill="none" xmlns="http://www.w3.org/2000/svg">
    <mask id="mask0_3780_31445" style="mask-type:alpha" maskUnits="userSpaceOnUse" x="0" y="19" width="24" height="24">
        <rect y="19" width="24" height="24" fill="#D9D9D9"/>
    </mask>
    <g mask="url(#mask0_3780_31445)">
        <path d="M9 36.75H15C15.2128 36.75 15.391 36.6782 15.5345 36.5345C15.6782 36.391 15.75 36.2128 15.75 36C15.75 35.7872 15.6782 35.609 15.5345 35.4655C15.391 35.3218 15.2128 35.25 15 35.25H9C8.78717 35.25 8.609 35.3218 8.4655 35.4655C8.32183 35.609 8.25 35.7872 8.25 36C8.25 36.2128 8.32183 36.391 8.4655 36.5345C8.609 36.6782 8.78717 36.75 9 36.75ZM9 32.75H15C15.2128 32.75 15.391 32.6782 15.5345 32.5345C15.6782 32.391 15.75 32.2128 15.75 32C15.75 31.7872 15.6782 31.609 15.5345 31.4655C15.391 31.3218 15.2128 31.25 15 31.25H9C8.78717 31.25 8.609 31.3218 8.4655 31.4655C8.32183 31.609 8.25 31.7872 8.25 32C8.25 32.2128 8.32183 32.391 8.4655 32.5345C8.609 32.6782 8.78717 32.75 9 32.75ZM6.30775 40.5C5.80258 40.5 5.375 40.325 5.025 39.975C4.675 39.625 4.5 39.1974 4.5 38.6923V23.3077C4.5 22.8026 4.675 22.375 5.025 22.025C5.375 21.675 5.80258 21.5 6.30775 21.5H13.502C13.743 21.5 13.9748 21.5468 14.1973 21.6405C14.4196 21.734 14.6128 21.8628 14.777 22.027L18.973 26.223C19.1372 26.3872 19.266 26.5804 19.3595 26.8027C19.4532 27.0252 19.5 27.257 19.5 27.498V38.6923C19.5 39.1974 19.325 39.625 18.975 39.975C18.625 40.325 18.1974 40.5 17.6923 40.5H6.30775ZM13.5 26.596V23H6.30775C6.23075 23 6.16025 23.0321 6.09625 23.0962C6.03208 23.1602 6 23.2307 6 23.3077V38.6923C6 38.7693 6.03208 38.8398 6.09625 38.9038C6.16025 38.9679 6.23075 39 6.30775 39H17.6923C17.7692 39 17.8398 38.9679 17.9038 38.9038C17.9679 38.8398 18 38.7693 18 38.6923V27.5H14.404C14.1462 27.5 13.9311 27.4138 13.7587 27.2413C13.5863 27.0689 13.5 26.8538 13.5 26.596Z" fill="#691A1E"/>
    </g>
</svg>
