<svg width="17" height="16" viewBox="0 0 17 16" fill="none" xmlns="http://www.w3.org/2000/svg">
<mask id="mask0_1051_8055" style="mask-type:alpha" maskUnits="userSpaceOnUse" x="0" y="0" width="17" height="16">
<rect x="0.5" width="16" height="16" fill="#D9D9D9"/>
</mask>
<g mask="url(#mask0_1051_8055)">
<path d="M8.49998 10.2743C8.41964 10.2743 8.34486 10.2615 8.27563 10.2359C8.2064 10.2102 8.14059 10.1662 8.0782 10.1038L6.00513 8.03077C5.90599 7.93162 5.85706 7.8156 5.85835 7.6827C5.85963 7.5498 5.90856 7.43164 6.00513 7.32822C6.10856 7.22481 6.22736 7.17139 6.36153 7.16797C6.49572 7.16454 6.61453 7.21454 6.71795 7.31797L8 8.60002V3.5C8 3.35812 8.04786 3.23932 8.14358 3.1436C8.23931 3.04787 8.35811 3 8.49998 3C8.64186 3 8.76066 3.04787 8.85638 3.1436C8.95211 3.23932 8.99997 3.35812 8.99997 3.5V8.60002L10.282 7.31797C10.3812 7.21882 10.4989 7.16989 10.6352 7.17117C10.7715 7.17246 10.8914 7.22481 10.9948 7.32822C11.0914 7.43164 11.1414 7.54873 11.1448 7.6795C11.1482 7.81027 11.0982 7.92736 10.9948 8.03077L8.92177 10.1038C8.85938 10.1662 8.79357 10.2102 8.72433 10.2359C8.65511 10.2615 8.58033 10.2743 8.49998 10.2743ZM4.70513 13C4.36838 13 4.08333 12.8833 3.85 12.65C3.61667 12.4166 3.5 12.1316 3.5 11.7948V10.4872C3.5 10.3453 3.54787 10.2265 3.6436 10.1308C3.73932 10.035 3.85812 9.98717 4 9.98717C4.14188 9.98717 4.26068 10.035 4.3564 10.1308C4.45212 10.2265 4.49998 10.3453 4.49998 10.4872V11.7948C4.49998 11.8461 4.52135 11.8931 4.56408 11.9359C4.60683 11.9786 4.65384 12 4.70513 12H12.2948C12.3461 12 12.3931 11.9786 12.4359 11.9359C12.4786 11.8931 12.5 11.8461 12.5 11.7948V10.4872C12.5 10.3453 12.5478 10.2265 12.6436 10.1308C12.7393 10.035 12.8581 9.98717 13 9.98717C13.1418 9.98717 13.2606 10.035 13.3564 10.1308C13.4521 10.2265 13.5 10.3453 13.5 10.4872V11.7948C13.5 12.1316 13.3833 12.4166 13.15 12.65C12.9166 12.8833 12.6316 13 12.2948 13H4.70513Z" fill="#E31837"/>
</g>
</svg>
