<svg width="24" height="24" viewBox="0 0 24 24" fill="none" xmlns="http://www.w3.org/2000/svg">
    <mask id="mask0_3780_31372" style="mask-type:alpha" maskUnits="userSpaceOnUse" x="0" y="0" width="24" height="24">
        <rect width="24" height="24" fill="#D9D9D9"/>
    </mask>
    <g mask="url(#mask0_3780_31372)">
        <path d="M5.99997 21.5C5.30127 21.5 4.70993 21.258 4.22595 20.774C3.74198 20.29 3.5 19.6987 3.5 19V17.9231C3.5 17.4259 3.67701 17.0004 4.03102 16.6464C4.38503 16.2924 4.81058 16.1154 5.3077 16.1154H6.5V4.3077C6.5 3.81058 6.67701 3.38503 7.03103 3.03103C7.38503 2.67701 7.81058 2.5 8.3077 2.5H18.6923C19.1894 2.5 19.6149 2.67701 19.9689 3.03103C20.3229 3.38503 20.5 3.81058 20.5 4.3077V19C20.5 19.6987 20.258 20.29 19.774 20.774C19.29 21.258 18.6987 21.5 18 21.5H5.99997ZM18 20C18.2833 20 18.5208 19.9041 18.7125 19.7125C18.9041 19.5208 19 19.2833 19 19V4.3077C19 4.21795 18.9711 4.14423 18.9134 4.08653C18.8557 4.02883 18.782 3.99998 18.6923 3.99998H8.3077C8.21795 3.99998 8.14423 4.02883 8.08653 4.08653C8.02883 4.14423 7.99998 4.21795 7.99998 4.3077V16.1154H15.1923C15.6894 16.1154 16.115 16.2924 16.469 16.6464C16.823 17.0004 17 17.4259 17 17.9231V19C17 19.2833 17.0958 19.5208 17.2875 19.7125C17.4791 19.9041 17.7166 20 18 20ZM9.94228 8.69225C9.72977 8.69225 9.55166 8.62035 9.40793 8.47655C9.26417 8.33273 9.1923 8.15453 9.1923 7.94195C9.1923 7.72935 9.26417 7.55126 9.40793 7.40768C9.55166 7.26409 9.72977 7.1923 9.94228 7.1923H17.0577C17.2702 7.1923 17.4483 7.26421 17.592 7.40803C17.7358 7.55183 17.8077 7.73003 17.8077 7.94263C17.8077 8.15521 17.7358 8.33329 17.592 8.47688C17.4483 8.62046 17.2702 8.69225 17.0577 8.69225H9.94228ZM9.94228 11.5769C9.72977 11.5769 9.55166 11.505 9.40793 11.3612C9.26417 11.2173 9.1923 11.0391 9.1923 10.8266C9.1923 10.614 9.26417 10.4359 9.40793 10.2923C9.55166 10.1487 9.72977 10.0769 9.94228 10.0769H17.0577C17.2702 10.0769 17.4483 10.1488 17.592 10.2926C17.7358 10.4364 17.8077 10.6146 17.8077 10.8272C17.8077 11.0398 17.7358 11.2179 17.592 11.3615C17.4483 11.5051 17.2702 11.5769 17.0577 11.5769H9.94228ZM5.99997 20H15.5V17.9231C15.5 17.8333 15.4712 17.7596 15.4135 17.7019C15.3558 17.6442 15.2821 17.6153 15.1923 17.6153H5.3077C5.21795 17.6153 5.14423 17.6442 5.08653 17.7019C5.02883 17.7596 4.99997 17.8333 4.99997 17.9231V19C4.99997 19.2833 5.09581 19.5208 5.28747 19.7125C5.47914 19.9041 5.71664 20 5.99997 20ZM5.99997 20H4.99997H15.5H5.99997Z" fill="#691A1E"/>
    </g>
</svg>
