<svg width="28" height="33" viewBox="0 0 28 33" fill="none" xmlns="http://www.w3.org/2000/svg">
<path d="M14.459 6.35L4.33397 30.65C4.15396 31.13 3.88396 31.505 3.52397 31.775C3.16397 32.045 2.75897 32.18 2.30897 32.18C1.64896 32.18 1.15396 32 0.823965 31.64C0.493965 31.25 0.313965 30.77 0.283965 30.2C0.283965 29.99 0.328965 29.75 0.418965 29.48L11.849 1.85C12.059 1.34 12.359 0.949998 12.749 0.679998C13.169 0.409998 13.619 0.289998 14.099 0.319997C14.549 0.319997 14.969 0.454998 15.359 0.724998C15.749 0.994998 16.034 1.37 16.214 1.85L27.509 29.075C27.629 29.375 27.689 29.675 27.689 29.975C27.689 30.635 27.464 31.175 27.014 31.595C26.594 31.985 26.114 32.18 25.574 32.18C25.124 32.18 24.704 32.045 24.314 31.775C23.954 31.475 23.684 31.1 23.504 30.65L13.289 6.485L14.459 6.35ZM6.13397 24.26L8.15897 19.94H20.894L21.659 24.26H6.13397Z" fill="#EDE0E3"/>
</svg>
