<svg width="14" height="14" viewBox="0 0 14 14" fill="none" xmlns="http://www.w3.org/2000/svg">
<path d="M6.99982 10.1537C7.15239 10.1537 7.28027 10.1021 7.38347 9.99885C7.48667 9.89564 7.53827 9.76776 7.53827 9.6152C7.53827 9.46264 7.48667 9.33475 7.38347 9.23155C7.28027 9.12835 7.15239 9.07675 6.99982 9.07675C6.84725 9.07675 6.71937 9.12835 6.61617 9.23155C6.51297 9.33475 6.46137 9.46264 6.46137 9.6152C6.46137 9.76776 6.51297 9.89564 6.61617 9.99885C6.71937 10.1021 6.84725 10.1537 6.99982 10.1537ZM7.00004 7.71777C7.14177 7.71777 7.2605 7.66985 7.35622 7.57402C7.45194 7.4782 7.4998 7.35945 7.4998 7.21779V4.21775C7.4998 4.0761 7.45187 3.95735 7.356 3.86152C7.26013 3.76569 7.14133 3.71777 6.9996 3.71777C6.85787 3.71777 6.73914 3.76569 6.64342 3.86152C6.5477 3.95735 6.49984 4.0761 6.49984 4.21775V7.21779C6.49984 7.35945 6.54777 7.4782 6.64364 7.57402C6.73951 7.66985 6.85831 7.71777 7.00004 7.71777ZM7.00094 13.3331C6.12498 13.3331 5.30163 13.1669 4.53087 12.8345C3.7601 12.502 3.08965 12.0509 2.5195 11.481C1.94935 10.9111 1.49798 10.2409 1.16539 9.47049C0.832798 8.70008 0.666504 7.87689 0.666504 7.00094C0.666504 6.12498 0.832726 5.30163 1.16517 4.53087C1.49762 3.7601 1.94878 3.08965 2.51867 2.5195C3.08857 1.94935 3.75873 1.49798 4.52915 1.16539C5.29956 0.832799 6.12275 0.666504 6.9987 0.666504C7.87466 0.666504 8.69802 0.832727 9.46877 1.16517C10.2395 1.49762 10.91 1.94878 11.4801 2.51867C12.0503 3.08857 12.5017 3.75873 12.8343 4.52915C13.1668 5.29957 13.3331 6.12275 13.3331 6.9987C13.3331 7.87466 13.1669 8.69802 12.8345 9.46877C12.502 10.2395 12.0509 10.91 11.481 11.4801C10.9111 12.0503 10.2409 12.5017 9.47049 12.8343C8.70008 13.1668 7.87689 13.3331 7.00094 13.3331ZM6.99982 12.3332C8.48871 12.3332 9.74982 11.8165 10.7832 10.7832C11.8165 9.74982 12.3332 8.48871 12.3332 6.99982C12.3332 5.51093 11.8165 4.24982 10.7832 3.21649C9.74982 2.18315 8.48871 1.66649 6.99982 1.66649C5.51093 1.66649 4.24982 2.18315 3.21649 3.21649C2.18315 4.24982 1.66649 5.51093 1.66649 6.99982C1.66649 8.48871 2.18315 9.74982 3.21649 10.7832C4.24982 11.8165 5.51093 12.3332 6.99982 12.3332Z" fill="#E68600"/>
</svg>
