<svg width="16" height="16" viewBox="0 0 16 16" fill="none" xmlns="http://www.w3.org/2000/svg">
<mask id="mask0_2378_26511" style="mask-type:alpha" maskUnits="userSpaceOnUse" x="0" y="0" width="16" height="16">
<rect width="16" height="16" fill="#D9D9D9"/>
</mask>
<g mask="url(#mask0_2378_26511)">
<path d="M12.4615 12.3333H5.53849C5.20173 12.3333 4.91669 12.2166 4.68335 11.9833C4.45002 11.75 4.33335 11.4649 4.33335 11.1282V2.20513C4.33335 1.86838 4.45002 1.58333 4.68335 1.35C4.91669 1.11667 5.20173 1 5.53849 1H9.66797C9.82865 1 9.98313 1.0312 10.1314 1.0936C10.2797 1.15599 10.4086 1.24188 10.518 1.35128L13.3154 4.14868C13.4248 4.2581 13.5107 4.38694 13.5731 4.53523C13.6355 4.68352 13.6667 4.83801 13.6667 4.99868V11.1282C13.6667 11.4649 13.55 11.75 13.3167 11.9833C13.0833 12.2166 12.7983 12.3333 12.4615 12.3333ZM12.6667 4.99997H10.4744C10.2479 4.99997 10.0566 4.92197 9.90067 4.76598C9.74468 4.61001 9.66669 4.41877 9.66669 4.19228V1.99998H5.53849C5.4872 1.99998 5.44018 2.02135 5.39744 2.06408C5.3547 2.10683 5.33334 2.15385 5.33334 2.20513V11.1282C5.33334 11.1795 5.3547 11.2265 5.39744 11.2692C5.44018 11.312 5.4872 11.3333 5.53849 11.3333H12.4615C12.5128 11.3333 12.5598 11.312 12.6026 11.2692C12.6453 11.2265 12.6667 11.1795 12.6667 11.1282V4.99997ZM2.87182 15C2.53506 15 2.25002 14.8833 2.01669 14.65C1.78335 14.4166 1.66669 14.1316 1.66669 13.7948V5.5C1.66669 5.35812 1.71455 5.23932 1.81029 5.1436C1.90601 5.04787 2.02481 5 2.16669 5C2.30856 5 2.42736 5.04787 2.52309 5.1436C2.61881 5.23932 2.66667 5.35812 2.66667 5.5V13.7948C2.66667 13.8461 2.68804 13.8931 2.73077 13.9359C2.77351 13.9786 2.82053 14 2.87182 14H9.16665C9.30853 14 9.42733 14.0478 9.52305 14.1436C9.61879 14.2393 9.66665 14.3581 9.66665 14.5C9.66665 14.6419 9.61879 14.7607 9.52305 14.8564C9.42733 14.9521 9.30853 15 9.16665 15L2.87182 15Z" fill="#691A1E"/>
</g>
</svg>
