<svg width="14" height="14" viewBox="0 0 14 14" fill="none" xmlns="http://www.w3.org/2000/svg">
<path d="M6.05367 8.43073L4.50494 6.88201C4.41264 6.7897 4.29662 6.74248 4.15687 6.74034C4.01713 6.7382 3.89896 6.78542 3.80239 6.88201C3.70581 6.97859 3.65752 7.09568 3.65752 7.23328C3.65752 7.37088 3.70581 7.48797 3.80239 7.58454L5.63187 9.41403C5.75238 9.53454 5.89298 9.59479 6.05367 9.59479C6.21435 9.59479 6.35494 9.53454 6.47545 9.41403L10.1844 5.70506C10.2767 5.61276 10.324 5.49674 10.3261 5.35699C10.3282 5.21725 10.281 5.09909 10.1844 5.00251C10.0878 4.90593 9.97075 4.85764 9.83315 4.85764C9.69555 4.85764 9.57847 4.90593 9.48189 5.00251L6.05367 8.43073ZM7.00094 13.3333C6.12498 13.3333 5.30163 13.167 4.53087 12.8346C3.7601 12.5021 3.08965 12.051 2.5195 11.4811C1.94935 10.9112 1.49798 10.241 1.16539 9.47061C0.832798 8.7002 0.666504 7.87702 0.666504 7.00106C0.666504 6.1251 0.832726 5.30175 1.16517 4.53099C1.49762 3.76023 1.94878 3.08977 2.51867 2.51963C3.08857 1.94947 3.75873 1.4981 4.52915 1.16551C5.29956 0.832921 6.12275 0.666626 6.9987 0.666626C7.87466 0.666626 8.69802 0.832849 9.46877 1.16529C10.2395 1.49774 10.91 1.9489 11.4801 2.51879C12.0503 3.08869 12.5017 3.75885 12.8343 4.52928C13.1668 5.29969 13.3331 6.12287 13.3331 6.99883C13.3331 7.87478 13.1669 8.69814 12.8345 9.46889C12.502 10.2397 12.0509 10.9101 11.481 11.4803C10.9111 12.0504 10.2409 12.5018 9.47049 12.8344C8.70008 13.167 7.87689 13.3333 7.00094 13.3333Z" fill="#238823"/>
</svg>
