<svg width="24" height="24" viewBox="0 0 24 24" fill="none" xmlns="http://www.w3.org/2000/svg">
    <mask id="mask0_3780_31384" style="mask-type:alpha" maskUnits="userSpaceOnUse" x="0" y="0" width="24" height="24">
        <rect width="24" height="24" fill="#D9D9D9"/>
    </mask>
    <g mask="url(#mask0_3780_31384)">
        <path d="M8.99997 8.49995H15V6.49995C15 5.66662 14.7083 4.95828 14.125 4.37495C13.5416 3.79162 12.8333 3.49995 12 3.49995C11.1666 3.49995 10.4583 3.79162 9.87497 4.37495C9.29164 4.95828 8.99997 5.66662 8.99997 6.49995V8.49995ZM6.3077 21.4999C5.80257 21.4999 5.375 21.3249 5.025 20.9749C4.675 20.6249 4.5 20.1973 4.5 19.6922V10.3077C4.5 9.80252 4.675 9.37495 5.025 9.02495C5.375 8.67495 5.80257 8.49995 6.3077 8.49995H7.5V6.49995C7.5 5.25125 7.93782 4.18908 8.81345 3.31345C9.6891 2.43782 10.7513 2 12 2C13.2487 2 14.3108 2.43782 15.1865 3.31345C16.0621 4.18908 16.5 5.25125 16.5 6.49995V8.49995H17.6922C18.1974 8.49995 18.625 8.67495 18.975 9.02495C19.325 9.37495 19.5 9.80252 19.5 10.3077V10.5384C19.5 10.7884 19.4214 10.9759 19.2644 11.1009C19.1073 11.2259 18.9359 11.2884 18.75 11.2884C18.5641 11.2884 18.3926 11.2259 18.2355 11.1009C18.0785 10.9759 18 10.7884 18 10.5384V10.3077C18 10.2179 17.9711 10.1442 17.9134 10.0865C17.8557 10.0288 17.782 9.99993 17.6922 9.99993H6.3077C6.21795 9.99993 6.14423 10.0288 6.08652 10.0865C6.02882 10.1442 5.99997 10.2179 5.99997 10.3077V19.6922C5.99997 19.7819 6.02882 19.8557 6.08652 19.9134C6.14423 19.9711 6.21795 19.9999 6.3077 19.9999H11.5673C11.7801 19.9999 11.9583 20.0717 12.1019 20.2153C12.2455 20.3589 12.3173 20.5371 12.3173 20.7499C12.3173 20.9627 12.2455 21.1409 12.1019 21.2845C11.9583 21.4281 11.7801 21.4999 11.5673 21.4999H6.3077ZM17.8077 22.3076C16.559 22.3076 15.4968 21.8698 14.6212 20.9941C13.7455 20.1185 13.3077 19.0563 13.3077 17.8076C13.3077 16.5589 13.7455 15.4967 14.6212 14.6211C15.4968 13.7455 16.559 13.3077 17.8077 13.3077C19.0564 13.3077 20.1185 13.7455 20.9942 14.6211C21.8698 15.4967 22.3076 16.5589 22.3076 17.8076C22.3076 19.0563 21.8698 20.1185 20.9942 20.9941C20.1185 21.8698 19.0564 22.3076 17.8077 22.3076ZM18.25 17.6268V15.3076C18.25 15.1871 18.2064 15.0832 18.1192 14.9961C18.032 14.9089 17.9282 14.8653 17.8077 14.8653C17.6871 14.8653 17.5833 14.9089 17.4961 14.9961C17.4089 15.0832 17.3654 15.1871 17.3654 15.3076V17.6115C17.3654 17.732 17.3871 17.8467 17.4307 17.9557C17.4743 18.0647 17.5429 18.1659 17.6365 18.2595L19.1461 19.7691C19.2333 19.8563 19.3355 19.9015 19.4529 19.9047C19.5702 19.9079 19.6756 19.8627 19.7692 19.7691C19.8628 19.6756 19.9096 19.5717 19.9096 19.4576C19.9096 19.3435 19.8628 19.2397 19.7692 19.1461L18.25 17.6268Z" fill="#691A1E"/>
    </g>
</svg>
