<svg width="16" height="16" viewBox="0 0 16 16" fill="none" xmlns="http://www.w3.org/2000/svg">
<g clip-path="url(#clip0_5181_1841)">
<mask id="mask0_5181_1841" style="mask-type:alpha" maskUnits="userSpaceOnUse" x="0" y="0" width="16" height="16">
<rect width="16" height="16" fill="#D9D9D9"/>
</mask>
<g mask="url(#mask0_5181_1841)">
<path d="M7.99298 11.7435C8.18333 11.7435 8.34411 11.6778 8.47531 11.5464C8.6065 11.4149 8.67209 11.254 8.67209 11.0637C8.67209 10.8733 8.60638 10.7125 8.47494 10.5814C8.34351 10.4502 8.18261 10.3846 7.99226 10.3846C7.8019 10.3846 7.64113 10.4503 7.50994 10.5817C7.37874 10.7131 7.31314 10.874 7.31314 11.0644C7.31314 11.2547 7.37886 11.4155 7.51029 11.5467C7.64173 11.6779 7.80262 11.7435 7.99298 11.7435ZM8.00143 14.3333C7.12547 14.3333 6.30211 14.167 5.53136 13.8346C4.76059 13.5021 4.09014 13.051 3.51999 12.4811C2.94984 11.9112 2.49846 11.241 2.16588 10.4706C1.83329 9.7002 1.66699 8.87702 1.66699 8.00106C1.66699 7.1251 1.83321 6.30175 2.16566 5.53099C2.4981 4.76023 2.94927 4.08977 3.51916 3.51963C4.08906 2.94947 4.75922 2.4981 5.52964 2.16551C6.30005 1.83292 7.12324 1.66663 7.99919 1.66663C8.87515 1.66663 9.6985 1.83285 10.4693 2.16529C11.24 2.49774 11.9105 2.9489 12.4806 3.51879C13.0508 4.08869 13.5022 4.75885 13.8347 5.52928C14.1673 6.29969 14.3336 7.12287 14.3336 7.99883C14.3336 8.87478 14.1674 9.69814 13.835 10.4689C13.5025 11.2397 13.0513 11.9101 12.4815 12.4803C11.9116 13.0504 11.2414 13.5018 10.471 13.8344C9.70056 14.167 8.87738 14.3333 8.00143 14.3333ZM8.00031 13.3333C9.4892 13.3333 10.7503 12.8166 11.7836 11.7833C12.817 10.7499 13.3336 9.48883 13.3336 7.99994C13.3336 6.51105 12.817 5.24994 11.7836 4.21661C10.7503 3.18328 9.4892 2.66661 8.00031 2.66661C6.51142 2.66661 5.25031 3.18328 4.21698 4.21661C3.18364 5.24994 2.66698 6.51105 2.66698 7.99994C2.66698 9.48883 3.18364 10.7499 4.21698 11.7833C5.25031 12.8166 6.51142 13.3333 8.00031 13.3333ZM8.05431 5.14609C8.3619 5.14609 8.62809 5.24292 8.85288 5.43658C9.07766 5.63023 9.19006 5.8723 9.19006 6.16278C9.19006 6.40722 9.11826 6.62602 8.97468 6.81918C8.83109 7.01234 8.66699 7.19226 8.48238 7.35893C8.24038 7.5736 8.02731 7.80975 7.84318 8.06738C7.65905 8.32499 7.56058 8.61192 7.54776 8.92816C7.54348 9.04952 7.58621 9.15122 7.67596 9.23328C7.7657 9.31532 7.8704 9.35634 7.99006 9.35634C8.11826 9.35634 8.2268 9.31361 8.31569 9.22814C8.40457 9.14268 8.4614 9.03798 8.48619 8.91404C8.53064 8.68499 8.6253 8.48093 8.77018 8.30188C8.91504 8.12281 9.07198 7.95254 9.24099 7.79108C9.48395 7.55425 9.69602 7.29603 9.87721 7.01641C10.0584 6.73678 10.149 6.42488 10.149 6.08073C10.149 5.55253 9.94089 5.11855 9.52466 4.77881C9.10843 4.43907 8.62253 4.26919 8.06698 4.26919C7.6704 4.26919 7.29647 4.35702 6.94519 4.53266C6.59391 4.70829 6.32041 4.96449 6.12468 5.30124C6.064 5.40465 6.04452 5.5135 6.06624 5.62779C6.08796 5.74207 6.14661 5.82884 6.24219 5.88811C6.36385 5.95583 6.48878 5.97516 6.61698 5.94609C6.74518 5.91704 6.85415 5.84397 6.94389 5.72688C7.07894 5.55165 7.2424 5.41105 7.43428 5.30508C7.62615 5.19909 7.83283 5.14609 8.05431 5.14609Z" fill="#691A1E"/>
</g>
</g>
<defs>
<clipPath id="clip0_5181_1841">
<rect width="16" height="16" rx="8" fill="white"/>
</clipPath>
</defs>
</svg>
