<svg width="34" height="26" viewBox="0 0 34 26" fill="none" xmlns="http://www.w3.org/2000/svg">
<path d="M29.24 4.92V26H24.68V4.92H22V1.12H33.16V4.92H29.24ZM12.8 0.719999C15.0133 0.719999 16.6933 1.28 17.84 2.4C19.0133 3.52 19.6 4.93333 19.6 6.64C19.6 7.89333 19.2667 9.01333 18.6 10C17.96 10.9867 16.9867 11.7733 15.68 12.36C14.4 12.92 12.8133 13.2267 10.92 13.28L10.68 9.6C12.36 9.52 13.52 9.24 14.16 8.76C14.8 8.25333 15.12 7.57333 15.12 6.72C15.12 5.89333 14.8267 5.32 14.24 5C13.68 4.68 13.04 4.52 12.32 4.52C11.4133 4.52 10.5733 4.65333 9.8 4.92C9.02667 5.16 8.25333 5.48 7.48 5.88L6.16 2.32C6.90667 1.94667 7.85333 1.58667 9 1.24C10.1467 0.893332 11.4133 0.719999 12.8 0.719999ZM20.08 17.44C20.08 18.6933 19.8 19.76 19.24 20.64C18.68 21.52 17.88 22.1867 16.84 22.64C15.8267 23.0667 14.6 23.28 13.16 23.28C11.56 23.28 10.0533 22.9467 8.64 22.28C7.25333 21.5867 5.93333 20.4133 4.68 18.76C3.42667 17.1067 2.17333 14.84 0.92 11.96L4.88 10.48C5.62667 12.3733 6.4 13.9867 7.2 15.32C8.02667 16.6533 8.89333 17.6667 9.8 18.36C10.7333 19.0533 11.7467 19.4 12.84 19.4C13.6933 19.4 14.36 19.1867 14.84 18.76C15.32 18.3333 15.56 17.6933 15.56 16.84C15.56 15.6667 15.2133 14.6667 14.52 13.84C13.8267 12.9867 12.8533 12.1733 11.6 11.4L14.44 10.76L16.64 10.84C17.04 11.16 17.44 11.5467 17.84 12C18.24 12.4267 18.5733 12.8667 18.84 13.32L19.2 14.12C19.4667 14.6267 19.68 15.16 19.84 15.72C20 16.28 20.08 16.8533 20.08 17.44ZM20.4 12.08C21.6 12.08 22.6533 11.9867 23.56 11.8C24.4667 11.6133 25.44 11.28 26.48 10.8V14.64C25.5467 15.1467 24.64 15.48 23.76 15.64C22.9067 15.8 21.9867 15.88 21 15.88C20.52 15.88 20 15.8533 19.44 15.8C18.9067 15.7467 18.4 15.68 17.92 15.6C17.4667 15.4933 17.08 15.4133 16.76 15.36L15.76 12.2L16.24 11.64C16.8267 11.7733 17.4533 11.88 18.12 11.96C18.8133 12.04 19.5733 12.08 20.4 12.08Z" fill="#EDE0E3"/>
</svg>
