<svg width="46" height="36" viewBox="0 0 46 36" fill="none" xmlns="http://www.w3.org/2000/svg">
<path d="M5.05146 35.4999C3.89152 35.4999 2.89855 35.0869 2.07255 34.2609C1.24652 33.4349 0.833496 32.4419 0.833496 31.282V24.8879C0.833496 24.505 0.943435 24.1654 1.16331 23.8693C1.38319 23.5731 1.67709 23.3712 2.04502 23.2635C3.06811 22.7879 3.89975 22.0816 4.53994 21.1446C5.18009 20.2076 5.50016 19.1591 5.50016 17.9991C5.50016 16.839 5.18009 15.7908 4.53994 14.8544C3.89975 13.9181 3.06811 13.2121 2.04502 12.7365C1.67709 12.6288 1.38319 12.4269 1.16331 12.1307C0.943435 11.8346 0.833496 11.495 0.833496 11.1121V4.71803C0.833496 3.55809 1.24652 2.56512 2.07255 1.73912C2.89855 0.913082 3.89152 0.500061 5.05146 0.500061H40.9487C42.1087 0.500061 43.1017 0.913082 43.9277 1.73912C44.7537 2.56512 45.1667 3.55809 45.1667 4.71803V11.1121C45.1667 11.495 45.0568 11.8346 44.8369 12.1307C44.617 12.4269 44.3231 12.6288 43.9552 12.7365C42.9321 13.2121 42.1005 13.9184 41.4603 14.8554C40.8201 15.7924 40.5 16.8409 40.5 18.0009C40.5 19.161 40.8201 20.2092 41.4603 21.1456C42.1005 22.0819 42.9321 22.7879 43.9552 23.2635C44.3231 23.3712 44.617 23.5731 44.8369 23.8693C45.0568 24.1654 45.1667 24.505 45.1667 24.8879V31.282C45.1667 32.4419 44.7537 33.4349 43.9277 34.2609C43.1017 35.0869 42.1087 35.4999 40.9487 35.4999H5.05146ZM5.05146 32H40.9487C41.1582 32 41.3302 31.9327 41.4648 31.798C41.5995 31.6634 41.6668 31.4914 41.6668 31.282V26.05C40.2279 25.1944 39.0904 24.0569 38.2543 22.6375C37.4182 21.2181 37.0001 19.6722 37.0001 18C37.0001 16.3278 37.4182 14.7819 38.2543 13.3625C39.0904 11.9431 40.2279 10.8056 41.6668 9.95V4.71803C41.6668 4.50861 41.5995 4.33659 41.4648 4.20195C41.3302 4.06732 41.1582 4 40.9487 4H5.05146C4.84205 4 4.67002 4.06732 4.53539 4.20195C4.40075 4.33659 4.33344 4.50861 4.33344 4.71803V9.95C5.77233 10.8056 6.90983 11.9431 7.74594 13.3625C8.58205 14.7819 9.0001 16.3278 9.0001 18C9.0001 19.6722 8.58205 21.2181 7.74594 22.6375C6.90983 24.0569 5.77233 25.1944 4.33344 26.05V31.282C4.33344 31.4914 4.40075 31.6634 4.53539 31.798C4.67002 31.9327 4.84205 32 5.05146 32ZM23.0009 28.8589C23.4969 28.8589 23.9125 28.6911 24.2475 28.3556C24.5825 28.02 24.75 27.6042 24.75 27.1082C24.75 26.6121 24.5823 26.1966 24.2467 25.8615C23.9112 25.5265 23.4954 25.359 22.9993 25.359C22.5033 25.359 22.0877 25.5268 21.7527 25.8623C21.4177 26.1979 21.2502 26.6137 21.2502 27.1097C21.2502 27.6058 21.4179 28.0213 21.7535 28.3564C22.089 28.6914 22.5048 28.8589 23.0009 28.8589ZM23.0009 19.7499C23.4969 19.7499 23.9125 19.5822 24.2475 19.2466C24.5825 18.9111 24.75 18.4953 24.75 17.9992C24.75 17.5032 24.5823 17.0876 24.2467 16.7526C23.9112 16.4176 23.4954 16.2501 22.9993 16.2501C22.5033 16.2501 22.0877 16.4178 21.7527 16.7534C21.4177 17.0889 21.2502 17.5047 21.2502 18.0008C21.2502 18.4968 21.4179 18.9124 21.7535 19.2474C22.089 19.5824 22.5048 19.7499 23.0009 19.7499ZM23.0009 10.641C23.4969 10.641 23.9125 10.4732 24.2475 10.1377C24.5825 9.80209 24.75 9.38629 24.75 8.89026C24.75 8.39424 24.5823 7.97869 24.2467 7.64362C23.9112 7.30859 23.4954 7.14108 22.9993 7.14108C22.5033 7.14108 22.0877 7.30887 21.7527 7.64444C21.4177 7.97997 21.2502 8.39577 21.2502 8.89184C21.2502 9.38786 21.4179 9.80341 21.7535 10.1385C22.089 10.4735 22.5048 10.641 23.0009 10.641Z" fill="#D3B9BD"/>
</svg>
