<svg width="46" height="36" viewBox="0 0 46 36" fill="none" xmlns="http://www.w3.org/2000/svg">
<path d="M5.05137 35.4999C3.89143 35.4999 2.89846 35.0869 2.07246 34.2609C1.24642 33.4349 0.833405 32.4419 0.833405 31.282V24.8879C0.833405 24.505 0.943343 24.1654 1.16322 23.8693C1.3831 23.5731 1.677 23.3712 2.04493 23.2635C3.06802 22.7879 3.89966 22.0816 4.53985 21.1446C5.18 20.2076 5.50007 19.1591 5.50007 17.9991C5.50007 16.839 5.18 15.7908 4.53985 14.8544C3.89966 13.9181 3.06802 13.2121 2.04493 12.7365C1.677 12.6288 1.3831 12.4269 1.16322 12.1307C0.943343 11.8346 0.833405 11.495 0.833405 11.1121V4.71803C0.833405 3.55809 1.24642 2.56512 2.07246 1.73912C2.89846 0.913082 3.89143 0.500061 5.05137 0.500061H40.9487C42.1086 0.500061 43.1016 0.913082 43.9276 1.73912C44.7536 2.56512 45.1666 3.55809 45.1666 4.71803V11.1121C45.1666 11.495 45.0567 11.8346 44.8368 12.1307C44.6169 12.4269 44.323 12.6288 43.9551 12.7365C42.932 13.2121 42.1004 13.9184 41.4602 14.8554C40.82 15.7924 40.5 16.8409 40.5 18.0009C40.5 19.161 40.82 20.2092 41.4602 21.1456C42.1004 22.0819 42.932 22.7879 43.9551 23.2635C44.323 23.3712 44.6169 23.5731 44.8368 23.8693C45.0567 24.1654 45.1666 24.505 45.1666 24.8879V31.282C45.1666 32.4419 44.7536 33.4349 43.9276 34.2609C43.1016 35.0869 42.1086 35.4999 40.9487 35.4999H5.05137ZM5.05137 32H40.9487C41.1581 32 41.3301 31.9327 41.4647 31.798C41.5994 31.6634 41.6667 31.4914 41.6667 31.282V26.05C40.2278 25.1944 39.0903 24.0569 38.2542 22.6375C37.4181 21.2181 37 19.6722 37 18C37 16.3278 37.4181 14.7819 38.2542 13.3625C39.0903 11.9431 40.2278 10.8056 41.6667 9.95V4.71803C41.6667 4.50861 41.5994 4.33659 41.4647 4.20195C41.3301 4.06732 41.1581 4 40.9487 4H5.05137C4.84196 4 4.66993 4.06732 4.5353 4.20195C4.40066 4.33659 4.33335 4.50861 4.33335 4.71803V9.95C5.77224 10.8056 6.90974 11.9431 7.74585 13.3625C8.58196 14.7819 9.00001 16.3278 9.00001 18C9.00001 19.6722 8.58196 21.2181 7.74585 22.6375C6.90974 24.0569 5.77224 25.1944 4.33335 26.05V31.282C4.33335 31.4914 4.40066 31.6634 4.5353 31.798C4.66993 31.9327 4.84196 32 5.05137 32ZM23.0008 28.8589C23.4968 28.8589 23.9124 28.6911 24.2474 28.3556C24.5824 28.02 24.75 27.6042 24.75 27.1082C24.75 26.6121 24.5822 26.1966 24.2467 25.8615C23.9111 25.5265 23.4953 25.359 22.9993 25.359C22.5032 25.359 22.0876 25.5268 21.7526 25.8623C21.4176 26.1979 21.2501 26.6137 21.2501 27.1097C21.2501 27.6058 21.4178 28.0213 21.7534 28.3564C22.0889 28.6914 22.5047 28.8589 23.0008 28.8589ZM23.0008 19.7499C23.4968 19.7499 23.9124 19.5822 24.2474 19.2466C24.5824 18.9111 24.75 18.4953 24.75 17.9992C24.75 17.5032 24.5822 17.0876 24.2467 16.7526C23.9111 16.4176 23.4953 16.2501 22.9993 16.2501C22.5032 16.2501 22.0876 16.4178 21.7526 16.7534C21.4176 17.0889 21.2501 17.5047 21.2501 18.0008C21.2501 18.4968 21.4178 18.9124 21.7534 19.2474C22.0889 19.5824 22.5047 19.7499 23.0008 19.7499ZM23.0008 10.641C23.4968 10.641 23.9124 10.4732 24.2474 10.1377C24.5824 9.80209 24.75 9.38629 24.75 8.89026C24.75 8.39424 24.5822 7.97869 24.2467 7.64362C23.9111 7.30859 23.4953 7.14108 22.9993 7.14108C22.5032 7.14108 22.0876 7.30887 21.7526 7.64444C21.4176 7.97997 21.2501 8.39577 21.2501 8.89184C21.2501 9.38786 21.4178 9.80341 21.7534 10.1385C22.0889 10.4735 22.5047 10.641 23.0008 10.641Z" fill="#E31837"/>
</svg>
