<svg width="12" height="43" viewBox="0 0 12 43" fill="none" xmlns="http://www.w3.org/2000/svg">
<path d="M6.39214 42.2271C6.52532 42.469 6.82939 42.5571 7.07129 42.4239L11.0134 40.2537C11.2553 40.1205 11.3434 39.8164 11.2102 39.5745C11.077 39.3326 10.773 39.2445 10.5311 39.3776L7.02702 41.3068L5.09788 37.8027C4.9647 37.5608 4.66063 37.4727 4.41873 37.6059C4.17682 37.739 4.08868 38.0431 4.22186 38.285L6.39214 42.2271ZM0.613128 1.31672C13.9334 17.5971 8.52252 34.3516 6.34992 41.8467L7.31038 42.1251C9.4776 34.6486 15.0668 17.4032 1.38709 0.683486L0.613128 1.31672Z" fill="white"/>
</svg>
