<svg width="15" height="48" viewBox="0 0 15 48" fill="none" xmlns="http://www.w3.org/2000/svg">
<path d="M13.9936 47.5C14.2698 47.5035 14.4965 47.2825 14.5 47.0064L14.5572 42.5067C14.5607 42.2306 14.3397 42.0039 14.0636 42.0004C13.7874 41.9969 13.5607 42.2179 13.5572 42.494L13.5064 46.4937L9.50672 46.4428C9.2306 46.4393 9.00392 46.6603 9.00041 46.9364C8.99689 47.2126 9.21789 47.4393 9.49401 47.4428L13.9936 47.5ZM0.348405 0.311778C-1.20622 22.374 6.09176 39.6044 13.642 47.349L14.358 46.651C7.04689 39.1516 -0.193059 22.2223 1.34593 0.38207L0.348405 0.311778Z" fill="white"/>
</svg>
