<svg width="21" height="40" viewBox="0 0 21 40" fill="none" xmlns="http://www.w3.org/2000/svg">
    <path d="M4.75014 0.653704C4.55889 0.454512 4.24237 0.448074 4.04318 0.639322L0.797146 3.75593C0.597953 3.94719 0.591515 4.2637 0.782766 4.4629C0.974017 4.66209 1.29053 4.66853 1.48973 4.47728L4.37509 1.70696L7.14541 4.59232C7.33666 4.79151 7.65318 4.79795 7.85237 4.6067C8.05156 4.41545 8.058 4.09893 7.86675 3.89974L4.75014 0.653704ZM20.9206 38.6743C3.84057 26.3963 4.73066 8.81219 4.88937 1.01016L3.88957 0.989825C3.73127 8.7725 2.79597 26.8769 20.3369 39.4863L20.9206 38.6743Z" fill="white"/>
</svg>
