<svg width="31" height="31" viewBox="0 0 31 31" fill="none" xmlns="http://www.w3.org/2000/svg">
    <path d="M0.660364 27.3809C0.488394 27.597 0.524135 27.9115 0.740194 28.0835L4.26107 30.8859C4.47713 31.0578 4.79169 31.0221 4.96365 30.806C5.13562 30.59 5.09988 30.2754 4.88382 30.1035L1.75416 27.6124L4.24518 24.4828C4.41715 24.2667 4.3814 23.9522 4.16535 23.7802C3.94929 23.6082 3.63473 23.644 3.46276 23.86L0.660364 27.3809ZM29.4441 0.22251C29.4599 2.55169 28.5927 5.30456 27.0225 8.17151C25.456 11.0317 23.2085 13.9709 20.5119 16.6638C15.1087 22.0594 7.96764 26.4032 0.995124 27.1955L1.10802 28.1891C8.38207 27.3626 15.7205 22.8617 21.2185 17.3714C23.9725 14.6213 26.281 11.6072 27.8996 8.65187C29.5145 5.7033 30.4615 2.77843 30.4441 0.215722L29.4441 0.22251Z" fill="white"/>
</svg>
