<svg width="15" height="73" viewBox="0 0 15 73" fill="none" xmlns="http://www.w3.org/2000/svg">
    <path d="M14.5742 71.9945C14.8473 71.9535 15.0354 71.6989 14.9945 71.4258L14.3269 66.9756C14.286 66.7025 14.0314 66.5144 13.7583 66.5553C13.4852 66.5963 13.297 66.8509 13.338 67.124L13.9314 71.0797L9.97562 71.6731C9.70253 71.714 9.51436 71.9686 9.55532 72.2417C9.59628 72.5148 9.85087 72.703 10.124 72.662L14.5742 71.9945ZM12.1308 0.162865C1.49884 11.8073 -0.881903 27.5989 0.81619 41.4981C1.66583 48.4526 3.53831 54.9546 5.92689 60.26C8.30963 65.5523 11.2286 69.7038 14.2028 71.9021L14.7972 71.0979C12.0214 69.0462 9.19037 65.0727 6.83874 59.8494C4.49294 54.6391 2.64667 48.2349 1.80881 41.3769C0.131904 27.6511 2.50116 12.1927 12.8692 0.837135L12.1308 0.162865Z" fill="white"/>
</svg>
