<svg width="24" height="24" viewBox="0 0 24 24" fill="none" xmlns="http://www.w3.org/2000/svg">
    <mask id="mask0_1781_8753" style="mask-type:alpha" maskUnits="userSpaceOnUse" x="0" y="0" width="24" height="24">
        <rect width="24" height="24" fill="#D9D9D9"/>
    </mask>
    <g mask="url(#mask0_1781_8753)">
        <path d="M10.8847 6.99998C10.8847 6.55576 11.0428 6.17548 11.3592 5.85913C11.6755 5.54279 12.0558 5.38463 12.5 5.38463C12.9442 5.38463 13.3245 5.54279 13.6409 5.85913C13.9572 6.17548 14.1154 6.55576 14.1154 6.99998C14.1154 7.44419 13.9572 7.82447 13.6409 8.14082C13.3245 8.45716 12.9442 8.61533 12.5 8.61533C12.0558 8.61533 11.6755 8.45716 11.3592 8.14082C11.0428 7.82447 10.8847 7.44419 10.8847 6.99998ZM7.00003 6.99998C7.00003 5.47221 7.53453 4.17361 8.60353 3.10418C9.67253 2.03473 10.9706 1.5 12.4977 1.5C14.0249 1.5 15.3237 2.03473 16.3942 3.10418C17.4647 4.17361 18 5.47221 18 6.99998C18 8.07176 17.7234 9.04098 17.1702 9.90765C16.617 10.7743 15.8936 11.4359 15 11.8923V20.5173C15 20.635 14.9782 20.7491 14.9346 20.8594C14.891 20.9698 14.8224 21.0718 14.7288 21.1653L13.1327 22.7615C13.0391 22.8551 12.94 22.9211 12.8353 22.9596C12.7306 22.998 12.6184 23.0173 12.4987 23.0173C12.3791 23.0173 12.2673 22.998 12.1635 22.9596C12.0596 22.9211 11.9609 22.8551 11.8673 22.7615L9.23083 20.1154C9.15331 20.0405 9.09131 19.9506 9.04481 19.8457C8.99831 19.7409 8.96992 19.6365 8.95966 19.5327C8.94941 19.4288 8.95935 19.325 8.98948 19.2211C9.0196 19.1173 9.06991 19.0186 9.14043 18.925L10.0674 17.6923L9.03083 16.2962C8.97056 16.2192 8.92697 16.1372 8.90006 16.05C8.87312 15.9628 8.85966 15.8724 8.85966 15.7789C8.85966 15.6853 8.87472 15.5923 8.90486 15.5C8.93499 15.4077 8.97698 15.3231 9.03083 15.2462L10 13.8366V11.8923C9.11286 11.4359 8.39107 10.7743 7.83465 9.90765C7.27824 9.04098 7.00003 8.07176 7.00003 6.99998ZM8.50001 6.99998C8.50001 7.95896 8.78975 8.78941 9.36923 9.49133C9.94873 10.1932 10.659 10.6513 11.5 10.8654V14.3077L10.5039 15.7481C10.5039 15.7417 10.5013 15.7401 10.4962 15.7433C10.491 15.7465 10.4936 15.7481 10.5039 15.7481L11.9327 17.7019L10.6346 19.4L12.5 21.2654L13.5 20.2654V10.8654C14.341 10.6513 15.0513 10.1932 15.6308 9.49133C16.2103 8.78941 16.5 7.95896 16.5 6.99998C16.5 5.89998 16.1083 4.95831 15.325 4.17498C14.5417 3.39164 13.6 2.99998 12.5 2.99998C11.4 2.99998 10.4583 3.39164 9.67501 4.17498C8.89167 4.95831 8.50001 5.89998 8.50001 6.99998Z" fill="#691A1E"/>
    </g>
</svg>