<svg width="33" height="25" viewBox="0 0 33 25" fill="none" xmlns="http://www.w3.org/2000/svg">
<path d="M25.04 24.48C21.88 24.48 19.72 23.44 17.88 21.36C15.6 23.56 13.2 24.48 9.32 24.48C4.24 24.48 0.96 21.52 0.96 17.04C0.96 13.12 3.84 10.52 8 10.52C11.72 10.52 13.64 12.16 13.64 14.88C13.64 15.72 13.36 16.72 13.04 17.32L9.04 17C9.16 16.68 9.16 16.4 9.16 16.12C9.16 15.32 8.68 14.84 7.8 14.84C6.8 14.84 5.92 15.52 5.92 16.8C5.92 18.44 7.32 19.4 10.36 19.4C13.64 19.4 15 17.72 15.24 15.2H20.48C20.68 18.12 22.16 19.4 23.96 19.4C26.32 19.4 27.04 17.72 27.04 15.6C27.04 9.08 20.28 5.96 9.92 5.96L10.36 0.68C26.48 0.759999 32.88 7.32 32.88 15.64C32.88 21.68 29.64 24.48 25.04 24.48Z" fill="#EDE0E3"/>
</svg>
