<svg width="16" height="19" viewBox="0 0 16 19" fill="none" xmlns="http://www.w3.org/2000/svg">
<path d="M7.99995 17.5135C9.95635 15.7622 11.4535 14.0824 12.4913 12.474C13.5291 10.8657 14.048 9.45703 14.048 8.24805C14.048 6.42498 13.4689 4.92627 12.3105 3.7519C11.1522 2.57753 9.71534 1.99035 7.99995 1.99035C6.28457 1.99035 4.84771 2.57753 3.68938 3.7519C2.53105 4.92627 1.95188 6.42498 1.95188 8.24805C1.95188 9.45703 2.47079 10.8657 3.5086 12.474C4.54644 14.0824 6.04355 15.7622 7.99995 17.5135ZM7.99995 18.9403C7.80509 18.9403 7.61022 18.9067 7.41535 18.8394C7.22049 18.7721 7.0442 18.6679 6.8865 18.5269C5.98909 17.7 5.14935 16.8484 4.3673 15.9721C3.58525 15.0958 2.90545 14.2199 2.32788 13.3442C1.75031 12.4686 1.29326 11.6006 0.956729 10.7404C0.620179 9.88011 0.451904 9.04933 0.451904 8.24805C0.451904 5.94038 1.19838 4.07213 2.69133 2.64328C4.18426 1.21443 5.9538 0.5 7.99995 0.5C10.0461 0.5 11.8156 1.21443 13.3086 2.64328C14.8015 4.07213 15.548 5.94038 15.548 8.24805C15.548 9.04933 15.3797 9.87851 15.0432 10.7356C14.7066 11.5926 14.2512 12.4606 13.6768 13.3394C13.1025 14.2183 12.4243 15.0942 11.6422 15.9673C10.8602 16.8404 10.0204 17.6903 9.123 18.5173C8.96762 18.6583 8.79105 18.7641 8.59328 18.8346C8.3955 18.9051 8.19772 18.9403 7.99995 18.9403ZM8.00165 9.86535C8.49924 9.86535 8.92463 9.68818 9.27783 9.33385C9.63103 8.97952 9.80763 8.55356 9.80763 8.05598C9.80763 7.55839 9.63046 7.133 9.27613 6.7798C8.9218 6.4266 8.49584 6.25 7.99825 6.25C7.50067 6.25 7.07528 6.42717 6.72208 6.7815C6.36888 7.13583 6.19228 7.56179 6.19228 8.05938C6.19228 8.55696 6.36945 8.98235 6.72378 9.33555C7.07811 9.68875 7.50407 9.86535 8.00165 9.86535Z" fill="#E31837"/>
</svg>
