<svg width="45" height="29" viewBox="0 0 45 29" fill="none" xmlns="http://www.w3.org/2000/svg">
<path d="M7.785 8.23C9.58167 8.23 11.04 8.55667 12.16 9.21C13.28 9.84 14.1083 10.645 14.645 11.625C15.205 12.605 15.485 13.62 15.485 14.67C15.485 15.4867 15.3567 16.2217 15.1 16.875C14.8667 17.505 14.5983 18.03 14.295 18.45L13.7 17.47H31.06L30.885 20.69H11.46L9.955 18.73C10.305 18.31 10.6083 17.8083 10.865 17.225C11.1217 16.6417 11.25 15.93 11.25 15.09C11.25 14.0167 10.9583 13.1417 10.375 12.465C9.815 11.765 8.96333 11.415 7.82 11.415C7.07333 11.415 6.43167 11.5783 5.895 11.905C5.38167 12.2083 4.99667 12.64 4.74 13.2C4.48333 13.7367 4.355 14.3317 4.355 14.985C4.355 15.895 4.51833 16.6767 4.845 17.33C5.17167 17.96 5.59167 18.5317 6.105 19.045L3.025 21.04C2.09167 20.1767 1.35667 19.2433 0.82 18.24C0.306667 17.2367 0.05 16.0933 0.05 14.81C0.05 13.48 0.376667 12.325 1.03 11.345C1.68333 10.365 2.59333 9.60667 3.76 9.07C4.92667 8.51 6.26833 8.23 7.785 8.23ZM32.495 0.704999C34.4783 0.704999 36.2283 1.02 37.745 1.65C39.2617 2.25667 40.5333 3.16667 41.56 4.38C42.61 5.57 43.3917 7.04 43.905 8.79C44.4417 10.5167 44.71 12.5 44.71 14.74C44.71 16.49 44.5117 18.1817 44.115 19.815C43.7183 21.4483 43.135 23 42.365 24.47C41.595 25.9633 40.6383 27.3633 39.495 28.67L36.275 26.535C37.2083 25.3917 37.9667 24.2017 38.55 22.965C39.1333 21.705 39.5533 20.3867 39.81 19.01C40.09 17.6333 40.23 16.1867 40.23 14.67C40.23 13.27 40.09 11.9283 39.81 10.645C39.5533 9.36167 39.1217 8.21833 38.515 7.215C37.9083 6.18833 37.1033 5.38333 36.1 4.8C35.12 4.21667 33.8833 3.925 32.39 3.925C30.5467 3.925 29.0183 4.42667 27.805 5.43C26.5917 6.41 25.6817 7.78667 25.075 9.56C24.4917 11.3333 24.2 13.3983 24.2 15.755C24.2 16.3617 24.2117 16.945 24.235 17.505C24.2583 18.0417 24.2933 18.555 24.34 19.045C24.34 19.1617 24.34 19.2783 24.34 19.395C24.34 19.4883 24.3517 19.6167 24.375 19.78C24.4917 21.2033 24.725 22.335 25.075 23.175C25.4483 24.015 25.9033 24.6217 26.44 24.995C27 25.3683 27.5833 25.555 28.19 25.555C28.7733 25.555 29.205 25.3683 29.485 24.995C29.6017 24.8317 29.6833 24.5983 29.73 24.295C29.8 24.015 29.835 23.6417 29.835 23.175V6.865H34.175V22.44C34.175 23.63 34.0583 24.5867 33.825 25.31C33.5917 26.0567 33.2183 26.6867 32.705 27.2C32.2383 27.6433 31.6433 27.9933 30.92 28.25C30.1967 28.53 29.3333 28.67 28.33 28.67C26.6033 28.67 25.0983 28.1917 23.815 27.235C22.555 26.3017 21.575 24.8783 20.875 22.965C20.175 21.0283 19.825 18.6017 19.825 15.685C19.825 13.515 20.0817 11.52 20.595 9.7C21.1317 7.88 21.925 6.305 22.975 4.975C24.025 3.62167 25.3433 2.57167 26.93 1.825C28.5167 1.07833 30.3717 0.704999 32.495 0.704999Z" fill="#EDE0E3"/>
</svg>
