<svg width="14" height="22" viewBox="0 0 14 22" fill="none" xmlns="http://www.w3.org/2000/svg">
<path d="M4.74997 13.3461C4.57819 13.3461 4.43588 13.2897 4.32305 13.1769C4.21023 13.0641 4.15382 12.9218 4.15382 12.75C4.15382 12.5782 4.21023 12.4359 4.32305 12.3231C4.43588 12.2102 4.57819 12.1538 4.74997 12.1538H9.24998C9.42176 12.1538 9.56407 12.2102 9.6769 12.3231C9.78972 12.4359 9.84613 12.5782 9.84613 12.75C9.84613 12.9218 9.78972 13.0641 9.6769 13.1769C9.56407 13.2897 9.42176 13.3461 9.24998 13.3461H4.74997ZM3.74997 10.3461C3.57819 10.3461 3.43588 10.2897 3.32305 10.1769C3.21023 10.0641 3.15382 9.92176 3.15382 9.74998C3.15382 9.57819 3.21023 9.43588 3.32305 9.32305C3.43588 9.21023 3.57819 9.15383 3.74997 9.15383H10.25C10.4218 9.15383 10.5641 9.21023 10.6769 9.32305C10.7897 9.43588 10.8461 9.57819 10.8461 9.74998C10.8461 9.92176 10.7897 10.0641 10.6769 10.1769C10.5641 10.2897 10.4218 10.3461 10.25 10.3461H3.74997ZM2.3077 21.4999C1.80257 21.4999 1.375 21.3249 1.025 20.9749C0.675 20.6249 0.5 20.1974 0.5 19.6923V2.3077C0.5 1.80257 0.675 1.375 1.025 1.025C1.375 0.675 1.80257 0.5 2.3077 0.5H11.6922C12.1974 0.5 12.625 0.675 12.975 1.025C13.325 1.375 13.5 1.80257 13.5 2.3077V19.6923C13.5 20.1974 13.325 20.625 12.975 20.975C12.625 21.325 12.1974 21.5 11.6922 21.5L2.3077 21.4999ZM1.99997 18.75V19.6923C1.99997 19.7692 2.03202 19.8397 2.09613 19.9039C2.16024 19.968 2.23077 20 2.3077 20H11.6922C11.7692 20 11.8397 19.968 11.9038 19.9039C11.9679 19.8397 12 19.7692 12 19.6923V18.75H1.99997ZM1.99997 17.25H12V4.74998H1.99997V17.25ZM1.99997 3.25003H12V2.30773C12 2.23079 11.9679 2.16027 11.9038 2.09615C11.8397 2.03205 11.7692 2 11.6922 2H2.3077C2.23077 2 2.16024 2.03205 2.09613 2.09615C2.03202 2.16027 1.99997 2.23079 1.99997 2.30773V3.25003Z" fill="#E31837"/>
</svg>
