<svg width="28" height="30" viewBox="0 0 28 30" fill="none" xmlns="http://www.w3.org/2000/svg">
<path d="M27.8 5.64H24.32V8.8C24.32 11.6 23.7467 13.7333 22.6 15.2C21.4533 16.6667 19.5867 17.4 17 17.4C16.2267 17.4 15.5067 17.3467 14.84 17.24V11.6C15.0267 11.6267 15.2933 11.64 15.64 11.64C16.52 11.64 17.16 11.4 17.56 10.92C17.9867 10.4133 18.2 9.65333 18.2 8.64V5.64H10.56V19.48C10.56 20.8933 10.8933 21.9867 11.56 22.76C12.2533 23.5067 13.1867 23.88 14.36 23.88C15.48 23.88 16.36 23.56 17 22.92C17.64 22.2533 17.96 21.3467 17.96 20.2H24.12C24.12 23.0533 23.24 25.28 21.48 26.88C19.7467 28.4533 17.4133 29.24 14.48 29.24C11.1733 29.24 8.65333 28.3467 6.92 26.56C5.18667 24.7467 4.32 22.3067 4.32 19.24L4.28 5.64H0.32V0.4H27.8V5.64Z" fill="#EDE0E3"/>
</svg>
