<svg width="20" height="20" viewBox="0 0 20 20" fill="none" xmlns="http://www.w3.org/2000/svg">
<path d="M3.75031 15.2464V9.2463C3.75031 9.0338 3.82221 8.85567 3.96603 8.71193C4.10985 8.56819 4.28805 8.49633 4.50063 8.49633C4.71322 8.49633 4.89131 8.56819 5.03491 8.71193C5.17849 8.85567 5.25028 9.0338 5.25028 9.2463V15.2464C5.25028 15.4589 5.17837 15.637 5.03456 15.7807C4.89074 15.9245 4.71254 15.9964 4.49996 15.9964C4.28737 15.9964 4.10928 15.9245 3.96568 15.7807C3.8221 15.637 3.75031 15.4589 3.75031 15.2464ZM9.25028 15.2464V9.2463C9.25028 9.0338 9.32218 8.85567 9.46598 8.71193C9.6098 8.56819 9.788 8.49633 10.0006 8.49633C10.2132 8.49633 10.3913 8.56819 10.5349 8.71193C10.6784 8.85567 10.7502 9.0338 10.7502 9.2463V15.2464C10.7502 15.4589 10.6783 15.637 10.5345 15.7807C10.3907 15.9245 10.2125 15.9964 9.99993 15.9964C9.78733 15.9964 9.60924 15.9245 9.46566 15.7807C9.32207 15.637 9.25028 15.4589 9.25028 15.2464ZM1.51953 19.4963C1.30703 19.4963 1.12891 19.4244 0.985156 19.2806C0.841406 19.1368 0.769531 18.9586 0.769531 18.746C0.769531 18.5334 0.841406 18.3553 0.985156 18.2117C1.12891 18.0681 1.30703 17.9964 1.51953 17.9964H18.481C18.6935 17.9964 18.8716 18.0683 19.0154 18.2121C19.1591 18.3559 19.231 18.5341 19.231 18.7467C19.231 18.9593 19.1591 19.1373 19.0154 19.2809C18.8716 19.4245 18.6935 19.4963 18.481 19.4963H1.51953ZM14.7502 15.2464V9.2463C14.7502 9.0338 14.8221 8.85567 14.966 8.71193C15.1098 8.56819 15.288 8.49633 15.5006 8.49633C15.7131 8.49633 15.8912 8.56819 16.0348 8.71193C16.1784 8.85567 16.2502 9.0338 16.2502 9.2463V15.2464C16.2502 15.4589 16.1783 15.637 16.0345 15.7807C15.8907 15.9245 15.7125 15.9964 15.4999 15.9964C15.2873 15.9964 15.1092 15.9245 14.9656 15.7807C14.822 15.637 14.7502 15.4589 14.7502 15.2464ZM18.5195 6.49633H1.40991C1.23202 6.49633 1.08082 6.43418 0.956306 6.3099C0.831789 6.18563 0.769531 6.03473 0.769531 5.8572V5.46662C0.769531 5.33644 0.802148 5.22422 0.867381 5.12995C0.932598 5.0357 1.01857 4.95912 1.12531 4.9002L9.20603 0.946375C9.45568 0.825875 9.72001 0.765625 9.99903 0.765625C10.278 0.765625 10.5432 0.825875 10.7945 0.946375L18.8348 4.8752C18.9605 4.9393 19.0579 5.02904 19.1271 5.14442C19.1964 5.25981 19.231 5.38375 19.231 5.51625V5.78725C19.231 5.99202 19.164 6.16138 19.03 6.29535C18.896 6.42933 18.7259 6.49633 18.5195 6.49633ZM4.31563 4.99635H15.6849L10.1349 2.30405C10.09 2.28482 10.0451 2.2752 10.0003 2.2752C9.95537 2.2752 9.9105 2.28482 9.86563 2.30405L4.31563 4.99635Z" fill="#691A1E"/>
</svg>
