<svg width="24" height="62" viewBox="0 0 24 62" fill="none" xmlns="http://www.w3.org/2000/svg">
    <mask id="mask0_3780_31421" style="mask-type:alpha" maskUnits="userSpaceOnUse" x="0" y="19" width="24" height="24">
        <rect y="19" width="24" height="24" fill="#D9D9D9"/>
    </mask>
    <g mask="url(#mask0_3780_31421)">
        <path d="M4.3077 38.5C3.80257 38.5 3.375 38.325 3.025 37.975C2.675 37.625 2.5 37.1974 2.5 36.6923V25.3077C2.5 24.8026 2.675 24.375 3.025 24.025C3.375 23.675 3.80257 23.5 4.3077 23.5H9.04998C9.29099 23.5 9.52272 23.5468 9.74515 23.6404C9.96758 23.734 10.1609 23.8628 10.325 24.0269L11.798 25.5H19.6923C20.1974 25.5 20.625 25.675 20.975 26.025C21.325 26.375 21.5 26.8026 21.5 27.3077V29.1538C21.5 29.3666 21.4282 29.5448 21.2846 29.6884C21.141 29.832 20.9628 29.9038 20.75 29.9038C20.5371 29.9038 20.3589 29.832 20.2154 29.6884C20.0718 29.5448 20 29.3666 20 29.1538V27.3077C20 27.2308 19.9679 27.1602 19.9038 27.0961C19.8397 27.032 19.7692 27 19.6923 27H11.1846L9.1846 25H4.3077C4.21795 25 4.14423 25.0288 4.08653 25.0865C4.02883 25.1442 3.99998 25.218 3.99998 25.3077V36.6923C3.99998 36.7692 4.03202 36.8397 4.09613 36.9038C4.16024 36.9679 4.23077 37 4.3077 37H11.1731C11.3859 37 11.5641 37.0718 11.7077 37.2154C11.8513 37.3589 11.9231 37.5371 11.9231 37.75C11.9231 37.9628 11.8513 38.141 11.7077 38.2846C11.5641 38.4282 11.3859 38.5 11.1731 38.5H4.3077ZM14.1154 39.5961V38.2346C14.1154 38.1141 14.1372 37.9993 14.1808 37.8904C14.2243 37.7814 14.2929 37.6801 14.3865 37.5865L19.5442 32.4538C19.6686 32.3295 19.8032 32.242 19.9481 32.1913C20.0929 32.1407 20.2378 32.1154 20.3827 32.1154C20.5378 32.1154 20.6894 32.1449 20.8375 32.2038C20.9855 32.2628 21.1185 32.3513 21.2365 32.4692L22.1615 33.4038C22.2692 33.5282 22.3525 33.6628 22.4115 33.8077C22.4705 33.9525 22.5 34.0974 22.5 34.2423C22.5 34.3871 22.473 34.5346 22.4192 34.6846C22.3653 34.8346 22.2794 34.9718 22.1615 35.0961L17.0288 40.2288C16.9352 40.3224 16.8339 40.391 16.725 40.4346C16.616 40.4782 16.5012 40.5 16.3807 40.5H15.0192C14.7615 40.5 14.5465 40.4137 14.374 40.2413C14.2016 40.0688 14.1154 39.8538 14.1154 39.5961ZM15.3077 39.3077H16.2577L19.5038 36.0461L19.0442 35.5711L18.5788 35.1019L15.3077 38.3577V39.3077ZM19.0442 35.5711L18.5788 35.1019L19.5038 36.0461L19.0442 35.5711Z" fill="#691A1E"/>
    </g>
</svg>
