<svg width="20" height="20" viewBox="0 0 20 20" fill="none" xmlns="http://www.w3.org/2000/svg">
<path d="M3.22149 16.8845C3.01014 16.8845 2.83298 16.8126 2.69001 16.6688C2.54703 16.525 2.47555 16.3468 2.47555 16.1342C2.47555 15.9216 2.54703 15.7435 2.69001 15.5999C2.83298 15.4564 3.01014 15.3846 3.22149 15.3846H4.27346V7.923C4.27346 6.57813 4.68628 5.38903 5.5119 4.3557C6.33754 3.32236 7.39748 2.66147 8.69172 2.37302V1.74995C8.69172 1.40273 8.81248 1.1076 9.054 0.864548C9.29552 0.621481 9.58879 0.499947 9.93381 0.499947C10.2788 0.499947 10.5725 0.621481 10.8147 0.864548C11.057 1.1076 11.1781 1.40273 11.1781 1.74995V2.37302C12.4724 2.66147 13.5323 3.32236 14.358 4.3557C15.1836 5.38903 15.5964 6.57813 15.5964 7.923V15.3846H16.6484C16.8597 15.3846 17.0369 15.4565 17.1799 15.6003C17.3228 15.7441 17.3943 15.9223 17.3943 16.1349C17.3943 16.3475 17.3228 16.5256 17.1799 16.6691C17.0369 16.8127 16.8597 16.8845 16.6484 16.8845H3.22149ZM9.93324 19.6922C9.43835 19.6922 9.01526 19.5152 8.66397 19.1612C8.31268 18.8072 8.13704 18.3816 8.13704 17.8845H11.7328C11.7328 18.3832 11.5566 18.8092 11.2042 19.1624C10.8518 19.5156 10.4281 19.6922 9.93324 19.6922ZM5.7653 15.3846H14.1046V7.923C14.1046 6.7653 13.6975 5.77716 12.8833 4.95857C12.0692 4.13997 11.0864 3.73067 9.93493 3.73067C8.7835 3.73067 7.8007 4.13997 6.98655 4.95857C6.17238 5.77716 5.7653 6.7653 5.7653 7.923V15.3846ZM1.35186 7.91337C1.13702 7.91337 0.95818 7.83229 0.815357 7.67012C0.672551 7.50794 0.611351 7.31724 0.631757 7.09802C0.732492 5.94417 1.02959 4.86341 1.52306 3.85572C2.01652 2.84804 2.65471 1.96343 3.43761 1.2019C3.6021 1.05701 3.78762 0.984897 3.99418 0.985547C4.20074 0.98618 4.37097 1.07271 4.50485 1.24515C4.63874 1.41758 4.69548 1.60508 4.67508 1.80765C4.65467 2.0102 4.56223 2.18904 4.39774 2.34417C3.77677 2.96724 3.27183 3.68551 2.88293 4.49897C2.49401 5.31244 2.24919 6.18776 2.14845 7.12492C2.12168 7.34416 2.03594 7.53037 1.89123 7.68357C1.7465 7.83677 1.56671 7.91337 1.35186 7.91337ZM18.5228 7.91337C18.3047 7.91337 18.1234 7.83677 17.9786 7.68357C17.8339 7.53037 17.7482 7.34416 17.7214 7.12492C17.6207 6.18776 17.3774 5.31404 16.9917 4.50377C16.606 3.69352 16.1027 2.97686 15.4817 2.35377C15.3149 2.19924 15.2188 2.01894 15.1931 1.81287C15.1674 1.60682 15.2216 1.41758 15.3554 1.24515C15.4893 1.07271 15.6611 0.987781 15.8709 0.990347C16.0806 0.992914 16.2678 1.06663 16.4322 1.2115C17.2152 1.97303 17.8533 2.85604 18.3468 3.86052C18.8403 4.86501 19.1374 5.94417 19.2381 7.09802C19.2585 7.31724 19.1972 7.50794 19.0543 7.67012C18.9113 7.83229 18.7341 7.91337 18.5228 7.91337Z" fill="#691A1E"/>
</svg>
