<svg width="20" height="20" viewBox="0 0 20 20" fill="none" xmlns="http://www.w3.org/2000/svg">
<path d="M3.22247 16.8846C3.01112 16.8846 2.83395 16.8127 2.69098 16.6689C2.54801 16.5251 2.47652 16.3469 2.47652 16.1343C2.47652 15.9217 2.54801 15.7436 2.69098 15.6C2.83395 15.4564 3.01112 15.3846 3.22247 15.3846H4.27444V7.92305C4.27444 6.57818 4.68725 5.38908 5.51288 4.35575C6.33852 3.32242 7.39846 2.66153 8.6927 2.37308V1.75C8.6927 1.40278 8.81346 1.10765 9.05498 0.864601C9.29649 0.621534 9.58976 0.5 9.93479 0.5C10.2798 0.5 10.5735 0.621534 10.8157 0.864601C11.058 1.10765 11.1791 1.40278 11.1791 1.75V2.37308C12.4734 2.66153 13.5333 3.32242 14.3589 4.35575C15.1846 5.38908 15.5974 6.57818 15.5974 7.92305V15.3846H16.6493C16.8607 15.3846 17.0379 15.4565 17.1808 15.6003C17.3238 15.7441 17.3953 15.9223 17.3953 16.1349C17.3953 16.3475 17.3238 16.5256 17.1808 16.6692C17.0379 16.8128 16.8607 16.8846 16.6493 16.8846H3.22247ZM9.93422 19.6923C9.43933 19.6923 9.01624 19.5153 8.66495 19.1613C8.31366 18.8073 8.13801 18.3817 8.13801 17.8846H11.7338C11.7338 18.3833 11.5576 18.8093 11.2052 19.1625C10.8528 19.5157 10.4291 19.6923 9.93422 19.6923ZM5.76627 15.3846H14.1055V7.92305C14.1055 6.76535 13.6985 5.77721 12.8843 4.95863C12.0701 4.14003 11.0873 3.73073 9.93591 3.73073C8.78447 3.73073 7.80168 4.14003 6.98753 4.95863C6.17336 5.77721 5.76627 6.76535 5.76627 7.92305V15.3846ZM1.35284 7.91343C1.13799 7.91343 0.959157 7.83234 0.816334 7.67018C0.673528 7.50799 0.612327 7.31729 0.632733 7.09808C0.733468 5.94423 1.03057 4.86346 1.52403 3.85578C2.0175 2.84809 2.65568 1.96348 3.43859 1.20195C3.60308 1.05707 3.7886 0.98495 3.99516 0.9856C4.20172 0.986234 4.37194 1.07277 4.50583 1.2452C4.63972 1.41763 4.69646 1.60513 4.67605 1.8077C4.65565 2.01025 4.5632 2.18909 4.39871 2.34423C3.77774 2.96729 3.27281 3.68556 2.88391 4.49903C2.49499 5.31249 2.25016 6.18781 2.14943 7.12498C2.12266 7.34421 2.03692 7.53043 1.8922 7.68363C1.74748 7.83683 1.56769 7.91343 1.35284 7.91343ZM18.5238 7.91343C18.3057 7.91343 18.1243 7.83683 17.9796 7.68363C17.8349 7.53043 17.7492 7.34421 17.7224 7.12498C17.6216 6.18781 17.3784 5.31409 16.9927 4.50383C16.607 3.69358 16.1036 2.97691 15.4826 2.35383C15.3159 2.19929 15.2197 2.01899 15.1941 1.81293C15.1684 1.60688 15.2225 1.41763 15.3564 1.2452C15.4903 1.07277 15.6621 0.987834 15.8719 0.990401C16.0816 0.992967 16.2687 1.06668 16.4332 1.21155C17.2161 1.97308 17.8543 2.85609 18.3478 3.86058C18.8412 4.86506 19.1383 5.94423 19.2391 7.09808C19.2595 7.31729 19.1982 7.50799 19.0552 7.67018C18.9123 7.83234 18.7351 7.91343 18.5238 7.91343Z" fill="white"/>
</svg>
