<svg width="115" height="96" viewBox="0 0 115 96" fill="none" xmlns="http://www.w3.org/2000/svg">
<g clip-path="url(#clip0_3076_9568)">
<path d="M80.1805 53.01C78.9711 50.8781 77.2818 49.4396 74.8371 48.9754C73.6563 48.7519 72.4698 48.5399 71.2805 48.3737C70.8783 48.3164 70.5163 48.2419 70.1687 48.0299C70.0107 47.9324 69.7493 47.8579 69.5999 47.9181C69.0741 48.1359 68.4766 48.2333 68.0859 48.7204C67.9767 48.8551 67.7785 48.9153 67.6205 49.0098C66.819 49.4912 65.9657 49.8924 65.3423 50.6345C65.078 50.9497 64.7247 51.179 64.6586 51.6374C64.6442 51.7434 64.469 51.8237 64.3742 51.9182C63.7134 52.5744 63.1906 53.3251 62.8343 54.1905C62.5988 54.7579 62.4149 55.3395 62.0299 55.8553C61.7427 56.245 61.645 56.7808 61.4898 57.2594C61.4065 57.5201 61.3778 57.7981 61.3261 58.0703C61.1911 58.7694 60.99 59.4657 60.9469 60.1706C60.9067 60.8325 61.102 61.5088 61.079 62.1736C61.0359 63.4057 61.441 64.5604 61.7139 65.7209C62.0127 66.9874 62.7884 68.1021 63.6904 69.0276C65.0005 70.3744 66.5087 71.4862 68.3157 72.1366C68.7007 72.2741 69.0914 72.4575 69.4103 72.7068C69.6861 72.9217 69.9504 73.0392 70.2894 73.0449C70.7548 73.0507 71.2202 73.0535 71.6827 73.0851C72.6077 73.151 73.5299 73.2828 74.455 73.2971C75.291 73.3086 76.1298 73.2025 76.8107 72.6094C76.894 72.5349 77.0147 72.4976 77.1238 72.4604C78.2931 72.0564 79.2268 71.3429 79.922 70.3257C80.5598 69.3887 81.1946 68.4488 81.4503 67.3112C81.5911 66.6809 81.7434 66.0476 81.9559 65.4373C82.4214 64.1077 82.6282 62.7438 82.6512 61.3397C82.6196 59.7637 82.519 58.1992 81.9531 56.6949C81.4704 55.414 80.8643 54.202 80.1863 53.01H80.1805ZM76.8653 51.7434C76.8911 51.7721 76.917 51.8007 76.9428 51.8294C77.3594 52.2965 77.7702 52.7635 78.1523 53.2564C78.3218 53.4742 78.4798 53.7005 78.6349 53.9298C78.2213 53.4312 77.7673 52.9641 77.2962 52.5085C77.0894 52.3108 76.9601 52.0357 76.7446 51.7205C76.7906 51.7234 76.8251 51.7377 76.8653 51.7463V51.7434ZM78.5919 70.148C78.5919 70.148 78.5832 70.1509 78.5775 70.1537C78.5832 69.6752 78.9567 69.489 79.2469 69.2569C79.2038 69.3199 79.1664 69.3858 79.1205 69.4488C78.9941 69.6265 78.8475 69.7898 78.7269 69.9732C78.6867 70.0362 78.6378 70.0936 78.5919 70.1509V70.148ZM80.0714 67.7869C80.0857 67.6264 80.0915 67.4832 80.0972 67.3456C80.4764 66.5605 80.7953 65.7467 81.0424 64.9129C81.1602 64.5117 81.2607 64.1048 81.3469 63.6922C81.2349 64.4516 81.0654 65.2023 80.8298 65.9358C80.6316 66.5605 80.3874 67.1708 80.103 67.7582C80.0915 67.7668 80.0829 67.7783 80.0685 67.7869H80.0714ZM77.3738 50.6832C77.2703 50.5944 77.1612 50.5142 77.0549 50.4311C77.1784 50.4913 77.2905 50.5686 77.3738 50.6832ZM75.9115 49.8695C75.8598 49.8695 75.8081 49.8752 75.7592 49.8781C75.7477 49.8781 75.7391 49.8895 75.742 49.901C75.7765 50.0299 75.8081 50.1617 75.8741 50.2792C75.8971 50.3193 75.923 50.3566 75.9517 50.391C75.7219 50.2792 75.4949 50.1531 75.2795 49.9955C75.5179 49.8351 75.7248 49.8207 75.9144 49.8695H75.9115ZM76.2907 71.0621C75.3628 71.7154 74.3515 72.1681 73.3403 71.9733C72.714 71.9332 72.2142 71.8701 71.7545 72.0392C71.2489 71.9561 70.7433 71.8443 70.252 71.7039C69.7148 71.5521 69.1977 71.3629 68.6863 71.1423C68.152 70.9131 67.5975 70.7469 67.0603 70.5262C66.9482 70.4804 66.8707 70.5979 66.8879 70.6953C66.0806 70.2254 65.3193 69.6637 64.5983 69.019C63.9346 68.423 63.5554 67.6264 63.1733 66.827C62.886 66.2195 62.6821 65.592 62.5327 64.9559C62.3661 64.2367 62.3057 63.4945 62.2081 62.761C62.1477 62.3025 62.1018 61.8412 62.0587 61.3798C62.0414 61.1964 61.9811 60.9758 62.0587 60.8354C62.3948 60.2222 62.2512 59.5574 62.2914 58.9242C62.3402 58.1419 62.5471 57.4198 62.8659 56.7207C63.4807 55.3711 64.1587 54.0587 65.0723 52.8753C65.6813 52.0873 66.3335 51.3509 67.1091 50.7119C67.6349 50.2821 68.1635 49.8981 68.8328 49.7606C69.6631 49.5886 70.4904 49.5313 71.2719 49.9697C71.3724 50.0242 71.4787 50.0901 71.5879 50.0987C72.9755 50.2133 74.1303 50.9125 75.268 51.6088C77.1009 52.7291 78.3276 54.3939 79.2842 56.2765C79.4192 56.5459 79.5945 56.7952 79.7295 57.0645C79.9938 57.5918 80.0742 58.162 80.1202 58.7465C80.1805 59.5316 80.3414 60.311 80.3587 61.0933C80.3874 62.4142 80.2064 63.7209 79.853 64.9988C79.6807 65.6235 79.4767 66.2396 79.3273 66.87C79.3014 66.9817 79.2612 67.0877 79.2268 67.1966C79.0601 67.5261 78.8849 67.8528 78.6924 68.168C78.4769 68.5233 78.2098 68.8528 78.0431 69.2282C77.5145 69.8958 76.9888 70.5721 76.2878 71.0649L76.2907 71.0621Z" fill="#691A1E"/>
<path d="M112.994 8.81202C112.753 8.19022 112.511 7.51972 112.086 7.02973C111.302 6.12712 110.592 5.15288 109.653 4.37636C109.052 3.88064 108.552 3.26457 107.992 2.72015C107.219 1.97227 106.335 1.48515 105.211 1.49948C104.826 1.50521 104.439 1.3734 104.051 1.30463C103.893 1.27598 103.723 1.18715 103.577 1.2158C102.764 1.37627 101.962 1.22153 101.155 1.17282C100.802 1.15276 100.417 1.23873 100.083 1.37053C99.2646 1.69433 98.4659 2.06396 97.6644 2.43074C97.6098 2.45366 97.5581 2.48518 97.5064 2.51384C96.7594 2.65711 96.047 3.00669 95.4236 3.4365C94.5014 4.07549 93.7171 4.90646 93.0707 5.81766C91.5797 7.90941 90.8299 10.4768 90.2668 12.9497C89.6836 15.5114 89.3992 18.202 89.9738 20.7923C90.4622 22.9958 91.5883 25.1334 93.3925 26.5403C94.4497 27.3656 95.6706 27.9301 96.9519 28.3226C97.538 28.5032 98.1413 28.6636 98.7503 28.7897C99.5892 29.1106 100.468 29.1909 101.365 29.2138C101.514 29.2166 101.661 29.0992 101.816 29.059C102.02 29.0046 102.221 28.9502 102.425 28.8957C102.462 28.9072 102.499 28.9158 102.54 28.9129C103.08 28.8928 103.597 28.7868 104.091 28.6206C104.372 28.6006 104.657 28.5834 104.936 28.5433C105.3 28.4888 105.682 28.4086 106.001 28.2395C106.774 27.8355 107.512 27.3684 108.268 26.93C109.107 26.4429 109.862 25.8985 110.434 25.0647C111.187 23.9672 112.141 23.0159 112.595 21.715C112.997 20.5602 113.494 19.4398 113.93 18.2965C114.019 18.0644 114.022 17.798 114.045 17.5458C114.083 17.1332 114.109 16.7177 114.137 16.3022C114.166 15.8638 114.232 15.4225 114.218 14.9841C114.152 12.8608 113.77 10.7949 113 8.81202H112.994ZM106.243 2.33331C106.142 2.26741 106.039 2.20437 105.935 2.14133C106.09 2.16139 106.237 2.20151 106.383 2.25595C106.335 2.27027 106.289 2.29893 106.243 2.33618V2.33331ZM110.471 8.64582C110.494 8.7805 110.517 8.91517 110.54 9.04985C110.434 8.76044 110.328 8.47103 110.213 8.18449C110.15 8.02403 110.075 7.87216 110.003 7.72029C110.158 8.02976 110.316 8.33922 110.471 8.64869V8.64582ZM111.655 15.6145C111.649 15.6432 111.644 15.6718 111.638 15.6976C111.638 15.626 111.635 15.5543 111.632 15.4856C111.641 15.5286 111.646 15.5715 111.655 15.6145ZM111.543 16.9211C111.557 16.9355 111.569 16.9527 111.586 16.9641C111.52 17.2077 111.454 17.4484 111.376 17.6891C111.431 17.4341 111.488 17.1762 111.543 16.9211ZM107.616 24.9873C107.268 25.2538 106.912 25.5117 106.55 25.761C106.682 25.6205 106.774 25.4372 106.906 25.291C107.125 25.0532 107.354 24.824 107.587 24.6005C107.544 24.7265 107.558 24.8698 107.616 24.9873ZM109.452 4.88067C109.383 4.82909 109.311 4.8119 109.245 4.80903C109.127 4.6629 109.012 4.5139 108.889 4.37349C109.075 4.54255 109.265 4.71161 109.452 4.88067ZM95.5787 4.33051C95.7195 4.21589 95.8717 4.1156 96.0183 4.01245C95.9953 4.03251 95.9723 4.05256 95.9493 4.07549C95.3345 4.66576 94.7111 5.25031 94.1049 5.85204C94.5387 5.29615 95.0243 4.78038 95.5787 4.33337V4.33051ZM101.218 27.5318C100.06 27.761 98.9112 27.9329 97.7132 27.5862C96.8313 27.3312 96.0384 26.9128 95.1995 26.5776C94.9725 26.4859 94.7887 26.2825 94.5876 26.1249C94.2572 25.8698 93.9441 25.5919 93.6022 25.3541C92.8984 24.8669 92.4358 24.228 92.0595 23.4486C91.2695 21.8153 90.8931 20.0903 90.6518 18.3195C90.6288 18.159 90.6116 17.9957 90.6202 17.8352C90.6662 16.838 90.7207 15.8409 90.7725 14.8437C90.8127 14.5916 90.8558 14.3394 90.9046 14.0901C90.9448 13.8809 90.9879 13.6718 91.0339 13.4626C91.4016 13.7635 91.1861 14.2219 91.5194 14.6403C91.258 13.6402 91.4131 12.7978 91.6199 11.9726C91.9072 10.8293 92.1916 9.67737 92.6024 8.57419C92.7834 8.08707 93.2747 7.71456 93.6252 7.28762C93.8291 7.03833 94.0216 6.7833 94.2371 6.54548C94.4526 6.30478 94.6623 6.04403 94.9208 5.86064C95.8401 5.20446 96.7882 4.5884 97.7017 3.92362C97.9718 3.72591 98.1528 3.40784 98.3912 3.16142C98.6613 2.88347 98.9083 2.53676 99.2416 2.37916C99.7357 2.1442 100.293 2.02098 100.833 1.9035C101.571 1.7459 102.295 1.8376 102.996 2.1356C103.41 2.31039 103.847 2.43647 104.387 2.62272C104.166 2.4422 104.019 2.32472 103.875 2.20724C103.901 2.17285 103.924 2.1442 103.95 2.11268C104.203 2.25022 104.453 2.39349 104.697 2.54535C105.183 2.91786 105.662 3.29896 106.134 3.68866C106.065 3.67433 105.996 3.65714 105.918 3.65427C106.134 4.10701 106.504 4.43366 106.909 4.56834C107.107 4.63424 107.283 4.7202 107.444 4.82049C107.725 5.07265 108.001 5.32481 108.274 5.5827C108.443 5.80333 108.593 6.04116 108.731 6.29045C109.173 7.0985 109.506 7.96959 109.897 8.80629C110.483 10.0585 110.675 11.4224 111.017 12.7434C111.075 12.964 111.081 13.2047 111.081 13.4339C111.081 14.4311 111.104 15.4311 111.052 16.4283C111.029 16.8581 110.882 17.2908 110.742 17.7034C110.362 18.818 109.997 19.9384 109.552 21.0273C109.11 22.1133 108.328 22.9786 107.489 23.7809C106.886 24.3569 106.292 24.9443 105.665 25.4945C104.892 26.1764 103.979 26.6378 103.025 27.0017C102.442 27.2252 101.833 27.4086 101.218 27.5289V27.5318ZM109.411 25.334C108.92 25.8097 108.297 26.165 107.693 26.5031C107.61 26.5489 107.524 26.5891 107.441 26.6349C107.627 26.4888 107.814 26.3455 107.998 26.1994C108.656 25.6836 109.302 25.142 109.914 24.5661C109.943 24.5403 109.972 24.5145 109.997 24.4858C110.414 24.0875 110.813 23.6692 111.184 23.2279C110.673 24.0016 110.066 24.695 109.409 25.334H109.411ZM113.847 15.669C113.804 16.2134 113.695 16.7549 113.649 17.2994C113.698 16.8151 113.721 16.3251 113.721 15.838C113.715 13.8637 113.433 11.8293 112.836 9.94672C112.497 8.88365 112.031 7.8693 111.414 6.95809C112.049 7.57129 112.448 8.32203 112.761 9.14441C113.373 10.7376 113.752 12.3795 113.876 14.0758C113.913 14.6059 113.89 15.1417 113.847 15.6718V15.669Z" fill="#691A1E"/>
<path d="M36.6605 45.7973C36.9679 45.5796 37.281 45.3589 37.5798 45.1469C37.8269 45.3532 38.0107 45.5051 38.2061 45.6655C38.433 45.1727 38.6456 44.74 38.8352 44.2959C38.953 44.0179 39.1714 43.9463 39.3983 44.0638C39.7775 44.2615 40.1855 44.4592 40.2688 44.9148C39.6339 45.293 39.0133 45.6369 38.4215 46.0208C37.9992 46.2931 37.5913 46.5968 37.2121 46.9263C36.9593 47.147 36.9449 47.5825 37.1517 47.7286C37.4046 47.9092 37.6229 47.7859 37.8384 47.6169C38.2377 47.3074 38.6542 47.018 39.0651 46.7171C39.3294 46.5223 39.5965 46.4764 39.8752 46.6598C39.8695 47.0066 39.7344 47.2243 39.4701 47.3791C39.292 47.4851 39.1168 47.6054 38.9674 47.7516C38.772 47.9407 38.4991 48.1355 38.614 48.4479C38.7232 48.7487 38.9185 48.9608 39.2949 49.0611C40.4325 49.3648 41.6161 49.531 42.6676 50.1127C42.794 50.1814 42.9664 50.1642 43.1186 50.1872C43.2881 49.8089 43.1014 49.5969 42.8457 49.4651C42.3315 49.2015 41.8 48.9665 41.2714 48.7315C40.9611 48.594 40.6394 48.4851 40.2544 48.339C40.4038 47.9636 40.5302 47.6455 40.6595 47.3303C40.8175 46.9464 41.0329 46.5767 41.1335 46.1784C41.2944 45.5423 41.5989 45.0896 42.3717 45.0065C42.2309 44.697 42.1189 44.4563 41.9954 44.1841C41.2628 44.4105 40.7888 43.9807 40.2745 43.6254C39.9987 43.4334 39.9384 43.1726 40.1165 42.9806C40.4699 42.5967 40.8864 42.2643 41.3001 41.9434C41.4667 41.8144 41.7799 41.823 41.8804 41.674C42.0097 41.4792 42.0499 41.1783 42.0126 40.9405C41.9839 40.7485 41.8201 40.5336 41.6535 40.4161C41.4696 40.2872 41.2599 40.3846 41.1076 40.5737C40.9525 40.7685 40.8089 41.0064 40.6049 41.121C40.2372 41.3216 40.0476 41.654 39.789 41.9462C39.4328 42.356 38.9932 42.697 38.5652 43.038C38.2635 43.2786 37.8987 43.4448 37.5999 43.6913C37.2293 43.9979 36.9104 44.3675 36.5456 44.6827C35.9997 45.1526 36.017 45.4105 36.6662 45.7945L36.6605 45.7973Z" fill="#691A1E"/>
<path d="M74.9804 64.1711C74.4345 63.8845 73.9031 63.5722 73.3429 63.3172C72.3086 62.8472 71.2572 62.4174 70.2201 61.9561C69.6111 61.6839 69.5881 61.5234 70.0506 61.0707C70.1167 61.0048 70.1856 60.9417 70.2546 60.8787C71.1624 60.0363 72.1277 59.2397 72.4178 57.9417C72.4264 57.9015 72.481 57.8729 72.5011 57.8299C72.7367 57.3456 73.182 57.0935 73.6072 56.8127C73.7996 56.6837 73.9749 56.5261 74.1645 56.3743C73.7997 55.9846 73.4865 56.0104 73.1619 56.2367C72.7855 56.5003 72.3747 56.486 71.9582 56.3915C71.5445 56.2969 71.3348 56.1021 71.4181 55.8843C71.5359 55.5748 71.8231 55.5376 72.1047 55.5175C72.1478 55.5146 72.1937 55.5404 72.2368 55.5548C72.4667 55.635 72.6907 55.5806 72.7626 55.3628C72.8229 55.1851 72.797 54.9502 72.731 54.7725C72.6476 54.549 72.4293 54.506 72.2024 54.5805C71.8318 54.7037 71.4238 54.7696 71.0934 54.9645C69.6484 55.8184 68.2206 56.7038 66.7957 57.5921C66.4969 57.7783 66.2383 58.0333 65.9453 58.2683C66.1838 58.6007 66.4337 58.6494 66.7095 58.4947C67.0743 58.2941 67.4334 58.0792 67.7753 57.8414C67.9735 57.7038 68.1373 57.5462 68.4217 57.7353C68.4504 58.3801 67.8902 58.9159 67.9707 59.6265C68.5912 59.34 69.16 59.0649 69.7403 58.8156C70.3092 58.5692 70.8033 58.0964 71.4841 58.1451C71.6795 58.7526 71.1107 59.0276 71.0676 59.4861C70.1598 60.2913 69.3669 61.2655 68.0367 61.4346C68.0109 61.4919 67.9879 61.5492 67.962 61.6065C68.1201 61.7813 68.2551 61.9905 68.4447 62.1223C68.6716 62.277 68.9388 62.3773 69.1974 62.4805C69.9702 62.7842 70.7516 63.0621 71.5157 63.3802C72.0932 63.618 72.6448 63.916 73.2193 64.1625C73.6847 64.363 74.1731 64.4891 74.538 64.8931C74.7276 65.1023 75.1384 65.0164 75.2591 64.7814C75.4084 64.4863 75.2447 64.3029 74.989 64.1682L74.9804 64.1711ZM71.0302 57.4173C70.5993 57.6293 70.1511 57.8156 69.703 57.9932C69.6197 58.0247 69.5019 57.9674 69.3439 57.9445C69.68 57.0964 70.5016 57.1623 71.0705 56.7726C71.3003 57.1107 71.2457 57.3084 71.0302 57.4144V57.4173Z" fill="#691A1E"/>
<path d="M103.145 19.9404C103.016 19.8058 102.895 19.6596 102.743 19.5565C101.688 18.8516 100.64 18.1409 99.5653 17.4704C99.097 17.1782 99.0309 17.0034 99.3728 16.5564C100.171 15.5105 100.973 14.4675 101.746 13.4044C102.053 12.9803 102.424 12.7224 102.944 12.6709C103.291 12.6365 103.636 12.5906 103.981 12.5419C104.208 12.5104 104.429 12.3987 104.36 12.1551C104.314 11.9918 104.107 11.8571 103.944 11.7568C103.863 11.7052 103.719 11.7539 103.605 11.7654C102.858 11.8342 102.777 11.7625 102.769 10.9889C102.769 10.8743 102.766 10.7568 102.771 10.6422C102.8 10.1923 102.639 9.84557 102.286 9.55043C101.823 9.16074 101.878 8.87706 102.447 8.67648C102.72 8.57906 103.03 8.58192 103.326 8.5504C103.748 8.50456 104.087 8.16357 104.021 7.83405C103.961 7.53031 103.682 7.44149 103.214 7.53604C102.659 7.6478 102.188 7.92288 101.711 8.20655C101.456 8.35842 101.186 8.50455 100.904 8.58765C99.9445 8.87706 99.0309 9.24383 98.2668 9.91434C98.0427 10.1121 97.7353 10.2525 97.5917 10.4932C97.359 10.8857 97.0487 11.1694 96.6953 11.4359C96.2816 11.7482 95.8938 12.0978 95.5117 12.4187C95.6956 12.817 95.934 12.7969 96.1897 12.6737C96.5603 12.4961 96.8706 12.1923 97.3331 12.2095C97.4308 12.2124 97.5486 12.0004 97.6405 11.8771C97.7755 11.6966 97.8588 11.4445 98.0341 11.327C98.9476 10.6995 99.8784 10.0949 100.818 9.50745C100.976 9.41003 101.272 9.33839 101.398 9.41862C101.697 9.61061 102.016 9.81692 102.128 10.2181C102.386 11.1264 101.933 11.9889 101.056 12.3327C99.8124 12.8227 98.5885 13.3586 97.359 13.8772C97.1119 13.9804 96.9855 14.1666 97.0918 14.4331C97.1952 14.691 97.4336 14.6681 97.629 14.5964C98.0398 14.4446 98.4391 14.2612 98.8413 14.0835C99.2636 13.8973 99.6716 13.6738 100.105 13.519C100.246 13.4675 100.47 13.542 100.602 13.6336C100.657 13.6709 100.611 13.9488 100.531 14.0606C100.059 14.7139 99.5969 15.3816 99.0625 15.9804C98.7178 16.3644 98.2524 16.6423 97.7841 17.0148C97.9307 17.5535 98.3472 17.7627 98.8097 17.9547C99.2953 18.1581 99.7808 18.3816 100.226 18.6625C101.085 19.2097 101.91 19.8115 102.76 20.3674C102.883 20.4476 103.145 20.4763 103.248 20.3989C103.449 20.247 103.28 20.0722 103.151 19.9376L103.145 19.9404Z" fill="#691A1E"/>
<path d="M57.569 82.8326C57.4569 82.3254 57.2932 81.8354 57.1064 81.3512C56.5089 79.3654 55.9027 77.3826 55.2879 75.4026C54.676 73.434 54.0555 71.4684 53.4292 69.5027C53.3315 69.0786 53.2281 68.6545 53.1075 68.2333C52.8317 67.2763 52.5903 66.3077 52.2916 65.3593C51.8089 63.8148 51.2976 62.279 50.7948 60.7402C50.6655 60.3448 50.4903 59.9637 50.3811 59.5626C50.091 58.4909 49.8583 57.3906 49.3325 56.4106C49.1774 56.1212 49.097 55.8433 49.0711 55.571C49.2636 55.21 49.436 54.8375 49.594 54.4621C50.0852 53.293 50.384 52.0552 50.519 50.7944C50.8006 48.1725 50.2576 45.5192 49.1745 43.1294C48.6517 41.9718 47.9938 40.8686 47.2181 39.8628C46.4655 38.8886 45.5777 37.9917 44.4803 37.4072C44.081 37.1951 43.6644 37.0375 43.2364 36.9143C43.1215 36.7338 43.0295 36.5361 42.9692 36.304C42.7911 35.5848 42.59 34.8713 42.363 34.1664C41.8574 32.5818 41.3288 31.0058 40.8117 29.427C40.6164 28.8338 40.3951 28.2464 40.2285 27.6447C39.9843 26.7536 39.7804 25.8538 39.5505 24.9569C39.5218 24.8481 39.4529 24.7506 39.4069 24.6475C39.2316 24.2692 39.0191 23.9053 38.8927 23.5128C38.2578 21.5786 37.7234 19.6072 36.9995 17.7074C36.1663 15.5125 35.6521 13.2317 34.9913 10.9909C34.638 9.79316 34.4311 8.5553 34.1352 7.34037C33.8882 6.32887 33.5635 5.33171 33.3423 4.31449C33.0407 2.91903 32.3771 1.72415 31.4635 0.649621C31.0814 0.196885 30.6189 -0.0638675 30.0012 0.0163641C28.1885 0.254194 26.3441 0.216943 24.5543 0.655352C23.6321 0.88172 22.7042 1.06511 21.7504 1.15966C20.7449 1.25995 19.7682 1.68117 18.7655 1.73848C17.7715 1.79579 16.9499 2.3832 15.9674 2.41472C15.6313 2.42618 15.3038 2.64108 14.9677 2.65541C14.0369 2.70126 13.129 2.81874 12.2298 3.06803C11.1985 3.35171 10.147 3.55515 9.10994 3.81877C8.21074 4.04514 7.31442 4.23426 6.37213 4.18554C5.56773 4.14256 4.72886 4.09098 4.16866 4.74143C3.86701 4.70705 3.52802 4.79015 3.23211 4.8933C2.85577 4.96207 2.50816 5.134 2.19502 5.37756C1.83304 5.59246 1.48543 5.84175 1.15505 6.08531C0.554628 6.52659 0.00591619 6.93634 0.000170515 7.74725C-0.00557516 8.48367 0.135194 9.24873 0.224252 9.97655C0.408114 11.5153 0.646559 13.0454 0.956826 14.5641C1.10047 15.2661 1.24986 15.9624 1.46245 16.6358C1.52852 17.0025 1.58023 17.3722 1.66642 17.7332C1.90774 18.7419 2.1864 19.7447 2.4191 20.7562C2.59434 21.5213 2.70351 22.3007 2.87875 23.0658C3.11145 24.0801 3.38437 25.083 3.63144 26.0945C3.93021 27.3094 4.19164 28.533 4.52489 29.7365C4.6398 30.1548 4.71163 30.6333 5.13393 31.0087C5.17702 30.9141 5.20288 30.8224 5.22299 30.7308C5.37525 31.3841 5.53038 32.0345 5.69126 32.685C5.63955 32.6105 5.58497 32.536 5.52464 32.4643C5.37525 33.003 5.70275 33.3698 5.95844 33.7652C5.99291 33.9028 6.03026 34.0432 6.06473 34.1807C6.06473 34.1807 6.06473 34.1807 6.06186 34.1807C6.11357 34.4758 6.14517 34.6535 6.17677 34.8312C6.19401 34.8283 6.21125 34.8226 6.23136 34.8197C7.18227 38.5018 8.24809 42.1552 9.44032 45.7684C9.81666 46.9146 10.1815 48.0722 10.6211 49.1955C10.6412 49.2499 10.6699 49.3015 10.6929 49.3531C10.9744 50.4706 11.2387 51.5967 11.5461 52.7056C11.8679 53.8632 12.2672 55.0008 12.6148 56.1498C12.7268 56.5252 12.8619 56.9235 12.8446 57.3046C12.8159 57.9235 13.0658 58.425 13.3244 58.9379C13.356 59.0009 13.4048 59.0554 13.4249 59.1184C13.7065 60.0182 13.9995 60.915 14.2581 61.8234C14.4678 62.5598 14.6086 63.3134 14.8211 64.0469C15.1056 65.0212 15.5652 65.941 15.7261 66.9611C15.8094 67.4797 16.0191 67.9783 16.1915 68.4769C16.4271 69.1531 16.6741 69.8265 16.9327 70.4941C17.2085 71.2047 17.4986 71.9125 17.7974 72.6145C18.0244 73.1418 18.326 73.6375 18.507 74.1762C19.0873 75.8782 19.6217 77.5946 20.1847 79.2995C20.5467 80.3941 20.9202 81.4858 21.2994 82.5747C21.4574 83.0274 21.6671 83.4601 21.805 83.9157C21.8136 83.9444 21.8222 83.973 21.8337 84.0017C22.1842 85.2682 22.4887 86.5433 22.8277 87.8127C22.9714 88.3456 23.1639 88.8672 23.3305 89.3944C23.6637 90.4489 23.9769 91.5119 24.3274 92.5607C24.6348 93.4776 24.945 94.3774 25.7954 95.0077C26.6716 95.6582 27.5995 96.0364 28.6883 95.9849C29.8461 95.9304 31.0038 95.8989 32.1558 95.7785C33.236 95.6639 34.3306 95.5923 35.3677 95.1969C35.7756 95.0393 36.2152 94.9562 36.6403 94.8415C37.5338 94.6009 38.4359 94.3802 39.3236 94.1166C40.4066 93.7957 41.4782 93.4346 42.5555 93.0937C43.7937 92.704 45.0779 92.4231 46.2644 91.916C48.6115 90.9159 50.904 89.7898 53.2195 88.7268C53.4694 88.6121 53.7395 88.5262 54.0067 88.4603C55.1184 88.1795 56.1268 87.6608 57.0921 87.0648C57.1093 87.0562 57.1237 87.0362 57.1409 87.0247C57.2587 87.0476 57.3794 87.0132 57.4799 86.8929C58.0516 86.1966 58.1177 85.3484 57.9798 84.4859C57.8907 83.9243 57.7327 83.3742 57.5632 82.8269L57.569 82.8326ZM31.3572 42.3873C31.768 43.2125 32.3282 43.989 32.1587 45.0922C31.768 44.6567 31.679 44.1753 31.6158 43.7225C31.5497 43.2727 31.1791 42.8772 31.3601 42.3873H31.3572ZM31.7537 41.9059C31.6043 41.4732 31.4779 41.0233 31.4118 40.5706C31.3342 40.0634 31.5813 39.6995 32.0409 39.4473C32.5552 39.1665 33.0608 38.9402 33.6641 38.8829C34.1381 38.837 34.5978 38.6278 35.0574 38.476C36.8242 37.8972 38.6255 37.6994 40.4698 37.9888C40.7226 38.029 40.9898 38.0863 41.2311 38.0433C42.6733 37.7854 43.7966 38.4359 44.8567 39.2726C45.7702 39.9918 46.5603 40.8199 47.2469 41.7683C47.7209 42.4245 48.1461 43.1036 48.5282 43.8085C48.9562 44.8028 49.278 45.8401 49.4791 46.9032C49.4906 47.1353 49.4963 47.3702 49.4992 47.6052C49.5107 48.694 49.5193 49.7886 49.4274 50.8718C49.3785 51.4563 49.1659 52.0466 48.9361 52.5967C48.6086 53.379 48.2064 54.1297 47.8128 54.8805C47.7094 55.0782 47.5227 55.2329 47.3761 55.4077C46.3247 56.657 45.0549 57.5682 43.4806 58.0725C41.9551 58.5597 40.4354 59.0296 38.8151 59.0554C38.4215 59.0611 38.0251 59.0525 37.6315 59.0496C37.2235 59.0496 36.8156 59.0496 36.3014 59.0496C36.2698 58.9637 36.1807 58.7803 36.129 58.5883C36.0313 58.2158 36.0543 57.7917 35.563 57.637C35.4826 57.6112 35.4481 57.3992 35.4136 57.2674C35.0316 55.763 34.6236 54.2644 34.2875 52.7515C34.0376 51.6225 33.8939 50.4706 33.6813 49.333C33.4687 48.1983 33.2389 47.0665 33.0033 45.9375C32.8712 45.3043 32.739 44.6681 32.5437 44.0521C32.3139 43.3271 31.9978 42.628 31.7508 41.9059H31.7537ZM31.7766 1.78433C32.0725 2.23706 32.2794 2.75284 32.4891 3.25428C32.65 3.63538 32.7649 4.03654 32.8827 4.43483C32.989 4.79874 33.078 5.16838 32.9717 5.63831C32.6557 5.40048 32.5408 5.10821 32.446 4.82167C32.492 4.91909 32.5896 4.98213 32.7017 4.95347C32.808 4.92482 32.8942 4.79588 32.8539 4.68699C32.6873 4.23139 32.4948 3.78725 32.288 3.34884C32.2708 3.30586 32.2506 3.26574 32.2334 3.22563C32.2162 3.16259 32.1846 3.09669 32.1501 3.03651C31.9174 2.51501 31.656 2.00496 31.3658 1.51211C31.3313 1.44621 31.2997 1.3803 31.2624 1.3144C31.4721 1.43761 31.6502 1.59234 31.7766 1.78433ZM30.728 1.28288C30.728 1.28288 30.7338 1.29147 30.7367 1.2972C30.8085 1.49778 30.8803 1.69836 30.9521 1.89894C30.7395 1.75854 30.6907 1.54936 30.728 1.28288ZM7.92346 30.0746C7.39486 29.7823 7.41497 29.3725 7.46955 28.9227C8.01252 29.1949 8.10157 29.4041 7.92346 30.0746ZM3.76646 11.2746C3.68028 11.2459 3.6142 11.223 3.56249 11.2029C3.62856 11.2029 3.69177 11.1858 3.74061 11.1456C3.74922 11.1886 3.75784 11.2287 3.76933 11.2774L3.76646 11.2746ZM3.95894 13.8506C3.85552 13.5067 3.74922 13.1629 3.63718 12.8248C3.6774 12.7388 3.74635 12.6528 3.8785 12.5726C3.97618 12.7503 4.09109 12.8907 4.13131 13.0511C4.19451 13.3062 4.25197 13.5612 4.30655 13.8162C4.19164 13.8076 4.07385 13.8162 3.96181 13.8506H3.95894ZM4.39849 11.0253C3.93021 10.584 4.05087 10.2402 4.19164 9.76737C4.47605 10.1886 4.50765 10.521 4.39849 11.0253ZM6.6077 26.9627C6.57035 26.8051 6.533 26.6447 6.49853 26.4871C6.65941 26.6619 6.69101 26.7593 6.6077 26.9627ZM3.9532 25.3724C3.95607 25.0859 3.82679 24.7965 3.76072 24.5099C3.69464 24.2177 3.64006 23.9254 3.57111 23.636C3.47343 23.2377 3.37001 22.8394 3.26659 22.4411C3.23786 22.3294 3.18615 22.2233 3.16029 22.1116C3.06262 21.6646 2.95919 21.2176 2.88737 20.7677C2.87014 20.656 2.96207 20.5299 3.00229 20.4095C3.05112 20.4324 3.10284 20.4554 3.15455 20.4783C3.15455 20.5098 3.15455 20.5385 3.16029 20.5729C3.49354 22.5013 3.86126 24.424 4.25772 26.3409C4.08535 26.0573 3.95032 25.7535 3.9532 25.3753V25.3724ZM12.4396 52.8317C12.3706 52.6999 12.3189 52.5652 12.2729 52.4277C12.2816 52.4449 12.2902 52.4592 12.2988 52.4764C12.4539 52.7973 12.8963 52.6569 12.9739 52.3704C12.9739 52.3732 12.9739 52.3761 12.9739 52.379C12.9998 52.8202 13.0543 53.2558 13.1262 53.6913C13.1693 53.9435 13.221 54.1899 13.2698 54.4421C12.7211 54.0466 12.7154 53.3704 12.4396 52.8346V52.8317ZM16.0996 61.2904C15.9674 60.6858 15.8381 60.0812 15.706 59.4766C15.7433 59.5654 15.7634 59.6714 15.795 59.7517C15.9588 60.2015 16.0823 60.6657 16.2375 61.1758C16.1944 61.2274 16.1455 61.2617 16.0967 61.2875L16.0996 61.2904ZM16.203 59.5138C16.203 59.5138 16.1312 59.425 16.1398 59.4136C16.1742 59.3677 16.2288 59.3362 16.2748 59.3018C16.2978 59.3391 16.3208 59.3763 16.3581 59.4365C16.3064 59.4651 16.2547 59.4995 16.203 59.5138ZM16.3753 56.6656C16.3437 56.6026 16.3064 56.551 16.2949 56.4937C16.2892 56.4679 16.3437 56.4335 16.3696 56.402C16.4012 56.4507 16.4443 56.4966 16.4615 56.551C16.4673 56.5711 16.4156 56.6112 16.3753 56.6628V56.6656ZM17.0016 59.3276C16.9672 59.0095 16.947 58.8319 16.9212 58.5855C17.0955 58.7536 17.1223 59.0009 17.0016 59.3276ZM17.7888 67.5513C17.7399 67.4711 17.6969 67.3937 17.6624 67.3135C17.625 67.2218 17.49 67.2533 17.5101 67.3565C17.5417 67.5112 17.5388 67.666 17.5331 67.8207C17.4555 67.5771 17.378 67.325 17.2947 67.0556C17.5704 67.1989 17.7141 67.2934 17.7859 67.5513H17.7888ZM17.4814 59.8863C17.5618 60.0669 17.6279 60.2187 17.7399 60.4795C17.3856 60.3706 17.2994 60.1729 17.4814 59.8863ZM19.9923 68.6889C19.9836 68.6459 20.044 68.5886 20.0842 68.5141C20.156 68.5743 20.2479 68.6316 20.2422 68.6545C20.2192 68.7233 20.1589 68.7777 20.11 68.8379C20.0669 68.7892 20.0009 68.7433 19.9894 68.6889H19.9923ZM20.676 71.2878C21.4057 71.156 21.4804 71.2076 21.535 71.7406C21.5522 71.9182 21.6384 72.0873 21.6528 72.2649C21.6729 72.5286 21.6585 72.7922 21.6585 73.2105C20.9518 72.6117 20.946 71.9068 20.6789 71.2878H20.676ZM23.1811 76.4599C23.589 77.225 23.6465 78.0359 23.8562 78.7952C23.8964 78.9414 23.7873 79.1276 23.7471 79.2967C23.0059 77.821 22.8651 77.0101 23.1811 76.4599ZM24.9939 84.4917L25.1547 84.3885C25.3961 84.4401 25.4535 84.592 25.3357 84.9788C25.1749 84.7524 25.0858 84.6206 24.9939 84.4917ZM25.6144 85.5347C25.9792 86.039 26.0712 86.6063 26.0999 87.2683C25.6403 86.9789 25.4535 86.3055 25.6144 85.5347ZM19.1563 70.4597C19.1103 70.3422 19.0557 70.2276 19.0097 70.1073C19.1304 70.2534 19.2108 70.4282 19.2424 70.6632C19.2424 70.6832 19.2511 70.7004 19.2511 70.7205C19.2195 70.6345 19.1879 70.5457 19.1563 70.4597ZM18.2599 63.3592C18.2025 63.2618 18.145 63.1644 18.0876 63.067C18.1163 63.0469 18.145 63.0297 18.1709 63.0097C18.2398 63.1013 18.3088 63.193 18.3777 63.2847C18.3375 63.3105 18.2973 63.3334 18.2571 63.3592H18.2599ZM27.5191 91.9962C27.1111 91.6982 27.091 91.4374 27.4501 90.9045C27.6369 91.2798 27.7202 91.6151 27.5191 91.9962ZM55.6528 85.6636C55.5465 85.6636 55.4258 85.7295 55.3368 85.7983C54.1417 86.7009 52.7742 87.2912 51.4125 87.8614C50.3064 88.3227 49.1401 88.6322 48.0024 89.019C47.741 89.1079 47.4997 89.2569 47.2354 89.3342C46.4798 89.552 45.7156 89.744 44.9543 89.9503C44.7762 89.999 44.5895 90.042 44.4229 90.1222C43.6328 90.4947 42.8485 90.8873 42.0556 91.2598C41.642 91.4546 41.211 91.6122 40.7945 91.7985C39.9068 92.1968 39.0535 92.724 38.1256 92.9704C37.0655 93.2541 36.0974 93.853 34.9684 93.896C34.8793 93.8988 34.7759 93.9189 34.7041 93.9676C34.322 94.2369 33.9025 94.2484 33.4515 94.2541C32.5494 94.2685 31.6588 94.3286 30.751 94.1882C30.119 94.0879 29.8116 93.7928 29.6364 93.2255C29.2141 91.8558 28.7745 90.489 28.335 89.1222C28.0075 88.1107 27.6627 87.1021 27.341 86.0877C27.2232 85.7152 27.2146 85.294 27.0393 84.953C26.5337 83.9845 26.3297 82.9128 25.9304 81.9071C25.4966 80.8153 24.991 79.7351 24.7209 78.6004C24.4509 77.4685 24.0257 76.3911 23.7413 75.2708C23.6321 74.8438 23.454 74.4369 23.3449 74.01C23.0892 72.9813 22.8622 71.944 22.6094 70.9153C22.3566 69.8838 22.1182 68.8465 21.8194 67.8293C21.443 66.5427 20.9259 65.2905 20.6243 63.9868C20.3255 62.6916 19.7653 61.5024 19.3516 60.256C19.0413 59.3133 18.8144 58.3448 18.5012 57.4049C17.9841 55.849 17.4412 54.2988 16.8723 52.7601C16.7345 52.3904 16.4529 52.0724 16.1886 51.6511C16.1312 51.4534 16.0794 51.1325 15.9444 50.8546C15.5623 50.078 15.3153 49.27 15.2004 48.4132C15.1515 48.0465 15.117 47.6424 14.9361 47.3387C14.4505 46.5221 14.3328 45.5908 14.011 44.7254C13.8185 44.2125 13.6289 43.6996 13.4393 43.1867C13.3215 42.8686 13.2181 42.5449 13.0831 42.2354C12.8877 41.7998 12.6665 41.3729 12.4625 40.9431C12.3821 40.7769 12.2184 40.5821 12.2528 40.4388C12.4281 39.7167 11.888 39.2382 11.6955 38.645C11.503 38.0548 11.2646 37.4817 11.0434 36.9029C11.0261 36.8599 11.0261 36.794 10.9945 36.7768C10.871 36.7051 10.7216 36.5819 10.6124 36.5676C10.4228 35.7624 10.2677 34.9429 10.0867 34.1435C10.0091 33.7967 9.92295 33.4529 9.83102 33.1119C9.85401 33.1033 9.87411 33.0947 9.89997 33.0833C9.8339 32.9371 9.79368 32.7623 9.69887 32.6534C9.62705 32.4185 9.54948 32.1835 9.4633 31.9514C9.4949 31.9371 9.52938 31.9228 9.56385 31.9084C9.42883 31.2007 9.29667 30.5302 9.1674 29.8597C9.01514 29.0659 8.9031 28.2608 8.702 27.4814C8.3314 26.0458 7.89186 24.6303 7.51551 23.1976C7.2742 22.2835 7.10757 21.3522 6.88636 20.4324C6.70825 19.6903 6.48417 18.9568 6.30318 18.2146C5.76596 16.0312 5.20863 13.8535 5.1368 11.5869C5.09946 10.4551 4.97018 9.32323 4.89836 8.19139C4.8725 7.78737 4.96443 7.45785 5.36376 7.19423C5.69701 6.97646 5.90385 6.57817 6.19688 6.28876C6.50715 5.98502 6.87774 5.73573 7.18227 5.42627C7.53275 5.07096 7.9608 5.07096 8.40322 5.04517C9.56098 4.9764 10.7273 4.96207 11.8707 4.79301C13.1032 4.61249 14.3155 4.28583 15.5365 4.01362C16.6195 3.77292 17.694 3.51217 18.7799 3.28294C19.185 3.19697 19.6102 3.19697 20.0181 3.12247C20.9748 2.95055 21.9314 2.76716 22.8823 2.56658C23.4483 2.4491 24.0056 2.28291 24.5687 2.1511C25.4219 1.95338 26.2751 1.74421 27.137 1.58375C27.68 1.48346 28.2689 1.33159 28.7889 1.43761C29.7139 1.62673 30.6361 1.96198 31.1073 2.90184C31.4606 3.601 31.7738 4.32308 32.0725 5.04803C32.3311 5.67556 32.5293 6.31455 32.6959 6.96213C33.3538 8.64413 33.8796 10.3748 34.411 12.0998C35.2125 14.7073 36.0859 17.2948 36.9047 19.8966C37.89 23.0257 38.8697 26.1575 39.766 29.3152C40.1021 30.4987 40.2371 31.725 40.4727 32.9285C40.6853 34.0145 40.9439 35.2123 41.6937 36.069C41.8373 36.2352 41.8833 36.4387 41.8574 36.6306C41.4121 36.5762 40.9611 36.5447 40.5129 36.5275C39.3408 36.4874 38.163 36.4874 36.9966 36.5963C34.7242 36.8026 32.0668 37.39 30.8114 39.4674C30.6045 39.6021 30.4005 39.7367 30.1908 39.8628C29.984 39.9889 29.8892 40.1408 29.9466 40.3786C29.9926 40.582 30.0271 40.7884 30.0874 40.9889C30.7194 43.0434 31.3716 45.0922 31.9835 47.1524C32.627 49.3273 33.3337 51.485 33.8049 53.7114C34.1266 55.2243 34.5748 56.7115 34.9798 58.2044C35.0718 58.5367 35.247 58.8462 35.3418 59.1786C35.4223 59.4594 35.4826 59.7603 35.4797 60.0525C35.4768 60.6314 35.9164 60.9781 36.4852 60.8291C37.4218 60.5826 38.3583 60.342 39.3063 60.1328C39.6195 60.064 39.9556 60.0984 40.2802 60.1013C40.8404 60.107 41.369 60.0268 41.9034 59.8119C42.7394 59.4737 43.6127 59.2216 44.4746 58.9494C45.4312 58.6485 46.25 58.127 46.9739 57.4479C47.0113 57.4135 47.0486 57.3762 47.0889 57.339C47.0429 57.5281 47.3129 57.6886 47.4738 57.5396C47.5629 57.4565 47.6577 57.3791 47.7525 57.2989C47.8674 57.276 47.9708 57.2015 48.0398 57.104C48.0398 57.104 48.0398 57.1098 48.0426 57.1098C48.1461 57.3419 48.2179 57.594 48.3041 57.8318C48.4793 58.3161 48.6488 58.8004 48.8183 59.2846C48.9648 59.703 49.1056 60.1242 49.2492 60.5425C49.5681 61.6027 49.9272 62.6515 50.272 63.7031C50.361 63.9782 50.4644 64.2475 50.5679 64.5169C50.9471 65.7003 51.3234 66.8866 51.6854 68.0757C52.8949 72.0242 54.021 75.9957 55.1385 79.9729C55.6068 81.6377 56.1383 83.3083 56.4859 85.0103C56.3796 85.3714 56.1555 85.6665 55.6557 85.6636H55.6528Z" fill="#691A1E"/>
<path d="M73.2875 37.7597C73.8333 37.2497 74.3131 36.6651 74.698 36.0233C74.7842 35.88 74.7268 35.7081 74.6147 35.6078C74.8532 35.0061 74.9221 34.3556 74.9709 33.6994C74.9882 33.4587 74.9393 33.2123 74.8934 32.9716C74.8072 32.5246 74.7066 32.0805 74.6061 31.6363C74.563 31.4501 74.5458 31.2438 74.4538 31.0862C73.9683 30.2667 73.3564 29.5417 72.7043 28.8511C72.575 28.7136 72.394 28.6219 72.2216 28.5359C71.8798 28.3669 71.5006 28.2609 71.1845 28.0517C70.1532 27.3755 68.9926 27.4872 67.8578 27.4671C67.4412 27.4586 67.0218 27.6104 66.6052 27.6018C66.2433 27.5961 65.91 27.6362 65.5653 27.7394C65.301 27.8167 65.0137 27.8196 64.7379 27.8568C64.6172 27.874 64.488 27.874 64.3759 27.9113C63.629 28.1692 62.8706 28.4099 62.1409 28.7107C61.3307 29.046 60.5407 29.4386 59.7449 29.8082C59.6329 29.8598 59.5352 29.9371 59.4318 30.003C58.794 30.4071 58.3114 30.9601 57.8891 31.5762C57.2628 32.496 56.8778 33.496 56.7888 34.6135C56.7284 35.3556 57.0444 35.986 57.2858 36.6422C57.5156 37.2697 57.7684 37.8915 57.8057 38.5764C57.8144 38.7454 57.8546 38.9403 57.9494 39.0749C58.5699 39.9546 59.1876 40.8429 60.3626 41.0549C60.4631 41.0721 60.5522 41.1438 60.6498 41.1868C61.6295 41.608 62.6407 41.8859 63.7152 41.8601C64.1202 41.8515 64.5224 41.8 64.9246 41.7541C65.1832 41.7255 65.4532 41.7054 65.6974 41.6223C66.3323 41.4045 66.9414 41.1037 67.5878 40.9317C68.734 40.6309 69.7654 40.1208 70.7421 39.4847C71.6614 39.0262 72.5262 38.4675 73.2932 37.754L73.2875 37.7597ZM73.2875 34.2926C73.1869 34.0289 73.2386 33.9258 73.5173 33.7968C73.4196 34.006 73.3708 34.112 73.2875 34.2926ZM65.3441 40.6595C64.9878 40.7197 64.6287 40.7598 64.2668 40.7799C64.2811 40.7254 64.2811 40.6681 64.2696 40.6108C65.0309 40.5736 65.7894 40.4761 66.5363 40.3157C66.1714 40.416 65.8066 40.5134 65.4389 40.6137C65.4015 40.6251 65.3728 40.6423 65.3441 40.6595ZM69.1305 39.4847C69.1305 39.4847 69.1362 39.4818 69.1391 39.479C69.1391 39.479 69.1333 39.479 69.1305 39.4818V39.4847ZM72.0521 37.8027C72.3078 37.6336 72.5606 37.4674 72.8163 37.2984C72.2446 37.8285 71.5982 38.2784 70.9059 38.6595C71.3167 38.413 71.6988 38.1236 72.0493 37.8027H72.0521ZM73.1208 34.9373C73.049 35.0318 72.9801 35.1235 72.914 35.2181C72.9772 35.0548 73.0404 34.8886 73.0979 34.7109C73.1151 34.7826 73.1208 34.8571 73.1237 34.9344L73.1208 34.9373ZM61.7846 40.9432C61.7846 40.9432 61.7846 40.9518 61.7846 40.9575C61.7473 40.9489 61.7128 40.9375 61.6755 40.926C61.7128 40.9317 61.7501 40.9375 61.7875 40.9432H61.7846ZM74.2872 34.8599C74.0804 35.1665 73.9597 35.519 73.8189 35.8599C73.6839 35.9488 73.5489 36.0376 73.4167 36.1264C73.457 36.0577 73.4972 35.986 73.5374 35.9144C73.8362 35.5419 74.0947 35.1379 74.2987 34.6909C74.2987 34.7138 74.2987 34.7338 74.2987 34.7568C74.2987 34.7911 74.3102 34.837 74.293 34.8599H74.2872ZM74.2872 33.9115C74.2585 33.8971 74.2326 33.8857 74.201 33.8799C74.2068 33.8341 74.2068 33.7883 74.2125 33.7424C74.2125 33.7367 74.2125 33.7309 74.2125 33.7252C74.2125 33.7252 74.2125 33.7252 74.2125 33.7223C74.2211 33.6106 74.2326 33.4988 74.2298 33.3842C74.2556 33.4358 74.2815 33.4903 74.2843 33.5447C74.2843 33.6679 74.2843 33.7883 74.2843 33.9115H74.2872ZM58.3832 37.5419C58.0155 36.8571 57.7454 36.1322 57.6104 35.3614C57.5931 35.2582 57.5644 35.1493 57.5127 35.0605C57.0674 34.2926 57.3174 33.5676 57.6305 32.8427C57.935 32.132 58.432 31.5504 58.9692 31.0231C59.2853 30.7108 59.7392 30.536 60.1356 30.3096C60.2879 30.2237 60.4574 30.1606 60.6182 30.089C60.6096 30.0718 60.6039 30.0546 60.5953 30.0374C61.5376 29.642 62.4741 29.2294 63.4279 28.8597C63.8818 28.685 64.3673 28.5847 64.8471 28.4729C65.6026 28.2953 66.3582 28.1147 67.1224 27.9858C67.4987 27.9227 67.8923 27.9686 68.2772 27.9772C68.3807 27.9772 68.5042 28.0001 68.5789 28.0632C69.0242 28.4271 69.593 28.3927 70.1015 28.5474C70.3514 28.6219 70.6215 28.6764 70.8369 28.8139C71.1903 29.0374 71.5982 29.1406 71.9257 29.4386C72.4802 29.9429 72.7933 30.5303 72.8508 31.2638C72.8881 31.7538 72.9398 32.2495 72.914 32.7366C72.8853 33.2582 72.7818 33.7768 72.6985 34.2926C72.5894 34.9631 72.3538 35.5791 71.8798 36.0892C71.7878 36.1895 71.7333 36.3327 71.6873 36.4646C71.6126 36.6709 71.5092 36.8485 71.3856 37.0118C70.564 37.5763 69.6562 38.0377 68.8087 38.4617C68.6478 38.542 68.6162 38.7024 68.6651 38.8371C68.1652 39.0463 67.6423 39.2125 67.1166 39.3558C66.6972 39.4704 66.2461 39.4847 65.8123 39.5506C65.4274 39.6079 65.0482 39.6824 64.6632 39.7254C64.3529 39.7598 64.0341 39.7913 63.7238 39.7655C63.1463 39.7168 62.5689 39.6366 61.9972 39.542C61.6697 39.4876 61.3508 39.3844 61.0291 39.2956C60.8423 39.244 60.6642 39.1494 60.4746 39.1323C59.449 39.032 58.84 38.3844 58.3918 37.5505L58.3832 37.5419Z" fill="#691A1E"/>
<path d="M67.1299 34.6117C67.216 34.394 67.2994 34.1733 67.3827 33.9556C67.5493 33.5172 67.7102 33.0759 67.8653 32.6317C68.0147 32.1991 68.1612 31.7692 68.2905 31.3308C68.4226 30.8838 68.5691 30.4196 68.5548 29.9497C68.5548 29.9297 68.5462 29.9182 68.5375 29.9039C68.5404 29.8924 68.5433 29.8838 68.5462 29.8723C68.5404 29.8752 68.5347 29.8781 68.5289 29.8809C68.483 29.815 68.3795 29.8093 68.3221 29.8867C68.2962 29.9239 68.2732 29.964 68.2503 30.0042C68.2043 30.0271 68.1669 30.0471 68.1468 30.0787C68.0405 30.2506 67.9687 30.4454 67.8825 30.6317C67.8596 30.6632 67.8394 30.6919 67.8165 30.7262C67.6556 30.9841 67.4947 31.2391 67.3166 31.4856C66.992 31.9412 66.63 32.4025 66.2019 32.775C66.1732 32.6976 66.156 32.6031 66.1732 32.5372C66.2967 32.03 66.4289 31.5228 66.6013 31.03C66.6558 30.8752 66.6731 30.7348 66.6645 30.5916C66.6731 30.54 66.6846 30.4884 66.6932 30.4368C66.7162 30.3279 66.6989 30.2133 66.7248 30.1044C66.7305 30.0844 66.7047 30.0729 66.6903 30.0901C66.6357 30.1703 66.5524 30.2277 66.495 30.305C66.4662 30.3423 66.4432 30.3795 66.4145 30.4196C66.2192 30.4741 66.1703 30.56 66.1416 30.838C66.0698 30.9612 66.0037 31.0844 65.9376 31.2105C65.7135 31.6489 65.5153 32.1016 65.3171 32.5515C65.2424 32.7206 65.1706 32.8896 65.0959 33.0587C64.9436 32.9871 64.8057 32.8839 64.6851 32.7693C64.2082 32.3079 63.9611 31.6632 63.5015 31.1876C63.4641 31.1503 63.4181 31.1245 63.3664 31.1073C63.3636 31.0873 63.3549 31.0701 63.3521 31.05C63.3348 30.944 63.2486 30.8523 63.1395 30.6575C63.0246 30.8638 62.9125 30.9813 62.8924 31.1131C62.8723 31.2391 62.8694 31.3652 62.8666 31.4942C62.3811 32.4569 61.93 33.4369 61.502 34.4255C61.4416 34.414 61.3727 34.4312 61.3353 34.4943C61.2664 34.6117 61.186 34.7178 61.1917 34.8582C61.1974 35.0444 61.298 35.159 61.4416 35.2679C61.6284 35.4083 61.8525 35.2507 61.9243 35.0788C62.3351 34.0988 62.7861 33.1361 63.2573 32.1819C63.444 32.3509 63.625 32.4942 63.7658 32.6633C63.9381 32.9211 64.1249 33.1676 64.3691 33.3653C64.5156 33.4828 64.6736 33.5802 64.8373 33.6518C64.6621 34.053 64.4868 34.457 64.3145 34.8582C64.257 34.8696 64.2053 34.9011 64.1737 34.9613C64.0846 35.1275 64.0674 35.3252 64.1766 35.4886C64.3317 35.7178 64.6132 35.692 64.7454 35.4828C64.8258 35.4542 64.8919 35.437 64.9178 35.394C65.1131 35.0645 65.3429 34.7407 65.4636 34.3825C65.5498 34.1246 65.6475 33.9269 65.7681 33.7636C65.9146 33.7321 66.064 33.6747 66.2048 33.5888C66.3599 33.4942 66.5036 33.3796 66.6386 33.2535C66.7363 33.2335 66.8426 33.2163 66.9575 33.2048C66.9604 33.2134 66.9632 33.2191 66.9661 33.2277C66.9058 33.3911 66.8454 33.5544 66.7822 33.7177C66.7018 33.924 66.6214 34.1304 66.5409 34.3367C66.4519 34.563 66.3283 34.7923 66.2737 35.0301C66.1818 35.3739 66.6587 35.586 66.8483 35.2794C66.969 35.0817 67.0408 34.8438 67.1241 34.6261L67.1299 34.6117Z" fill="#691A1E"/>
<path d="M84.4321 10.1949C84.4895 9.62754 84.4694 9.05159 84.366 8.49284C84.343 8.36676 84.2252 8.29799 84.1103 8.29512C83.9437 7.83093 83.6564 7.42117 83.3519 7.02288C83.2398 6.87674 83.0876 6.75926 82.9411 6.64464C82.6681 6.42974 82.3837 6.22629 82.1051 6.02285C81.9873 5.93689 81.8724 5.828 81.7402 5.78502C81.0479 5.55865 80.3325 5.44977 79.6114 5.37813C79.4707 5.3638 79.3184 5.40105 79.1748 5.44117C78.8932 5.51567 78.6203 5.64461 78.3359 5.68186C77.4022 5.81081 76.7932 6.45553 76.1324 7.01428C75.8882 7.21773 75.7245 7.51573 75.4832 7.71917C75.2706 7.89683 75.1011 8.08881 74.9546 8.31805C74.8425 8.4957 74.6788 8.63897 74.538 8.79944C74.4777 8.86821 74.403 8.93411 74.357 9.01434C74.0582 9.53871 73.7422 10.0545 73.4751 10.5932C73.1763 11.1921 72.9235 11.811 72.6534 12.4242C72.6161 12.5101 72.5988 12.6047 72.5701 12.6935C72.4064 13.2437 72.4092 13.8053 72.4782 14.3698C72.5816 15.2122 72.866 15.9773 73.3745 16.665C73.7135 17.1206 74.2105 17.324 74.6816 17.5819C75.1298 17.8284 75.5895 18.0576 75.9543 18.4301C76.0462 18.5218 76.1669 18.6163 76.2904 18.645C77.0891 18.8399 77.8935 19.0404 78.6749 18.5734C78.741 18.5333 78.83 18.5304 78.9076 18.5046C79.6804 18.2553 80.4015 17.9086 81.0076 17.3556C81.2346 17.1493 81.4414 16.9172 81.6483 16.6879C81.7833 16.5418 81.9269 16.3957 82.0246 16.2237C82.2803 15.7825 82.4757 15.3011 82.7601 14.8827C83.2657 14.1348 83.6018 13.3239 83.8431 12.47C84.139 11.7479 84.3545 10.9943 84.4349 10.1978L84.4321 10.1949ZM82.6854 8.20629C82.4958 8.10601 82.4728 8.02004 82.5676 7.808C82.6164 7.97706 82.6423 8.06016 82.6854 8.20629ZM81.3323 15.8398C81.157 16.0518 80.9732 16.2552 80.7749 16.4472C80.7548 16.41 80.7261 16.3756 80.6916 16.3498C81.1111 15.9458 81.496 15.5102 81.8436 15.046C81.6856 15.2867 81.5247 15.5274 81.3639 15.7653C81.3466 15.791 81.3409 15.814 81.3323 15.8398ZM82.9123 13.2666C82.9123 13.2666 82.9123 13.2609 82.9152 13.258C82.9152 13.258 82.9152 13.2609 82.9123 13.2638V13.2666ZM83.7426 10.8367C83.8058 10.6132 83.8661 10.3897 83.9293 10.1662C83.869 10.7565 83.7225 11.3382 83.5185 11.9055C83.6305 11.5588 83.7052 11.2007 83.7426 10.8396V10.8367ZM82.9123 8.65616C82.9181 8.74499 82.9267 8.83382 82.9353 8.92265C82.8893 8.79657 82.8405 8.67049 82.7859 8.53868C82.8319 8.5702 82.8721 8.61318 82.9123 8.65616ZM79.4304 17.7854C79.4304 17.7854 79.4333 17.7911 79.4362 17.794C79.4103 17.8054 79.3845 17.8198 79.3586 17.8312C79.3816 17.8169 79.4075 17.8026 79.4304 17.7854ZM83.5443 8.02864C83.5817 8.30945 83.688 8.5702 83.777 8.83669C83.7454 8.95417 83.711 9.07452 83.6794 9.192C83.6679 9.13182 83.6535 9.07165 83.642 9.01148C83.6277 8.64757 83.5702 8.28653 83.461 7.92835C83.4725 7.93981 83.484 7.95414 83.4955 7.9656C83.5128 7.98566 83.5415 8.00572 83.5443 8.02864ZM83.0675 7.48134C83.0445 7.48708 83.0215 7.49567 83.0014 7.50713C82.9813 7.47848 82.9583 7.45269 82.9382 7.42404C82.9382 7.42117 82.9324 7.41831 82.9324 7.41258C82.8807 7.34381 82.829 7.27503 82.7716 7.20913C82.8146 7.22632 82.8549 7.24352 82.8836 7.27217C82.9468 7.34094 83.0071 7.41258 83.0703 7.48134H83.0675ZM75.7676 17.5332C75.2131 17.324 74.6903 17.0432 74.2249 16.6679C74.1617 16.6163 74.0927 16.5704 74.018 16.5447C73.3774 16.3269 73.1533 15.7853 72.9666 15.2122C72.7856 14.6506 72.777 14.0689 72.8172 13.4959C72.843 13.1577 73.0125 12.8311 73.1274 12.5016C73.1705 12.3755 73.2366 12.2551 73.2912 12.1319C73.2797 12.1262 73.2653 12.1205 73.2538 12.1119C73.5957 11.4127 73.9261 10.7049 74.2881 10.0172C74.4604 9.68771 74.6903 9.38685 74.9057 9.08598C75.2505 8.60745 75.5923 8.1232 75.9658 7.6676C76.1497 7.44409 76.3996 7.27217 76.6237 7.08305C76.684 7.03434 76.7673 6.98276 76.8391 6.9799C77.2787 6.96557 77.5861 6.66184 77.9567 6.49564C78.1377 6.41541 78.3215 6.30939 78.5111 6.28074C78.8272 6.23202 79.1116 6.08875 79.4506 6.09448C80.0223 6.10595 80.4991 6.28647 80.9013 6.67903C81.1685 6.94265 81.4472 7.20053 81.6799 7.49281C81.9269 7.80514 82.128 8.15472 82.3406 8.49284C82.6164 8.93411 82.7917 9.40404 82.7744 9.93414C82.7716 10.0373 82.8118 10.1462 82.852 10.2465C82.9123 10.4012 82.9439 10.5559 82.9554 10.7107C82.7687 11.4471 82.4785 12.1663 82.2056 12.8339C82.1539 12.96 82.2171 13.0689 82.3119 13.1233C82.1309 13.493 81.9155 13.8512 81.6856 14.1979C81.5018 14.4758 81.2518 14.7079 81.0335 14.9629C80.841 15.1864 80.66 15.4214 80.4618 15.6392C80.3009 15.814 80.1343 15.9916 79.9418 16.132C79.5856 16.3928 79.215 16.6363 78.8386 16.8684C78.6232 17.0003 78.3876 17.1005 78.1578 17.2123C78.0256 17.2753 77.8762 17.3126 77.7585 17.3957C77.1178 17.8513 76.4427 17.7854 75.7647 17.5304L75.7676 17.5332Z" fill="#691A1E"/>
<path d="M79.3099 11.4738C79.2496 11.3047 79.1864 11.1385 79.1261 10.9695C78.9997 10.6342 78.8704 10.299 78.7354 9.96944C78.6032 9.64851 78.4711 9.32472 78.3246 9.00953C78.1752 8.68573 78.0258 8.34761 77.7816 8.084C77.773 8.07254 77.7586 8.06967 77.75 8.06394C77.7471 8.05534 77.7414 8.04961 77.7385 8.04102C77.7385 8.04675 77.7356 8.04961 77.7327 8.05248C77.6724 8.03815 77.6092 8.08686 77.6178 8.1585C77.6207 8.19288 77.6293 8.22727 77.6351 8.26165C77.6178 8.2989 77.6092 8.33042 77.615 8.35621C77.6408 8.50808 77.6954 8.65708 77.7414 8.80608C77.7442 8.83474 77.7471 8.86339 77.75 8.89204C77.7873 9.12128 77.8218 9.34764 77.8477 9.57974C77.8908 10.0038 77.9137 10.4508 77.8563 10.8778C77.7988 10.8491 77.7442 10.8004 77.7184 10.7546C77.5317 10.4021 77.3535 10.0439 77.2041 9.6743C77.1582 9.55968 77.0979 9.46799 77.0203 9.39063C77.0002 9.35624 76.9801 9.32186 76.96 9.28747C76.9169 9.21297 76.8508 9.15566 76.8106 9.08116C76.802 9.06683 76.7818 9.07256 76.7847 9.08976C76.7933 9.16139 76.7761 9.23876 76.7818 9.31326C76.7818 9.34764 76.7905 9.38203 76.7933 9.41928C76.71 9.54822 76.7244 9.62272 76.8479 9.79751C76.868 9.90353 76.891 10.0067 76.9197 10.1127C77.0117 10.4766 77.1237 10.8348 77.2386 11.193C77.2817 11.3276 77.3248 11.4595 77.3679 11.5941C77.2444 11.6285 77.1122 11.64 76.9858 11.6314C76.4802 11.6056 76.0148 11.3592 75.5092 11.3162C75.469 11.3133 75.4287 11.3219 75.3914 11.3391C75.3799 11.3305 75.3655 11.3219 75.354 11.3133C75.2908 11.2617 75.1932 11.2531 75.0352 11.1958C75.0725 11.3706 75.0668 11.4938 75.1213 11.5798C75.173 11.6629 75.2334 11.7374 75.2966 11.8119C75.5034 12.6085 75.7361 13.3965 75.9889 14.1787C75.9487 14.2017 75.9171 14.2475 75.9286 14.3019C75.9487 14.4022 75.9573 14.5054 76.0292 14.5828C76.1268 14.6859 76.2417 14.7031 76.3768 14.6916C76.5549 14.6773 76.6037 14.4767 76.5578 14.3392C76.3021 13.5713 76.0723 12.7919 75.8625 12.0096C76.055 12.0125 76.2303 12.0039 76.3969 12.0297C76.6267 12.0898 76.8565 12.1386 77.0979 12.13C77.2415 12.1242 77.3794 12.1013 77.5115 12.0612C77.615 12.3793 77.7155 12.6973 77.8189 13.0154C77.7931 13.0498 77.7787 13.0956 77.7902 13.1443C77.8218 13.2847 77.9109 13.4079 78.0574 13.4452C78.2614 13.4996 78.4107 13.3449 78.382 13.1558C78.4136 13.0985 78.4423 13.0555 78.4366 13.0182C78.382 12.7317 78.3504 12.4308 78.2412 12.1643C78.1608 11.9724 78.1177 11.809 78.1033 11.6572C78.1723 11.5655 78.2269 11.4595 78.2671 11.3362C78.3073 11.2044 78.3332 11.0669 78.3475 10.9265C78.3935 10.8663 78.4452 10.8033 78.5055 10.7374C78.5113 10.7374 78.517 10.7431 78.5199 10.746C78.5659 10.8692 78.6147 10.9953 78.6607 11.1185C78.7181 11.2761 78.7756 11.4365 78.8331 11.597C78.8963 11.7718 78.9422 11.9666 79.0284 12.13C79.1491 12.3735 79.5312 12.256 79.4823 11.9838C79.4507 11.809 79.3731 11.6371 79.3128 11.4709L79.3099 11.4738Z" fill="#691A1E"/>
<path d="M49.7992 20.8032C49.7504 20.9636 49.7302 21.1356 49.7188 21.3075C49.7331 21.3361 49.7446 21.3677 49.7446 21.4049C49.7561 21.7488 49.848 22.213 50.2703 22.2244C50.6381 22.2359 50.9857 21.9579 51.2126 21.6972C51.589 21.2645 51.6321 20.6112 52.0773 20.2301C52.1951 20.1298 52.3359 20.0467 52.4795 19.9693C52.7927 19.6713 53.1489 19.3848 53.2954 18.9865C53.4534 18.5596 53.3816 18.0094 53.1173 17.6426C52.8559 17.2787 52.4135 17.0925 51.9739 17.0523C51.1264 16.975 50.368 17.5108 50.0807 18.2616C50.0807 18.273 50.0865 18.2816 50.0836 18.2931C50.0348 18.8948 50.4944 19.4335 50.2272 20.0352C50.1095 20.3017 49.8796 20.5224 49.7934 20.8032H49.7992ZM50.6697 19.0753C50.6294 18.9779 50.5404 18.8977 50.4714 18.8117C50.3249 18.6312 50.2474 18.4335 50.391 18.2243C50.7185 17.7544 51.0661 17.3102 51.678 17.1813C52.04 17.1039 52.6893 17.3045 52.8157 17.7515C52.8731 17.9578 52.9823 18.1469 53.0714 18.3446C53.1489 18.5137 53.1776 18.6828 53.0828 18.8604C52.9449 19.0983 52.7812 19.3304 52.5169 19.4278C52.1176 19.5739 51.8533 19.8318 51.6579 20.2043C51.4798 20.5453 51.2385 20.8548 51.0288 21.1785C50.9943 21.2301 50.9483 21.2817 50.9426 21.339C50.911 21.5854 50.7214 21.7258 50.5691 21.8892C50.5346 21.9264 50.4168 21.935 50.3709 21.9035C50.1095 21.743 50.0204 21.3591 50.0807 21.0639C50.1813 20.5768 50.4599 20.19 50.7214 19.7888C50.8794 19.5453 50.7645 19.3046 50.6754 19.0782L50.6697 19.0753Z" fill="#691A1E"/>
<path d="M59.1067 17.8973C59.0233 17.6164 59.0894 17.2726 58.7619 17.0949C58.6958 17.0577 58.6384 17.0032 58.578 16.9574C58.4401 16.9517 58.2965 16.9373 58.1672 16.8858C58.0035 16.8199 57.9834 16.7138 58.0782 16.5648C58.1012 16.5305 58.1213 16.4903 58.1299 16.4531C58.1615 16.3184 58.1816 16.1809 58.2218 16.0491C58.3023 15.7998 58.4143 15.5562 58.4746 15.3012C58.5263 15.0748 58.5493 14.8427 58.7016 14.6507C58.7217 14.6249 58.7217 14.582 58.7303 14.5476C58.7533 14.4244 58.7734 14.3012 58.7935 14.1751C58.8194 14.0261 58.8452 13.8799 58.8653 13.7309C58.8768 13.6478 58.8653 13.5647 58.8739 13.4816C58.8969 13.2696 58.9285 13.0604 58.9458 12.8484C58.9544 12.7481 58.9228 12.6421 58.94 12.5447C59.009 12.1951 58.9917 11.8598 58.7763 11.5618C58.4689 11.132 58.1816 10.6821 57.8282 10.2896C57.5208 9.94859 57.1301 9.68497 56.7911 9.37264C56.6418 9.2351 56.4751 9.14914 56.2826 9.10043C56.2367 9.08897 56.1936 9.05745 56.1505 9.04026C55.8058 8.89699 55.4754 8.71646 55.0818 8.74225C54.9324 8.75085 54.783 8.74225 54.6308 8.74225C54.3722 8.73652 54.1079 8.69641 53.8522 8.72506C53.5276 8.75945 53.2087 8.83681 52.8898 8.90845C52.8123 8.92564 52.7462 8.99441 52.6744 9.04026C52.6284 9.06891 52.5882 9.10616 52.5451 9.13481C52.4014 9.22078 52.2549 9.30101 52.117 9.3927C52.0366 9.44714 51.9763 9.52738 51.9016 9.59042C51.6775 9.7824 51.4218 9.94859 51.2351 10.1721C51.0857 10.3526 50.9851 10.5675 50.7323 10.6334C50.7237 10.6334 50.718 10.6621 50.7065 10.6907C50.7611 10.6907 50.8041 10.6879 50.8961 10.6821C50.8271 10.7996 50.784 10.8884 50.7266 10.9687C50.6117 11.1377 50.4594 11.2896 50.3732 11.473C50.0658 12.132 49.7785 12.7997 49.4884 13.4645C49.385 13.7023 49.3763 13.708 49.1379 13.6163C49.1178 13.6077 49.0919 13.6221 49.0661 13.6221C48.8535 13.6163 48.6409 13.6221 48.4283 13.5963C47.9514 13.5447 47.5234 13.6077 47.1671 13.9774C46.7879 14.3757 46.4978 14.837 46.2507 15.3184C45.9807 15.8456 45.7508 16.3929 45.521 16.9373C45.317 17.4187 45.07 17.8973 44.9579 18.4016C44.866 18.8056 44.6103 19.1351 44.504 19.5764C44.3747 20.1122 44.3316 20.6251 44.2167 21.1667C44.1104 21.6595 44.2253 22.1696 44.3977 22.6309C44.6017 23.1782 45.0585 23.5077 45.5239 23.8057C45.7623 23.9576 46.0439 24.055 46.3168 24.141C46.5897 24.227 46.7649 24.5307 47.0953 24.482C47.1097 24.482 47.1298 24.4963 47.1384 24.5106C47.2648 24.694 47.4515 24.7972 47.6325 24.9175C47.8595 25.0694 48.0922 25.1496 48.3622 25.1353C48.4226 25.1324 48.4915 25.1353 48.5404 25.1668C48.8075 25.333 49.135 25.2843 49.4137 25.439C49.6665 25.5794 49.9653 25.6367 50.2439 25.7313C50.4594 25.8029 50.672 25.8774 50.8875 25.9462C51.0024 25.9835 51.1202 26.0035 51.2351 26.0436C51.3816 26.0952 51.5195 26.1955 51.6689 26.2127C51.936 26.2413 52.1889 26.4133 52.4704 26.3072C52.4848 26.3015 52.5049 26.3158 52.5221 26.3244C52.772 26.4591 53.0306 26.4878 53.3035 26.3989C53.338 26.3875 53.3753 26.3932 53.4127 26.3932C53.7833 26.3903 54.1539 26.3989 54.5245 26.376C54.7342 26.3617 54.9525 26.3273 55.145 26.2471C55.3748 26.1525 55.5759 25.9949 55.8 25.8774C56.0298 25.7542 56.162 25.5622 56.2683 25.333C56.4205 25.0035 56.5872 24.6826 56.7509 24.3588C56.7768 24.3101 56.8141 24.2671 56.8429 24.2212C57.0497 23.8745 57.2652 23.5364 57.4548 23.1811C57.6961 22.7341 57.9374 22.2871 58.1328 21.8229C58.2965 21.436 58.3999 21.0234 58.5263 20.6194C58.5637 20.4991 58.5867 20.3701 58.624 20.2498C58.6728 20.0864 58.7418 19.9288 58.7849 19.7626C58.8711 19.4388 58.9372 19.1093 59.0233 18.7855C59.1009 18.4933 59.1986 18.2039 59.1095 17.8944L59.1067 17.8973ZM49.9739 13.9344C50.017 13.7739 50.8587 12.7567 50.8587 12.5676C50.8587 12.1464 51.0598 12.0146 51.0914 11.9572C51.3098 11.5532 51.7752 11.4243 52.028 11.0432C52.2808 10.6621 52.6887 10.4357 53.0679 10.1893C53.226 10.0861 53.3725 9.95719 53.5448 9.88269C54.4699 9.49013 55.3863 9.44714 56.2683 10.0059C56.3889 10.0833 56.4636 10.2265 56.5671 10.3326C56.6303 10.3985 56.705 10.4529 56.7796 10.5073C56.9721 10.6506 57.1301 10.8082 57.2134 11.0518C57.2853 11.261 57.4634 11.4357 57.5438 11.6449C57.607 11.8025 57.8886 12.1292 57.857 12.2954C57.7909 12.6679 58.1615 13.2381 58.0667 13.6049L57.8771 14.4387C57.6903 14.8972 57.5036 15.3528 57.3169 15.8112C57.2881 15.88 57.2652 15.9488 57.2307 16.0147C57.1301 16.1923 56.2884 15.8771 56.0988 15.8055C56.0069 15.7711 55.9063 15.7625 55.8172 15.7253C55.6679 15.6622 55.5213 15.5877 55.3748 15.5161C55.3432 15.4989 55.3202 15.4617 55.2886 15.4502C55.0071 15.3356 54.7227 15.2238 54.4383 15.1092C54.3435 15.072 54.2458 15.029 54.151 14.9917C54.1108 14.9745 54.0706 14.9459 54.0303 14.9487C53.4931 14.9717 52.9875 14.7969 52.4761 14.6794C52.005 14.5705 51.5511 14.3871 51.0886 14.2438C51.0081 14.2181 50.9191 14.2267 50.8386 14.2037C50.7927 14.1894 50.7237 14.135 50.7266 14.1034C50.7381 13.9458 49.9308 14.0948 49.971 13.943L49.9739 13.9344ZM57.7334 20.7455C57.449 21.3816 57.2508 22.0378 57.0037 22.6854C56.5987 23.7542 56.004 24.631 55.1594 25.3789C55.1192 25.4791 55.0847 25.5737 55.0387 25.6568C55.0186 25.6912 54.941 25.7256 54.9066 25.7141C54.8462 25.6912 54.7514 25.6396 54.7342 25.6024C54.6739 25.6711 54.6222 25.7485 54.5589 25.8087C54.4383 25.9204 54.2774 25.7972 54.1165 25.8173C53.7488 25.8602 53.5879 25.8087 53.2231 25.7685C52.8841 25.7313 52.344 25.8287 52.0079 25.7342C51.9849 25.7399 51.9648 25.7456 51.9418 25.7485C51.936 25.737 51.9332 25.7227 51.9274 25.7112C51.4333 25.5651 50.9507 25.3731 50.5082 25.141C50.1348 24.9433 49.7728 24.7141 49.3677 24.588C48.9713 24.4648 48.5518 24.4619 48.1496 24.3616C47.6153 24.2298 47.6297 23.9089 47.1269 23.6911C46.6098 23.4676 45.8313 23.2642 45.4406 22.8516C45.0642 22.4533 45.0671 22.7026 45.0441 22.1839C45.1159 21.7312 45.0039 21.8429 44.9953 21.8372C45.1877 21.9862 45.0125 21.6051 45.0211 21.5908C45.136 21.5249 45.047 21.1839 45.047 21.1466C45.0384 19.5048 45.7192 18.3242 46.4805 16.9058C46.8339 16.2439 46.8052 15.4617 47.3338 14.9201C47.5349 14.7138 47.7791 14.5333 48.0721 14.5046C48.3421 14.4788 48.615 14.5705 48.8822 14.5906C48.9454 14.5963 48.9943 14.6221 49.0287 14.6622C50.468 14.645 51.7263 15.3298 53.0162 15.8771C53.7574 16.1895 54.5388 16.4044 55.2973 16.6651C56.0844 16.9373 56.8601 17.2296 57.6243 17.5591C57.6616 17.5763 57.6875 17.6107 57.7076 17.648C57.8541 17.7196 57.9949 17.797 58.0983 17.9173C58.3051 18.1523 58.3367 18.5076 58.3281 18.8056C58.3051 19.4876 58.0092 20.1323 57.7363 20.7455H57.7334Z" fill="#691A1E"/>
<path d="M88.4029 31.6025C88.4574 31.548 88.5034 31.485 88.5666 31.4449C88.6815 31.3732 88.8051 31.3188 88.9257 31.2558C88.9458 31.2443 88.9602 31.2271 88.9745 31.2099C89.1297 31.0208 89.2992 30.8575 89.529 30.7572C89.6123 30.7199 89.6784 30.6397 89.756 30.5853C89.8824 30.4936 89.9341 30.5022 90.0289 30.6225C90.0576 30.6598 90.095 30.6913 90.1237 30.7285C90.1438 30.7543 90.1725 30.7887 90.1668 30.8116C90.1122 31.0122 90.1266 31.2357 89.9887 31.4134C89.8967 31.5308 89.9197 31.6254 89.9973 31.7572C90.1955 32.0982 90.3535 32.4592 90.5402 32.8088C90.6666 33.0495 90.8218 33.273 90.9396 33.5166C91.0459 33.7372 91.1206 33.9722 91.2067 34.2014C91.2355 34.2759 91.2613 34.3533 91.2814 34.4306C91.3762 34.7888 91.4279 35.147 91.3274 35.5138C91.2412 35.829 91.1723 36.1499 91.0918 36.4651C91.0171 36.7631 90.9367 37.0611 90.8591 37.3591C90.7959 37.5912 90.727 37.8233 90.6695 38.0583C90.6494 38.1442 90.6379 38.2359 90.6408 38.3219C90.6523 38.6199 90.6408 38.915 90.7212 39.2102C90.816 39.554 91.2355 39.9236 91.586 39.9437C91.6808 39.9494 91.7727 39.9867 91.8646 39.9924C92.1835 40.0067 92.5024 40.0039 92.8184 40.0268C93.1517 40.0497 93.482 40.0927 93.8153 40.1271C94.0939 40.1557 94.3726 40.1815 94.6513 40.2188C95.1253 40.2847 95.5964 40.3907 96.0187 40.6142C96.3405 40.7861 96.6163 41.0469 96.9093 41.2733C97.0242 41.3649 97.1392 41.4595 97.234 41.5713C97.4465 41.8177 97.6419 42.0813 97.8545 42.3277C97.9493 42.4366 98.0757 42.5197 98.1762 42.6229C98.3486 42.8005 98.5152 42.9839 98.679 43.1673C98.702 43.1931 98.7077 43.2504 98.6962 43.2876C98.6675 43.3765 98.702 43.4281 98.7623 43.4882C98.9146 43.6372 98.9548 43.6516 99.1444 43.5599C99.2449 43.5111 99.334 43.4309 99.4374 43.3879C99.5121 43.3564 99.6127 43.3421 99.6845 43.365C99.7305 43.3822 99.7678 43.4825 99.7735 43.5484C99.8023 43.8006 99.673 43.9811 99.5006 44.153C99.3972 44.2562 99.2938 44.3794 99.3024 44.557C99.3024 44.6029 99.2076 44.6544 99.153 44.6974C99.041 44.7834 98.9146 44.855 98.8111 44.9496C98.6876 45.0613 98.6158 45.2218 98.4434 45.2877C98.3572 45.3221 98.2883 45.408 98.2165 45.474C98.1734 45.5112 98.1418 45.5628 98.0987 45.5943C97.9033 45.7318 97.7022 45.8637 97.5098 46.0041C97.4121 46.0757 97.3259 46.1645 97.2368 46.2505C97.0817 46.4052 96.9323 46.5657 96.7772 46.7175C96.668 46.8236 96.5646 46.941 96.4353 47.0098C96.3175 47.0729 96.1681 47.0872 96.0331 47.1072C95.9153 47.1216 95.8607 47.1932 95.8148 47.2878C95.786 47.3508 95.7544 47.4253 95.7027 47.4626C95.4787 47.623 95.2488 47.7749 95.019 47.9296C94.9989 47.9411 94.9702 47.9583 94.9529 47.9525C94.7978 47.8952 94.7719 48.007 94.7059 48.1073C94.6398 48.2076 94.5134 48.2735 94.4128 48.3508C94.0336 48.6402 93.6314 48.9067 93.2809 49.2276C93.0166 49.4683 92.6949 49.6145 92.4162 49.8265C92.3846 49.8494 92.3013 49.8151 92.2467 49.7979C92.2094 49.7864 92.1605 49.7348 92.1433 49.7463C91.9996 49.8265 91.9393 49.7176 91.8761 49.6345C91.7957 49.5314 91.7095 49.4254 91.7497 49.2592C91.9336 49.3509 91.925 49.1503 92.0427 49.0872C91.9767 49.0099 91.9249 48.9325 91.856 48.8723C91.5745 48.6288 91.2613 48.4167 91.0114 48.1445C90.8591 47.9783 90.6638 47.9296 90.5 47.8064C90.4196 47.7462 90.342 47.6861 90.2702 47.6173C90.1438 47.4969 90.1266 47.3565 90.2156 47.2047C90.23 47.1817 90.2415 47.1474 90.2328 47.1244C90.1811 46.9783 90.1179 46.8379 90.072 46.6889C90.0174 46.517 89.9657 46.345 89.9312 46.1674C89.868 45.8407 89.8134 45.5141 89.7617 45.1845C89.7531 45.1301 89.8019 45.0671 89.799 45.0098C89.7933 44.7748 89.7761 44.5398 89.7675 44.3049C89.7675 44.2762 89.7761 44.2447 89.7847 44.216C89.7933 44.1902 89.8163 44.1673 89.8163 44.1415C89.8249 43.8579 89.8306 43.5742 89.8364 43.2876C89.8364 43.2676 89.8306 43.2475 89.8364 43.2303C89.891 43.0813 89.9513 42.9352 90.0001 42.7862C90.0662 42.5828 90.1409 42.3764 90.1725 42.1673C90.2099 41.9208 90.2214 41.6658 90.2099 41.4165C90.2013 41.1873 90.161 40.9552 90.1064 40.7317C90.0777 40.6199 89.9829 40.5254 89.9197 40.4251C89.8766 40.3592 89.8364 40.2933 89.7933 40.2274C89.7703 40.193 89.7473 40.1557 89.7129 40.13C89.6123 40.0497 89.5003 39.981 89.4055 39.895C89.167 39.6801 88.8826 39.6772 88.5925 39.7145C88.5379 39.7202 88.4919 39.7775 88.4373 39.8148C88.3195 39.7546 88.1615 39.7689 88.0121 39.7947C87.8685 39.8205 87.7306 39.8778 87.5927 39.9208C87.5841 39.9208 87.5726 39.9265 87.564 39.9265C87.1963 39.8577 86.8429 39.9666 86.4838 40.0067C86.389 40.0182 86.2884 39.9924 86.1936 39.9781C86.1477 39.9724 86.0988 39.938 86.0557 39.9437C85.711 39.9924 85.4007 39.8635 85.102 39.7403C84.7543 39.5941 84.4814 39.3219 84.2171 39.0526C84.1223 38.958 84.0361 38.852 83.9298 38.7746C83.5162 38.4766 83.2777 38.0382 82.9674 37.6542C82.8755 37.5396 82.7951 37.4164 82.7003 37.3047C82.5997 37.1843 82.436 37.1958 82.367 37.3591C82.2693 37.5883 82.0079 37.5855 81.8729 37.7488C81.8643 37.7603 81.7925 37.7373 81.7695 37.7144C81.6287 37.5625 81.6086 37.3878 81.7005 37.2015C81.7206 37.1614 81.7292 37.1127 81.7321 37.0697C81.735 37.0152 81.7034 36.9408 81.7321 36.9121C81.8154 36.8204 81.9131 36.743 82.0137 36.6685C82.0912 36.6112 82.1803 36.574 82.2607 36.5195C82.3785 36.4393 82.4934 36.3562 82.6055 36.2674C82.6715 36.2158 82.7261 36.1499 82.7865 36.0897C82.8181 36.0582 82.8439 36.021 82.8784 36.0009C82.9933 35.9321 83.1226 35.9035 83.1887 35.743C83.2289 35.6456 83.3926 35.6026 83.4989 35.531C83.5822 35.4765 83.6627 35.4192 83.7402 35.3619C83.8551 35.2788 83.9672 35.1928 84.0792 35.1069C84.266 34.9636 84.4556 34.8232 84.6366 34.6713C84.7572 34.5711 84.8405 34.4392 85.01 34.3791C85.1249 34.339 85.1996 34.19 85.2944 34.0925C85.5702 33.8117 85.8518 33.5424 86.1965 33.3389C86.3459 33.253 86.4666 33.1154 86.6016 33.0037C86.6332 32.9779 86.6705 32.9492 86.7107 32.9378C86.9262 32.8776 87.0584 32.7143 87.1963 32.5538C87.1991 32.5509 87.1991 32.5423 87.2049 32.5423C87.4462 32.4191 87.587 32.167 87.8398 32.0524C87.9317 32.0122 88.0179 31.9377 88.0811 31.8575C88.2075 31.6999 88.242 31.6684 88.4287 31.6311C88.423 31.6168 88.4172 31.6053 88.4115 31.591L88.4029 31.6025ZM89.483 32.2501C89.483 32.2501 89.4945 32.2357 89.5031 32.23C89.4715 32.1813 89.4457 32.1269 89.4055 32.0896C89.3796 32.0695 89.3135 32.0638 89.2906 32.0839C89.0981 32.2443 88.9085 32.4105 88.7189 32.5767C88.6298 32.6541 88.5436 32.7343 88.4488 32.8088C88.2592 32.9578 88.0093 33.0237 87.8685 33.2358C87.857 33.253 87.8312 33.2644 87.811 33.2759C87.4807 33.4765 87.1417 33.6656 86.8257 33.8834C86.4235 34.1556 86.0385 34.4507 85.6478 34.743C85.2054 35.0725 84.7687 35.4078 84.3263 35.7401C84.174 35.8548 84.016 35.9608 83.8695 36.084C83.6196 36.2932 83.3754 36.5138 83.1283 36.7287C82.9875 36.8491 82.9847 36.9035 83.1226 37.0267C83.1685 37.0668 83.2317 37.0869 83.2806 37.1241C83.3409 37.1671 83.4099 37.2101 83.4501 37.2703C83.7115 37.6485 83.9672 38.0296 84.2229 38.4107C84.2746 38.4881 84.3177 38.4938 84.3751 38.4193C84.4067 38.3792 84.447 38.3391 84.49 38.3161C84.6452 38.2331 84.8061 38.1671 84.9583 38.0812C85.1278 37.9866 85.2858 37.8749 85.4496 37.7717C85.7024 37.6141 85.9064 37.3792 86.2109 37.2961C86.366 37.2531 86.5125 37.1872 86.6648 37.1356C86.7912 37.0898 86.9205 37.0496 87.0469 37.0067C87.0641 37.0009 87.0813 36.9923 87.0957 36.9809C87.2422 36.8577 87.3887 36.7316 87.5353 36.6084C87.5956 36.5568 87.6502 36.4937 87.7162 36.4508C87.88 36.3447 88.0495 36.253 88.2104 36.1442C88.3511 36.0496 88.4804 35.9407 88.6183 35.8404C88.7533 35.7459 88.9027 35.6685 89.0291 35.5596C89.3681 35.2645 89.6008 34.8891 89.7933 34.488C89.8881 34.2902 89.9398 34.0667 90.1179 33.912C90.1323 33.8977 90.138 33.869 90.1409 33.8461C90.1639 33.6914 90.1984 33.5338 90.2041 33.379C90.2099 33.2787 90.207 33.1584 90.1582 33.0782C90.0289 32.869 89.8766 32.6713 89.7244 32.4764C89.6554 32.3905 89.5606 32.3274 89.4773 32.2529L89.483 32.2501ZM91.1062 40.4136C91.0918 40.4251 91.0775 40.4366 91.0631 40.448C91.1464 40.577 91.2268 40.7116 91.3159 40.8377C91.3561 40.895 91.4165 40.938 91.4682 40.9867C91.5601 41.0698 91.6549 41.1529 91.7468 41.236C91.7957 41.2819 91.8359 41.3306 91.8819 41.3793C92.0054 41.5082 92.1691 41.6171 92.2496 41.769C92.4593 42.1615 92.7179 42.514 92.9735 42.8722C93.2465 43.2533 93.5021 43.6487 93.7607 44.0412C93.867 44.1988 93.9561 44.3708 94.071 44.5198C94.2146 44.7032 94.4789 44.7748 94.634 44.5226C94.7059 44.4052 94.7978 44.2934 94.9673 44.388C94.9788 44.3937 94.9989 44.3794 95.0247 44.3736C95.0018 44.3249 94.9817 44.2819 94.9501 44.2189C95.0477 44.1931 95.1339 44.1759 95.2143 44.1473C95.2632 44.1301 95.3436 44.0842 95.3408 44.0699C95.3034 43.918 95.4471 43.8263 95.5074 43.7948C95.8033 43.6401 95.8981 43.2905 96.1882 43.1386C96.2026 43.13 96.2055 43.1071 96.217 43.0899C96.2687 43.0154 96.3175 42.9409 96.3721 42.8722C96.4411 42.7862 96.5215 42.706 96.5818 42.6171C96.6594 42.4997 96.714 42.3678 96.7944 42.2561C96.8662 42.1558 96.8605 42.0727 96.7714 42.0097C96.4899 41.8091 96.2026 41.6142 95.9153 41.4223C95.8722 41.3936 95.8004 41.4223 95.7516 41.3993C95.5217 41.3048 95.2919 41.2074 95.0621 41.1071C94.9156 41.044 94.7748 40.9724 94.6254 40.9179C94.568 40.8979 94.4904 40.9323 94.4301 40.9151C94.206 40.8492 93.9848 40.7976 93.7463 40.7804C93.4562 40.7603 93.1689 40.6944 92.8787 40.6601C92.7064 40.64 92.5311 40.6343 92.3559 40.6285C92.3013 40.6285 92.2323 40.6658 92.1893 40.6429C92.0686 40.5798 91.9996 40.683 91.9106 40.6944C91.8244 40.7088 91.7239 40.6171 91.6262 40.577C91.5601 40.5512 91.4912 40.5426 91.4222 40.5225C91.313 40.4881 91.2067 40.4509 91.1004 40.4136H91.1062ZM91.428 41.6142C91.2843 41.4824 91.178 41.3793 91.0631 41.2876C90.9999 41.236 90.9568 41.279 90.9396 41.3449C90.8936 41.4939 90.8563 41.6429 90.8045 41.789C90.7126 42.0355 90.6695 42.2933 90.546 42.534C90.4311 42.7604 90.4196 43.0412 90.3679 43.2991C90.2817 43.7404 90.2759 44.1874 90.319 44.6287C90.3506 44.9553 90.4656 45.2734 90.5489 45.5943C90.5604 45.6344 90.5862 45.6745 90.6149 45.7032C90.6753 45.7662 90.7327 45.7863 90.7701 45.6774C90.7816 45.643 90.8304 45.623 90.862 45.5972C90.885 45.5771 90.9137 45.5628 90.9367 45.5427C90.9942 45.4911 91.0459 45.4281 91.1091 45.3909C91.2383 45.3164 91.3791 45.2619 91.5113 45.1903C91.6032 45.1416 91.6779 45.0527 91.7727 45.0269C91.8991 44.9926 92.037 45.004 92.1691 44.9897C92.2007 44.9868 92.241 44.9754 92.2582 44.9553C92.3588 44.8206 92.4823 44.835 92.6173 44.8808C92.6547 44.8923 92.7179 44.8951 92.7437 44.8722C92.8787 44.7576 93.0224 44.6888 93.2062 44.7146C93.3355 44.7318 93.416 44.6602 93.3757 44.5599C93.324 44.4367 93.2666 44.3163 93.1919 44.2074C92.9735 43.8865 92.7437 43.5713 92.5225 43.2504C92.3386 42.9839 92.1663 42.7088 91.9853 42.4395C91.7928 42.1501 91.5975 41.8635 91.4308 41.6114L91.428 41.6142ZM96.2601 41.1099C96.2227 41.0555 96.2026 40.9924 96.1566 40.9638C96.0676 40.9065 95.9642 40.8721 95.8694 40.8234C95.7114 40.746 95.5591 40.6629 95.3982 40.5942C95.3436 40.5712 95.2776 40.5798 95.2029 40.5712C95.2632 40.7145 96.1021 41.1329 96.2601 41.1071V41.1099ZM89.0636 38.8004C89.0636 38.8004 89.0895 38.7832 89.1038 38.7746C89.0521 38.6772 89.0033 38.5798 88.9458 38.4852C88.92 38.4451 88.8797 38.4136 88.8453 38.3792C88.8165 38.425 88.762 38.4709 88.7648 38.5167C88.7648 38.574 88.7993 38.6457 88.8424 38.6829C88.9056 38.7345 88.9889 38.7632 89.0665 38.8004H89.0636ZM98.1619 43.8006C98.1619 43.8006 98.1418 43.8063 98.1332 43.812C98.136 43.9266 98.1418 44.0441 98.1446 44.1645C98.2079 44.1387 98.2739 44.11 98.3486 44.0785C98.2797 43.9753 98.2222 43.8894 98.1619 43.8006ZM89.1326 37.6428C89.1124 37.6485 89.0923 37.6514 89.0722 37.6571C89.0866 37.7287 89.0923 37.8032 89.1153 37.872C89.1211 37.8892 89.19 37.8835 89.2618 37.8892C89.2044 37.7832 89.167 37.7115 89.1297 37.6399L89.1326 37.6428ZM98.5239 43.8263C98.4578 43.8034 98.4204 43.792 98.386 43.7805C98.3831 43.8378 98.3773 43.8951 98.3802 43.9524C98.3802 43.9581 98.4492 43.9753 98.4578 43.9639C98.4836 43.9295 98.498 43.8836 98.5239 43.8263ZM97.8602 44.1988C97.8401 44.2218 97.8229 44.2447 97.8028 44.2676C97.843 44.3049 97.8803 44.345 97.9263 44.3765C97.9349 44.3822 97.9723 44.3364 97.9981 44.3163C97.9522 44.2791 97.9062 44.239 97.8602 44.2017V44.1988ZM89.5434 35.5625C89.5175 35.5625 89.4917 35.5625 89.4658 35.5625C89.4658 35.6112 89.4543 35.6628 89.4658 35.7086C89.4687 35.7201 89.5376 35.7172 89.5778 35.7201C89.5663 35.6685 89.5549 35.6169 89.5434 35.5654V35.5625Z" fill="#691A1E"/>
</g>
<defs>
<clipPath id="clip0_3076_9568">
<rect width="114.215" height="96" fill="white"/>
</clipPath>
</defs>
</svg>
