<svg width="36" height="28" viewBox="0 0 36 28" fill="none" xmlns="http://www.w3.org/2000/svg">
<path d="M26.1523 27H21.3672L21.4453 22.8984C20.013 24.3698 18.3919 25.4896 16.582 26.2578C14.7721 27.013 12.8581 27.3906 10.8398 27.3906C8.89974 27.3906 7.25911 27.0911 5.91797 26.4922C4.57682 25.8932 3.55469 25.0013 2.85156 23.8164C2.14844 22.6315 1.79688 21.2383 1.79688 19.6367C1.79688 17.6185 2.46094 15.8997 3.78906 14.4805C5.11719 13.0612 7.10938 11.9414 9.76562 11.1211L10.2734 10.9648C11.3021 10.6523 12.1549 10.3008 12.832 9.91016C13.5091 9.50651 14.0039 9.04427 14.3164 8.52344C14.6419 7.98958 14.8047 7.30599 14.8047 6.47266C14.8047 5.83464 14.6745 5.33984 14.4141 4.98828C14.1536 4.6237 13.7891 4.44141 13.3203 4.44141C12.9818 4.44141 12.7083 4.51953 12.5 4.67578C12.2917 4.83203 12.1289 5.04688 12.0117 5.32031C11.8945 5.58073 11.8359 6.0625 11.8359 6.76562V8.91406H7.87109V7.15625C7.87109 6.24479 7.83203 5.63932 7.75391 5.33984C7.6888 5.04036 7.55208 4.81901 7.34375 4.67578C7.13542 4.51953 6.875 4.44141 6.5625 4.44141C6.14583 4.44141 5.82031 4.58464 5.58594 4.87109C5.35156 5.15755 5.23438 5.53516 5.23438 6.00391C5.23438 6.70703 5.38411 7.49479 5.68359 8.36719L1.71875 9.28516C1.21094 7.78776 0.957031 6.47917 0.957031 5.35938C0.957031 3.84896 1.39323 2.63151 2.26562 1.70703C3.13802 0.782552 4.26432 0.320312 5.64453 0.320312C6.52995 0.320312 7.28516 0.470052 7.91016 0.769531C8.54818 1.05599 9.16016 1.57031 9.74609 2.3125C10.319 1.6224 10.9245 1.12109 11.5625 0.808594C12.2135 0.483073 13.0143 0.320312 13.9648 0.320312C15.6315 0.320312 16.9596 0.893229 17.9492 2.03906C18.9388 3.17188 19.4336 4.72135 19.4336 6.6875C19.4336 8.0026 19.2253 9.14193 18.8086 10.1055C18.4049 11.069 17.6888 11.9674 16.6602 12.8008C15.6445 13.6341 14.1992 14.3698 12.3242 15.0078L11.9531 15.125C11.1198 15.3854 10.3971 15.6393 9.78516 15.8867C9.17318 16.1341 8.61979 16.4466 8.125 16.8242C7.64323 17.1888 7.28516 17.599 7.05078 18.0547C6.82943 18.5104 6.71875 19.0378 6.71875 19.6367C6.71875 20.6784 7.08984 21.4857 7.83203 22.0586C8.57422 22.6315 9.61589 22.918 10.957 22.918C14.9414 22.918 18.4115 20.8997 21.3672 16.8633V0.710938H26.1523V27ZM35.4297 0.710938V27H30.6445V0.710938H35.4297Z" fill="#EDE0E3"/>
</svg>
