<svg width="27" height="37" viewBox="0 0 27 37" fill="none" xmlns="http://www.w3.org/2000/svg">
<path d="M15.58 36.62C12.82 36.62 10.52 36.2267 8.68 35.44C6.84 34.6533 5.46 33.5467 4.54 32.12C3.63333 30.6933 3.18 29.0267 3.18 27.12V24.52C4.43333 24.1067 5.74 23.7267 7.1 23.38C8.46 23.02 9.88 22.6933 11.36 22.4L11.9 22.22C12.74 22.06 13.6067 21.8933 14.5 21.72C15.4067 21.5467 16.2933 21.4067 17.16 21.3V13.84H23.1V25.12C21.2467 25.3333 19.4067 25.6 17.58 25.92C15.7533 26.2267 14.0067 26.58 12.34 26.98C10.6733 27.3667 9.15333 27.8 7.78 28.28L9.2 26.2V27.74C9.2 28.5667 9.48667 29.2733 10.06 29.86C10.6333 30.4467 11.4267 30.9 12.44 31.22C13.4667 31.5267 14.6533 31.68 16 31.68C17.52 31.68 18.94 31.5333 20.26 31.24C21.5933 30.9333 22.8067 30.54 23.9 30.06L23.56 35.04C22.56 35.5067 21.3933 35.8867 20.06 36.18C18.7267 36.4733 17.2333 36.62 15.58 36.62ZM10.18 22.86V22.54C8.72667 22.4867 7.48 22.2733 6.44 21.9C5.4 21.5133 4.6 20.9133 4.04 20.1C3.49333 19.2867 3.22 18.2267 3.22 16.92V13.7H9.78V17.38C9.78 18.22 9.95333 18.9733 10.3 19.64C10.6467 20.2933 11.1667 20.8333 11.86 21.26C12.5533 21.6733 13.4267 21.9333 14.48 22.04L12.48 22.78L10.18 22.86ZM1.56 15.76V11.3H25.14V15.76H20.52L20.08 15.48H6.9L6.48 15.76H1.56ZM19.96 11.9V11.76C19.8533 10.76 19.6133 9.9 19.24 9.18C18.8667 8.46 18.3333 7.86666 17.64 7.4C16.9467 6.93333 16.0467 6.59333 14.94 6.38C13.8467 6.15333 12.5067 6.04 10.92 6.04C10.6133 6.04 10.2267 6.05333 9.76 6.08C9.29333 6.09333 8.79333 6.12 8.26 6.16C7.74 6.2 7.22667 6.24667 6.72 6.3L7.12 1.16C7.74667 1.08 8.39333 1.02 9.06 0.979999C9.72667 0.926665 10.4 0.899998 11.08 0.899998C13.5867 0.899998 15.6867 1.22 17.38 1.86C19.0733 2.5 20.38 3.62 21.3 5.22C22.22 6.80667 22.7467 9.03333 22.88 11.9H19.96ZM0.34 15.76L0.7 11.3H3.48V15.76H0.34ZM23.28 15.76V11.3H26.36L26.02 15.76H23.28Z" fill="#EDE0E3"/>
</svg>
