<svg width="40" height="42" viewBox="0 0 40 42" fill="none" xmlns="http://www.w3.org/2000/svg">
<path d="M8.64748 12.6857H31.3526C31.8491 12.6857 32.2649 12.5181 32.6 12.1831C32.935 11.8481 33.1025 11.4323 33.1025 10.9357C33.1025 10.4391 32.7892 10.0233 32.1625 9.68831C31.5357 9.35325 31.019 9.18571 30.6121 9.18571H8.64748C8.15091 9.18571 7.73511 9.35325 7.40008 9.68831C7.06505 10.0233 6.89754 10.4391 6.89754 10.9357C6.89754 11.4323 7.06505 11.8481 7.40008 12.1831C7.73511 12.5181 8.15091 12.6857 8.64748 12.6857ZM0.166748 41.6952V4.38447C0.166748 3.2208 0.578834 2.2269 1.40301 1.40276C2.22714 0.57859 3.22104 0.166504 4.38472 0.166504H35.6153C36.779 0.166504 37.7729 0.57859 38.597 1.40276C39.4212 2.2269 39.8333 3.2208 39.8333 4.38447V19.1068C39.2739 18.8615 38.7063 18.6559 38.1304 18.4899C37.5546 18.3238 36.9556 18.1974 36.3334 18.1107V4.38447C36.3334 4.20496 36.2586 4.0404 36.109 3.8908C35.9594 3.74123 35.7948 3.66645 35.6153 3.66645H4.38472C4.2052 3.66645 4.04064 3.74123 3.89104 3.8908C3.74147 4.0404 3.66669 4.20496 3.66669 4.38447V36.4498H18.1558C18.3054 37.3711 18.5245 38.2566 18.8132 39.1061C19.1018 39.9557 19.487 40.7619 19.9686 41.5247C19.8489 41.5486 19.7233 41.5307 19.5917 41.4708C19.4601 41.411 19.3464 41.3332 19.2507 41.2375L17.3615 39.6401C17.1582 39.4666 16.9308 39.3799 16.6795 39.3799C16.4283 39.3799 16.2009 39.4666 15.9975 39.6401L14.041 41.2824C13.8377 41.4559 13.6103 41.5426 13.359 41.5426C13.1077 41.5426 12.8804 41.4559 12.677 41.2824L10.7206 39.6401C10.5172 39.4666 10.2898 39.3799 10.0385 39.3799C9.78724 39.3799 9.55989 39.4666 9.35646 39.6401L7.40008 41.2824C7.19665 41.4559 6.96931 41.5426 6.71805 41.5426C6.46675 41.5426 6.23938 41.4559 6.03596 41.2824L4.07957 39.6401C3.87615 39.4666 3.6488 39.3799 3.39754 39.3799C3.14624 39.3799 2.9189 39.4666 2.71551 39.6401L0.871239 41.2824C0.826362 41.3123 0.591531 41.4499 0.166748 41.6952ZM8.64748 30.8138H18.3129C18.4146 30.1916 18.5559 29.5926 18.7369 29.0168C18.9179 28.4409 19.1385 27.8733 19.3988 27.3139H8.64748C8.15091 27.3139 7.73511 27.4814 7.40008 27.8164C7.06505 28.1515 6.89754 28.5673 6.89754 29.0638C6.89754 29.5604 7.06505 29.9762 7.40008 30.3112C7.73511 30.6463 8.15091 30.8138 8.64748 30.8138ZM8.64748 21.7497H23.711C24.8298 20.7297 26.0981 19.91 27.516 19.2909C28.9339 18.6716 30.4446 18.3246 32.048 18.2498H8.64748C8.15091 18.2498 7.73511 18.4174 7.40008 18.7524C7.06505 19.0874 6.89754 19.5032 6.89754 19.9998C6.89754 20.4964 7.06505 20.9122 7.40008 21.2472C7.73511 21.5822 8.15091 21.7497 8.64748 21.7497Z" fill="#E31837"/>
</svg>
