<svg width="24" height="24" viewBox="0 0 24 24" fill="none" xmlns="http://www.w3.org/2000/svg">
    <path d="M4.80078 7.23804L20.2006 19.7619" stroke="#691A1E" stroke-width="1.5" stroke-linecap="round"/>
    <mask id="mask0_3913_21164" style="mask-type:alpha" maskUnits="userSpaceOnUse" x="0" y="0" width="24" height="24">
        <rect width="24" height="24" fill="#D9D9D9"/>
    </mask>
    <g mask="url(#mask0_3913_21164)">
        <path d="M12 21.4999C10.8205 21.4999 9.71537 21.2768 8.6846 20.8307C7.65383 20.3845 6.75512 19.7781 5.98845 19.0115C5.2218 18.2448 4.6154 17.3461 4.16925 16.3153C3.72308 15.2846 3.5 14.1794 3.5 12.9999C3.5 12.7871 3.5718 12.6089 3.7154 12.4653C3.85898 12.3218 4.03718 12.25 4.25 12.25C4.46282 12.25 4.64102 12.3218 4.7846 12.4653C4.92818 12.6089 4.99997 12.7871 4.99997 12.9999C4.99997 14.9499 5.67914 16.6041 7.03748 17.9624C8.39581 19.3208 10.05 19.9999 12 19.9999C13.95 19.9999 15.6041 19.3208 16.9625 17.9624C18.3208 16.6041 19 14.9499 19 12.9999C19 11.0499 18.3208 9.39578 16.9625 8.03745C15.6041 6.67912 13.95 5.99995 12 5.99995H11.7346L12.7961 7.0615C12.9448 7.21021 13.0182 7.38425 13.0163 7.5836C13.0144 7.78295 12.941 7.96019 12.7961 8.11532C12.641 8.27044 12.4628 8.35056 12.2615 8.3557C12.0603 8.36083 11.8821 8.28583 11.7269 8.1307L9.47888 5.87305C9.29811 5.69228 9.20773 5.48138 9.20773 5.24035C9.20773 4.99933 9.29811 4.78844 9.47888 4.60767L11.7462 2.35C11.8949 2.20128 12.0715 2.12788 12.276 2.1298C12.4804 2.13173 12.6602 2.21026 12.8154 2.36537C12.9602 2.52051 13.0352 2.69615 13.0404 2.8923C13.0455 3.08845 12.9705 3.26408 12.8154 3.4192L11.7346 4.49997H12C13.1795 4.49997 14.2846 4.72306 15.3154 5.16922C16.3461 5.61537 17.2448 6.22177 18.0115 6.98842C18.7782 7.75509 19.3846 8.65381 19.8307 9.68457C20.2769 10.7153 20.5 11.8205 20.5 12.9999C20.5 14.1794 20.2769 15.2846 19.8307 16.3153C19.3846 17.3461 18.7782 18.2448 18.0115 19.0115C17.2448 19.7781 16.3461 20.3845 15.3154 20.8307C14.2846 21.2768 13.1795 21.4999 12 21.4999Z" fill="#691A1E"/>
        <mask id="mask1_3913_21164" style="mask-type:alpha" maskUnits="userSpaceOnUse" x="7" y="9" width="10" height="10">
            <rect x="7" y="9" width="10" height="10" fill="#D9D9D9"/>
        </mask>
        <g mask="url(#mask1_3913_21164)">
            <mask id="path-5-inside-1_3913_21164" fill="white">
                <path d="M12.7125 18.85L9.6375 15.65C9.59583 15.6083 9.5625 15.5563 9.5375 15.4938C9.5125 15.4313 9.5 15.3667 9.5 15.3V15C9.5 14.8583 9.54792 14.7396 9.64375 14.6438C9.73958 14.5479 9.85833 14.5 10 14.5H11.25C11.6917 14.5 12.0729 14.3562 12.3937 14.0687C12.7146 13.7812 12.9083 13.425 12.975 13H9.5C9.35833 13 9.23958 12.9521 9.14375 12.8563C9.04792 12.7604 9 12.6417 9 12.5C9 12.3583 9.04792 12.2396 9.14375 12.1437C9.23958 12.0479 9.35833 12 9.5 12H12.825C12.6833 11.7083 12.4729 11.4688 12.1938 11.2812C11.9146 11.0938 11.6 11 11.25 11H9.5C9.35833 11 9.23958 10.9521 9.14375 10.8562C9.04792 10.7604 9 10.6417 9 10.5C9 10.3583 9.04792 10.2396 9.14375 10.1437C9.23958 10.0479 9.35833 10 9.5 10H14.5C14.6417 10 14.7604 10.0479 14.8563 10.1437C14.9521 10.2396 15 10.3583 15 10.5C15 10.6417 14.9521 10.7604 14.8563 10.8562C14.7604 10.9521 14.6417 11 14.5 11H13.375C13.4917 11.1417 13.5958 11.2958 13.6875 11.4625C13.7792 11.6292 13.85 11.8083 13.9 12H14.5C14.6417 12 14.7604 12.0479 14.8563 12.1437C14.9521 12.2396 15 12.3583 15 12.5C15 12.6417 14.9521 12.7604 14.8563 12.8563C14.7604 12.9521 14.6417 13 14.5 13H13.9875C13.9208 13.7083 13.6292 14.3021 13.1125 14.7812C12.5958 15.2604 11.975 15.5 11.25 15.5H10.8875L13.4375 18.15C13.5875 18.3083 13.6188 18.4896 13.5312 18.6938C13.4437 18.8979 13.2917 19 13.075 19C13.0083 19 12.9438 18.9875 12.8813 18.9625C12.8188 18.9375 12.7625 18.9 12.7125 18.85Z"/>
            </mask>
            <path d="M12.7125 18.85L9.6375 15.65C9.59583 15.6083 9.5625 15.5563 9.5375 15.4938C9.5125 15.4313 9.5 15.3667 9.5 15.3V15C9.5 14.8583 9.54792 14.7396 9.64375 14.6438C9.73958 14.5479 9.85833 14.5 10 14.5H11.25C11.6917 14.5 12.0729 14.3562 12.3937 14.0687C12.7146 13.7812 12.9083 13.425 12.975 13H9.5C9.35833 13 9.23958 12.9521 9.14375 12.8563C9.04792 12.7604 9 12.6417 9 12.5C9 12.3583 9.04792 12.2396 9.14375 12.1437C9.23958 12.0479 9.35833 12 9.5 12H12.825C12.6833 11.7083 12.4729 11.4688 12.1938 11.2812C11.9146 11.0938 11.6 11 11.25 11H9.5C9.35833 11 9.23958 10.9521 9.14375 10.8562C9.04792 10.7604 9 10.6417 9 10.5C9 10.3583 9.04792 10.2396 9.14375 10.1437C9.23958 10.0479 9.35833 10 9.5 10H14.5C14.6417 10 14.7604 10.0479 14.8563 10.1437C14.9521 10.2396 15 10.3583 15 10.5C15 10.6417 14.9521 10.7604 14.8563 10.8562C14.7604 10.9521 14.6417 11 14.5 11H13.375C13.4917 11.1417 13.5958 11.2958 13.6875 11.4625C13.7792 11.6292 13.85 11.8083 13.9 12H14.5C14.6417 12 14.7604 12.0479 14.8563 12.1437C14.9521 12.2396 15 12.3583 15 12.5C15 12.6417 14.9521 12.7604 14.8563 12.8563C14.7604 12.9521 14.6417 13 14.5 13H13.9875C13.9208 13.7083 13.6292 14.3021 13.1125 14.7812C12.5958 15.2604 11.975 15.5 11.25 15.5H10.8875L13.4375 18.15C13.5875 18.3083 13.6188 18.4896 13.5312 18.6938C13.4437 18.8979 13.2917 19 13.075 19C13.0083 19 12.9438 18.9875 12.8813 18.9625C12.8188 18.9375 12.7625 18.9 12.7125 18.85Z" fill="#691A1E"/>
            <path d="M12.7125 18.85L11.4867 20.0279L11.4984 20.0401L11.5104 20.0521L12.7125 18.85ZM9.6375 15.65L10.8633 14.4721L10.8516 14.4599L10.8396 14.4479L9.6375 15.65ZM12.975 13L14.6545 13.2634L14.9625 11.3H12.975V13ZM12.825 12V13.7H15.5406L14.3542 11.2573L12.825 12ZM13.375 11V9.3H9.77273L12.0627 12.0807L13.375 11ZM13.9 12L12.2551 12.4291L12.5866 13.7H13.9V12ZM13.9875 13V11.3H12.44L12.295 12.8407L13.9875 13ZM10.8875 15.5V13.8H6.89241L9.66253 16.6787L10.8875 15.5ZM13.4375 18.15L14.6717 16.9808L14.6625 16.9713L13.4375 18.15ZM13.9383 17.6721L10.8633 14.4721L8.41172 16.8279L11.4867 20.0279L13.9383 17.6721ZM10.8396 14.4479C10.9823 14.5906 11.0675 14.7414 11.1159 14.8624L7.95909 16.1251C8.05748 16.3711 8.20938 16.626 8.43542 16.8521L10.8396 14.4479ZM11.1159 14.8624C11.1704 14.9987 11.2 15.1482 11.2 15.3H7.8C7.8 15.5851 7.85457 15.8638 7.95909 16.1251L11.1159 14.8624ZM11.2 15.3V15H7.8V15.3H11.2ZM11.2 15C11.2 15.124 11.1783 15.2776 11.1124 15.4408C11.046 15.6056 10.9499 15.7418 10.8458 15.8458L8.44167 13.4417C8.01129 13.872 7.8 14.4302 7.8 15H11.2ZM10.8458 15.8458C10.7418 15.9499 10.6056 16.046 10.4408 16.1124C10.2776 16.1783 10.124 16.2 10 16.2V12.8C9.43021 12.8 8.87205 13.0113 8.44167 13.4417L10.8458 15.8458ZM10 16.2H11.25V12.8H10V16.2ZM11.25 16.2C12.0987 16.2 12.887 15.9094 13.5283 15.3348L11.2592 12.8027C11.2515 12.8096 11.249 12.8107 11.252 12.8089C11.2552 12.8069 11.2607 12.8041 11.2674 12.8015C11.2741 12.799 11.2781 12.7983 11.2774 12.7984C11.2765 12.7986 11.2679 12.8 11.25 12.8V16.2ZM13.5283 15.3348C14.1404 14.7863 14.527 14.076 14.6545 13.2634L11.2955 12.7366C11.2928 12.7539 11.2899 12.7639 11.2884 12.7683C11.2876 12.7706 11.2871 12.772 11.2868 12.7726C11.2865 12.7733 11.2863 12.7736 11.2863 12.7737C11.2862 12.7738 11.286 12.7742 11.2856 12.7748C11.2852 12.7755 11.2842 12.7768 11.2827 12.7788C11.2796 12.7826 11.2726 12.7907 11.2592 12.8027L13.5283 15.3348ZM12.975 11.3H9.5V14.7H12.975V11.3ZM9.5 11.3C9.62397 11.3 9.77758 11.3217 9.94082 11.3876C10.1056 11.454 10.2418 11.5501 10.3458 11.6542L7.94167 14.0583C8.37205 14.4887 8.93022 14.7 9.5 14.7V11.3ZM10.3458 11.6542C10.4499 11.7582 10.546 11.8944 10.6124 12.0592C10.6783 12.2224 10.7 12.376 10.7 12.5H7.3C7.3 13.0698 7.51129 13.628 7.94167 14.0583L10.3458 11.6542ZM10.7 12.5C10.7 12.624 10.6783 12.7776 10.6124 12.9408C10.546 13.1056 10.4499 13.2418 10.3458 13.3458L7.94167 10.9417C7.51129 11.372 7.3 11.9302 7.3 12.5H10.7ZM10.3458 13.3458C10.2418 13.4499 10.1056 13.546 9.94082 13.6124C9.77758 13.6783 9.62397 13.7 9.5 13.7V10.3C8.93022 10.3 8.37205 10.5113 7.94167 10.9417L10.3458 13.3458ZM9.5 13.7H12.825V10.3H9.5V13.7ZM14.3542 11.2573C14.0762 10.685 13.6605 10.2186 13.1416 9.87001L11.2459 12.6925C11.2853 12.7189 11.2905 12.7317 11.2958 12.7427L14.3542 11.2573ZM13.1416 9.87001C12.5703 9.48631 11.923 9.3 11.25 9.3V12.7C11.2614 12.7 11.2673 12.7008 11.2684 12.7009C11.2694 12.7011 11.2673 12.7008 11.2629 12.6995C11.2585 12.6982 11.254 12.6964 11.25 12.6946C11.246 12.6927 11.2446 12.6916 11.2459 12.6925L13.1416 9.87001ZM11.25 9.3H9.5V12.7H11.25V9.3ZM9.5 9.3C9.62397 9.3 9.77758 9.3217 9.94082 9.38757C10.1056 9.45404 10.2418 9.5501 10.3458 9.65417L7.94167 12.0583C8.37205 12.4887 8.93022 12.7 9.5 12.7V9.3ZM10.3458 9.65417C10.4499 9.75824 10.546 9.89445 10.6124 10.0592C10.6783 10.2224 10.7 10.376 10.7 10.5H7.3C7.3 11.0698 7.51129 11.628 7.94167 12.0583L10.3458 9.65417ZM10.7 10.5C10.7 10.624 10.6783 10.7776 10.6124 10.9408C10.546 11.1056 10.4499 11.2418 10.3458 11.3458L7.94167 8.94167C7.51129 9.37205 7.3 9.93022 7.3 10.5H10.7ZM10.3458 11.3458C10.2418 11.4499 10.1056 11.546 9.94082 11.6124C9.77758 11.6783 9.62397 11.7 9.5 11.7V8.3C8.93022 8.3 8.37205 8.51129 7.94167 8.94167L10.3458 11.3458ZM9.5 11.7H14.5V8.3H9.5V11.7ZM14.5 11.7C14.376 11.7 14.2224 11.6783 14.0592 11.6124C13.8944 11.546 13.7582 11.4499 13.6542 11.3458L16.0583 8.94167C15.628 8.51129 15.0698 8.3 14.5 8.3V11.7ZM13.6542 11.3458C13.5501 11.2418 13.454 11.1056 13.3876 10.9408C13.3217 10.7776 13.3 10.624 13.3 10.5H16.7C16.7 9.93022 16.4887 9.37205 16.0583 8.94167L13.6542 11.3458ZM13.3 10.5C13.3 10.376 13.3217 10.2224 13.3876 10.0592C13.454 9.89445 13.5501 9.75824 13.6542 9.65417L16.0583 12.0583C16.4887 11.6279 16.7 11.0698 16.7 10.5H13.3ZM13.6542 9.65417C13.7582 9.5501 13.8944 9.45404 14.0592 9.38757C14.2224 9.3217 14.376 9.3 14.5 9.3V12.7C15.0698 12.7 15.628 12.4887 16.0583 12.0583L13.6542 9.65417ZM14.5 9.3H13.375V12.7H14.5V9.3ZM12.0627 12.0807C12.1099 12.138 12.1553 12.2042 12.1979 12.2818L15.1771 10.6432C15.0364 10.3875 14.8734 10.1453 14.6873 9.9193L12.0627 12.0807ZM12.1979 12.2818C12.2191 12.3203 12.2391 12.3678 12.2551 12.4291L15.5449 11.5709C15.4609 11.2489 15.3392 10.938 15.1771 10.6432L12.1979 12.2818ZM13.9 13.7H14.5V10.3H13.9V13.7ZM14.5 13.7C14.376 13.7 14.2224 13.6783 14.0592 13.6124C13.8944 13.546 13.7582 13.4499 13.6542 13.3458L16.0583 10.9417C15.628 10.5113 15.0698 10.3 14.5 10.3V13.7ZM13.6542 13.3458C13.5501 13.2418 13.454 13.1056 13.3876 12.9408C13.3217 12.7776 13.3 12.624 13.3 12.5H16.7C16.7 11.9302 16.4887 11.3721 16.0583 10.9417L13.6542 13.3458ZM13.3 12.5C13.3 12.376 13.3217 12.2224 13.3876 12.0592C13.454 11.8944 13.5501 11.7582 13.6542 11.6542L16.0583 14.0583C16.4887 13.6279 16.7 13.0698 16.7 12.5H13.3ZM13.6542 11.6542C13.7582 11.5501 13.8944 11.454 14.0592 11.3876C14.2224 11.3217 14.376 11.3 14.5 11.3V14.7C15.0698 14.7 15.628 14.4887 16.0583 14.0583L13.6542 11.6542ZM14.5 11.3H13.9875V14.7H14.5V11.3ZM12.295 12.8407C12.267 13.1375 12.1635 13.3428 11.9565 13.5348L14.2685 16.0277C15.0948 15.2614 15.5746 14.2792 15.68 13.1593L12.295 12.8407ZM11.9565 13.5348C11.7641 13.7132 11.56 13.8 11.25 13.8V17.2C12.39 17.2 13.4276 16.8076 14.2685 16.0277L11.9565 13.5348ZM11.25 13.8H10.8875V17.2H11.25V13.8ZM9.66253 16.6787L12.2125 19.3287L14.6625 16.9713L12.1125 14.3213L9.66253 16.6787ZM12.2034 19.3192C12.0914 19.2009 11.9494 18.9909 11.8982 18.6935C11.8473 18.3987 11.9102 18.1606 11.9687 18.0241L15.0938 19.3634C15.2398 19.0228 15.3308 18.592 15.2487 18.1158C15.1662 17.6372 14.9336 17.2574 14.6716 16.9808L12.2034 19.3192ZM11.9687 18.0241C12.0264 17.8894 12.1548 17.6793 12.4041 17.5119C12.6563 17.3426 12.9088 17.3 13.075 17.3V20.7C13.4578 20.7 13.8947 20.6063 14.299 20.3349C14.7004 20.0655 14.9486 19.7023 15.0938 19.3634L11.9687 18.0241ZM13.075 17.3C13.2267 17.3 13.3763 17.3296 13.5126 17.3841L12.2499 20.5409C12.5112 20.6454 12.7899 20.7 13.075 20.7V17.3ZM13.5126 17.3841C13.6746 17.4489 13.8102 17.5435 13.9146 17.6479L11.5104 20.0521C11.7148 20.2565 11.9629 20.4261 12.2499 20.5409L13.5126 17.3841Z" fill="#691A1E" mask="url(#path-5-inside-1_3913_21164)"/>
        </g>
    </g>
</svg>