<svg width="56" height="56" viewBox="0 0 56 56" fill="none" xmlns="http://www.w3.org/2000/svg">
<mask id="mask0_6799_4938" style="mask-type:alpha" maskUnits="userSpaceOnUse" x="0" y="0" width="56" height="56">
<rect width="56" height="56" fill="#D9D9D9"/>
</mask>
<g mask="url(#mask0_6799_4938)">
<path d="M18.4423 46.6668H37.5576V39.6668C37.5576 37.0104 36.6288 34.7383 34.7711 32.8508C32.9134 30.9631 30.6564 30.0193 27.9999 30.0193C25.3435 30.0193 23.0865 30.964 21.2288 32.8533C19.3711 34.7426 18.4423 37.0137 18.4423 39.6668V46.6668ZM27.9999 25.9809C30.6564 25.9809 32.9134 25.0362 34.7711 23.1469C36.6288 21.2576 37.5576 18.9865 37.5576 16.3334V9.33344H18.4423V16.3334C18.4423 18.9899 19.3711 21.2619 21.2288 23.1495C23.0865 25.0371 25.3435 25.9809 27.9999 25.9809ZM12.25 50.1667C11.7542 50.1667 11.3385 49.9989 11.0031 49.6634C10.6677 49.3278 10.5 48.912 10.5 48.416C10.5 47.9199 10.6677 47.5043 11.0031 47.1693C11.3385 46.8343 11.7542 46.6668 12.25 46.6668H14.9423V39.6668C14.9423 37.0403 15.661 34.6493 17.0984 32.494C18.5358 30.3387 20.4407 28.8407 22.8129 28.0001C20.4407 27.1446 18.5358 25.6429 17.0984 23.495C15.661 21.3472 14.9423 18.96 14.9423 16.3334V9.33344H12.25C11.7542 9.33344 11.3385 9.16565 11.0031 8.83008C10.6677 8.49455 10.5 8.07875 10.5 7.58268C10.5 7.08665 10.6677 6.67113 11.0031 6.3361C11.3385 6.00103 11.7542 5.8335 12.25 5.8335H43.7499C44.2457 5.8335 44.6613 6.00128 44.9968 6.33686C45.3322 6.67243 45.4999 7.08823 45.4999 7.58425C45.4999 8.08032 45.3322 8.49587 44.9968 8.8309C44.6613 9.16593 44.2457 9.33344 43.7499 9.33344H41.0576V16.3334C41.0576 18.96 40.3389 21.3472 38.9014 23.495C37.464 25.6429 35.5592 27.1446 33.1869 28.0001C35.5592 28.8407 37.464 30.3387 38.9014 32.494C40.3389 34.6493 41.0576 37.0403 41.0576 39.6668V46.6668H43.7499C44.2457 46.6668 44.6613 46.8346 44.9968 47.1701C45.3322 47.5057 45.4999 47.9215 45.4999 48.4175C45.4999 48.9136 45.3322 49.3291 44.9968 49.6641C44.6613 49.9992 44.2457 50.1667 43.7499 50.1667H12.25Z" fill="#E31837"/>
</g>
</svg>
