<svg width="40" height="40" viewBox="0 0 40 40" fill="none" xmlns="http://www.w3.org/2000/svg">
    <rect width="40" height="40" rx="8" fill="#EDE0E3"/>
    <mask id="mask0_1774_1208" style="mask-type:alpha" maskUnits="userSpaceOnUse" x="4" y="5" width="32" height="32">
        <rect x="4" y="5" width="32" height="31.9024" fill="#D9D9D9"/>
    </mask>
    <g mask="url(#mask0_1774_1208)">
    </g>
    <mask id="mask1_1774_1208" style="mask-type:alpha" maskUnits="userSpaceOnUse" x="4" y="4" width="32" height="32">
        <rect x="4" y="4" width="32" height="32" fill="#D9D9D9"/>
    </mask>
    <g mask="url(#mask1_1774_1208)">
        <path d="M22.4974 31.4693C22.5402 31.4864 22.5786 31.4949 22.6128 31.4949C22.647 31.4949 22.6855 31.4864 22.7282 31.4693L30.5718 29.041C30.5034 28.7385 30.3624 28.5064 30.1486 28.3449C29.9349 28.1833 29.693 28.1026 29.4231 28.1026H22.8933C22.3115 28.1026 21.8171 28.0804 21.4103 28.0359C21.0034 27.9915 20.5855 27.894 20.1564 27.7436L18.0641 27.059C17.7952 26.9735 17.6019 26.8026 17.4842 26.5462C17.3665 26.2898 17.3504 26.0287 17.4359 25.7629C17.5214 25.4971 17.6867 25.3022 17.932 25.1783C18.1773 25.0543 18.435 25.0351 18.7051 25.1206L20.4385 25.7283C20.8419 25.8565 21.2932 25.9475 21.7923 26.0013C22.2914 26.0552 22.9384 26.089 23.7331 26.1026H24.0898C24.0898 25.7727 24.0154 25.4881 23.8667 25.2488C23.7179 25.0095 23.5222 24.8479 23.2795 24.7641L15.5436 21.9231C15.5179 21.9146 15.4944 21.9082 15.4731 21.9039C15.4517 21.8996 15.4282 21.8975 15.4026 21.8975H12.9359V28.7692L22.4974 31.4693ZM21.9769 33.4282L12.9359 30.8359C12.7837 31.388 12.4743 31.8312 12.0077 32.1653C11.541 32.4995 11.047 32.6666 10.5256 32.6666H8.67952C8.0167 32.6666 7.44929 32.4306 6.97729 31.9586C6.50529 31.4866 6.26929 30.9192 6.26929 30.2564V22.3078C6.26929 21.645 6.50529 21.0775 6.97729 20.6055C7.44929 20.1335 8.0167 19.8975 8.67952 19.8975H15.3878C15.5275 19.8975 15.6692 19.9129 15.8128 19.9437C15.9564 19.9745 16.0897 20.0104 16.2128 20.0514L23.982 22.9129C24.5871 23.1368 25.0897 23.533 25.4897 24.1014C25.8897 24.6697 26.0897 25.3368 26.0897 26.1026H29.4231C30.3803 26.1026 31.1602 26.4116 31.7628 27.0295C32.3653 27.6475 32.6666 28.4496 32.6666 29.4359C32.6666 29.8137 32.5666 30.118 32.3666 30.3487C32.1666 30.5795 31.8641 30.7624 31.459 30.8974L23.3692 33.4077C23.1504 33.4795 22.9205 33.5175 22.6795 33.5218C22.4385 33.526 22.2043 33.4948 21.9769 33.4282ZM8.26925 30.2564C8.26925 30.376 8.30771 30.4743 8.38462 30.5513C8.46155 30.6282 8.55985 30.6667 8.67952 30.6667H10.5256C10.6453 30.6667 10.7436 30.6346 10.8205 30.5705C10.8975 30.5064 10.9359 30.4017 10.9359 30.2564V21.8975H8.67952C8.55985 21.8975 8.46155 21.9359 8.38462 22.0129C8.30771 22.0898 8.26925 22.1881 8.26925 22.3078V30.2564Z" fill="#691A1E"/>
        <mask id="mask2_1774_1208" style="mask-type:alpha" maskUnits="userSpaceOnUse" x="17" y="5" width="17" height="17">
            <rect x="17.3333" y="5.33331" width="16" height="16" fill="#D9D9D9"/>
        </mask>
        <g mask="url(#mask2_1774_1208)">
            <path d="M26.2833 19.1333L22.1833 14.8666C22.1278 14.8111 22.0833 14.7416 22.05 14.6583C22.0166 14.575 22 14.4889 22 14.4V14C22 13.8111 22.0639 13.6528 22.1916 13.525C22.3194 13.3972 22.4778 13.3333 22.6666 13.3333H24.3333C24.9222 13.3333 25.4305 13.1416 25.8583 12.7583C26.2861 12.375 26.5444 11.9 26.6333 11.3333H22C21.8111 11.3333 21.6528 11.2694 21.525 11.1416C21.3972 11.0139 21.3333 10.8555 21.3333 10.6666C21.3333 10.4778 21.3972 10.3194 21.525 10.1916C21.6528 10.0639 21.8111 9.99998 22 9.99998H26.4333C26.2444 9.61109 25.9639 9.29165 25.5916 9.04165C25.2194 8.79165 24.8 8.66665 24.3333 8.66665H22C21.8111 8.66665 21.6528 8.60276 21.525 8.47498C21.3972 8.3472 21.3333 8.18887 21.3333 7.99998C21.3333 7.81109 21.3972 7.65276 21.525 7.52498C21.6528 7.3972 21.8111 7.33331 22 7.33331H28.6666C28.8555 7.33331 29.0139 7.3972 29.1416 7.52498C29.2694 7.65276 29.3333 7.81109 29.3333 7.99998C29.3333 8.18887 29.2694 8.3472 29.1416 8.47498C29.0139 8.60276 28.8555 8.66665 28.6666 8.66665H27.1666C27.3222 8.85554 27.4611 9.06109 27.5833 9.28331C27.7055 9.50554 27.8 9.74442 27.8666 9.99998H28.6666C28.8555 9.99998 29.0139 10.0639 29.1416 10.1916C29.2694 10.3194 29.3333 10.4778 29.3333 10.6666C29.3333 10.8555 29.2694 11.0139 29.1416 11.1416C29.0139 11.2694 28.8555 11.3333 28.6666 11.3333H27.9833C27.8944 12.2778 27.5055 13.0694 26.8166 13.7083C26.1278 14.3472 25.3 14.6666 24.3333 14.6666H23.85L27.25 18.2C27.45 18.4111 27.4916 18.6528 27.375 18.925C27.2583 19.1972 27.0555 19.3333 26.7666 19.3333C26.6778 19.3333 26.5916 19.3166 26.5083 19.2833C26.425 19.25 26.35 19.2 26.2833 19.1333Z" fill="#691A1E"/>
        </g>
    </g>
</svg>