<svg width="24" height="24" viewBox="0 0 24 24" fill="none" xmlns="http://www.w3.org/2000/svg">
<mask id="mask0_2474_2825" style="mask-type:alpha" maskUnits="userSpaceOnUse" x="0" y="0" width="24" height="24">
<rect width="24" height="24" fill="#D9D9D9"/>
</mask>
<g mask="url(#mask0_2474_2825)">
<path d="M3.50003 10.0961V4.40385C3.50003 4.14777 3.58666 3.93311 3.75991 3.75988C3.93314 3.58663 4.1478 3.5 4.40388 3.5H10.0962C10.3523 3.5 10.5669 3.58663 10.7402 3.75988C10.9134 3.93311 11 4.14777 11 4.40385V10.0961C11 10.3522 10.9134 10.5669 10.7402 10.7401C10.5669 10.9134 10.3523 11 10.0962 11H4.40388C4.1478 11 3.93314 10.9134 3.75991 10.7401C3.58666 10.5669 3.50003 10.3522 3.50003 10.0961ZM5.00001 9.5H9.50003V4.99998H5.00001V9.5ZM3.50003 19.5961V13.9038C3.50003 13.6477 3.58666 13.4331 3.75991 13.2598C3.93314 13.0866 4.1478 13 4.40388 13H10.0962C10.3523 13 10.5669 13.0866 10.7402 13.2598C10.9134 13.4331 11 13.6477 11 13.9038V19.5961C11 19.8522 10.9134 20.0668 10.7402 20.2401C10.5669 20.4133 10.3523 20.5 10.0962 20.5H4.40388C4.1478 20.5 3.93314 20.4133 3.75991 20.2401C3.58666 20.0668 3.50003 19.8522 3.50003 19.5961ZM5.00001 19H9.50003V14.5H5.00001V19ZM13 10.0961V4.40385C13 4.14777 13.0866 3.93311 13.2599 3.75988C13.4331 3.58663 13.6478 3.5 13.9039 3.5H19.5961C19.8522 3.5 20.0669 3.58663 20.2401 3.75988C20.4134 3.93311 20.5 4.14777 20.5 4.40385V10.0961C20.5 10.3522 20.4134 10.5669 20.2401 10.7401C20.0669 10.9134 19.8522 11 19.5961 11H13.9039C13.6478 11 13.4331 10.9134 13.2599 10.7401C13.0866 10.5669 13 10.3522 13 10.0961ZM14.5 9.5H19V4.99998H14.5V9.5ZM18.625 20.5V18.625H20.5V20.5H18.625ZM13 14.875V13H14.875V14.875H13ZM14.875 16.75V14.875H16.75V16.75H14.875ZM13 18.625V16.75H14.875V18.625H13ZM14.875 20.5V18.625H16.75V20.5H14.875ZM16.75 18.625V16.75H18.625V18.625H16.75ZM16.75 14.875V13H18.625V14.875H16.75ZM18.625 16.75V14.875H20.5V16.75H18.625Z" fill="#691A1E"/>
</g>
</svg>
