<svg width="24" height="24" viewBox="0 0 24 24" fill="none" xmlns="http://www.w3.org/2000/svg">
    <mask id="mask0_3780_31396" style="mask-type:alpha" maskUnits="userSpaceOnUse" x="0" y="0" width="24" height="24">
        <rect width="24" height="24" fill="#D9D9D9"/>
    </mask>
    <g mask="url(#mask0_3780_31396)">
        <path d="M12 21.5C10.8205 21.5 9.71537 21.277 8.6846 20.8308C7.65383 20.3846 6.75512 19.7782 5.98845 19.0116C5.2218 18.2449 4.6154 17.3462 4.16925 16.3154C3.72308 15.2847 3.5 14.1796 3.5 13.0001C3.5 12.7873 3.5718 12.6091 3.7154 12.4655C3.85898 12.3219 4.03718 12.2501 4.25 12.2501C4.46282 12.2501 4.64102 12.3219 4.7846 12.4655C4.92818 12.6091 4.99997 12.7873 4.99997 13.0001C4.99997 14.9501 5.67914 16.6042 7.03748 17.9626C8.39581 19.3209 10.05 20.0001 12 20.0001C13.95 20.0001 15.6041 19.3209 16.9625 17.9626C18.3208 16.6042 19 14.9501 19 13.0001C19 11.0501 18.3208 9.3959 16.9625 8.03757C15.6041 6.67924 13.95 6.00007 12 6.00007H11.7346L12.7961 7.06162C12.9448 7.21034 13.0182 7.38437 13.0163 7.58372C13.0144 7.78307 12.941 7.96031 12.7961 8.11545C12.641 8.27056 12.4628 8.35069 12.2615 8.35582C12.0603 8.36095 11.8821 8.28595 11.7269 8.13082L9.47888 5.87317C9.29811 5.6924 9.20773 5.4815 9.20773 5.24047C9.20773 4.99945 9.29811 4.78856 9.47888 4.6078L11.7462 2.35012C11.8949 2.2014 12.0715 2.128 12.276 2.12992C12.4804 2.13185 12.6602 2.21038 12.8154 2.3655C12.9602 2.52063 13.0352 2.69627 13.0404 2.89242C13.0455 3.08857 12.9705 3.2642 12.8154 3.41932L11.7346 4.50009H12C13.1795 4.50009 14.2846 4.72318 15.3154 5.16935C16.3461 5.6155 17.2448 6.2219 18.0115 6.98855C18.7782 7.75521 19.3846 8.65393 19.8307 9.6847C20.2769 10.7155 20.5 11.8206 20.5 13.0001C20.5 14.1796 20.2769 15.2847 19.8307 16.3154C19.3846 17.3462 18.7782 18.2449 18.0115 19.0116C17.2448 19.7782 16.3461 20.3846 15.3154 20.8308C14.2846 21.277 13.1795 21.5 12 21.5Z" fill="#691A1E"/>
        <mask id="mask1_3780_31396" style="mask-type:alpha" maskUnits="userSpaceOnUse" x="7" y="9" width="10" height="10">
            <rect x="7" y="9" width="10" height="10" fill="#D9D9D9"/>
        </mask>
        <g mask="url(#mask1_3780_31396)">
            <path d="M12.5938 17.625L10.0312 14.9583C9.99653 14.9236 9.96875 14.8802 9.94792 14.8281C9.92708 14.776 9.91667 14.7222 9.91667 14.6667V14.4167C9.91667 14.2986 9.9566 14.1997 10.0365 14.1198C10.1163 14.0399 10.2153 14 10.3333 14H11.375C11.7431 14 12.0608 13.8802 12.3281 13.6406C12.5955 13.401 12.7569 13.1042 12.8125 12.75H9.91667C9.79861 12.75 9.69965 12.7101 9.61979 12.6302C9.53993 12.5503 9.5 12.4514 9.5 12.3333C9.5 12.2153 9.53993 12.1163 9.61979 12.0365C9.69965 11.9566 9.79861 11.9167 9.91667 11.9167H12.6875C12.5694 11.6736 12.3941 11.474 12.1615 11.3177C11.9288 11.1615 11.6667 11.0833 11.375 11.0833H9.91667C9.79861 11.0833 9.69965 11.0434 9.61979 10.9635C9.53993 10.8837 9.5 10.7847 9.5 10.6667C9.5 10.5486 9.53993 10.4497 9.61979 10.3698C9.69965 10.2899 9.79861 10.25 9.91667 10.25H14.0833C14.2014 10.25 14.3003 10.2899 14.3802 10.3698C14.4601 10.4497 14.5 10.5486 14.5 10.6667C14.5 10.7847 14.4601 10.8837 14.3802 10.9635C14.3003 11.0434 14.2014 11.0833 14.0833 11.0833H13.1458C13.2431 11.2014 13.3299 11.3299 13.4062 11.4688C13.4826 11.6076 13.5417 11.7569 13.5833 11.9167H14.0833C14.2014 11.9167 14.3003 11.9566 14.3802 12.0365C14.4601 12.1163 14.5 12.2153 14.5 12.3333C14.5 12.4514 14.4601 12.5503 14.3802 12.6302C14.3003 12.7101 14.2014 12.75 14.0833 12.75H13.6562C13.6007 13.3403 13.3576 13.8351 12.9271 14.2344C12.4965 14.6337 11.9792 14.8333 11.375 14.8333H11.0729L13.1979 17.0417C13.3229 17.1736 13.349 17.3247 13.276 17.4948C13.2031 17.6649 13.0764 17.75 12.8958 17.75C12.8403 17.75 12.7865 17.7396 12.7344 17.7188C12.6823 17.6979 12.6354 17.6667 12.5938 17.625Z" fill="#691A1E"/>
        </g>
    </g>
</svg>
