<svg width="46" height="46" viewBox="0 0 46 46" fill="none" xmlns="http://www.w3.org/2000/svg">
<path d="M30.9473 20.218C31.7966 20.218 32.5167 19.9207 33.1074 19.3261C33.6981 18.7319 33.9935 18.0103 33.9935 17.1613C33.9935 16.3124 33.6964 15.5926 33.1021 15.0018C32.5079 14.4107 31.7861 14.1152 30.9368 14.1152C30.0879 14.1152 29.368 14.4125 28.7773 15.0071C28.1866 15.6013 27.8912 16.3229 27.8912 17.1718C27.8912 18.0208 28.1883 18.7406 28.7826 19.3313C29.3768 19.9224 30.0984 20.218 30.9473 20.218ZM15.0631 20.218C15.9121 20.218 16.6319 19.9207 17.2226 19.3261C17.8134 18.7319 18.1087 18.0103 18.1087 17.1613C18.1087 16.3124 17.8116 15.5926 17.2174 15.0018C16.6232 14.4107 15.9016 14.1152 15.0526 14.1152C14.2033 14.1152 13.4833 14.4125 12.8926 15.0071C12.3018 15.6013 12.0065 16.3229 12.0065 17.1718C12.0065 18.0208 12.3036 18.7406 12.8978 19.3313C13.492 19.9224 14.2138 20.218 15.0631 20.218ZM23.0041 45.1666C19.9381 45.1666 17.0562 44.5848 14.3585 43.4213C11.6608 42.2577 9.3142 40.6786 7.31881 38.684C5.32342 36.6894 3.74356 34.3438 2.57923 31.6473C1.41528 28.9507 0.833313 26.0696 0.833313 23.004C0.833313 19.938 1.41509 17.0561 2.57865 14.3584C3.7422 11.6607 5.32129 9.31414 7.3159 7.31875C9.31051 5.32336 11.6561 3.7435 14.3526 2.57917C17.0492 1.41522 19.9303 0.833252 22.9959 0.833252C26.0619 0.833252 28.9438 1.41503 31.6415 2.57858C34.3392 3.74214 36.6858 5.32122 38.6811 7.31584C40.6765 9.31045 42.2564 11.656 43.4207 14.3526C44.5847 17.0491 45.1666 19.9302 45.1666 22.9958C45.1666 26.0618 44.5849 28.9437 43.4213 31.6414C42.2578 34.3391 40.6787 36.6857 38.6841 38.6811C36.6895 40.6765 34.3439 42.2563 31.6473 43.4207C28.9508 44.5846 26.0697 45.1666 23.0041 45.1666ZM23 41.6666C28.2111 41.6666 32.625 39.8582 36.2416 36.2416C39.8583 32.6249 41.6666 28.211 41.6666 22.9999C41.6666 17.7888 39.8583 13.3749 36.2416 9.75825C32.625 6.14158 28.2111 4.33325 23 4.33325C17.7889 4.33325 13.375 6.14158 9.75831 9.75825C6.14165 13.3749 4.33331 17.7888 4.33331 22.9999C4.33331 28.211 6.14165 32.6249 9.75831 36.2416C13.375 39.8582 17.7889 41.6666 23 41.6666ZM23 35.1152C25.0941 35.1152 27.0259 34.6193 28.7954 33.6277C30.5648 32.636 32.0016 31.2906 33.1056 29.5916C33.3265 29.1669 33.3195 28.7399 33.0846 28.3106C32.8501 27.8813 32.483 27.6666 31.9833 27.6666H14.0166C13.5169 27.6666 13.1498 27.8813 12.9153 28.3106C12.6804 28.7399 12.6734 29.1669 12.8943 29.5916C13.9984 31.2906 15.4443 32.636 17.232 33.6277C19.0193 34.6193 20.942 35.1152 23 35.1152Z" fill="#E31837"/>
</svg>
