<svg width="46" height="46" viewBox="0 0 46 46" fill="none" xmlns="http://www.w3.org/2000/svg">
<path d="M30.947 20.2182C31.7963 20.2182 32.5164 19.9209 33.1071 19.3263C33.6978 18.7321 33.9932 18.0105 33.9932 17.1616C33.9932 16.3126 33.6961 15.5928 33.1018 15.0021C32.5076 14.411 31.7858 14.1154 30.9365 14.1154C30.0876 14.1154 29.3677 14.4127 28.777 15.0073C28.1863 15.6016 27.8909 16.3231 27.8909 17.1721C27.8909 18.021 28.188 18.7409 28.7823 19.3316C29.3765 19.9227 30.0981 20.2182 30.947 20.2182ZM15.0628 20.2182C15.9118 20.2182 16.6316 19.9209 17.2223 19.3263C17.8131 18.7321 18.1084 18.0105 18.1084 17.1616C18.1084 16.3126 17.8113 15.5928 17.2171 15.0021C16.6229 14.411 15.9013 14.1154 15.0523 14.1154C14.203 14.1154 13.483 14.4127 12.8923 15.0073C12.3015 15.6016 12.0062 16.3231 12.0062 17.1721C12.0062 18.021 12.3033 18.7409 12.8975 19.3316C13.4917 19.9227 14.2135 20.2182 15.0628 20.2182ZM23.0038 45.1668C19.9378 45.1668 17.0559 44.5851 14.3582 43.4215C11.6605 42.2579 9.3139 40.6789 7.31851 38.6842C5.32312 36.6896 3.74326 34.3441 2.57892 31.6475C1.41498 28.9509 0.833008 26.0699 0.833008 23.0042C0.833008 19.9382 1.41479 17.0564 2.57834 14.3587C3.7419 11.6609 5.32098 9.31438 7.31559 7.319C9.3102 5.32361 11.6558 3.74375 14.3523 2.57941C17.0489 1.41547 19.93 0.833496 22.9956 0.833496C26.0616 0.833496 28.9435 1.41527 31.6412 2.57883C34.3389 3.74238 36.6855 5.32147 38.6808 7.31608C40.6762 9.31069 42.2561 11.6563 43.4204 14.3528C44.5844 17.0494 45.1663 19.9305 45.1663 22.9961C45.1663 26.0621 44.5846 28.9439 43.421 31.6417C42.2575 34.3394 40.6784 36.6859 38.6838 38.6813C36.6891 40.6767 34.3436 42.2566 31.647 43.4209C28.9505 44.5849 26.0694 45.1668 23.0038 45.1668ZM22.9997 41.6668C28.2108 41.6668 32.6247 39.8585 36.2413 36.2418C39.858 32.6252 41.6663 28.2113 41.6663 23.0002C41.6663 17.7891 39.858 13.3752 36.2413 9.7585C32.6247 6.14183 28.2108 4.3335 22.9997 4.3335C17.7886 4.3335 13.3747 6.14183 9.75801 9.7585C6.14134 13.3752 4.33301 17.7891 4.33301 23.0002C4.33301 28.2113 6.14134 32.6252 9.75801 36.2418C13.3747 39.8585 17.7886 41.6668 22.9997 41.6668ZM22.9997 35.1154C25.0938 35.1154 27.0256 34.6196 28.7951 33.6279C30.5645 32.6362 32.0013 31.2909 33.1053 29.5918C33.3262 29.1672 33.3192 28.7402 33.0843 28.3108C32.8498 27.8815 32.4827 27.6668 31.983 27.6668H14.0163C13.5166 27.6668 13.1495 27.8815 12.915 28.3108C12.6801 28.7402 12.6731 29.1672 12.894 29.5918C13.9981 31.2909 15.444 32.6362 17.2317 33.6279C19.019 34.6196 20.9417 35.1154 22.9997 35.1154Z" fill="#691A1E"/>
</svg>
