<svg width="46" height="46" viewBox="0 0 46 46" fill="none" xmlns="http://www.w3.org/2000/svg">
<path d="M23.0107 35.114C24.9903 35.114 26.8588 34.6667 28.6163 33.7723C30.3738 32.8778 31.7939 31.605 32.8768 29.9537C33.2149 29.4422 33.2545 28.9329 32.9958 28.4259C32.737 27.9188 32.3249 27.6653 31.7596 27.6653C31.5282 27.6653 31.3186 27.7184 31.1306 27.8246C30.9427 27.9308 30.7859 28.0826 30.6602 28.28C29.7658 29.5454 28.65 30.5371 27.3128 31.255C25.9756 31.973 24.5382 32.332 23.0006 32.332C21.463 32.332 20.0256 31.973 18.6884 31.255C17.3512 30.5371 16.2354 29.5454 15.341 28.28C15.1914 28.0826 15.0226 27.9308 14.8347 27.8246C14.6467 27.7184 14.4371 27.6653 14.2057 27.6653C13.6404 27.6653 13.2283 27.9091 12.9695 28.3967C12.7108 28.8843 12.7504 29.3794 13.0885 29.8819C14.1714 31.5571 15.5916 32.848 17.349 33.7544C19.1065 34.6608 20.9937 35.114 23.0107 35.114ZM30.9482 20.2166C31.7972 20.2166 32.5171 19.9194 33.108 19.325C33.6988 18.7307 33.9942 18.0091 33.9942 17.16C33.9942 16.311 33.697 15.5911 33.1026 15.0003C32.5083 14.4095 31.7866 14.1141 30.9376 14.1141C30.0886 14.1141 29.3687 14.4112 28.7779 15.0056C28.187 15.5999 27.8916 16.3216 27.8916 17.1706C27.8916 18.0196 28.1888 18.7395 28.7831 19.3304C29.3775 19.9212 30.0991 20.2166 30.9482 20.2166ZM15.0636 20.2166C15.9126 20.2166 16.6325 19.9194 17.2233 19.325C17.8142 18.7307 18.1096 18.0091 18.1096 17.16C18.1096 16.311 17.8124 15.5911 17.2181 15.0003C16.6237 14.4095 15.9021 14.1141 15.053 14.1141C14.204 14.1141 13.4841 14.4112 12.8932 15.0056C12.3024 15.5999 12.007 16.3216 12.007 17.1706C12.007 18.0196 12.3042 18.7395 12.8985 19.3304C13.4929 19.9212 14.2146 20.2166 15.0636 20.2166ZM23.0045 45.1653C19.9387 45.1653 17.0569 44.5835 14.3593 43.4199C11.6616 42.2564 9.31499 40.6773 7.31948 38.6827C5.32394 36.688 3.74414 34.3425 2.58008 31.646C1.41602 28.9495 0.833984 26.0684 0.833984 23.0025C0.833984 19.9367 1.41576 17.055 2.57932 14.3573C3.74287 11.6596 5.32196 9.31304 7.31657 7.31753C9.31122 5.32199 11.6568 3.74219 14.3533 2.57813C17.0497 1.41406 19.9308 0.832031 22.9967 0.832031C26.0625 0.832031 28.9443 1.41381 31.6419 2.57737C34.3396 3.74092 36.6862 5.32 38.6817 7.31462C40.6772 9.30927 42.257 11.6548 43.4211 14.3513C44.5852 17.0477 45.1672 19.9289 45.1672 22.9947C45.1672 26.0606 44.5854 28.9423 43.4219 31.64C42.2583 34.3377 40.6792 36.6842 38.6846 38.6797C36.69 40.6753 34.3444 42.2551 31.6479 43.4192C28.9515 44.5832 26.0703 45.1653 23.0045 45.1653ZM23.0006 41.6653C28.2117 41.6653 32.6256 39.857 36.2423 36.2403C39.8589 32.6236 41.6673 28.2098 41.6673 22.9986C41.6673 17.7875 39.8589 13.3736 36.2423 9.75698C32.6256 6.14031 28.2117 4.33197 23.0006 4.33197C17.7895 4.33197 13.3756 6.14031 9.75893 9.75698C6.14226 13.3736 4.33393 17.7875 4.33393 22.9986C4.33393 28.2098 6.14226 32.6236 9.75893 36.2403C13.3756 39.857 17.7895 41.6653 23.0006 41.6653Z" fill="#691A1E"/>
</svg>
