<svg width="46" height="46" viewBox="0 0 46 46" fill="none" xmlns="http://www.w3.org/2000/svg">
<path d="M23.0107 26.5001C20.9937 26.5001 19.1065 26.9533 17.349 27.8597C15.5916 28.7661 14.1714 30.0569 13.0885 31.7321C12.7504 32.2347 12.7108 32.7298 12.9695 33.2174C13.2283 33.705 13.6404 33.9488 14.2057 33.9488C14.4371 33.9488 14.6467 33.8957 14.8347 33.7895C15.0226 33.6833 15.1914 33.5315 15.341 33.334C16.2354 32.0687 17.3512 31.077 18.6884 30.359C20.0256 29.6411 21.463 29.2821 23.0006 29.2821C24.5382 29.2821 25.9756 29.6411 27.3128 30.359C28.65 31.077 29.7658 32.0687 30.6602 33.334C30.7859 33.5315 30.9427 33.6833 31.1306 33.7895C31.3186 33.8957 31.5282 33.9488 31.7596 33.9488C32.3249 33.9488 32.737 33.6952 32.9958 33.1882C33.2545 32.6812 33.2149 32.1719 32.8768 31.6603C31.7939 30.0091 30.3738 28.7362 28.6163 27.8418C26.8588 26.9473 24.9903 26.5001 23.0107 26.5001ZM30.9482 20.218C31.7972 20.218 32.5171 19.9208 33.108 19.3265C33.6988 18.7322 33.9942 18.0105 33.9942 17.1615C33.9942 16.3124 33.697 15.5925 33.1026 15.0017C32.5083 14.4109 31.7866 14.1155 30.9376 14.1155C30.0886 14.1155 29.3687 14.4127 28.7779 15.007C28.187 15.6013 27.8916 16.323 27.8916 17.1721C27.8916 18.0211 28.1888 18.741 28.7831 19.3318C29.3775 19.9226 30.0991 20.218 30.9482 20.218ZM15.0636 20.218C15.9126 20.218 16.6325 19.9208 17.2233 19.3265C17.8142 18.7322 18.1096 18.0105 18.1096 17.1615C18.1096 16.3124 17.8124 15.5925 17.2181 15.0017C16.6237 14.4109 15.9021 14.1155 15.053 14.1155C14.204 14.1155 13.4841 14.4127 12.8932 15.007C12.3024 15.6013 12.007 16.323 12.007 17.1721C12.007 18.0211 12.3042 18.741 12.8985 19.3318C13.4929 19.9226 14.2146 20.218 15.0636 20.218ZM23.0045 45.1667C19.9387 45.1667 17.0569 44.5849 14.3593 43.4214C11.6616 42.2578 9.31499 40.6787 7.31948 38.6841C5.32394 36.6895 3.74414 34.3439 2.58008 31.6474C1.41602 28.951 0.833984 26.0699 0.833984 23.004C0.833984 19.9382 1.41576 17.0564 2.57932 14.3588C3.74287 11.6611 5.32196 9.31451 7.31657 7.319C9.31122 5.32346 11.6568 3.74365 14.3533 2.57959C17.0497 1.41553 19.9308 0.833496 22.9967 0.833496C26.0625 0.833496 28.9443 1.41528 31.6419 2.57883C34.3396 3.74239 36.6862 5.32147 38.6817 7.31608C40.6772 9.31073 42.257 11.6563 43.4211 14.3528C44.5852 17.0492 45.1672 19.9304 45.1672 22.9962C45.1672 26.062 44.5854 28.9438 43.4219 31.6414C42.2583 34.3391 40.6792 36.6857 38.6846 38.6812C36.69 40.6768 34.3444 42.2566 31.6479 43.4206C28.9515 44.5847 26.0703 45.1667 23.0045 45.1667ZM23.0006 41.6668C28.2117 41.6668 32.6256 39.8584 36.2423 36.2418C39.8589 32.6251 41.6673 28.2112 41.6673 23.0001C41.6673 17.789 39.8589 13.3751 36.2423 9.75844C32.6256 6.14177 28.2117 4.33344 23.0006 4.33344C17.7895 4.33344 13.3756 6.14177 9.75893 9.75844C6.14226 13.3751 4.33393 17.789 4.33393 23.0001C4.33393 28.2112 6.14226 32.6251 9.75893 36.2418C13.3756 39.8584 17.7895 41.6668 23.0006 41.6668Z" fill="#691A1E"/>
</svg>
