<svg width="46" height="46" viewBox="0 0 46 46" fill="none" xmlns="http://www.w3.org/2000/svg">
<path d="M30.9482 20.2175C31.7972 20.2175 32.5171 19.9204 33.108 19.326C33.6988 18.7317 33.9942 18.01 33.9942 17.161C33.9942 16.312 33.697 15.592 33.1026 15.0012C32.5083 14.4104 31.7866 14.115 30.9376 14.115C30.0886 14.115 29.3687 14.4122 28.7779 15.0066C28.187 15.6009 27.8916 16.3225 27.8916 17.1716C27.8916 18.0206 28.1888 18.7405 28.7831 19.3313C29.3775 19.9221 30.0991 20.2175 30.9482 20.2175ZM15.0636 20.2175C15.9126 20.2175 16.6325 19.9204 17.2233 19.326C17.8142 18.7317 18.1096 18.01 18.1096 17.161C18.1096 16.312 17.8124 15.592 17.2181 15.0012C16.6237 14.4104 15.9021 14.115 15.053 14.115C14.204 14.115 13.4841 14.4122 12.8932 15.0066C12.3024 15.6009 12.007 16.3225 12.007 17.1716C12.007 18.0206 12.3042 18.7405 12.8985 19.3313C13.4929 19.9221 14.2146 20.2175 15.0636 20.2175ZM17.5711 30.8073H28.4301C28.8319 30.8073 29.1642 30.676 29.427 30.4134C29.6897 30.1509 29.8211 29.8189 29.8211 29.4173C29.8211 29.0158 29.6897 28.6834 29.427 28.4201C29.1642 28.1569 28.8319 28.0253 28.4301 28.0253H17.5711C17.1693 28.0253 16.837 28.1566 16.5742 28.4191C16.3115 28.6817 16.1801 29.0137 16.1801 29.4152C16.1801 29.8168 16.3115 30.1492 16.5742 30.4124C16.837 30.6757 17.1693 30.8073 17.5711 30.8073ZM23.0045 45.1662C19.9387 45.1662 17.0569 44.5844 14.3593 43.4209C11.6616 42.2573 9.31499 40.6783 7.31948 38.6836C5.32394 36.689 3.74414 34.3434 2.58008 31.647C1.41602 28.9505 0.833984 26.0694 0.833984 23.0035C0.833984 19.9377 1.41576 17.0559 2.57932 14.3583C3.74287 11.6606 5.32196 9.31402 7.31657 7.31851C9.31122 5.32297 11.6568 3.74316 14.3533 2.5791C17.0497 1.41504 19.9308 0.833008 22.9967 0.833008C26.0625 0.833008 28.9443 1.41479 31.6419 2.57834C34.3396 3.7419 36.6862 5.32098 38.6817 7.31559C40.6772 9.31024 42.257 11.6558 43.4211 14.3523C44.5852 17.0487 45.1672 19.9299 45.1672 22.9957C45.1672 26.0616 44.5854 28.9433 43.4219 31.6409C42.2583 34.3386 40.6792 36.6852 38.6846 38.6807C36.69 40.6763 34.3444 42.2561 31.6479 43.4201C28.9515 44.5842 26.0703 45.1662 23.0045 45.1662ZM23.0006 41.6663C28.2117 41.6663 32.6256 39.858 36.2423 36.2413C39.8589 32.6246 41.6673 28.2107 41.6673 22.9996C41.6673 17.7885 39.8589 13.3746 36.2423 9.75795C32.6256 6.14128 28.2117 4.33295 23.0006 4.33295C17.7895 4.33295 13.3756 6.14128 9.75893 9.75795C6.14226 13.3746 4.33393 17.7885 4.33393 22.9996C4.33393 28.2107 6.14226 32.6246 9.75893 36.2413C13.3756 39.858 17.7895 41.6663 23.0006 41.6663Z" fill="white"/>
</svg>
