<svg width="16" height="20" viewBox="0 0 16 20" fill="none" xmlns="http://www.w3.org/2000/svg">
<path d="M6.01923 13.8269H9.98078C10.2369 13.8269 10.4515 13.7403 10.6248 13.5671C10.798 13.3939 10.8846 13.1792 10.8846 12.9231V9.96156C10.8846 9.70548 10.798 9.49082 10.6248 9.31759C10.4515 9.14435 10.2369 9.05774 9.98078 9.05774H9.89423V8.05774C9.89423 7.53337 9.71121 7.08818 9.34518 6.72216C8.97916 6.35614 8.53398 6.17314 8.00963 6.17314C7.48526 6.17314 7.04007 6.35614 6.67406 6.72216C6.30802 7.08818 6.12501 7.53337 6.12501 8.05774V9.05774H6.01923C5.76315 9.05774 5.54849 9.14435 5.37526 9.31759C5.20202 9.49082 5.11541 9.70548 5.11541 9.96156V12.9231C5.11541 13.1792 5.20202 13.3939 5.37526 13.5671C5.54849 13.7403 5.76315 13.8269 6.01923 13.8269ZM7.00963 9.05774V8.05774C7.00963 7.7744 7.10546 7.5369 7.29713 7.34524C7.4888 7.15357 7.7263 7.05774 8.00963 7.05774C8.29296 7.05774 8.53046 7.15357 8.72213 7.34524C8.9138 7.5369 9.00963 7.7744 9.00963 8.05774V9.05774H7.00963ZM8.00001 19.3712C7.89616 19.3712 7.79423 19.3628 7.69423 19.3462C7.59423 19.3295 7.49737 19.3045 7.40366 19.2712C5.29482 18.5212 3.61701 17.1914 2.37023 15.2817C1.12343 13.3721 0.500031 11.3116 0.500031 9.10004V4.59621C0.500031 4.21636 0.609247 3.8745 0.82768 3.57061C1.04611 3.26673 1.32856 3.04642 1.67503 2.90969L7.36733 0.784686C7.58143 0.70777 7.79232 0.669312 8.00001 0.669312C8.20769 0.669312 8.41858 0.70777 8.63268 0.784686L14.325 2.90969C14.6714 3.04642 14.9539 3.26673 15.1723 3.57061C15.3908 3.8745 15.5 4.21636 15.5 4.59621V9.10004C15.5 11.3116 14.8766 13.3721 13.6298 15.2817C12.383 17.1914 10.7052 18.5212 8.59636 19.2712C8.50264 19.3045 8.40578 19.3295 8.30578 19.3462C8.20578 19.3628 8.10386 19.3712 8.00001 19.3712ZM8.00001 17.9C9.73334 17.35 11.1667 16.25 12.3 14.6C13.4333 12.95 14 11.1167 14 9.10004V4.58659C14 4.52249 13.9824 4.4648 13.9471 4.41351C13.9119 4.36221 13.8622 4.32374 13.7981 4.29811L8.10578 2.17311C8.07373 2.16029 8.03847 2.15389 8.00001 2.15389C7.96154 2.15389 7.92628 2.16029 7.89423 2.17311L2.20196 4.29811C2.13784 4.32374 2.08816 4.36221 2.05291 4.41351C2.01764 4.4648 2.00001 4.52249 2.00001 4.58659V9.10004C2.00001 11.1167 2.56667 12.95 3.70001 14.6C4.83334 16.25 6.26667 17.35 8.00001 17.9Z" fill="#A1626B"/>
</svg>
