<svg width="20" height="20" viewBox="0 0 20 20" fill="none" xmlns="http://www.w3.org/2000/svg">
<path d="M10.2192 19.0538C9.92176 19.3512 9.56536 19.5 9.15 19.5C8.73463 19.5 8.37823 19.3512 8.0808 19.0538L0.930795 11.9038C0.643611 11.6166 0.501628 11.2612 0.504845 10.8375C0.508045 10.4138 0.656436 10.0551 0.95002 9.76155L9.75002 0.94615C9.88864 0.809834 10.0525 0.701401 10.2415 0.620851C10.4305 0.540284 10.6282 0.5 10.8346 0.5H17.9846C18.3936 0.5 18.7458 0.647759 19.0413 0.943275C19.3368 1.23878 19.4846 1.59101 19.4846 1.99998V9.14998C19.4846 9.36374 19.4432 9.56493 19.3605 9.75355C19.2778 9.94218 19.1641 10.1089 19.0192 10.2538L10.2192 19.0538ZM15.4835 5.74995C15.8304 5.74995 16.1256 5.62853 16.3692 5.3857C16.6128 5.14287 16.7346 4.848 16.7346 4.5011C16.7346 4.1542 16.6132 3.85896 16.3703 3.61538C16.1275 3.37179 15.8326 3.25 15.4857 3.25C15.1388 3.25 14.8436 3.37142 14.6 3.61425C14.3564 3.85708 14.2346 4.15195 14.2346 4.49885C14.2346 4.84575 14.356 5.14099 14.5989 5.38458C14.8417 5.62816 15.1366 5.74995 15.4835 5.74995ZM9.15429 18L17.9846 9.14998V1.99998H10.8303L1.99999 10.85L9.15429 18Z" fill="#A1626B"/>
</svg>
