<svg width="20" height="20" viewBox="0 0 20 20" fill="none" xmlns="http://www.w3.org/2000/svg">
<path d="M10 12.7769L12.6212 14.7615C12.8019 14.8884 12.9843 14.8926 13.1683 14.774C13.3522 14.6554 13.409 14.4891 13.3385 14.275L12.3462 10.9923L14.9066 9.1716C15.0945 9.03155 15.1516 8.85703 15.0779 8.64805C15.0041 8.43908 14.8573 8.3346 14.6374 8.3346H11.5039L10.4365 4.88655C10.36 4.67243 10.2146 4.56538 10.0003 4.56538C9.78601 4.56538 9.6404 4.67243 9.56348 4.88655L8.49616 8.3346H5.36258C5.14268 8.3346 4.99587 8.43908 4.92216 8.64805C4.84844 8.85703 4.90554 9.03155 5.09346 9.1716L7.65386 10.9923L6.66156 14.275C6.59104 14.4891 6.64777 14.6554 6.83176 14.774C7.01572 14.8926 7.19809 14.8884 7.37886 14.7615L10 12.7769ZM10.0017 19.5C8.68775 19.5 7.45271 19.2506 6.29658 18.752C5.14043 18.2533 4.13475 17.5765 3.27953 16.7217C2.4243 15.8669 1.74724 14.8616 1.24836 13.706C0.749472 12.5504 0.500031 11.3156 0.500031 10.0017C0.500031 8.68772 0.749364 7.45268 1.24803 6.29655C1.7467 5.1404 2.42345 4.13472 3.27828 3.2795C4.13313 2.42427 5.13837 1.74721 6.29401 1.24833C7.44962 0.749443 8.6844 0.5 9.99833 0.5C11.3123 0.5 12.5473 0.749334 13.7034 1.248C14.8596 1.74667 15.8653 2.42342 16.7205 3.27825C17.5757 4.1331 18.2528 5.13834 18.7517 6.29398C19.2505 7.44959 19.5 8.68437 19.5 9.9983C19.5 11.3122 19.2506 12.5473 18.752 13.7034C18.2533 14.8596 17.5766 15.8652 16.7217 16.7205C15.8669 17.5757 14.8616 18.2527 13.706 18.7516C12.5504 19.2505 11.3156 19.5 10.0017 19.5ZM10 18C12.2167 18 14.1042 17.2208 15.6625 15.6625C17.2208 14.1041 18 12.2166 18 9.99998C18 7.78331 17.2208 5.89581 15.6625 4.33748C14.1042 2.77914 12.2167 1.99998 10 1.99998C7.78334 1.99998 5.89584 2.77914 4.33751 4.33748C2.77917 5.89581 2.00001 7.78331 2.00001 9.99998C2.00001 12.2166 2.77917 14.1041 4.33751 15.6625C5.89584 17.2208 7.78334 18 10 18Z" fill="#A1626B"/>
</svg>
