<svg width="34" height="32" viewBox="0 0 34 32" fill="none" xmlns="http://www.w3.org/2000/svg">
<path d="M18.76 31.52L15 28.04L21.76 21.68V4.8H19.4L19.88 0.519999H33.44V4.8H27.72V23L18.76 31.52ZM10 23.48C8.16 23.48 6.54667 23.1067 5.16 22.36C3.8 21.6133 2.73333 20.5067 1.96 19.04C1.18667 17.5733 0.8 15.76 0.8 13.6C0.8 11.1467 1.25333 9.04 2.16 7.28C3.09333 5.49333 4.42667 4.06667 6.16 3C7.14667 2.38667 8.22667 1.90667 9.4 1.56C10.5733 1.18667 11.96 0.919999 13.56 0.759998C15.1867 0.599998 17.12 0.519999 19.36 0.519999H20.52L20.68 4.8H16.92C15.64 4.8 14.5467 4.86667 13.64 5C12.76 5.10667 12 5.28 11.36 5.52C10.72 5.76 10.12 6.06667 9.56 6.44C8.46667 7.18667 7.61333 8.17333 7 9.4C6.38667 10.6267 6.08 12.1733 6.08 14.04C6.08 15.2933 6.22667 16.32 6.52 17.12C6.81333 17.8933 7.22667 18.4667 7.76 18.84C8.32 19.1867 8.98667 19.36 9.76 19.36C10.3733 19.36 10.88 19.24 11.28 19C11.7067 18.76 12.0267 18.4133 12.24 17.96C12.48 17.5067 12.6 16.96 12.6 16.32C12.6 15.3333 12.32 14.56 11.76 14C11.2267 13.44 10.48 13.16 9.52 13.16C8.4 13.16 7.4 13.4933 6.52 14.16C5.64 14.8 4.84 15.5067 4.12 16.28L3.24 12.44C4.22667 11.5067 5.34667 10.72 6.6 10.08C7.85333 9.44 9.32 9.12 11 9.12C13.16 9.12 14.8933 9.72 16.2 10.92C17.5333 12.12 18.2 13.8267 18.2 16.04C18.2 17.5867 17.8933 18.92 17.28 20.04C16.6667 21.1333 15.7467 21.9867 14.52 22.6C13.32 23.1867 11.8133 23.48 10 23.48Z" fill="#EDE0E3"/>
</svg>
