<svg width="29" height="33" viewBox="0 0 29 33" fill="none" xmlns="http://www.w3.org/2000/svg">
<path d="M20.36 32.48C19.08 32.48 17.9467 32.2933 16.96 31.92C15.9733 31.5467 14.9733 30.92 13.96 30.04C12.9733 29.1333 11.7867 27.9067 10.4 26.36C9.65333 25.5067 9.06667 24.92 8.64 24.6C8.21333 24.2533 7.72 24.08 7.16 24.08C6.73333 24.08 6.30667 24.2533 5.88 24.6C5.48 24.92 5.28 25.4267 5.28 26.12C5.28 26.9467 5.49333 27.52 5.92 27.84C6.37333 28.16 6.89333 28.32 7.48 28.32C8.12 28.32 8.76 28.0533 9.4 27.52C10.04 26.9867 10.4933 26.1067 10.76 24.88L14.08 28.4C13.5467 29.1467 12.9867 29.84 12.4 30.48C11.84 31.0933 11.1333 31.5867 10.28 31.96C9.42667 32.3067 8.28 32.48 6.84 32.48C5.26667 32.48 3.97333 32.1867 2.96 31.6C1.97333 30.9867 1.24 30.2 0.76 29.24C0.306667 28.28 0.08 27.2667 0.08 26.2C0.08 24.8933 0.386667 23.7733 1 22.84C1.61333 21.88 2.45333 21.1333 3.52 20.6C4.58667 20.0667 5.78667 19.8 7.12 19.8C8.24 19.8 9.22667 19.9467 10.08 20.24C10.9333 20.5333 11.76 21.0133 12.56 21.68C13.3867 22.3467 14.2933 23.2267 15.28 24.32C16.1333 25.2533 16.8267 25.96 17.36 26.44C17.92 26.92 18.4267 27.24 18.88 27.4C19.3333 27.56 19.84 27.64 20.4 27.64C21.2 27.64 21.8533 27.36 22.36 26.8C22.8667 26.24 23.12 25.36 23.12 24.16C23.12 22.48 22.84 20.8667 22.28 19.32C21.7467 17.7733 21 16.32 20.04 14.96C19.08 13.5733 17.9733 12.2933 16.72 11.12C15.4667 9.94667 14.12 8.90667 12.68 8C11.24 7.06667 9.78667 6.29333 8.32 5.68L10.92 0.759999C12.7067 1.50667 14.4533 2.45333 16.16 3.6C17.8933 4.74666 19.5067 6.05333 21 7.52C22.52 8.98666 23.8533 10.5867 25 12.32C26.1467 14.0533 27.04 15.8933 27.68 17.84C28.3467 19.76 28.68 21.7467 28.68 23.8C28.68 25.5867 28.36 27.1333 27.72 28.44C27.08 29.72 26.1333 30.72 24.88 31.44C23.6533 32.1333 22.1467 32.48 20.36 32.48Z" fill="#EDE0E3"/>
</svg>
