<svg width="40" height="40" viewBox="0 0 40 40" fill="none" xmlns="http://www.w3.org/2000/svg">
<rect width="40" height="40" rx="8" fill="#635651"/>
<path d="M13.5498 27.9905C11.037 27.9905 9 25.9536 9 23.4407C9 20.9278 11.037 18.8909 13.5498 18.8909C16.0627 18.8909 18.0997 20.9278 18.0997 23.4407C18.0997 25.9536 16.0627 27.9905 13.5498 27.9905ZM13.5498 20.0807C11.6937 20.0807 10.1898 21.5846 10.1898 23.4407C10.1898 25.2968 11.6937 26.8007 13.5498 26.8007C15.4059 26.8007 16.9099 25.2968 16.9099 23.4407C16.9099 21.5846 15.4059 20.0807 13.5498 20.0807Z" fill="#D3B9BD"/>
<path d="M29.5221 21.9653V19.2049C29.5221 18.0627 28.5513 17.1394 27.3614 17.1394H24.2489V15.9782C24.2489 15.1596 24.5535 14.9311 24.5916 14.9121C24.8771 14.7788 25.0104 14.4362 24.8866 14.1411C24.7629 13.8365 24.4107 13.6937 24.1061 13.827C24.0014 13.8746 23.0591 14.3124 23.0591 15.9782V17.1394H22.3452L20.927 12.1803H21.8978C22.2215 12.1803 22.488 11.9138 22.488 11.5901C22.488 11.2665 22.2215 11 21.8978 11H11.3514C11.0182 11 10.7612 11.2665 10.7612 11.5901C10.7612 11.9138 11.0277 12.1803 11.3514 12.1803H12.5126V17.2822C11.656 17.463 10.8374 17.8152 10.114 18.3578C9.84745 18.5577 9.79986 18.9289 9.99974 19.1954C10.1996 19.4524 10.5709 19.5095 10.8374 19.3096C11.6845 18.6719 12.684 18.3387 13.731 18.3387C16.4533 18.3387 18.6711 20.6232 18.6711 23.4311C18.6711 23.8404 18.6235 24.2402 18.5283 24.6305C18.4522 24.9541 18.652 25.2682 18.9757 25.3443C19.0233 25.3539 19.0709 25.3634 19.1089 25.3634C19.1375 25.3634 19.166 25.3539 19.1946 25.3539C19.2231 25.3539 19.2422 25.3634 19.2612 25.3634H23.2304C23.6778 26.8863 25.077 28 26.7332 28C28.7607 28 30.4074 26.3533 30.4074 24.3259C30.4074 23.4216 30.0647 22.6125 29.5317 21.9748L29.5221 21.9653ZM13.7024 12.1708H19.6896L21.1078 17.1299H13.7215H13.7024V12.1708ZM17.3004 18.3197H27.3614C27.8945 18.3197 28.3323 18.71 28.3323 19.1954V21.023C27.8469 20.785 27.3043 20.6422 26.7332 20.6422C26.6856 20.6422 26.638 20.6517 26.5905 20.6613C26.5619 20.6613 26.5429 20.6422 26.5143 20.6422H19.2803C19.2803 20.6422 19.2422 20.6422 19.2231 20.6517C18.7758 19.7189 18.1095 18.9194 17.3004 18.3197ZM23.0781 24.1641H19.8133C19.8419 23.9166 19.8609 23.6691 19.8609 23.4216C19.8609 22.8791 19.7847 22.346 19.661 21.8415H24.049C23.4779 22.4602 23.1162 23.2693 23.0781 24.1641ZM26.7332 26.8007C25.3626 26.8007 24.2489 25.687 24.2489 24.3163C24.2489 22.9457 25.3626 21.832 26.7332 21.832C28.1039 21.832 29.2176 22.9457 29.2176 24.3163C29.2176 25.687 28.1039 26.8007 26.7332 26.8007Z" fill="#D3B9BD"/>
</svg>
