<svg width="24" height="24" viewBox="0 0 24 24" fill="none" xmlns="http://www.w3.org/2000/svg">
    <mask id="mask0_3780_31970" style="mask-type:alpha" maskUnits="userSpaceOnUse" x="0" y="0" width="24" height="24">
        <rect width="24" height="24" fill="#D9D9D9"/>
    </mask>
    <g mask="url(#mask0_3780_31970)">
        <path d="M3.6543 13.75C3.44146 13.75 3.26321 13.6782 3.11955 13.5345C2.97605 13.391 2.9043 13.2128 2.9043 13V8C2.9043 7.78717 2.97605 7.609 3.11955 7.4655C3.26321 7.32183 3.44146 7.25 3.6543 7.25C3.86696 7.25 4.04513 7.32183 4.1888 7.4655C4.33246 7.609 4.4043 7.78717 4.4043 8V13C4.4043 13.2128 4.33246 13.391 4.1888 13.5345C4.04513 13.6782 3.86696 13.75 3.6543 13.75ZM20.3463 16.75C20.1336 16.75 19.9555 16.6782 19.8118 16.5345C19.6681 16.391 19.5963 16.2128 19.5963 16V11C19.5963 10.7872 19.6681 10.609 19.8118 10.4655C19.9555 10.3218 20.1336 10.25 20.3463 10.25C20.5591 10.25 20.7374 10.3218 20.881 10.4655C21.0245 10.609 21.0963 10.7872 21.0963 11V16C21.0963 16.2128 21.0245 16.391 20.881 16.5345C20.7374 16.6782 20.5591 16.75 20.3463 16.75ZM8.2118 21.5C7.70663 21.5 7.27905 21.325 6.92905 20.975C6.57921 20.625 6.4043 20.1974 6.4043 19.6923V4.30775C6.4043 3.80258 6.57921 3.375 6.92905 3.025C7.27905 2.675 7.70663 2.5 8.2118 2.5H15.7888C16.294 2.5 16.7215 2.675 17.0715 3.025C17.4214 3.375 17.5963 3.80258 17.5963 4.30775V19.6923C17.5963 20.1974 17.4214 20.625 17.0715 20.975C16.7215 21.325 16.294 21.5 15.7888 21.5H8.2118ZM16.0965 18.75H7.90405V19.6923C7.90405 19.7693 7.93613 19.8398 8.0003 19.9038C8.06446 19.9679 8.13496 20 8.2118 20H15.7888C15.8656 20 15.9361 19.9679 16.0003 19.9038C16.0645 19.8398 16.0965 19.7693 16.0965 19.6923V18.75ZM7.90405 5.25H16.0965V4.30775C16.0965 4.23075 16.0645 4.16025 16.0003 4.09625C15.9361 4.03208 15.8656 4 15.7888 4H8.2118C8.13496 4 8.06446 4.03208 8.0003 4.09625C7.93613 4.16025 7.90405 4.23075 7.90405 4.30775V5.25ZM7.90405 17.25H16.0965V6.75H7.90405V17.25Z" fill="#691A1E"/>
    </g>
</svg>