<svg width="24" height="24" viewBox="0 0 24 24" fill="none" xmlns="http://www.w3.org/2000/svg">
    <mask id="mask0_3780_31994" style="mask-type:alpha" maskUnits="userSpaceOnUse" x="0" y="0" width="24" height="24">
        <rect width="24" height="24" fill="#D9D9D9"/>
    </mask>
    <g mask="url(#mask0_3780_31994)">
        <path d="M9.22992 12.827H11.0762V10.2693H12.9222V12.827H14.7684V8.423L11.9992 6.577L9.22992 8.423V12.827ZM11.9992 19.5135C13.9555 17.7622 15.4526 16.0823 16.4904 14.474C17.5283 12.8657 18.0472 11.457 18.0472 10.248C18.0472 8.425 17.468 6.92633 16.3097 5.752C15.1513 4.57767 13.7145 3.9905 11.9992 3.9905C10.2838 3.9905 8.847 4.57767 7.68867 5.752C6.53034 6.92633 5.95117 8.425 5.95117 10.248C5.95117 11.457 6.47009 12.8657 7.50792 14.474C8.54576 16.0823 10.0428 17.7622 11.9992 19.5135ZM11.9992 20.9403C11.8043 20.9403 11.6095 20.9067 11.4147 20.8395C11.2197 20.7722 11.0433 20.668 10.8857 20.527C9.98834 19.7 9.14859 18.8483 8.36642 17.972C7.58442 17.0958 6.90467 16.2199 6.32717 15.3443C5.74951 14.4686 5.29242 13.6007 4.95592 12.7405C4.61942 11.8802 4.45117 11.0493 4.45117 10.248C4.45117 7.94033 5.19759 6.07208 6.69042 4.64325C8.18342 3.21442 9.953 2.5 11.9992 2.5C14.0453 2.5 15.8149 3.21442 17.3079 4.64325C18.8008 6.07208 19.5472 7.94033 19.5472 10.248C19.5472 11.0493 19.3789 11.8785 19.0424 12.7355C18.7059 13.5927 18.2505 14.4607 17.6762 15.3395C17.1017 16.2183 16.4234 17.0942 15.6414 17.9672C14.8594 18.8404 14.0197 19.6904 13.1222 20.5173C12.9645 20.6583 12.7867 20.764 12.5887 20.8345C12.3905 20.905 12.194 20.9403 11.9992 20.9403Z" fill="#691A1E"/>
    </g>
</svg>