<svg width="24" height="24" viewBox="0 0 24 24" fill="none" xmlns="http://www.w3.org/2000/svg">
<path fill-rule="evenodd" clip-rule="evenodd" d="M18.3048 11.8539L14.476 3.20369C14.4091 3.08484 14.2879 3.01716 14.1617 3.02821C14.0356 3.03925 13.9255 3.12717 13.8763 3.25619L13.0733 6.0721L11.7993 3.20369C11.7429 3.06981 11.6172 2.98899 11.4842 3.00122C11.3511 3.01588 11.2383 3.11576 11.1962 3.25619L6.34412 20.5341C6.30588 20.6884 6.36031 20.8526 6.47965 20.9429C6.54034 20.9849 6.61152 21.0046 6.68295 20.9991C6.76346 21 6.84117 20.9664 6.8998 20.9054L9.70192 18.1119L9.02426 20.5341C8.98533 20.6876 9.03833 20.8515 9.1564 20.9429C9.20934 20.9792 9.27031 20.9986 9.33259 20.9991C9.4131 21 9.49081 20.9664 9.54944 20.9054L18.2302 12.2814C18.3349 12.1711 18.3649 11.9994 18.3048 11.8539ZM11.5763 4.33234L14.9646 11.9289L7.33076 19.4993L11.5763 4.33234ZM10.6436 17.171L9.99305 19.4995L17.6303 11.9254L14.242 4.32875L13.5067 6.95344C13.5001 6.96922 13.4921 6.98428 13.483 6.99843L15.6413 11.8691C15.7014 12.0146 15.6715 12.1863 15.5668 12.2966L10.6436 17.171Z" fill="#691A1E"/>
<path d="M14.476 3.20369L14.9332 3.00132L14.9235 2.97932L14.9117 2.95836L14.476 3.20369ZM18.3048 11.8539L18.7671 11.663L18.762 11.6515L18.3048 11.8539ZM14.1617 3.02821L14.1181 2.53011L14.1617 3.02821ZM13.8763 3.25619L13.4091 3.078L13.4014 3.09824L13.3955 3.11907L13.8763 3.25619ZM13.0733 6.0721L12.6163 6.27506L13.176 7.53515L13.5541 6.20922L13.0733 6.0721ZM11.7993 3.20369L11.3383 3.39764L11.3423 3.40665L11.7993 3.20369ZM11.4842 3.00122L11.4384 2.50324L11.4294 2.50422L11.4842 3.00122ZM11.1962 3.25619L10.7172 3.11249L10.7148 3.12101L11.1962 3.25619ZM6.34412 20.5341L5.86274 20.399L5.86066 20.4064L5.8588 20.4139L6.34412 20.5341ZM6.47965 20.9429L6.17797 21.3416L6.18631 21.3479L6.1949 21.3538L6.47965 20.9429ZM6.68295 20.9991L6.68865 20.4991L6.66659 20.4989L6.6446 20.5006L6.68295 20.9991ZM6.8998 20.9054L6.54671 20.5512L6.53914 20.5591L6.8998 20.9054ZM9.70192 18.1119L10.1834 18.2466L10.6958 16.4151L9.34891 17.7578L9.70192 18.1119ZM9.02426 20.5341L8.5426 20.3994L8.53961 20.4112L9.02426 20.5341ZM9.1564 20.9429L8.85055 21.3384L8.86183 21.3471L8.87359 21.3552L9.1564 20.9429ZM9.33259 20.9991L9.33829 20.4991L9.33637 20.4991L9.33259 20.9991ZM9.54944 20.9054L9.19695 20.5505L9.18878 20.5591L9.54944 20.9054ZM18.2302 12.2814L18.5826 12.6361L18.5878 12.6309L18.5929 12.6256L18.2302 12.2814ZM14.9646 11.9289L15.3167 12.284L15.5619 12.0407L15.4212 11.7253L14.9646 11.9289ZM11.5763 4.33234L12.0329 4.12867L11.4684 2.86295L11.0948 4.19756L11.5763 4.33234ZM7.33076 19.4993L6.84927 19.3645L6.33918 21.1868L7.68284 19.8543L7.33076 19.4993ZM9.99305 19.4995L9.51149 19.3649L9.00277 21.1857L10.3451 19.8545L9.99305 19.4995ZM10.6436 17.171L10.2918 16.8157L10.1977 16.9089L10.162 17.0364L10.6436 17.171ZM17.6303 11.9254L17.9823 12.2804L18.2276 12.0371L18.0869 11.7217L17.6303 11.9254ZM14.242 4.32875L14.6986 4.12508L14.1342 2.85975L13.7605 4.19387L14.242 4.32875ZM13.5067 6.95344L13.9677 7.14716L13.9798 7.11838L13.9882 7.08831L13.5067 6.95344ZM13.483 6.99843L13.0631 6.72704L12.9164 6.95397L13.0259 7.201L13.483 6.99843ZM15.6413 11.8691L16.1036 11.6782L16.0985 11.6665L15.6413 11.8691ZM15.5668 12.2966L15.9186 12.6519L15.9241 12.6464L15.9294 12.6408L15.5668 12.2966ZM14.0188 3.40607L17.8476 12.0563L18.762 11.6515L14.9332 3.00132L14.0188 3.40607ZM14.2053 3.5263C14.1174 3.534 14.0602 3.48434 14.0403 3.44902L14.9117 2.95836C14.758 2.68533 14.4584 2.50033 14.1181 2.53011L14.2053 3.5263ZM14.3435 3.43438C14.3322 3.46399 14.2908 3.51883 14.2053 3.5263L14.1181 2.53011C13.7804 2.55967 13.5188 2.79035 13.4091 3.078L14.3435 3.43438ZM13.5541 6.20922L14.3571 3.39331L13.3955 3.11907L12.5924 5.93498L13.5541 6.20922ZM11.3423 3.40665L12.6163 6.27506L13.5302 5.86915L12.2562 3.00074L11.3423 3.40665ZM11.5299 3.49912C11.4211 3.50912 11.3566 3.4408 11.3384 3.3976L12.2601 3.00978C12.1293 2.69882 11.8132 2.46885 11.4384 2.50332L11.5299 3.49912ZM11.6751 3.39986C11.6666 3.42808 11.6287 3.48832 11.5389 3.49821L11.4294 2.50422C11.0735 2.54343 10.81 2.80343 10.7172 3.11251L11.6751 3.39986ZM6.8255 20.6693L11.6775 3.39137L10.7148 3.12101L5.86274 20.399L6.8255 20.6693ZM6.78133 20.5441C6.80908 20.5651 6.822 20.5889 6.82738 20.6051C6.83279 20.6214 6.83349 20.6381 6.82944 20.6544L5.8588 20.4139C5.77632 20.7467 5.88665 21.1212 6.17797 21.3416L6.78133 20.5441ZM6.6446 20.5006C6.69147 20.497 6.73378 20.5106 6.7644 20.5319L6.1949 21.3538C6.34691 21.4592 6.53156 21.5122 6.7213 21.4976L6.6446 20.5006ZM6.53914 20.5591C6.57062 20.5263 6.62326 20.4984 6.68865 20.4991L6.67725 21.4991C6.90366 21.5016 7.11171 21.4066 7.26046 21.2517L6.53914 20.5591ZM9.34891 17.7578L6.5468 20.5513L7.2528 21.2595L10.0549 18.466L9.34891 17.7578ZM9.50577 20.6689L10.1834 18.2466L9.22041 17.9772L8.54275 20.3994L9.50577 20.6689ZM9.46226 20.5473C9.48944 20.5683 9.502 20.5919 9.5072 20.608C9.51244 20.6242 9.51306 20.6407 9.50891 20.6571L8.53961 20.4112C8.45556 20.7425 8.56292 21.116 8.85055 21.3384L9.46226 20.5473ZM9.33637 20.4991C9.37695 20.4994 9.41264 20.5123 9.43921 20.5305L8.87359 21.3552C9.00605 21.446 9.16366 21.4978 9.32881 21.4991L9.33637 20.4991ZM9.18878 20.5591C9.22027 20.5263 9.2729 20.4984 9.33829 20.4991L9.3269 21.4991C9.5533 21.5016 9.76136 21.4066 9.91011 21.2517L9.18878 20.5591ZM17.8779 11.9267L9.19705 20.5506L9.90183 21.2601L18.5826 12.6361L17.8779 11.9267ZM17.8427 12.0448C17.8352 12.0267 17.8342 12.0098 17.8368 11.9949C17.8393 11.9802 17.8472 11.9587 17.8676 11.9371L18.5929 12.6256C18.8395 12.3658 18.8989 11.9826 18.7669 11.663L17.8427 12.0448ZM15.4212 11.7253L12.0329 4.12867L11.1197 4.53602L14.5079 12.1326L15.4212 11.7253ZM7.68284 19.8543L15.3167 12.284L14.6125 11.5739L6.97869 19.1443L7.68284 19.8543ZM11.0948 4.19756L6.84927 19.3645L7.81226 19.6341L12.0578 4.46712L11.0948 4.19756ZM10.4746 19.634L11.1252 17.3055L10.162 17.0364L9.51149 19.3649L10.4746 19.634ZM17.2782 11.5703L9.64097 19.1444L10.3451 19.8545L17.9823 12.2804L17.2782 11.5703ZM13.7853 4.53242L17.1736 12.129L18.0869 11.7217L14.6986 4.12508L13.7853 4.53242ZM13.9882 7.08831L14.7234 4.46362L13.7605 4.19387L13.0252 6.81856L13.9882 7.08831ZM13.9029 7.26982C13.9282 7.23065 13.9498 7.18955 13.9677 7.14716L13.0458 6.75972C13.0503 6.74888 13.056 6.73791 13.0631 6.72704L13.9029 7.26982ZM16.0985 11.6665L13.9401 6.79587L13.0259 7.201L15.1842 12.0717L16.0985 11.6665ZM15.9294 12.6408C16.176 12.381 16.2355 11.9978 16.1035 11.6782L15.1792 12.06C15.1717 12.0419 15.1707 12.025 15.1733 12.0101C15.1759 11.9954 15.1837 11.9739 15.2042 11.9523L15.9294 12.6408ZM10.9954 17.5263L15.9186 12.6519L15.215 11.9412L10.2918 16.8157L10.9954 17.5263Z" fill="#691A1E"/>
</svg>
