<svg width="14" height="20" viewBox="0 0 14 20" fill="none" xmlns="http://www.w3.org/2000/svg">
<path d="M9.47797 1.20369L9.93519 1.00132L9.92545 0.979324L9.91365 0.958363L9.47797 1.20369ZM13.3067 9.85392L13.769 9.66298L13.764 9.65155L13.3067 9.85392ZM9.16369 1.02821L9.12009 0.530111L9.16369 1.02821ZM8.87825 1.25619L8.41107 1.078L8.40336 1.09824L8.39741 1.11907L8.87825 1.25619ZM8.07522 4.0721L7.61826 4.27506L8.17793 5.53515L8.55605 4.20922L8.07522 4.0721ZM6.80122 1.20369L6.34026 1.39764L6.34427 1.40665L6.80122 1.20369ZM6.48611 1.00122L6.44032 0.503237L6.43136 0.504224L6.48611 1.00122ZM6.19811 1.25619L5.71912 1.11249L5.71673 1.12101L6.19811 1.25619ZM1.34607 18.5341L0.864694 18.399L0.86261 18.4064L0.860755 18.4139L1.34607 18.5341ZM1.4816 18.9429L1.17993 19.3416L1.18826 19.3479L1.19686 19.3538L1.4816 18.9429ZM1.6849 18.9991L1.6906 18.4991L1.66854 18.4989L1.64655 18.5006L1.6849 18.9991ZM1.90175 18.9054L1.54866 18.5512L1.54109 18.5591L1.90175 18.9054ZM4.70387 16.1119L5.18538 16.2466L5.69779 14.4151L4.35087 15.7578L4.70387 16.1119ZM4.02621 18.5341L3.54456 18.3994L3.54156 18.4112L4.02621 18.5341ZM4.15835 18.9429L3.8525 19.3384L3.86378 19.3471L3.87555 19.3552L4.15835 18.9429ZM4.33455 18.9991L4.34024 18.4991L4.33833 18.4991L4.33455 18.9991ZM4.5514 18.9054L4.19891 18.5505L4.19073 18.5591L4.5514 18.9054ZM13.2322 10.2814L13.5846 10.6361L13.5898 10.6309L13.5948 10.6256L13.2322 10.2814ZM9.96654 9.92895L10.3186 10.284L10.5639 10.0407L10.4232 9.72528L9.96654 9.92895ZM6.57825 2.33234L7.03488 2.12867L6.47034 0.862952L6.09676 2.19756L6.57825 2.33234ZM2.33272 17.4993L1.85123 17.3645L1.34113 19.1868L2.68479 17.8543L2.33272 17.4993ZM4.995 17.4995L4.51345 17.3649L4.00472 19.1857L5.34709 17.8545L4.995 17.4995ZM5.64556 15.171L5.29377 14.8157L5.19964 14.9089L5.164 15.0364L5.64556 15.171ZM12.6322 9.92535L12.9843 10.2804L13.2296 10.0371L13.0889 9.72168L12.6322 9.92535ZM9.24392 2.32875L9.70056 2.12508L9.13619 0.859747L8.76246 2.19387L9.24392 2.32875ZM8.50866 4.95344L8.96961 5.14716L8.98171 5.11838L8.99013 5.08831L8.50866 4.95344ZM8.48494 4.99843L8.06501 4.72704L7.91835 4.95397L8.02782 5.201L8.48494 4.99843ZM10.6433 9.86911L11.1056 9.67817L11.1004 9.66654L10.6433 9.86911ZM10.5687 10.2966L10.9205 10.6519L10.926 10.6464L10.9314 10.6408L10.5687 10.2966ZM9.02076 1.40607L12.8495 10.0563L13.764 9.65155L9.93519 1.00132L9.02076 1.40607ZM9.20729 1.5263C9.11937 1.534 9.06219 1.48434 9.0423 1.44902L9.91365 0.958363C9.7599 0.685335 9.46032 0.50033 9.12009 0.530111L9.20729 1.5263ZM9.34542 1.43438C9.33412 1.46399 9.29271 1.51883 9.20729 1.5263L9.12009 0.530111C8.78237 0.559672 8.52079 0.790347 8.41107 1.078L9.34542 1.43438ZM8.55605 4.20922L9.35908 1.39331L8.39741 1.11907L7.59439 3.93498L8.55605 4.20922ZM6.34427 1.40665L7.61826 4.27506L8.53218 3.86915L7.25818 1.00074L6.34427 1.40665ZM6.5319 1.49912C6.42306 1.50912 6.35853 1.4408 6.34035 1.3976L7.26209 1.00978C7.13125 0.698825 6.81515 0.46885 6.44033 0.503318L6.5319 1.49912ZM6.67702 1.39986C6.66855 1.42808 6.63067 1.48832 6.54086 1.49821L6.43136 0.504224C6.07545 0.543434 5.81192 0.803429 5.71919 1.11251L6.67702 1.39986ZM1.82745 18.6693L6.67949 1.39137L5.71673 1.12101L0.864694 18.399L1.82745 18.6693ZM1.78328 18.5441C1.81103 18.5651 1.82395 18.5889 1.82933 18.6051C1.83474 18.6214 1.83544 18.6381 1.83139 18.6544L0.860755 18.4139C0.778275 18.7467 0.888599 19.1212 1.17993 19.3416L1.78328 18.5441ZM1.64655 18.5006C1.69342 18.497 1.73573 18.5106 1.76635 18.5319L1.19686 19.3538C1.34886 19.4592 1.53352 19.5122 1.72325 19.4976L1.64655 18.5006ZM1.54109 18.5591C1.57258 18.5263 1.62521 18.4984 1.6906 18.4991L1.6792 19.4991C1.90561 19.5016 2.11367 19.4066 2.26242 19.2517L1.54109 18.5591ZM4.35087 15.7578L1.54875 18.5513L2.25476 19.2595L5.05687 16.466L4.35087 15.7578ZM4.50772 18.6689L5.18538 16.2466L4.22236 15.9772L3.5447 18.3994L4.50772 18.6689ZM4.46421 18.5473C4.49139 18.5683 4.50395 18.5919 4.50916 18.608C4.51439 18.6242 4.51501 18.6407 4.51086 18.6571L3.54156 18.4112C3.45751 18.7425 3.56488 19.116 3.8525 19.3384L4.46421 18.5473ZM4.33833 18.4991C4.37891 18.4994 4.41459 18.5123 4.44116 18.5305L3.87555 19.3552C4.008 19.446 4.16561 19.4978 4.33076 19.4991L4.33833 18.4991ZM4.19073 18.5591C4.22222 18.5263 4.27486 18.4984 4.34024 18.4991L4.32885 19.4991C4.55526 19.5016 4.76331 19.4066 4.91206 19.2517L4.19073 18.5591ZM12.8798 9.92666L4.19901 18.5506L4.90379 19.2601L13.5846 10.6361L12.8798 9.92666ZM12.8446 10.0448C12.8371 10.0267 12.8361 10.0098 12.8387 9.99495C12.8413 9.98021 12.8491 9.95869 12.8696 9.93714L13.5948 10.6256C13.8414 10.3658 13.9009 9.98263 13.7689 9.66304L12.8446 10.0448ZM10.4232 9.72528L7.03488 2.12867L6.12161 2.53602L9.5099 10.1326L10.4232 9.72528ZM2.68479 17.8543L10.3186 10.284L9.61446 9.57392L1.98064 17.1443L2.68479 17.8543ZM6.09676 2.19756L1.85123 17.3645L2.81421 17.6341L7.05974 2.46712L6.09676 2.19756ZM5.47656 17.634L6.12711 15.3055L5.164 15.0364L4.51345 17.3649L5.47656 17.634ZM12.2801 9.57034L4.64292 17.1444L5.34709 17.8545L12.9843 10.2804L12.2801 9.57034ZM8.78728 2.53242L12.1756 10.129L13.0889 9.72168L9.70056 2.12508L8.78728 2.53242ZM8.99013 5.08831L9.72539 2.46362L8.76246 2.19387L8.0272 4.81856L8.99013 5.08831ZM8.90488 5.26982C8.9302 5.23065 8.95179 5.18955 8.96961 5.14716L8.04771 4.75972C8.05227 4.74888 8.05798 4.73791 8.06501 4.72704L8.90488 5.26982ZM11.1004 9.66654L8.94207 4.79587L8.02782 5.201L10.1862 10.0717L11.1004 9.66654ZM10.9314 10.6408C11.178 10.381 11.2374 9.99781 11.1054 9.67823L10.1812 10.06C10.1737 10.0419 10.1727 10.025 10.1752 10.0101C10.1778 9.99539 10.1857 9.97387 10.2061 9.95233L10.9314 10.6408ZM5.99735 15.5263L10.9205 10.6519L10.217 9.94125L5.29377 14.8157L5.99735 15.5263Z" fill="#691A1E"/>
</svg>
