<svg width="40" height="40" viewBox="0 0 40 40" fill="none" xmlns="http://www.w3.org/2000/svg">
    <rect width="40" height="40" rx="8" fill="#EDE0E3"/>
    <mask id="mask0_1690_5630" style="mask-type:alpha" maskUnits="userSpaceOnUse" x="4" y="5" width="32" height="32">
        <rect x="4" y="5" width="32" height="31.9024" fill="#D9D9D9"/>
    </mask>
    <g mask="url(#mask0_1690_5630)">
    </g>
    <path d="M11.8203 27.6778V28.8867C11.8203 29.2636 11.6831 29.584 11.4086 29.8478C11.1341 30.1117 10.8007 30.2436 10.4086 30.2436C10.0165 30.2436 9.68363 30.1117 9.41014 29.8478C9.13663 29.584 8.99988 29.2636 8.99988 28.8867V19.8372C8.99988 19.704 9.00886 19.5708 9.02681 19.4375C9.04477 19.3043 9.07497 19.1767 9.11741 19.0548L11.505 12.5592C11.6648 12.0972 11.9544 11.7218 12.3738 11.4331C12.7933 11.1443 13.2626 10.9999 13.7819 10.9999H26.8844C27.4037 10.9999 27.8731 11.1443 28.2925 11.4331C28.712 11.7218 29.0016 12.0972 29.1613 12.5592L31.5489 19.0548C31.5914 19.1767 31.6216 19.3043 31.6395 19.4375C31.6575 19.5708 31.6665 19.704 31.6665 19.8372V28.8867C31.6665 29.2636 31.5292 29.584 31.2547 29.8478C30.9802 30.1117 30.6469 30.2436 30.2547 30.2436C29.8626 30.2436 29.5298 30.1117 29.2563 29.8478C28.9828 29.584 28.846 29.2636 28.846 28.8867V27.6778H11.8203ZM11.8101 17.5132H28.8563L27.2768 13.1834C27.2426 13.1011 27.1913 13.0374 27.1229 12.9921C27.0545 12.9469 26.9733 12.9243 26.8793 12.9243H13.787C13.693 12.9243 13.6118 12.9469 13.5434 12.9921C13.4751 13.0374 13.4238 13.1011 13.3896 13.1834L11.8101 17.5132ZM14.2849 24.2731C14.7701 24.2731 15.1814 24.1098 15.519 23.783C15.8567 23.4562 16.0255 23.0594 16.0255 22.5926C16.0255 22.1258 15.8557 21.73 15.516 21.4051C15.1764 21.0803 14.764 20.9178 14.2789 20.9178C13.7937 20.9178 13.3823 21.0812 13.0447 21.408C12.7071 21.7348 12.5383 22.1316 12.5383 22.5984C12.5383 23.0652 12.7081 23.461 13.0477 23.7859C13.3874 24.1107 13.7998 24.2731 14.2849 24.2731ZM26.3875 24.2731C26.8726 24.2731 27.284 24.1098 27.6216 23.783C27.9592 23.4562 28.128 23.0594 28.128 22.5926C28.128 22.1258 27.9582 21.73 27.6186 21.4051C27.279 21.0803 26.8666 20.9178 26.3814 20.9178C25.8963 20.9178 25.4849 21.0812 25.1473 21.408C24.8097 21.7348 24.6409 22.1316 24.6409 22.5984C24.6409 23.0652 24.8107 23.461 25.1503 23.7859C25.4899 24.1107 25.9023 24.2731 26.3875 24.2731ZM10.9998 25.7534H29.6665V19.4375H10.9998V25.7534Z" fill="#691A1E"/>
</svg>
