<svg width="20" height="16" viewBox="0 0 20 16" fill="none" xmlns="http://www.w3.org/2000/svg">
<path d="M15.8654 8.73073C16.0782 8.73073 16.2564 8.65893 16.4 8.51535C16.5435 8.37177 16.6153 8.19357 16.6153 7.98075C16.6153 7.76793 16.5435 7.58973 16.4 7.44615C16.2564 7.30255 16.0782 7.23075 15.8654 7.23075H12.8269C12.6141 7.23075 12.4359 7.30255 12.2923 7.44615C12.1487 7.58973 12.0769 7.76793 12.0769 7.98075C12.0769 8.19357 12.1487 8.37177 12.2923 8.51535C12.4359 8.65893 12.6141 8.73073 12.8269 8.73073H15.8654ZM15.8654 5.84613C16.0782 5.84613 16.2564 5.77433 16.4 5.63075C16.5435 5.48715 16.6153 5.30894 16.6153 5.09613C16.6153 4.88333 16.5435 4.70512 16.4 4.56152C16.2564 4.41794 16.0782 4.34615 15.8654 4.34615H12.8269C12.6141 4.34615 12.4359 4.41794 12.2923 4.56152C12.1487 4.70512 12.0769 4.88333 12.0769 5.09613C12.0769 5.30894 12.1487 5.48715 12.2923 5.63075C12.4359 5.77433 12.6141 5.84613 12.8269 5.84613H15.8654ZM7.03845 9.15383C6.46408 9.15383 5.96088 9.19998 5.52883 9.2923C5.09678 9.3846 4.71345 9.53139 4.37885 9.73268C4.07372 9.91088 3.84231 10.1102 3.68463 10.3308C3.52693 10.5513 3.44808 10.7878 3.44808 11.0404C3.44808 11.2147 3.51507 11.3605 3.64905 11.4778C3.78302 11.5951 3.94872 11.6538 4.14615 11.6538H9.93073C10.1282 11.6538 10.2939 11.591 10.4278 11.4653C10.5618 11.3397 10.6288 11.1846 10.6288 11C10.6288 10.7743 10.5516 10.5554 10.3971 10.3433C10.2426 10.1311 10.0096 9.92754 9.69803 9.73268C9.36343 9.53139 8.9801 9.3846 8.54805 9.2923C8.116 9.19998 7.6128 9.15383 7.03845 9.15383ZM7.03845 7.84613C7.52433 7.84613 7.93747 7.67593 8.27785 7.33555C8.61823 6.99517 8.78843 6.58203 8.78843 6.09613C8.78843 5.61024 8.61823 5.19711 8.27785 4.85673C7.93747 4.51634 7.52433 4.34615 7.03845 4.34615C6.55255 4.34615 6.13941 4.51634 5.79903 4.85673C5.45864 5.19711 5.28845 5.61024 5.28845 6.09613C5.28845 6.58203 5.45864 6.99517 5.79903 7.33555C6.13941 7.67593 6.55255 7.84613 7.03845 7.84613ZM2.3077 15.5C1.80257 15.5 1.375 15.325 1.025 14.975C0.675 14.625 0.5 14.1974 0.5 13.6923V2.3077C0.5 1.80257 0.675 1.375 1.025 1.025C1.375 0.675 1.80257 0.5 2.3077 0.5H17.6923C18.1974 0.5 18.625 0.675 18.975 1.025C19.325 1.375 19.5 1.80257 19.5 2.3077V13.6923C19.5 14.1974 19.325 14.625 18.975 14.975C18.625 15.325 18.1974 15.5 17.6923 15.5H2.3077ZM2.3077 14H17.6923C17.7692 14 17.8397 13.9679 17.9038 13.9038C17.9679 13.8397 18 13.7692 18 13.6923V2.3077C18 2.23077 17.9679 2.16024 17.9038 2.09613C17.8397 2.03203 17.7692 1.99998 17.6923 1.99998H2.3077C2.23077 1.99998 2.16024 2.03203 2.09613 2.09613C2.03202 2.16024 1.99998 2.23077 1.99998 2.3077V13.6923C1.99998 13.7692 2.03202 13.8397 2.09613 13.9038C2.16024 13.9679 2.23077 14 2.3077 14Z" fill="#691A1E"/>
</svg>
