<svg width="14" height="12" viewBox="0 0 14 12" fill="none" xmlns="http://www.w3.org/2000/svg">
<path d="M1.28362 11.6666C1.17062 11.6666 1.06913 11.639 0.979168 11.5838C0.889201 11.5285 0.819229 11.4557 0.769251 11.3654C0.717262 11.2756 0.688668 11.1784 0.683468 11.0737C0.678268 10.969 0.706518 10.8653 0.768218 10.7626L6.47538 0.904083C6.53708 0.801394 6.6143 0.725478 6.70703 0.676334C6.79977 0.627178 6.89742 0.6026 6.99998 0.6026C7.10255 0.6026 7.2002 0.627178 7.29293 0.676334C7.38567 0.725478 7.46288 0.801394 7.52458 0.904083L13.2317 10.7626C13.2934 10.8653 13.3217 10.969 13.3165 11.0737C13.3113 11.1784 13.2827 11.2756 13.2307 11.3654C13.1807 11.4557 13.1108 11.5285 13.0208 11.5838C12.9308 11.639 12.8293 11.6666 12.7163 11.6666H1.28362ZM1.96665 10.6667H12.0333L6.99998 2L1.96665 10.6667ZM6.99998 9.87178C7.15255 9.87178 7.28043 9.82018 7.38363 9.71698C7.48683 9.61378 7.53843 9.4859 7.53843 9.33333C7.53843 9.18077 7.48683 9.05288 7.38363 8.94968C7.28043 8.84648 7.15255 8.79488 6.99998 8.79488C6.84742 8.79488 6.71953 8.84648 6.61633 8.94968C6.51313 9.05288 6.46153 9.18077 6.46153 9.33333C6.46153 9.4859 6.51313 9.61378 6.61633 9.71698C6.71953 9.82018 6.84742 9.87178 6.99998 9.87178ZM7.0002 8.12822C7.14193 8.12822 7.26066 8.0803 7.35638 7.98447C7.45211 7.88863 7.49997 7.76989 7.49997 7.62823V5.29487C7.49997 5.1532 7.45203 5.03445 7.35617 4.93863C7.26029 4.8428 7.14149 4.79488 6.99977 4.79488C6.85803 4.79488 6.73931 4.8428 6.64358 4.93863C6.54786 5.03445 6.5 5.1532 6.5 5.29487V7.62823C6.5 7.76989 6.54793 7.88863 6.6438 7.98447C6.73968 8.0803 6.85848 8.12822 7.0002 8.12822Z" fill="#E68600"/>
</svg>
