<svg width="56" height="56" viewBox="0 0 56 56" fill="none" xmlns="http://www.w3.org/2000/svg">
<mask id="mask0_2298_22252" style="mask-type:alpha" maskUnits="userSpaceOnUse" x="0" y="0" width="56" height="56">
<rect width="56" height="56" fill="#D9D9D9"/>
</mask>
<g mask="url(#mask0_2298_22252)">
<g clip-path="url(#clip0_2298_22252)">
<path d="M43.7863 45.7665L24.9557 26.9893C23.4065 27.1763 21.9108 27.577 20.4951 28.1913C19.0795 28.8056 17.7707 29.5535 16.5687 30.4884C16.1414 30.8089 15.6606 30.9692 15.1264 30.9692C14.5922 30.9692 14.1381 30.7555 13.7909 30.4082C13.4437 30.061 13.2834 29.6336 13.3101 29.1262C13.3368 28.6187 13.5505 28.218 13.9779 27.8975C15.0997 26.9626 16.3551 26.1613 17.7173 25.4402C19.0795 24.7457 20.4951 24.2382 21.9909 23.9444L14.3518 16.3053C13.1499 16.8395 11.9479 17.5073 10.6658 18.3086C9.41044 19.1099 8.2352 19.9913 7.14008 20.9529C6.68601 21.3001 6.20523 21.4604 5.69774 21.4871C5.19025 21.4871 4.73618 21.3268 4.38895 20.9796C4.04171 20.6323 3.88145 20.205 3.93487 19.6975C3.96158 19.19 4.17526 18.7626 4.57592 18.4154C5.69774 17.4271 6.84627 16.519 8.04823 15.7177C9.25018 14.9164 10.4521 14.2219 11.6541 13.6076L9.94464 11.8982C9.62412 11.5776 9.49057 11.2571 9.46386 10.8832C9.46386 10.5092 9.62412 10.162 9.94464 9.84148C10.2385 9.49424 10.5857 9.33398 10.9329 9.33398C11.3069 9.33398 11.6541 9.49424 11.9746 9.81477L45.8697 43.7099C46.1902 44.0304 46.3238 44.3509 46.2971 44.7516C46.2971 45.1255 46.1101 45.4727 45.8163 45.7932C45.4958 46.1138 45.1752 46.2473 44.8013 46.2473C44.4274 46.2473 44.1068 46.0871 43.7863 45.7932V45.7665ZM28.5349 44.431C27.3596 44.431 26.3446 44.0304 25.5166 43.2024C24.6886 42.3744 24.2612 41.3594 24.2612 40.1574C24.2612 38.9822 24.6886 37.9672 25.5166 37.1392C26.3446 36.3112 27.3596 35.8838 28.5349 35.8838C29.7101 35.8838 30.7251 36.3112 31.5531 37.1392C32.3811 37.9672 32.8085 38.9822 32.8085 40.1574C32.8085 41.3327 32.3811 42.3744 31.5531 43.2024C30.7251 44.0304 29.7101 44.431 28.5349 44.431ZM43.3055 30.3014C42.9583 30.6486 42.5309 30.8356 41.9967 30.8623C41.4625 30.8623 40.9818 30.7822 40.5277 30.5418C39.8332 30.061 39.112 29.6336 38.3909 29.2597C37.6697 28.8858 36.9218 28.5652 36.1205 28.2981L31.2326 23.4102C33.2893 23.4636 35.3459 23.8643 37.3759 24.6122C39.4059 25.36 41.329 26.4017 43.0919 27.7372C43.5459 28.031 43.7596 28.4584 43.7863 28.9659C43.7863 29.4734 43.6528 29.9275 43.3055 30.2747V30.3014ZM52.7609 20.9262C52.387 21.3001 51.9329 21.4604 51.3987 21.4337C50.8645 21.4337 50.3837 21.22 49.9563 20.8727C47.0182 18.3887 43.7329 16.4656 40.127 15.0767C36.4945 13.6877 32.6482 12.9933 28.5349 12.9933C27.3596 12.9933 26.1577 13.0467 24.9824 13.1802C23.7805 13.3138 22.6586 13.5008 21.5902 13.7679L18.5987 10.7763C20.0411 10.3223 21.5902 9.97503 23.2463 9.70793C24.8756 9.46753 26.6652 9.33398 28.5349 9.33398C33.129 9.33398 37.456 10.1086 41.4892 11.6845C45.5492 13.2604 49.2085 15.4506 52.4938 18.2552C52.8945 18.5757 53.1348 19.003 53.1883 19.5372C53.2417 20.0714 53.1081 20.4988 52.7609 20.846V20.9262Z" fill="#D3B9BD"/>
</g>
</g>
<defs>
<clipPath id="clip0_2298_22252">
<rect width="49.3335" height="36.9133" fill="white" transform="translate(3.88184 9.33398)"/>
</clipPath>
</defs>
</svg>
