<svg width="17" height="16" viewBox="0 0 17 16" fill="none" xmlns="http://www.w3.org/2000/svg">
<mask id="mask0_1802_19299" style="mask-type:alpha" maskUnits="userSpaceOnUse" x="0" y="0" width="17" height="16">
<rect width="16.9838" height="16" fill="#D9D9D9"/>
</mask>
<g mask="url(#mask0_1802_19299)">
<path d="M11.4278 5.20252L4.82342 11.4179C4.72543 11.5102 4.60227 11.5553 4.45395 11.5532C4.30561 11.551 4.18246 11.5038 4.08448 11.4115C3.98649 11.3192 3.9375 11.2043 3.9375 11.0667C3.9375 10.9291 3.98649 10.8141 4.08448 10.7218L10.6821 4.49997H4.88194C4.73156 4.49997 4.60551 4.45203 4.50379 4.35617C4.40207 4.26029 4.35122 4.14149 4.35122 3.99977C4.35122 3.85803 4.40207 3.73931 4.50379 3.64358C4.60551 3.54786 4.73156 3.5 4.88194 3.5H11.8497C12.0309 3.5 12.1828 3.55775 12.3054 3.67323C12.428 3.78872 12.4893 3.93183 12.4893 4.10255V10.6667C12.4893 10.8083 12.4384 10.9271 12.3366 11.0229C12.2348 11.1187 12.1087 11.1666 11.9583 11.1666C11.8078 11.1666 11.6818 11.1187 11.5802 11.0229C11.4786 10.9271 11.4278 10.8083 11.4278 10.6667V5.20252Z" fill="#F6BBC5"/>
</g>
</svg>
