<svg width="14" height="17" viewBox="0 0 14 17" fill="none" xmlns="http://www.w3.org/2000/svg">
<path d="M6.92185 14.4615L2.95262 16.1653C2.35007 16.423 1.77765 16.3736 1.23535 16.0172C0.693033 15.6608 0.421875 15.1595 0.421875 14.5134V2.3077C0.421875 1.80257 0.596875 1.375 0.946875 1.025C1.29688 0.675 1.72444 0.5 2.22957 0.5H11.6141C12.1193 0.5 12.5468 0.675 12.8968 1.025C13.2468 1.375 13.4218 1.80257 13.4218 2.3077V14.5134C13.4218 15.1595 13.1507 15.6608 12.6084 16.0172C12.0661 16.3736 11.4936 16.423 10.8911 16.1653L6.92185 14.4615ZM6.92185 12.8L11.4891 14.7673C11.5917 14.8121 11.6895 14.8025 11.7824 14.7384C11.8754 14.6743 11.9219 14.5878 11.9219 14.4788V2.3077C11.9219 2.23077 11.8898 2.16024 11.8257 2.09613C11.7616 2.03203 11.6911 1.99998 11.6141 1.99998H2.22957C2.15264 1.99998 2.08212 2.03203 2.018 2.09613C1.9539 2.16024 1.92185 2.23077 1.92185 2.3077V14.4788C1.92185 14.5878 1.96832 14.6743 2.06128 14.7384C2.15424 14.8025 2.25201 14.8121 2.35457 14.7673L6.92185 12.8Z" fill="#E31837"/>
</svg>
