<svg width="24" height="24" viewBox="0 0 24 24" fill="none" xmlns="http://www.w3.org/2000/svg">
<mask id="mask0_344_365" style="mask-type:alpha" maskUnits="userSpaceOnUse" x="0" y="0" width="24" height="24">
<rect width="24" height="24" fill="#D9D9D9"/>
</mask>
<g mask="url(#mask0_344_365)">
<path d="M6.03845 17.5L4.03655 19.5019C3.75193 19.7865 3.42469 19.8509 3.05483 19.6951C2.68494 19.5393 2.5 19.2589 2.5 18.8538V4.3077C2.5 3.80257 2.675 3.375 3.025 3.025C3.375 2.675 3.80257 2.5 4.3077 2.5H19.6923C20.1974 2.5 20.625 2.675 20.975 3.025C21.325 3.375 21.5 3.80257 21.5 4.3077V15.6923C21.5 16.1974 21.325 16.625 20.975 16.975C20.625 17.325 20.1974 17.5 19.6923 17.5H6.03845ZM5.4 16H19.6923C19.7692 16 19.8397 15.9679 19.9038 15.9038C19.9679 15.8397 20 15.7692 20 15.6923V4.3077C20 4.23077 19.9679 4.16024 19.9038 4.09613C19.8397 4.03203 19.7692 3.99998 19.6923 3.99998H4.3077C4.23077 3.99998 4.16024 4.03203 4.09613 4.09613C4.03202 4.16024 3.99998 4.23077 3.99998 4.3077V17.3846L5.4 16ZM6.99998 13.75H13C13.2128 13.75 13.391 13.6782 13.5346 13.5346C13.6782 13.391 13.75 13.2128 13.75 13C13.75 12.7872 13.6782 12.609 13.5346 12.4654C13.391 12.3218 13.2128 12.25 13 12.25H6.99998C6.78716 12.25 6.60896 12.3218 6.46538 12.4654C6.32179 12.609 6.25 12.7872 6.25 13C6.25 13.2128 6.32179 13.391 6.46538 13.5346C6.60896 13.6782 6.78716 13.75 6.99998 13.75ZM6.99998 10.75H17C17.2128 10.75 17.391 10.6782 17.5346 10.5346C17.6782 10.391 17.75 10.2128 17.75 9.99998C17.75 9.78716 17.6782 9.60896 17.5346 9.46538C17.391 9.32179 17.2128 9.25 17 9.25H6.99998C6.78716 9.25 6.60896 9.32179 6.46538 9.46538C6.32179 9.60896 6.25 9.78716 6.25 9.99998C6.25 10.2128 6.32179 10.391 6.46538 10.5346C6.60896 10.6782 6.78716 10.75 6.99998 10.75ZM6.99998 7.74995H17C17.2128 7.74995 17.391 7.67816 17.5346 7.53457C17.6782 7.39099 17.75 7.21279 17.75 6.99998C17.75 6.78716 17.6782 6.60896 17.5346 6.46538C17.391 6.32179 17.2128 6.25 17 6.25H6.99998C6.78716 6.25 6.60896 6.32179 6.46538 6.46538C6.32179 6.60896 6.25 6.78716 6.25 6.99998C6.25 7.21279 6.32179 7.39099 6.46538 7.53457C6.60896 7.67816 6.78716 7.74995 6.99998 7.74995Z" fill="#E31837"/>
</g>
</svg>
