<svg width="16" height="16" viewBox="0 0 16 16" fill="none" xmlns="http://www.w3.org/2000/svg">
<g id="delete">
<mask id="mask0_3061_6474" style="mask-type:alpha" maskUnits="userSpaceOnUse" x="0" y="0" width="16" height="16">
<rect id="Bounding box" width="16" height="16" fill="white"/>
</mask>
<g mask="url(#mask0_3061_6474)">
<path id="delete_2" d="M4.8718 13.6704C4.54039 13.6704 4.25668 13.5524 4.02068 13.3164C3.78467 13.0804 3.66667 12.7967 3.66667 12.4653V4.00378H3.5C3.35833 4.00378 3.23958 3.95584 3.14375 3.85996C3.04792 3.7641 3 3.6453 3 3.50356C3 3.36184 3.04792 3.24312 3.14375 3.1474C3.23958 3.05166 3.35833 3.0038 3.5 3.0038H5.99998C5.99998 2.84055 6.05746 2.70145 6.17242 2.5865C6.28737 2.47154 6.42647 2.41406 6.58972 2.41406H9.41025C9.57349 2.41406 9.71259 2.47154 9.82755 2.5865C9.94251 2.70145 9.99998 2.84055 9.99998 3.0038H12.5C12.6416 3.0038 12.7604 3.05173 12.8562 3.14761C12.9521 3.24349 13 3.36229 13 3.50401C13 3.64575 12.9521 3.76447 12.8562 3.8602C12.7604 3.95592 12.6416 4.00378 12.5 4.00378H12.3333V12.4653C12.3333 12.7967 12.2153 13.0804 11.9793 13.3164C11.7433 13.5524 11.4596 13.6704 11.1282 13.6704H4.8718ZM11.3333 4.00378H4.66665V12.4653C4.66665 12.5251 4.68588 12.5743 4.72435 12.6127C4.76282 12.6512 4.81197 12.6704 4.8718 12.6704H11.1282C11.188 12.6704 11.2372 12.6512 11.2756 12.6127C11.3141 12.5743 11.3333 12.5251 11.3333 12.4653V4.00378ZM6.76945 11.3371C6.91117 11.3371 7.02989 11.2892 7.12562 11.1934C7.22135 11.0975 7.26922 10.9788 7.26922 10.8371V5.8371C7.26922 5.69544 7.22128 5.5767 7.1254 5.48086C7.02952 5.38503 6.91072 5.33711 6.769 5.33711C6.62727 5.33711 6.50854 5.38503 6.41282 5.48086C6.31709 5.5767 6.26923 5.69544 6.26923 5.8371V10.8371C6.26923 10.9788 6.31717 11.0975 6.41305 11.1934C6.50892 11.2892 6.62772 11.3371 6.76945 11.3371ZM9.23097 11.3371C9.3727 11.3371 9.49143 11.2892 9.58715 11.1934C9.68287 11.0975 9.73073 10.9788 9.73073 10.8371V5.8371C9.73073 5.69544 9.68279 5.5767 9.58692 5.48086C9.49105 5.38503 9.37225 5.33711 9.23052 5.33711C9.08879 5.33711 8.97007 5.38503 8.87435 5.48086C8.77862 5.5767 8.73075 5.69544 8.73075 5.8371V10.8371C8.73075 10.9788 8.77869 11.0975 8.87457 11.1934C8.97044 11.2892 9.08924 11.3371 9.23097 11.3371Z" fill="#E31837"/>
</g>
</g>
</svg>
