<svg width="20" height="16" viewBox="0 0 20 16" fill="none" xmlns="http://www.w3.org/2000/svg">
<path d="M2.3077 15.5C1.80257 15.5 1.375 15.325 1.025 14.975C0.675 14.625 0.5 14.1974 0.5 13.6923V2.30773C0.5 1.8026 0.675 1.37503 1.025 1.02503C1.375 0.675031 1.80257 0.500031 2.3077 0.500031H17.6923C18.1974 0.500031 18.625 0.675031 18.975 1.02503C19.325 1.37503 19.5 1.8026 19.5 2.30773V13.6923C19.5 14.1974 19.325 14.625 18.975 14.975C18.625 15.325 18.1974 15.5 17.6923 15.5H2.3077ZM18 3.44228L10.4865 8.25191C10.4096 8.29549 10.3301 8.32978 10.2481 8.35478C10.166 8.37978 10.0833 8.39228 9.99998 8.39228C9.91664 8.39228 9.83395 8.37978 9.7519 8.35478C9.66985 8.32978 9.59037 8.29549 9.51345 8.25191L1.99998 3.44228V13.6923C1.99998 13.782 2.02883 13.8558 2.08653 13.9135C2.14423 13.9712 2.21795 14 2.3077 14H17.6923C17.782 14 17.8557 13.9712 17.9134 13.9135C17.9711 13.8558 18 13.782 18 13.6923V3.44228ZM9.99998 7.00001L17.8461 2.00001H2.15383L9.99998 7.00001ZM1.99998 3.67303V2.52981V2.55961V2.52788V3.67303Z" fill="#691A1E"/>
</svg>
