<svg width="20" height="20" viewBox="0 0 20 20" fill="none" xmlns="http://www.w3.org/2000/svg">
<path d="M9.85402 14.7308C10.0815 14.7308 10.2721 14.6534 10.426 14.4986C10.5799 14.3437 10.6568 14.1519 10.6568 13.9231C10.6568 13.6942 10.5799 13.5024 10.426 13.3476C10.2721 13.1928 10.0815 13.1154 9.85402 13.1154C9.62656 13.1154 9.4359 13.1928 9.28203 13.3476C9.12817 13.5024 9.05124 13.6942 9.05124 13.9231C9.05124 14.1519 9.12817 14.3437 9.28203 14.4986C9.4359 14.6534 9.62656 14.7308 9.85402 14.7308ZM9.85434 11.0769C10.0657 11.0769 10.2427 11.0051 10.3854 10.8613C10.5281 10.7176 10.5995 10.5395 10.5995 10.327V5.82691C10.5995 5.61442 10.528 5.43631 10.3851 5.29256C10.2421 5.14881 10.065 5.07693 9.8537 5.07693C9.64239 5.07693 9.46537 5.14881 9.32266 5.29256C9.17995 5.43631 9.10859 5.61442 9.10859 5.82691V10.327C9.10859 10.5395 9.18006 10.7176 9.32298 10.8613C9.46593 11.0051 9.64305 11.0769 9.85434 11.0769ZM9.85569 19.5C8.54972 19.5 7.32217 19.2506 6.17304 18.752C5.0239 18.2533 4.02431 17.5766 3.17428 16.7217C2.32423 15.8669 1.65127 14.8616 1.15541 13.706C0.659551 12.5504 0.411621 11.3156 0.411621 10.0017C0.411621 8.68775 0.659443 7.45271 1.15509 6.29658C1.65073 5.14043 2.32338 4.13475 3.17303 3.27953C4.0227 2.4243 5.02185 1.74724 6.17048 1.24836C7.3191 0.749473 8.54639 0.500031 9.85236 0.500031C11.1583 0.500031 12.3859 0.749365 13.535 1.24803C14.6841 1.7467 15.6837 2.42345 16.5338 3.27828C17.3838 4.13313 18.0568 5.13837 18.5526 6.29401C19.0485 7.44962 19.2964 8.6844 19.2964 9.99833C19.2964 11.3123 19.0486 12.5473 18.553 13.7034C18.0573 14.8596 17.3847 15.8653 16.535 16.7205C15.6853 17.5757 14.6862 18.2528 13.5376 18.7517C12.3889 19.2505 11.1617 19.5 9.85569 19.5ZM9.85402 18C12.0738 18 13.954 17.225 15.4946 15.675C17.0352 14.125 17.8055 12.2333 17.8055 10C17.8055 7.76667 17.0352 5.87501 15.4946 4.32501C13.954 2.77501 12.0738 2.00001 9.85402 2.00001C7.63422 2.00001 5.75402 2.77501 4.21341 4.32501C2.67281 5.87501 1.90251 7.76667 1.90251 10C1.90251 12.2333 2.67281 14.125 4.21341 15.675C5.75402 17.225 7.63422 18 9.85402 18Z" fill="#691A1E"/>
</svg>
