<svg width="16" height="16" viewBox="0 0 16 16" fill="none" xmlns="http://www.w3.org/2000/svg">
<g id="file_copy">
<mask id="mask0_745_2725" style="mask-type:alpha" maskUnits="userSpaceOnUse" x="0" y="0" width="16" height="16">
<rect id="Bounding box" width="16" height="16" fill="#D9D9D9"/>
</mask>
<g mask="url(#mask0_745_2725)">
<path id="file_copy_2" d="M12.4608 12.3333H5.53782C5.20106 12.3333 4.91602 12.2166 4.68268 11.9833C4.44935 11.75 4.33268 11.4649 4.33268 11.1282V2.20513C4.33268 1.86838 4.44935 1.58333 4.68268 1.35C4.91602 1.11667 5.20106 1 5.53782 1H9.6673C9.82798 1 9.98246 1.0312 10.1308 1.0936C10.279 1.15599 10.4079 1.24188 10.5173 1.35128L13.3147 4.14868C13.4241 4.2581 13.51 4.38694 13.5724 4.53523C13.6348 4.68352 13.666 4.83801 13.666 4.99868V11.1282C13.666 11.4649 13.5493 11.75 13.316 11.9833C13.0827 12.2166 12.7976 12.3333 12.4608 12.3333ZM12.666 4.99997H10.4737C10.2472 4.99997 10.056 4.92197 9.9 4.76598C9.74401 4.61001 9.66602 4.41877 9.66602 4.19228V1.99998H5.53782C5.48653 1.99998 5.43951 2.02135 5.39677 2.06408C5.35403 2.10683 5.33267 2.15385 5.33267 2.20513V11.1282C5.33267 11.1795 5.35403 11.2265 5.39677 11.2692C5.43951 11.312 5.48653 11.3333 5.53782 11.3333H12.4608C12.5121 11.3333 12.5592 11.312 12.6019 11.2692C12.6446 11.2265 12.666 11.1795 12.666 11.1282V4.99997ZM2.87115 15C2.53439 15 2.24935 14.8833 2.01602 14.65C1.78268 14.4166 1.66602 14.1316 1.66602 13.7948V5.5C1.66602 5.35812 1.71388 5.23932 1.80962 5.1436C1.90534 5.04787 2.02414 5 2.16602 5C2.30789 5 2.42669 5.04787 2.52242 5.1436C2.61814 5.23932 2.666 5.35812 2.666 5.5V13.7948C2.666 13.8461 2.68737 13.8931 2.7301 13.9359C2.77284 13.9786 2.81986 14 2.87115 14H9.16598C9.30786 14 9.42666 14.0478 9.52238 14.1436C9.61812 14.2393 9.66598 14.3581 9.66598 14.5C9.66598 14.6419 9.61812 14.7607 9.52238 14.8564C9.42666 14.9521 9.30786 15 9.16598 15L2.87115 15Z" fill="#691A1E"/>
</g>
</g>
</svg>
