<svg width="64" height="32" viewBox="0 0 64 32" fill="none" xmlns="http://www.w3.org/2000/svg">
<mask id="mask0_1739_478" style="mask-type:alpha" maskUnits="userSpaceOnUse" x="20" y="4" width="24" height="24">
<rect x="20" y="4" width="24" height="24" fill="#D9D9D9"/>
</mask>
<g mask="url(#mask0_1739_478)">
<path d="M33.7499 16.7116C33.0512 16.7116 32.4599 16.4696 31.9759 15.9856C31.492 15.5017 31.25 14.9103 31.25 14.2116C31.25 13.5129 31.492 12.9216 31.9759 12.4376C32.4599 11.9536 33.0512 11.7117 33.7499 11.7117C34.4487 11.7117 35.04 11.9536 35.524 12.4376C36.0079 12.9216 36.2499 13.5129 36.2499 14.2116C36.2499 14.9103 36.0079 15.5017 35.524 15.9856C35.04 16.4696 34.4487 16.7116 33.7499 16.7116ZM27.1538 19.8077C26.6567 19.8077 26.2312 19.6307 25.8771 19.2767C25.5231 18.9227 25.3461 18.4972 25.3461 18.0001V10.4232C25.3461 9.92605 25.5231 9.50049 25.8771 9.14648C26.2312 8.79248 26.6567 8.61548 27.1538 8.61548H40.3461C40.8432 8.61548 41.2687 8.79248 41.6227 9.14648C41.9767 9.50049 42.1537 9.92605 42.1537 10.4232V18.0001C42.1537 18.4972 41.9767 18.9227 41.6227 19.2767C41.2687 19.6307 40.8432 19.8077 40.3461 19.8077H27.1538ZM28.6538 18.3078H38.8461C38.8461 17.8091 39.0231 17.3831 39.3771 17.0299C39.7311 16.6767 40.1567 16.5001 40.6538 16.5001V11.9231C40.1551 11.9231 39.7291 11.7461 39.3759 11.3921C39.0227 11.0381 38.8461 10.6126 38.8461 10.1155H28.6538C28.6538 10.6142 28.4768 11.0401 28.1228 11.3933C27.7688 11.7465 27.3432 11.9231 26.8461 11.9231V16.5001C27.3448 16.5001 27.7708 16.6771 28.124 17.0311C28.4772 17.3851 28.6538 17.8107 28.6538 18.3078ZM38.423 23.3077H23.6539C23.1567 23.3077 22.7312 23.1307 22.3772 22.7767C22.0232 22.4227 21.8462 21.9971 21.8462 21.5V12.3462C21.8462 12.1337 21.9181 11.9556 22.0619 11.8119C22.2057 11.6681 22.3839 11.5963 22.5965 11.5963C22.8091 11.5963 22.9872 11.6681 23.1308 11.8119C23.2743 11.9556 23.3461 12.1337 23.3461 12.3462V21.5C23.3461 21.5769 23.3782 21.6475 23.4423 21.7116C23.5064 21.7757 23.5769 21.8077 23.6539 21.8077H38.423C38.6355 21.8077 38.8136 21.8796 38.9574 22.0235C39.1011 22.1673 39.173 22.3455 39.173 22.5581C39.173 22.7706 39.1011 22.9487 38.9574 23.0923C38.8136 23.2359 38.6355 23.3077 38.423 23.3077ZM27.1538 18.3078H26.8461V10.1155H27.1538C27.0705 10.1155 26.9984 10.1459 26.9375 10.2068C26.8766 10.2677 26.8461 10.3398 26.8461 10.4232V18.0001C26.8461 18.0834 26.8766 18.1555 26.9375 18.2164C26.9984 18.2773 27.0705 18.3078 27.1538 18.3078Z" fill="#A1626B"/>
</g>
</svg>
