<svg width="44" height="44" viewBox="0 0 44 44" fill="none" xmlns="http://www.w3.org/2000/svg">
<ellipse cx="22.386" cy="20.7303" rx="18.9057" ry="18.466" fill="#D9D9D9"/>
<path d="M-8.47493e-07 22C-3.79369e-07 34.152 9.73491 44 21.7474 44C33.7598 44 43.4947 34.152 43.4947 22C43.4947 9.84807 33.7598 9.07046e-05 21.7474 9.13004e-05C9.7349 9.18962e-05 -1.31562e-06 9.84807 -8.47493e-07 22ZM33.1351 22.736C32.8583 23.176 32.5894 23.656 32.281 24.08C31.8935 24.616 31.4664 25.152 31.0078 25.632C30.8417 25.832 30.3356 26.296 30.1379 26.48C29.8057 26.8 29.3945 27.096 29.0307 27.384C28.6353 27.648 28.2478 27.936 27.8287 28.168C27.6468 28.272 27.2909 28.472 27.1091 28.568C22.1111 31.088 15.9428 30.464 11.2533 27.592C11.016 27.44 10.8104 27.304 10.5732 27.128C9.86144 26.568 10.4466 25.464 11.3007 25.752C15.5157 26.976 20.0708 27.816 24.3729 26.624C27.3305 25.792 29.7583 24.032 31.9251 21.776C32.5815 21.128 33.5937 21.928 33.143 22.728L33.1351 22.736ZM20.7351 14.1041C21.5892 14.3441 21.692 16.6721 21.7078 19.3441C21.692 22.024 21.5892 24.344 20.7351 24.584C19.9048 24.832 18.5287 22.512 18.5287 19.3441C18.5287 16.1681 19.8969 13.8481 20.7351 14.1041ZM13.1828 13.8641C14.0369 14.1041 14.1635 16.3601 14.1793 18.9441C14.1635 21.528 14.0369 23.784 13.1828 24.024C12.3525 24.272 10.9923 22.024 11.0002 18.9441C11.0002 15.8641 12.3525 13.6161 13.1828 13.8641Z" fill="#49454F"/>
</svg>
