<svg width="24" height="24" viewBox="0 0 24 24" fill="none" xmlns="http://www.w3.org/2000/svg">
<mask id="mask0_1_2704" style="mask-type:alpha" maskUnits="userSpaceOnUse" x="0" y="0" width="24" height="24">
<rect width="24" height="24" fill="#D9D9D9"/>
</mask>
<g mask="url(#mask0_1_2704)">
<path d="M11.25 8.10764L7.92689 11.4307C7.78844 11.5692 7.6144 11.64 7.40479 11.6432C7.19519 11.6464 7.01795 11.5756 6.87309 11.4307C6.7282 11.2859 6.65576 11.1102 6.65576 10.9038C6.65576 10.6974 6.7282 10.5218 6.87309 10.3769L11.3673 5.88269C11.5481 5.70193 11.759 5.61154 12 5.61154C12.241 5.61154 12.4519 5.70193 12.6327 5.88269L17.1269 10.3769C17.2654 10.5154 17.3362 10.6894 17.3394 10.899C17.3426 11.1086 17.2718 11.2859 17.1269 11.4307C16.982 11.5756 16.8064 11.648 16.6 11.648C16.3936 11.648 16.218 11.5756 16.0731 11.4307L12.75 8.10764V16.9038C12.75 17.1166 12.6782 17.2948 12.5346 17.4384C12.391 17.582 12.2128 17.6538 12 17.6538C11.7872 17.6538 11.609 17.582 11.4654 17.4384C11.3218 17.2948 11.25 17.1166 11.25 16.9038V8.10764Z" fill="#E31837"/>
</g>
</svg>
