<svg width="24" height="24" viewBox="0 0 24 24" fill="none" xmlns="http://www.w3.org/2000/svg">
<mask id="mask0_1_1568" style="mask-type:alpha" maskUnits="userSpaceOnUse" x="0" y="0" width="24" height="24">
<rect x="24" width="24" height="24" transform="rotate(90 24 0)" fill="#D9D9D9"/>
</mask>
<g mask="url(#mask0_1_1568)">
<path d="M12 12.9462L16.0731 8.87309C16.2116 8.73462 16.3856 8.66379 16.5952 8.66059C16.8048 8.65737 16.982 8.7282 17.1269 8.87309C17.2718 9.01795 17.3442 9.19359 17.3442 9.39999C17.3442 9.60639 17.2718 9.78202 17.1269 9.92689L12.6327 14.4211C12.5391 14.5147 12.4404 14.5807 12.3365 14.6192C12.2327 14.6577 12.1205 14.6769 12 14.6769C11.8795 14.6769 11.7673 14.6577 11.6635 14.6192C11.5596 14.5807 11.4609 14.5147 11.3673 14.4211L6.87311 9.92689C6.73465 9.78844 6.66381 9.6144 6.66061 9.40479C6.6574 9.19519 6.72823 9.01795 6.87311 8.87309C7.01798 8.7282 7.19361 8.65576 7.40001 8.65576C7.60641 8.65576 7.78205 8.7282 7.92691 8.87309L12 12.9462Z" fill="#E31837"/>
</g>
</svg>
