<svg width="65" height="32" viewBox="0 0 65 32" fill="none" xmlns="http://www.w3.org/2000/svg">
<mask id="mask0_1739_465" style="mask-type:alpha" maskUnits="userSpaceOnUse" x="20" y="4" width="25" height="24">
<rect x="20.2002" y="4" width="24" height="24" fill="#D9D9D9"/>
</mask>
<g mask="url(#mask0_1739_465)">
<path d="M26.2002 22.9999H29.5463V17.9614C29.5463 17.7053 29.633 17.4907 29.8062 17.3174C29.9794 17.1442 30.1941 17.0576 30.4502 17.0576H33.9501C34.2062 17.0576 34.4209 17.1442 34.5941 17.3174C34.7674 17.4907 34.854 17.7053 34.854 17.9614V22.9999H38.2002V14.1537C38.2002 14.1025 38.189 14.056 38.1665 14.0143C38.1441 13.9727 38.1136 13.9358 38.0752 13.9037L32.3829 9.62489C32.3316 9.58002 32.2707 9.55759 32.2002 9.55759C32.1297 9.55759 32.0688 9.58002 32.0175 9.62489L26.3252 13.9037C26.2867 13.9358 26.2563 13.9727 26.2338 14.0143C26.2114 14.056 26.2002 14.1025 26.2002 14.1537V22.9999ZM24.7002 22.9999V14.1537C24.7002 13.8675 24.7642 13.5964 24.8923 13.3403C25.0203 13.0842 25.1973 12.8733 25.4233 12.7076L31.1156 8.41917C31.4315 8.17813 31.7925 8.05762 32.1986 8.05762C32.6048 8.05762 32.9668 8.17813 33.2848 8.41917L38.9771 12.7076C39.203 12.8733 39.38 13.0842 39.5081 13.3403C39.6361 13.5964 39.7001 13.8675 39.7001 14.1537V22.9999C39.7001 23.4089 39.5524 23.7611 39.2569 24.0566C38.9614 24.3521 38.6091 24.4999 38.2002 24.4999H34.2579C34.0018 24.4999 33.7871 24.4132 33.6139 24.24C33.4406 24.0668 33.354 23.8521 33.354 23.596V18.5575H31.0463V23.596C31.0463 23.8521 30.9597 24.0668 30.7865 24.24C30.6132 24.4132 30.3986 24.4999 30.1425 24.4999H26.2002C25.7912 24.4999 25.439 24.3521 25.1435 24.0566C24.848 23.7611 24.7002 23.4089 24.7002 22.9999Z" fill="#A1626B"/>
</g>
</svg>
