<svg width="16" height="16" viewBox="0 0 16 16" fill="none" xmlns="http://www.w3.org/2000/svg">
<mask id="mask0_1_2780" style="mask-type:alpha" maskUnits="userSpaceOnUse" x="0" y="0" width="16" height="16">
<rect width="16" height="16" fill="#D9D9D9"/>
</mask>
<g mask="url(#mask0_1_2780)">
<path d="M6.03843 11.6667C5.70168 11.6667 5.41664 11.55 5.18332 11.3167C4.94998 11.0834 4.83332 10.7983 4.83332 10.4616V2.87188C4.83332 2.53513 4.94998 2.25008 5.18332 2.01675C5.41664 1.78341 5.70168 1.66675 6.03843 1.66675H11.6281C11.9649 1.66675 12.2499 1.78341 12.4833 2.01675C12.7166 2.25008 12.8333 2.53513 12.8333 2.87188V10.4616C12.8333 10.7983 12.7166 11.0834 12.4833 11.3167C12.2499 11.55 11.9649 11.6667 11.6281 11.6667H6.03843ZM6.03843 10.6667H11.6281C11.6794 10.6667 11.7264 10.6454 11.7692 10.6026C11.8119 10.5599 11.8333 10.5129 11.8333 10.4616V2.87188C11.8333 2.82059 11.8119 2.77358 11.7692 2.73083C11.7264 2.6881 11.6794 2.66673 11.6281 2.66673H6.03843C5.98714 2.66673 5.94013 2.6881 5.8974 2.73083C5.85466 2.77358 5.83328 2.82059 5.83328 2.87188V10.4616C5.83328 10.5129 5.85466 10.5599 5.8974 10.6026C5.94013 10.6454 5.98714 10.6667 6.03843 10.6667ZM3.70512 14C3.36837 14 3.08333 13.8833 2.85 13.65C2.61667 13.4167 2.5 13.1316 2.5 12.7949V4.7052C2.5 4.56332 2.54786 4.44452 2.64358 4.3488C2.73932 4.25308 2.85812 4.20522 2.99998 4.20522C3.14186 4.20522 3.26067 4.25308 3.3564 4.3488C3.45212 4.44452 3.49998 4.56332 3.49998 4.7052V12.7949C3.49998 12.8462 3.52135 12.8932 3.56408 12.9359C3.60683 12.9787 3.65384 13 3.70512 13H9.79482C9.93669 13 10.0555 13.0479 10.1512 13.1436C10.247 13.2394 10.2948 13.3582 10.2948 13.5C10.2948 13.6419 10.247 13.7607 10.1512 13.8564C10.0555 13.9522 9.93669 14 9.79482 14H3.70512Z" fill="#691A1E"/>
</g>
</svg>
