<svg width="16" height="16" viewBox="0 0 16 16" fill="none" xmlns="http://www.w3.org/2000/svg">
<path d="M12.3335 1.33333H6.3335C5.60016 1.33333 5.00016 1.93333 5.00016 2.66666V10.6667C5.00016 11.4 5.60016 12 6.3335 12H12.3335C13.0668 12 13.6668 11.4 13.6668 10.6667V2.66666C13.6668 1.93333 13.0668 1.33333 12.3335 1.33333ZM12.3335 10.6667H6.3335V2.66666H12.3335V10.6667ZM2.3335 10V8.66666H3.66683V10H2.3335ZM2.3335 6.33333H3.66683V7.66666H2.3335V6.33333ZM7.00016 13.3333H8.3335V14.6667H7.00016V13.3333ZM2.3335 12.3333V11H3.66683V12.3333H2.3335ZM3.66683 14.6667C2.9335 14.6667 2.3335 14.0667 2.3335 13.3333H3.66683V14.6667ZM6.00016 14.6667H4.66683V13.3333H6.00016V14.6667ZM9.3335 14.6667V13.3333H10.6668C10.6668 14.0667 10.0668 14.6667 9.3335 14.6667ZM3.66683 3.99999V5.33333H2.3335C2.3335 4.59999 2.9335 3.99999 3.66683 3.99999Z" fill="#393939"/>
</svg>
