<svg width="65" height="32" viewBox="0 0 65 32" fill="none" xmlns="http://www.w3.org/2000/svg">
<mask id="mask0_1739_492" style="mask-type:alpha" maskUnits="userSpaceOnUse" x="20" y="4" width="25" height="24">
<rect x="20.8003" y="4" width="24" height="24" fill="#D9D9D9"/>
</mask>
<g mask="url(#mask0_1739_492)">
<path d="M25.108 23.5C24.6109 23.5 24.1853 23.3229 23.8313 22.9689C23.4773 22.6149 23.3003 22.1894 23.3003 21.6923V18.9519C23.3003 18.7878 23.3474 18.6423 23.4416 18.5154C23.5359 18.3885 23.6618 18.3019 23.8195 18.2558C24.258 18.0519 24.6144 17.7492 24.8888 17.3477C25.1631 16.9461 25.3003 16.4967 25.3003 15.9996C25.3003 15.5024 25.1631 15.0532 24.8888 14.6519C24.6144 14.2506 24.258 13.948 23.8195 13.7442C23.6618 13.698 23.5359 13.6115 23.4416 13.4846C23.3474 13.3576 23.3003 13.2121 23.3003 13.048V10.3077C23.3003 9.81058 23.4773 9.38503 23.8313 9.03103C24.1853 8.67701 24.6109 8.5 25.108 8.5H40.4925C40.9897 8.5 41.4152 8.67701 41.7692 9.03103C42.1232 9.38503 42.3002 9.81058 42.3002 10.3077V13.048C42.3002 13.2121 42.2531 13.3576 42.1589 13.4846C42.0647 13.6115 41.9387 13.698 41.781 13.7442C41.3426 13.948 40.9861 14.2507 40.7118 14.6523C40.4374 15.0539 40.3002 15.5032 40.3002 16.0004C40.3002 16.4975 40.4374 16.9468 40.7118 17.3481C40.9861 17.7494 41.3426 18.0519 41.781 18.2558C41.9387 18.3019 42.0647 18.3885 42.1589 18.5154C42.2531 18.6423 42.3002 18.7878 42.3002 18.9519V21.6923C42.3002 22.1894 42.1232 22.6149 41.7692 22.9689C41.4152 23.3229 40.9897 23.5 40.4925 23.5H25.108ZM25.108 22H40.4925C40.5823 22 40.656 21.9711 40.7137 21.9134C40.7714 21.8557 40.8003 21.782 40.8003 21.6923V19.45C40.1836 19.0833 39.6961 18.5958 39.3378 17.9875C38.9794 17.3791 38.8003 16.7166 38.8003 16C38.8003 15.2833 38.9794 14.6208 39.3378 14.0125C39.6961 13.4041 40.1836 12.9166 40.8003 12.55V10.3077C40.8003 10.218 40.7714 10.1442 40.7137 10.0865C40.656 10.0288 40.5823 9.99998 40.4925 9.99998H25.108C25.0182 9.99998 24.9445 10.0288 24.8868 10.0865C24.8291 10.1442 24.8003 10.218 24.8003 10.3077V12.55C25.4169 12.9166 25.9044 13.4041 26.2628 14.0125C26.6211 14.6208 26.8003 15.2833 26.8003 16C26.8003 16.7166 26.6211 17.3791 26.2628 17.9875C25.9044 18.5958 25.4169 19.0833 24.8003 19.45V21.6923C24.8003 21.782 24.8291 21.8557 24.8868 21.9134C24.9445 21.9711 25.0182 22 25.108 22ZM32.8006 20.6538C33.0132 20.6538 33.1913 20.5819 33.3349 20.4381C33.4785 20.2943 33.5502 20.1161 33.5502 19.9035C33.5502 19.6909 33.4783 19.5128 33.3345 19.3692C33.1907 19.2256 33.0125 19.1538 32.7999 19.1538C32.5873 19.1538 32.4093 19.2257 32.2657 19.3696C32.1221 19.5134 32.0503 19.6916 32.0503 19.9042C32.0503 20.1167 32.1222 20.2948 32.266 20.4384C32.4098 20.582 32.588 20.6538 32.8006 20.6538ZM32.8006 16.75C33.0132 16.75 33.1913 16.6781 33.3349 16.5343C33.4785 16.3904 33.5502 16.2122 33.5502 15.9997C33.5502 15.7871 33.4783 15.609 33.3345 15.4654C33.1907 15.3218 33.0125 15.25 32.7999 15.25C32.5873 15.25 32.4093 15.3219 32.2657 15.4657C32.1221 15.6095 32.0503 15.7877 32.0503 16.0003C32.0503 16.2129 32.1222 16.391 32.266 16.5346C32.4098 16.6782 32.588 16.75 32.8006 16.75ZM32.8006 12.8461C33.0132 12.8461 33.1913 12.7742 33.3349 12.6304C33.4785 12.4866 33.5502 12.3084 33.5502 12.0958C33.5502 11.8832 33.4783 11.7051 33.3345 11.5615C33.1907 11.4179 33.0125 11.3462 32.7999 11.3462C32.5873 11.3462 32.4093 11.4181 32.2657 11.5619C32.1221 11.7057 32.0503 11.8839 32.0503 12.0965C32.0503 12.3091 32.1222 12.4872 32.266 12.6308C32.4098 12.7743 32.588 12.8461 32.8006 12.8461Z" fill="#A1626B"/>
</g>
</svg>
