<svg width="19" height="20" viewBox="0 0 19 20" fill="none" xmlns="http://www.w3.org/2000/svg">
<mask id="mask0_1_2767" style="mask-type:alpha" maskUnits="userSpaceOnUse" x="-3" y="-3" width="25" height="25">
<rect x="-2.68242" y="-2.55178" width="24.3651" height="24.4977" fill="#D9D9D9"/>
</mask>
<g mask="url(#mask0_1_2767)">
<path d="M2.64734 16.7243C2.43161 16.7243 2.25077 16.6509 2.10484 16.5042C1.9589 16.3574 1.88593 16.1755 1.88593 15.9585C1.88593 15.7415 1.9589 15.5597 2.10484 15.4131C2.25077 15.2666 2.43161 15.1933 2.64734 15.1933H3.72113V7.57698C3.72113 6.20422 4.1425 4.99047 4.98525 3.93571C5.82801 2.88094 6.90993 2.20635 8.231 1.91192V1.27592C8.231 0.921504 8.35427 0.620252 8.6008 0.372162C8.84732 0.124055 9.14667 0 9.49885 0C9.85103 0 10.1508 0.124055 10.398 0.372162C10.6453 0.620252 10.769 0.921504 10.769 1.27592V1.91192C12.0901 2.20635 13.172 2.88094 14.0147 3.93571C14.8575 4.99047 15.2789 6.20422 15.2789 7.57698V15.1933H16.3526C16.5684 15.1933 16.7492 15.2667 16.8952 15.4135C17.0411 15.5603 17.1141 15.7421 17.1141 15.9591C17.1141 16.1761 17.0411 16.3579 16.8952 16.5045C16.7492 16.6511 16.5684 16.7243 16.3526 16.7243H2.64734ZM9.49827 19.5902C8.99311 19.5902 8.56125 19.4096 8.20268 19.0482C7.84411 18.6869 7.66482 18.2525 7.66482 17.7451H11.3352C11.3352 18.2541 11.1553 18.6889 10.7956 19.0494C10.4359 19.41 10.0034 19.5902 9.49827 19.5902ZM5.2439 15.1933H13.7561V7.57698C13.7561 6.39527 13.3406 5.38664 12.5095 4.55108C11.6785 3.71551 10.6753 3.29772 9.49999 3.29772C8.32468 3.29772 7.32151 3.71551 6.49047 4.55108C5.65942 5.38664 5.2439 6.39527 5.2439 7.57698V15.1933ZM0.738945 7.56715C0.519642 7.56715 0.337099 7.48439 0.191314 7.31886C0.0455469 7.15331 -0.0169226 6.95866 0.00390618 6.7349C0.10673 5.55712 0.409991 4.45394 0.913688 3.42536C1.41739 2.39678 2.0688 1.49383 2.86795 0.716506C3.03584 0.568618 3.22522 0.495006 3.43606 0.49567C3.6469 0.496316 3.82065 0.584645 3.95732 0.760654C4.09398 0.936663 4.1519 1.12805 4.13107 1.33482C4.11024 1.54157 4.01588 1.72412 3.84798 1.88247C3.21413 2.51846 2.69873 3.25162 2.30176 4.08195C1.90478 4.91229 1.65488 5.80575 1.55205 6.76235C1.52473 6.98613 1.43721 7.17621 1.28949 7.33259C1.14176 7.48897 0.958248 7.56715 0.738945 7.56715ZM18.2659 7.56715C18.0434 7.56715 17.8582 7.48897 17.7105 7.33259C17.5628 7.17621 17.4753 6.98613 17.4479 6.76235C17.3451 5.80575 17.0968 4.91392 16.7031 4.08685C16.3094 3.2598 15.7956 2.52827 15.1618 1.89227C14.9916 1.73453 14.8934 1.55049 14.8672 1.34015C14.841 1.12983 14.8962 0.936663 15.0329 0.760654C15.1696 0.584645 15.3449 0.49795 15.5591 0.50057C15.7731 0.50319 15.9641 0.578435 16.132 0.726306C16.9312 1.50363 17.5826 2.40495 18.0863 3.43026C18.59 4.45558 18.8933 5.55712 18.9961 6.7349C19.0169 6.95866 18.9544 7.15331 18.8084 7.31886C18.6625 7.48439 18.4817 7.56715 18.2659 7.56715Z" fill="#691A1E"/>
</g>
</svg>
