<svg width="25" height="24" viewBox="0 0 25 24" fill="none" xmlns="http://www.w3.org/2000/svg">
<mask id="mask0_4032_6654" style="mask-type:alpha" maskUnits="userSpaceOnUse" x="0" y="0" width="25" height="24">
<rect x="0.601562" width="24" height="24" fill="#D9D9D9"/>
</mask>
<g mask="url(#mask0_4032_6654)">
<path d="M5.60154 11C5.19257 11 4.84034 10.8522 4.54484 10.5567C4.24932 10.2612 4.10156 9.90897 4.10156 9.5V4.99998C4.10156 4.59101 4.24932 4.23878 4.54484 3.94328C4.84034 3.64776 5.19257 3.5 5.60154 3.5H10.1016C10.5105 3.5 10.8628 3.64776 11.1583 3.94328C11.4538 4.23878 11.6015 4.59101 11.6015 4.99998V9.5C11.6015 9.90897 11.4538 10.2612 11.1583 10.5567C10.8628 10.8522 10.5105 11 10.1016 11H5.60154ZM5.60154 20.5C5.19257 20.5 4.84034 20.3522 4.54484 20.0567C4.24932 19.7612 4.10156 19.4089 4.10156 19V14.5C4.10156 14.091 4.24932 13.7387 4.54484 13.4432C4.84034 13.1477 5.19257 13 5.60154 13H10.1016C10.5105 13 10.8628 13.1477 11.1583 13.4432C11.4538 13.7387 11.6015 14.091 11.6015 14.5V19C11.6015 19.4089 11.4538 19.7612 11.1583 20.0567C10.8628 20.3522 10.5105 20.5 10.1016 20.5H5.60154ZM15.1015 11C14.6925 11 14.3403 10.8522 14.0448 10.5567C13.7493 10.2612 13.6015 9.90897 13.6015 9.5V4.99998C13.6015 4.59101 13.7493 4.23878 14.0448 3.94328C14.3403 3.64776 14.6925 3.5 15.1015 3.5H19.6015C20.0105 3.5 20.3627 3.64776 20.6582 3.94328C20.9538 4.23878 21.1015 4.59101 21.1015 4.99998V9.5C21.1015 9.90897 20.9538 10.2612 20.6582 10.5567C20.3627 10.8522 20.0105 11 19.6015 11H15.1015ZM15.1015 20.5C14.6925 20.5 14.3403 20.3522 14.0448 20.0567C13.7493 19.7612 13.6015 19.4089 13.6015 19V14.5C13.6015 14.091 13.7493 13.7387 14.0448 13.4432C14.3403 13.1477 14.6925 13 15.1015 13H19.6015C20.0105 13 20.3627 13.1477 20.6582 13.4432C20.9538 13.7387 21.1015 14.091 21.1015 14.5V19C21.1015 19.4089 20.9538 19.7612 20.6582 20.0567C20.3627 20.3522 20.0105 20.5 19.6015 20.5H15.1015ZM5.60154 9.5H10.1016V4.99998H5.60154V9.5ZM15.1015 9.5H19.6015V4.99998H15.1015V9.5ZM15.1015 19H19.6015V14.5H15.1015V19ZM5.60154 19H10.1016V14.5H5.60154V19Z" fill="#A1626B"/>
</g>
</svg>
