<svg width="16" height="17" viewBox="0 0 16 17" fill="none" xmlns="http://www.w3.org/2000/svg">
<mask id="mask0_1_2727" style="mask-type:alpha" maskUnits="userSpaceOnUse" x="0" y="0" width="16" height="17">
<rect width="16" height="16.4192" fill="#D9D9D9"/>
</mask>
<g mask="url(#mask0_1_2727)">
<path d="M7.99998 10.5435C7.91964 10.5435 7.84486 10.5304 7.77563 10.504C7.7064 10.4777 7.64059 10.4326 7.5782 10.3685L5.50513 8.24117C5.40599 8.13943 5.35706 8.02037 5.35835 7.88399C5.35963 7.74761 5.40856 7.62635 5.50513 7.52022C5.60856 7.4141 5.72736 7.35928 5.86153 7.35577C5.99572 7.35226 6.11453 7.40357 6.21795 7.5097L7.5 8.82534V3.59171C7.5 3.44612 7.54786 3.32421 7.64358 3.22598C7.73931 3.12773 7.85811 3.07861 7.99998 3.07861C8.14186 3.07861 8.26066 3.12773 8.35638 3.22598C8.45211 3.32421 8.49997 3.44612 8.49997 3.59171V8.82534L9.78202 7.5097C9.88116 7.40796 9.9989 7.35774 10.1352 7.35905C10.2715 7.36038 10.3914 7.4141 10.4948 7.52022C10.5914 7.62635 10.6414 7.74651 10.6448 7.8807C10.6482 8.0149 10.5982 8.13505 10.4948 8.24117L8.42177 10.3685C8.35938 10.4326 8.29357 10.4777 8.22433 10.504C8.15511 10.5304 8.08033 10.5435 7.99998 10.5435ZM4.20513 13.3406C3.86838 13.3406 3.58333 13.2208 3.35 12.9814C3.11667 12.7419 3 12.4494 3 12.1038V10.7619C3 10.6163 3.04787 10.4944 3.1436 10.3962C3.23932 10.2979 3.35812 10.2488 3.5 10.2488C3.64188 10.2488 3.76068 10.2979 3.8564 10.3962C3.95212 10.4944 3.99998 10.6163 3.99998 10.7619V12.1038C3.99998 12.1565 4.02135 12.2047 4.06408 12.2486C4.10683 12.2924 4.15384 12.3144 4.20513 12.3144H11.7948C11.8461 12.3144 11.8931 12.2924 11.9359 12.2486C11.9786 12.2047 12 12.1565 12 12.1038V10.7619C12 10.6163 12.0478 10.4944 12.1436 10.3962C12.2393 10.2979 12.3581 10.2488 12.5 10.2488C12.6418 10.2488 12.7606 10.2979 12.8564 10.3962C12.9521 10.4944 13 10.6163 13 10.7619V12.1038C13 12.4494 12.8833 12.7419 12.65 12.9814C12.4166 13.2208 12.1316 13.3406 11.7948 13.3406H4.20513Z" fill="#E31837"/>
</g>
</svg>
