<svg width="27" height="27" viewBox="0 0 27 27" fill="none" xmlns="http://www.w3.org/2000/svg">
<mask id="mask0_1_1572" style="mask-type:alpha" maskUnits="userSpaceOnUse" x="-3" y="-4" width="34" height="34">
<rect x="-2.32135" y="-3.4096" width="32.7306" height="32.7306" fill="#D9D9D9"/>
</mask>
<g mask="url(#mask0_1_1572)">
<path d="M16.5986 24.6868C16.6423 24.7043 16.6817 24.713 16.7167 24.713C16.7516 24.713 16.791 24.7043 16.8347 24.6868L24.8573 22.2031C24.7874 21.8937 24.6431 21.6563 24.4245 21.4911C24.2059 21.3259 23.9585 21.2432 23.6824 21.2432H17.0036C16.4084 21.2432 15.9028 21.2205 15.4866 21.1751C15.0705 21.1296 14.643 21.0299 14.2042 20.8761L12.0641 20.1758C11.789 20.0884 11.5913 19.9136 11.4709 19.6513C11.3506 19.3891 11.3341 19.122 11.4215 18.8501C11.509 18.5782 11.6781 18.3789 11.929 18.2522C12.1799 18.1254 12.4435 18.1057 12.7197 18.1932L14.4927 18.8147C14.9053 18.9459 15.3669 19.039 15.8774 19.094C16.3879 19.1491 17.0497 19.1837 17.8625 19.1977H18.2273C18.2273 18.8602 18.1513 18.5691 17.9991 18.3243C17.847 18.0795 17.6468 17.9143 17.3986 17.8286L9.48604 14.9227C9.45981 14.914 9.43576 14.9074 9.41389 14.9031C9.39205 14.8987 9.36801 14.8965 9.34178 14.8965H6.81877V21.9251L16.5986 24.6868ZM16.0662 26.6904L6.81877 24.0389C6.66316 24.6037 6.3467 25.057 5.86938 25.3988C5.39206 25.7406 4.88677 25.9115 4.35351 25.9115H2.46526C1.78731 25.9115 1.20694 25.6701 0.724164 25.1873C0.241388 24.7045 0 24.1242 0 23.4462V15.3161C0 14.6382 0.241388 14.0578 0.724164 13.5751C1.20694 13.0923 1.78731 12.8509 2.46526 12.8509H9.32668C9.46963 12.8509 9.61453 12.8666 9.76138 12.8981C9.90826 12.9296 10.0446 12.9663 10.1705 13.0082L18.1171 15.9351C18.736 16.1641 19.2501 16.5693 19.6592 17.1507C20.0683 17.732 20.2729 18.4143 20.2729 19.1977H23.6824C24.6615 19.1977 25.4592 19.5137 26.0755 20.1457C26.6918 20.7778 27 21.5982 27 22.607C27 22.9934 26.8977 23.3046 26.6932 23.5407C26.4886 23.7767 26.1791 23.9638 25.7648 24.1019L17.4903 26.6695C17.2665 26.7429 17.0314 26.7818 16.7849 26.7862C16.5383 26.7905 16.2988 26.7586 16.0662 26.6904ZM2.04563 23.4462C2.04563 23.5686 2.08496 23.6692 2.16363 23.7478C2.24232 23.8265 2.34286 23.8659 2.46526 23.8659H4.35351C4.47591 23.8659 4.57645 23.8331 4.65514 23.7675C4.73383 23.7019 4.77317 23.5948 4.77317 23.4462V14.8965H2.46526C2.34286 14.8965 2.24232 14.9358 2.16363 15.0145C2.08496 15.0932 2.04563 15.1937 2.04563 15.3161V23.4462Z" fill="#691A1E"/>
<mask id="mask1_1_1572" style="mask-type:alpha" maskUnits="userSpaceOnUse" x="11" y="-3" width="17" height="18">
<rect x="11.3164" y="-2.04579" width="16.3653" height="16.3653" fill="#D9D9D9"/>
</mask>
<g mask="url(#mask1_1_1572)">
<path d="M20.4706 12.0694L16.277 7.70532C16.2201 7.6485 16.1747 7.57747 16.1406 7.49223C16.1065 7.407 16.0894 7.31892 16.0894 7.228V6.81887C16.0894 6.62567 16.1548 6.46372 16.2855 6.33303C16.4162 6.20233 16.5781 6.13698 16.7713 6.13698H18.476C19.0784 6.13698 19.5983 5.94094 20.0359 5.54885C20.4734 5.15677 20.7376 4.67093 20.8286 4.09132H16.0894C15.8962 4.09132 15.7343 4.02597 15.6036 3.89528C15.4729 3.76458 15.4076 3.60264 15.4076 3.40943C15.4076 3.21623 15.4729 3.05429 15.6036 2.92359C15.7343 2.7929 15.8962 2.72755 16.0894 2.72755H20.624C20.4308 2.32978 20.1438 2.00304 19.7631 1.74734C19.3824 1.49163 18.9534 1.36377 18.476 1.36377H16.0894C15.8962 1.36377 15.7343 1.29843 15.6036 1.16773C15.4729 1.03704 15.4076 0.875088 15.4076 0.681887C15.4076 0.488686 15.4729 0.326737 15.6036 0.196042C15.7343 0.0653475 15.8962 0 16.0894 0H22.9083C23.1015 0 23.2635 0.0653475 23.3942 0.196042C23.5248 0.326737 23.5902 0.488686 23.5902 0.681887C23.5902 0.875088 23.5248 1.03704 23.3942 1.16773C23.2635 1.29843 23.1015 1.36377 22.9083 1.36377H21.3741C21.5332 1.55698 21.6752 1.76722 21.8002 1.99452C21.9253 2.22182 22.0219 2.46616 22.09 2.72755H22.9083C23.1015 2.72755 23.2635 2.7929 23.3942 2.92359C23.5248 3.05429 23.5902 3.21623 23.5902 3.40943C23.5902 3.60264 23.5248 3.76458 23.3942 3.89528C23.2635 4.02597 23.1015 4.09132 22.9083 4.09132H22.2094C22.1185 5.05733 21.7207 5.86707 21.0161 6.52054C20.3115 7.17402 19.4648 7.50076 18.476 7.50076H17.9817L21.4593 11.1148C21.6639 11.3307 21.7065 11.5779 21.5872 11.8563C21.4678 12.1347 21.2604 12.274 20.9649 12.274C20.874 12.274 20.7859 12.2569 20.7007 12.2228C20.6155 12.1887 20.5388 12.1376 20.4706 12.0694Z" fill="#691A1E"/>
</g>
</g>
</svg>
