<svg width="16" height="16" viewBox="0 0 16 16" fill="none" xmlns="http://www.w3.org/2000/svg">
<mask id="mask0_1_1553" style="mask-type:alpha" maskUnits="userSpaceOnUse" x="0" y="0" width="16" height="16">
<rect width="16" height="16" fill="#D9D9D9"/>
</mask>
<g mask="url(#mask0_1_1553)">
<path d="M8.00001 9.77434C7.91966 9.77434 7.84488 9.76152 7.77566 9.73587C7.70642 9.71023 7.64061 9.66621 7.57822 9.60382L4.58207 6.60767C4.48976 6.51537 4.44254 6.39935 4.44041 6.2596C4.43826 6.11986 4.48549 6.0017 4.58207 5.90512C4.67865 5.80854 4.79574 5.76025 4.93334 5.76025C5.07094 5.76025 5.18803 5.80854 5.28461 5.90512L8.00001 8.62052L10.7154 5.90512C10.8077 5.81282 10.9237 5.7656 11.0635 5.76345C11.2032 5.76132 11.3214 5.80854 11.4179 5.90512C11.5145 6.0017 11.5628 6.11879 11.5628 6.2564C11.5628 6.394 11.5145 6.51109 11.4179 6.60767L8.42179 9.60382C8.3594 9.66621 8.29359 9.71023 8.22436 9.73587C8.15514 9.76152 8.08035 9.77434 8.00001 9.77434Z" fill="#E31837"/>
</g>
</svg>
