<svg width="7" height="11" viewBox="0 0 7 11" fill="none" xmlns="http://www.w3.org/2000/svg">
<path d="M4.41741 5.50244L0.223759 1.30876C0.0811935 1.16621 0.00826318 0.987022 0.00496845 0.771199C0.00165656 0.555394 0.0745869 0.372914 0.223759 0.223759C0.372915 0.0745861 0.553747 0 0.766258 0C0.978768 0 1.1596 0.0745861 1.30876 0.223759L5.93603 4.85103C6.0324 4.94739 6.10038 5.04902 6.13997 5.15595C6.17957 5.26286 6.19938 5.37835 6.19938 5.50244C6.19938 5.62652 6.17957 5.74202 6.13997 5.84892C6.10038 5.95585 6.0324 6.05749 5.93603 6.15384L1.30876 10.7811C1.16621 10.9237 0.987022 10.9966 0.771199 10.9999C0.555394 11.0032 0.372915 10.9303 0.223759 10.7811C0.0745869 10.632 0 10.4511 0 10.2386C0 10.0261 0.0745869 9.84527 0.223759 9.69612L4.41741 5.50244Z" fill="#E31837"/>
</svg>
