<svg width="36" height="36" viewBox="0 0 36 36" fill="none" xmlns="http://www.w3.org/2000/svg">
<g clip-path="url(#clip0_6_6623)">
<path opacity="0.3" d="M18.105 9.015C12.3 9.015 7.60498 13.71 7.60498 19.515C7.60498 25.32 12.3 30.015 18.105 30.015C23.91 30.015 28.605 25.32 28.605 19.515C28.605 13.71 23.91 9.015 18.105 9.015ZM19.605 21.015H16.605V12.015H19.605V21.015Z" fill="#323232"/>
<path d="M13.605 1.515H22.605V4.515H13.605V1.515ZM16.605 12.015H19.605V21.015H16.605V12.015ZM28.65 11.085L30.78 8.955C30.135 8.19 29.43 7.47 28.665 6.84L26.535 8.97C24.21 7.11 21.285 6 18.105 6C10.65 6 4.60498 12.045 4.60498 19.5C4.60498 26.955 10.635 33 18.105 33C25.575 33 31.605 26.955 31.605 19.5C31.605 16.335 30.495 13.395 28.65 11.085ZM18.105 30.015C12.3 30.015 7.60498 25.32 7.60498 19.515C7.60498 13.71 12.3 9.015 18.105 9.015C23.91 9.015 28.605 13.71 28.605 19.515C28.605 25.32 23.91 30.015 18.105 30.015Z" fill="#323232"/>
</g>
<defs>
<clipPath id="clip0_6_6623">
<rect width="36" height="36" fill="white"/>
</clipPath>
</defs>
</svg>
