<svg width="40" height="40" viewBox="0 0 40 40" fill="none" xmlns="http://www.w3.org/2000/svg">
<rect width="40" height="40" rx="8" fill="#EDE0E3"/>
<mask id="mask0_1_2288" style="mask-type:alpha" maskUnits="userSpaceOnUse" x="4" y="5" width="32" height="32">
<rect x="4" y="5" width="32" height="31.9024" fill="#D9D9D9"/>
</mask>
<g mask="url(#mask0_1_2288)">
</g>
<path d="M11.8204 27.6778V28.8868C11.8204 29.2637 11.6832 29.5841 11.4087 29.8479C11.1342 30.1117 10.8009 30.2437 10.4087 30.2437C10.0166 30.2437 9.68376 30.1117 9.41027 29.8479C9.13676 29.5841 9 29.2637 9 28.8868V19.8373C9 19.7041 9.00898 19.5708 9.02693 19.4376C9.04489 19.3044 9.07509 19.1768 9.11753 19.0548L11.5051 12.5592C11.6649 12.0972 11.9545 11.7219 12.374 11.4331C12.7934 11.1444 13.2627 11 13.782 11H26.8846C27.4039 11 27.8732 11.1444 28.2926 11.4331C28.7121 11.7219 29.0017 12.0972 29.1615 12.5592L31.5491 19.0548C31.5915 19.1768 31.6217 19.3044 31.6397 19.4376C31.6576 19.5708 31.6666 19.7041 31.6666 19.8373V28.8868C31.6666 29.2637 31.5293 29.5841 31.2548 29.8479C30.9803 30.1117 30.647 30.2437 30.2549 30.2437C29.8627 30.2437 29.5299 30.1117 29.2564 29.8479C28.9829 29.5841 28.8462 29.2637 28.8462 28.8868V27.6778H11.8204ZM11.8102 17.5133H28.8564L27.2769 13.1834C27.2427 13.1012 27.1914 13.0374 27.123 12.9922C27.0547 12.947 26.9735 12.9243 26.8794 12.9243H13.7872C13.6931 12.9243 13.6119 12.947 13.5436 12.9922C13.4752 13.0374 13.4239 13.1012 13.3897 13.1834L11.8102 17.5133ZM14.285 24.2732C14.7702 24.2732 15.1816 24.1098 15.5192 23.783C15.8568 23.4563 16.0256 23.0595 16.0256 22.5926C16.0256 22.1258 15.8558 21.73 15.5162 21.4052C15.1765 21.0803 14.7642 20.9179 14.279 20.9179C13.7938 20.9179 13.3825 21.0813 13.0448 21.4081C12.7072 21.7348 12.5384 22.1316 12.5384 22.5985C12.5384 23.0653 12.7082 23.4611 13.0479 23.786C13.3875 24.1108 13.7999 24.2732 14.285 24.2732ZM26.3876 24.2732C26.8728 24.2732 27.2841 24.1098 27.6218 23.783C27.9594 23.4563 28.1282 23.0595 28.1282 22.5926C28.1282 22.1258 27.9584 21.73 27.6187 21.4052C27.2791 21.0803 26.8667 20.9179 26.3816 20.9179C25.8964 20.9179 25.485 21.0813 25.1474 21.4081C24.8098 21.7348 24.641 22.1316 24.641 22.5985C24.641 23.0653 24.8108 23.4611 25.1504 23.786C25.4901 24.1108 25.9024 24.2732 26.3876 24.2732ZM11 25.7535H29.6666V19.4376H11V25.7535Z" fill="#691A1E"/>
</svg>
