<svg width="40" height="40" viewBox="0 0 40 40" fill="none" xmlns="http://www.w3.org/2000/svg">
<rect width="40" height="40" rx="8" fill="#EDE0E3"/>
<mask id="mask0_1_2322" style="mask-type:alpha" maskUnits="userSpaceOnUse" x="4" y="5" width="32" height="32">
<rect x="4" y="5" width="32" height="31.9024" fill="#D9D9D9"/>
</mask>
<g mask="url(#mask0_1_2322)">
</g>
<mask id="mask1_1_2322" style="mask-type:alpha" maskUnits="userSpaceOnUse" x="4" y="5" width="32" height="32">
<rect x="4" y="5" width="32" height="32" fill="#D9D9D9"/>
</mask>
<g mask="url(#mask1_1_2322)">
<path d="M22.4977 32.4693C22.5404 32.4864 22.5789 32.4949 22.6131 32.4949C22.6472 32.4949 22.6857 32.4864 22.7284 32.4693L30.572 30.041C30.5037 29.7385 30.3626 29.5064 30.1489 29.3449C29.9351 29.1833 29.6933 29.1026 29.4233 29.1026H22.8936C22.3117 29.1026 21.8173 29.0804 21.4105 29.0359C21.0037 28.9915 20.5857 28.894 20.1567 28.7436L18.0643 28.059C17.7954 27.9735 17.6021 27.8026 17.4844 27.5462C17.3668 27.2898 17.3507 27.0287 17.4361 26.7629C17.5216 26.4971 17.687 26.3022 17.9323 26.1783C18.1776 26.0543 18.4353 26.0351 18.7053 26.1206L20.4387 26.7283C20.8421 26.8565 21.2934 26.9475 21.7925 27.0013C22.2917 27.0552 22.9386 27.089 23.7334 27.1026H24.09C24.09 26.7727 24.0156 26.4881 23.8669 26.2488C23.7182 26.0095 23.5225 25.8479 23.2797 25.7641L15.5438 22.9231C15.5182 22.9146 15.4947 22.9082 15.4733 22.9039C15.4519 22.8996 15.4284 22.8975 15.4028 22.8975H12.9361V29.7692L22.4977 32.4693ZM21.9772 34.4282L12.9361 31.8359C12.784 32.388 12.4746 32.8312 12.0079 33.1653C11.5412 33.4995 11.0472 33.6666 10.5259 33.6666H8.67976C8.01694 33.6666 7.44953 33.4306 6.97753 32.9586C6.50553 32.4866 6.26953 31.9192 6.26953 31.2564V23.3078C6.26953 22.645 6.50553 22.0775 6.97753 21.6055C7.44953 21.1335 8.01694 20.8975 8.67976 20.8975H15.388C15.5278 20.8975 15.6695 20.9129 15.813 20.9437C15.9566 20.9745 16.09 21.0104 16.213 21.0514L23.9823 23.9129C24.5874 24.1368 25.0899 24.533 25.4899 25.1014C25.8899 25.6697 26.0899 26.3368 26.0899 27.1026H29.4233C30.3806 27.1026 31.1605 27.4116 31.763 28.0295C32.3656 28.6475 32.6669 29.4496 32.6669 30.4359C32.6669 30.8137 32.5669 31.118 32.3669 31.3487C32.1669 31.5795 31.8643 31.7624 31.4592 31.8974L23.3695 34.4077C23.1507 34.4795 22.9208 34.5175 22.6797 34.5218C22.4387 34.526 22.2045 34.4948 21.9772 34.4282ZM8.2695 31.2564C8.2695 31.376 8.30795 31.4743 8.38486 31.5513C8.4618 31.6282 8.5601 31.6667 8.67976 31.6667H10.5259C10.6455 31.6667 10.7438 31.6346 10.8208 31.5705C10.8977 31.5064 10.9362 31.4017 10.9362 31.2564V22.8975H8.67976C8.5601 22.8975 8.4618 22.9359 8.38486 23.0129C8.30795 23.0898 8.2695 23.1881 8.2695 23.3078V31.2564Z" fill="#691A1E"/>
<mask id="mask2_1_2322" style="mask-type:alpha" maskUnits="userSpaceOnUse" x="17" y="6" width="17" height="17">
<rect x="17.3333" y="6.33337" width="16" height="16" fill="#D9D9D9"/>
</mask>
<g mask="url(#mask2_1_2322)">
<path d="M26.283 20.1335L22.183 15.8668C22.1275 15.8113 22.083 15.7418 22.0497 15.6585C22.0163 15.5752 21.9997 15.4891 21.9997 15.4002V15.0002C21.9997 14.8113 22.0636 14.6529 22.1913 14.5252C22.3191 14.3974 22.4775 14.3335 22.6663 14.3335H24.333C24.9219 14.3335 25.4302 14.1418 25.858 13.7585C26.2858 13.3752 26.5441 12.9002 26.633 12.3335H21.9997C21.8108 12.3335 21.6525 12.2696 21.5247 12.1418C21.3969 12.0141 21.333 11.8557 21.333 11.6668C21.333 11.4779 21.3969 11.3196 21.5247 11.1918C21.6525 11.0641 21.8108 11.0002 21.9997 11.0002H26.433C26.2441 10.6113 25.9636 10.2918 25.5913 10.0418C25.2191 9.79183 24.7997 9.66683 24.333 9.66683H21.9997C21.8108 9.66683 21.6525 9.60294 21.5247 9.47516C21.3969 9.34739 21.333 9.18905 21.333 9.00016C21.333 8.81127 21.3969 8.65294 21.5247 8.52516C21.6525 8.39738 21.8108 8.3335 21.9997 8.3335H28.6663C28.8552 8.3335 29.0136 8.39738 29.1413 8.52516C29.2691 8.65294 29.333 8.81127 29.333 9.00016C29.333 9.18905 29.2691 9.34739 29.1413 9.47516C29.0136 9.60294 28.8552 9.66683 28.6663 9.66683H27.1663C27.3219 9.85572 27.4608 10.0613 27.583 10.2835C27.7052 10.5057 27.7997 10.7446 27.8663 11.0002H28.6663C28.8552 11.0002 29.0136 11.0641 29.1413 11.1918C29.2691 11.3196 29.333 11.4779 29.333 11.6668C29.333 11.8557 29.2691 12.0141 29.1413 12.1418C29.0136 12.2696 28.8552 12.3335 28.6663 12.3335H27.983C27.8941 13.2779 27.5052 14.0696 26.8163 14.7085C26.1275 15.3474 25.2997 15.6668 24.333 15.6668H23.8497L27.2497 19.2002C27.4497 19.4113 27.4913 19.6529 27.3747 19.9252C27.258 20.1974 27.0552 20.3335 26.7663 20.3335C26.6775 20.3335 26.5913 20.3168 26.508 20.2835C26.4247 20.2502 26.3497 20.2002 26.283 20.1335Z" fill="#691A1E"/>
</g>
</g>
</svg>
