<svg width="44" height="45" viewBox="0 0 44 45" fill="none" xmlns="http://www.w3.org/2000/svg">
<ellipse cx="22.6471" cy="20.7303" rx="18.9056" ry="18.4659" fill="#D9D9D9"/>
<path d="M0.261123 22C0.261123 34.1519 9.996 43.9998 22.0084 43.9998C34.0208 43.9998 43.7557 34.1519 43.7557 22C43.7557 9.84804 34.0208 9.07042e-05 22.0084 9.13e-05C9.99599 9.18958e-05 0.261122 9.84804 0.261123 22ZM33.3961 22.736C33.1193 23.176 32.8504 23.656 32.542 24.08C32.1545 24.616 31.7275 25.152 31.2688 25.6319C31.1027 25.8319 30.5966 26.2959 30.3989 26.4799C30.0668 26.7999 29.6555 27.0959 29.2918 27.3839C28.8964 27.6479 28.5089 27.9359 28.0897 28.1679C27.9078 28.2719 27.552 28.4719 27.3701 28.5679C22.3722 31.0879 16.2039 30.4639 11.5144 27.5919C11.2771 27.4399 11.0715 27.3039 10.8343 27.1279C10.1225 26.5679 10.7077 25.464 11.5618 25.7519C15.7768 26.9759 20.3319 27.8159 24.6339 26.6239C27.5915 25.7919 30.0193 24.032 32.1861 21.776C32.8425 21.128 33.8547 21.928 33.404 22.728L33.3961 22.736ZM20.9962 14.104C21.8502 14.344 21.953 16.672 21.9689 19.344C21.953 22.024 21.8502 24.344 20.9962 24.584C20.1658 24.832 18.7898 22.512 18.7898 19.344C18.7898 16.168 20.1579 13.848 20.9962 14.104ZM13.4439 13.864C14.298 14.104 14.4245 16.36 14.4403 18.944C14.4245 21.528 14.298 23.784 13.4439 24.024C12.6136 24.272 11.2534 22.024 11.2613 18.944C11.2613 15.864 12.6136 13.616 13.4439 13.864Z" fill="#49454F"/>
<path d="M1.50446 44.875C0.740667 45.2819 -0.154798 44.6324 0.0232028 43.8006L2.54445 32.0184C2.69746 31.3034 3.55615 30.9806 4.15325 31.4137L12.4505 37.4317C13.0476 37.8648 12.9795 38.761 12.323 39.1109L1.50446 44.875Z" fill="#49454F"/>
</svg>
