<svg width="23" height="20" viewBox="0 0 23 20" fill="none" xmlns="http://www.w3.org/2000/svg">
<mask id="mask0_1_1569" style="mask-type:alpha" maskUnits="userSpaceOnUse" x="-6" y="-7" width="34" height="34">
<rect x="-5.07344" y="-6.08825" width="32.4707" height="32.3717" fill="#D9D9D9"/>
</mask>
<g mask="url(#mask0_1_1569)">
<path d="M2.86192 16.9231V18.1499C2.86192 18.5323 2.72265 18.8574 2.44413 19.1251C2.16558 19.3929 1.82735 19.5267 1.42945 19.5267C1.03153 19.5267 0.693813 19.3929 0.416301 19.1251C0.138767 18.8574 0 18.5323 0 18.1499V8.96729C0 8.83209 0.00910978 8.6969 0.0273294 8.56171C0.0455491 8.42652 0.0761929 8.29705 0.119262 8.17329L2.54198 1.58216C2.70411 1.11339 2.99798 0.732504 3.42359 0.439515C3.84918 0.146505 4.32544 0 4.85237 0H18.1476C18.6746 0 19.1508 0.146505 19.5764 0.439515C20.002 0.732504 20.2959 1.11339 20.458 1.58216L22.8807 8.17329C22.9238 8.29705 22.9544 8.42652 22.9727 8.56171C22.9909 8.6969 23 8.83209 23 8.96729V18.1499C23 18.5323 22.8607 18.8574 22.5822 19.1251C22.3036 19.3929 21.9654 19.5267 21.5675 19.5267C21.1696 19.5267 20.8319 19.3929 20.5543 19.1251C20.2768 18.8574 20.1381 18.5323 20.1381 18.1499V16.9231H2.86192ZM2.85153 6.6091H20.1485L18.5457 2.21554C18.511 2.13208 18.459 2.0674 18.3896 2.02151C18.3202 1.9756 18.2378 1.95265 18.1424 1.95265H4.85758C4.76217 1.95265 4.67978 1.9756 4.6104 2.02151C4.54101 2.0674 4.48897 2.13208 4.45427 2.21554L2.85153 6.6091ZM5.36277 13.4684C5.85506 13.4684 6.27249 13.3026 6.61506 12.9711C6.95764 12.6395 7.12894 12.2368 7.12894 11.7632C7.12894 11.2895 6.95663 10.8878 6.61201 10.5582C6.26739 10.2286 5.84894 10.0638 5.35665 10.0638C4.86436 10.0638 4.44692 10.2296 4.10433 10.5612C3.76176 10.8927 3.59048 11.2954 3.59048 11.7691C3.59048 12.2427 3.76279 12.6444 4.10741 12.974C4.45202 13.3036 4.87048 13.4684 5.36277 13.4684ZM17.6434 13.4684C18.1356 13.4684 18.5531 13.3026 18.8957 12.9711C19.2382 12.6395 19.4095 12.2368 19.4095 11.7632C19.4095 11.2895 19.2372 10.8878 18.8926 10.5582C18.548 10.2286 18.1295 10.0638 17.6372 10.0638C17.1449 10.0638 16.7275 10.2296 16.3849 10.5612C16.0424 10.8927 15.8711 11.2954 15.8711 11.7691C15.8711 12.2427 16.0434 12.6444 16.388 12.974C16.7326 13.3036 17.1511 13.4684 17.6434 13.4684ZM2.02938 14.9705H20.9706V8.56171H2.02938V14.9705Z" fill="#691A1E"/>
</g>
</svg>
