<svg width="13" height="11" viewBox="0 0 13 11" fill="none" xmlns="http://www.w3.org/2000/svg">
<path d="M1.23685 10.532C0.891233 10.532 0.598686 10.4092 0.359212 10.1634C0.119737 9.91766 0 9.61745 0 9.26277V1.26925C0 0.914582 0.119737 0.61437 0.359212 0.368622C0.598686 0.122874 0.891233 0 1.23685 0H11.7632C12.1088 0 12.4013 0.122874 12.6408 0.368622C12.8803 0.61437 13 0.914582 13 1.26925V9.26277C13 9.61745 12.8803 9.91766 12.6408 10.1634C12.4013 10.4092 12.1088 10.532 11.7632 10.532H1.23685ZM11.9737 2.06586L6.83289 5.44288C6.78026 5.47348 6.72588 5.49756 6.66974 5.51511C6.6136 5.53267 6.55702 5.54144 6.5 5.54144C6.44299 5.54144 6.38641 5.53267 6.33027 5.51511C6.27413 5.49756 6.21974 5.47348 6.16712 5.44288L1.0263 2.06586V9.26277C1.0263 9.32579 1.04604 9.37755 1.08552 9.41807C1.125 9.45858 1.17544 9.47884 1.23685 9.47884H11.7632C11.8246 9.47884 11.875 9.45858 11.9145 9.41807C11.954 9.37755 11.9737 9.32579 11.9737 9.26277V2.06586ZM6.5 4.56388L11.8684 1.05319H1.13157L6.5 4.56388ZM1.0263 2.22788V1.42518V1.4461V1.42383V2.22788Z" fill="#E31837"/>
</svg>
