<svg width="65" height="32" viewBox="0 0 65 32" fill="none" xmlns="http://www.w3.org/2000/svg">
<mask id="mask0_1739_485" style="mask-type:alpha" maskUnits="userSpaceOnUse" x="20" y="4" width="25" height="24">
<rect x="20.4004" y="4" width="24" height="24" fill="#D9D9D9"/>
</mask>
<g mask="url(#mask0_1739_485)">
<path d="M28.5542 19.8461V21.25C28.5542 21.4218 28.6106 21.5641 28.7234 21.6769C28.8363 21.7897 28.9786 21.8461 29.1504 21.8461C29.3221 21.8461 29.4645 21.7897 29.5773 21.6769C29.6901 21.5641 29.7465 21.4218 29.7465 21.25V19.8461H31.1504C31.3221 19.8461 31.4645 19.7897 31.5773 19.6769C31.6901 19.5641 31.7465 19.4218 31.7465 19.25C31.7465 19.0782 31.6901 18.9359 31.5773 18.8231C31.4645 18.7102 31.3221 18.6538 31.1504 18.6538H29.7465V17.25C29.7465 17.0782 29.6901 16.9359 29.5773 16.8231C29.4645 16.7102 29.3221 16.6538 29.1504 16.6538C28.9786 16.6538 28.8363 16.7102 28.7234 16.8231C28.6106 16.9359 28.5542 17.0782 28.5542 17.25V18.6538H27.1504C26.9786 18.6538 26.8363 18.7102 26.7234 18.8231C26.6106 18.9359 26.5542 19.0782 26.5542 19.25C26.5542 19.4218 26.6106 19.5641 26.7234 19.6769C26.8363 19.7897 26.9786 19.8461 27.1504 19.8461H28.5542ZM34.1504 21.0961H37.6504C37.8222 21.0961 37.9645 21.0397 38.0773 20.9269C38.1901 20.8141 38.2465 20.6718 38.2465 20.5C38.2465 20.3282 38.1901 20.1859 38.0773 20.0731C37.9645 19.9602 37.8222 19.9038 37.6504 19.9038H34.1504C33.9786 19.9038 33.8363 19.9602 33.7234 20.0731C33.6106 20.1859 33.5542 20.3282 33.5542 20.5C33.5542 20.6718 33.6106 20.8141 33.7234 20.9269C33.8363 21.0397 33.9786 21.0961 34.1504 21.0961ZM34.1504 18.5961H37.6504C37.8222 18.5961 37.9645 18.5397 38.0773 18.4269C38.1901 18.3141 38.2465 18.1718 38.2465 18C38.2465 17.8282 38.1901 17.6859 38.0773 17.5731C37.9645 17.4602 37.8222 17.4038 37.6504 17.4038H34.1504C33.9786 17.4038 33.8363 17.4602 33.7234 17.5731C33.6106 17.6859 33.5542 17.8282 33.5542 18C33.5542 18.1718 33.6106 18.3141 33.7234 18.4269C33.8363 18.5397 33.9786 18.5961 34.1504 18.5961ZM35.9004 13.3192L36.8811 14.3C36.9991 14.4179 37.1372 14.4785 37.2956 14.4817C37.4539 14.4849 37.5952 14.4243 37.7196 14.3C37.8337 14.1859 37.8933 14.0487 37.8984 13.8884C37.9036 13.7282 37.8491 13.5859 37.735 13.4615L36.7388 12.45L37.7196 11.4692C37.8375 11.3513 37.8981 11.2131 37.9013 11.0548C37.9045 10.8965 37.8439 10.7551 37.7196 10.6308C37.5952 10.5064 37.4555 10.4442 37.3004 10.4442C37.1453 10.4442 37.0055 10.5064 36.8811 10.6308L35.9004 11.6115L34.9196 10.6308C34.8016 10.5128 34.6635 10.4522 34.5052 10.449C34.3469 10.4458 34.2055 10.5064 34.0811 10.6308C33.9568 10.7551 33.8946 10.8949 33.8946 11.05C33.8946 11.2051 33.9568 11.3448 34.0811 11.4692L35.0619 12.45L34.0658 13.4615C33.9581 13.5795 33.9026 13.7176 33.8994 13.8759C33.8962 14.0343 33.9568 14.1756 34.0811 14.3C34.2055 14.4243 34.3452 14.4865 34.5004 14.4865C34.6555 14.4865 34.7952 14.4243 34.9196 14.3L35.9004 13.3192ZM27.4004 13.0461H30.9004C31.0721 13.0461 31.2145 12.9897 31.3273 12.8769C31.4401 12.7641 31.4965 12.6218 31.4965 12.45C31.4965 12.2782 31.4401 12.1359 31.3273 12.0231C31.2145 11.9102 31.0721 11.8538 30.9004 11.8538H27.4004C27.2286 11.8538 27.0863 11.9102 26.9734 12.0231C26.8606 12.1359 26.8042 12.2782 26.8042 12.45C26.8042 12.6218 26.8606 12.7641 26.9734 12.8769C27.0863 12.9897 27.2286 13.0461 27.4004 13.0461ZM25.7081 24.5C25.203 24.5 24.7754 24.325 24.4254 23.975C24.0754 23.625 23.9004 23.1974 23.9004 22.6923V9.3077C23.9004 8.80257 24.0754 8.375 24.4254 8.025C24.7754 7.675 25.203 7.5 25.7081 7.5H39.0926C39.5978 7.5 40.0253 7.675 40.3753 8.025C40.7253 8.375 40.9003 8.80257 40.9003 9.3077V22.6923C40.9003 23.1974 40.7253 23.625 40.3753 23.975C40.0253 24.325 39.5978 24.5 39.0926 24.5H25.7081ZM25.7081 23H39.0926C39.1696 23 39.2401 22.9679 39.3042 22.9038C39.3683 22.8397 39.4004 22.7692 39.4004 22.6923V9.3077C39.4004 9.23077 39.3683 9.16024 39.3042 9.09613C39.2401 9.03203 39.1696 8.99998 39.0926 8.99998H25.7081C25.6312 8.99998 25.5606 9.03203 25.4965 9.09613C25.4324 9.16024 25.4004 9.23077 25.4004 9.3077V22.6923C25.4004 22.7692 25.4324 22.8397 25.4965 22.9038C25.5606 22.9679 25.6312 23 25.7081 23Z" fill="#A1626B"/>
</g>
</svg>
