<svg width="40" height="40" viewBox="0 0 40 40" fill="none" xmlns="http://www.w3.org/2000/svg">
<path d="M2.11208 39.6361C1.26438 37.8459 5.50329 28 5.50329 28L12.2857 34.2656C12.2857 34.2656 3.09265 41.7068 2.11208 39.6361Z" fill="#E31837"/>
<rect x="8" y="11" width="24" height="20" fill="white"/>
<path d="M-8.74228e-07 20C-3.91336e-07 31.0473 8.95273 40 20 40C31.0473 40 40 31.0473 40 20C40 8.95273 31.0473 2.45758e-06 20 2.94047e-06C8.95273 3.42336e-06 -1.35712e-06 8.95273 -8.74228e-07 20ZM30.4727 20.6691C30.2182 21.0691 29.9709 21.5055 29.6873 21.8909C29.3309 22.3782 28.9382 22.8655 28.5164 23.3018C28.3636 23.4836 27.8982 23.9055 27.7164 24.0727C27.4109 24.3636 27.0327 24.6327 26.6982 24.8945C26.3345 25.1345 25.9782 25.3964 25.5927 25.6073C25.4255 25.7018 25.0982 25.8836 24.9309 25.9709C20.3345 28.2618 14.6618 27.6945 10.3491 25.0836C10.1309 24.9455 9.94182 24.8218 9.72364 24.6618C9.06909 24.1527 9.60727 23.1491 10.3927 23.4109C14.2691 24.5236 18.4582 25.2873 22.4145 24.2036C25.1345 23.4473 27.3673 21.8473 29.36 19.7964C29.9636 19.2073 30.8945 19.9345 30.48 20.6618L30.4727 20.6691ZM19.0691 12.8218C19.8545 13.04 19.9491 15.1564 19.9636 17.5855C19.9491 20.0218 19.8545 22.1309 19.0691 22.3491C18.3055 22.5745 17.04 20.4655 17.04 17.5855C17.04 14.6982 18.2982 12.5891 19.0691 12.8218ZM12.1236 12.6036C12.9091 12.8218 13.0255 14.8727 13.04 17.2218C13.0255 19.5709 12.9091 21.6218 12.1236 21.84C11.36 22.0655 10.1091 20.0218 10.1164 17.2218C10.1164 14.4218 11.36 12.3782 12.1236 12.6036Z" fill="#E31837"/>
</svg>
