<svg width="24" height="24" viewBox="0 0 24 24" fill="none" xmlns="http://www.w3.org/2000/svg">
<mask id="mask0_344_370" style="mask-type:alpha" maskUnits="userSpaceOnUse" x="0" y="0" width="24" height="24">
<rect width="24" height="24" fill="#D9D9D9"/>
</mask>
<g mask="url(#mask0_344_370)">
<path d="M12 19.5135C13.9564 17.7622 15.4535 16.0824 16.4914 14.474C17.5292 12.8657 18.0481 11.457 18.0481 10.2481C18.0481 8.42498 17.4689 6.92627 16.3106 5.7519C15.1523 4.57753 13.7154 3.99035 12 3.99035C10.2846 3.99035 8.84777 4.57753 7.68944 5.7519C6.53111 6.92627 5.95194 8.42498 5.95194 10.2481C5.95194 11.457 6.47085 12.8657 7.50867 14.474C8.5465 16.0824 10.0436 17.7622 12 19.5135ZM12 20.9403C11.8051 20.9403 11.6103 20.9067 11.4154 20.8394C11.2205 20.7721 11.0443 20.6679 10.8866 20.5269C9.98915 19.7 9.14942 18.8484 8.36737 17.9721C7.58532 17.0958 6.90551 16.2199 6.32794 15.3442C5.75037 14.4686 5.29332 13.6006 4.95679 12.7404C4.62024 11.8801 4.45197 11.0493 4.45197 10.2481C4.45197 7.94038 5.19844 6.07213 6.69139 4.64328C8.18432 3.21443 9.95387 2.5 12 2.5C14.0462 2.5 15.8157 3.21443 17.3086 4.64328C18.8016 6.07213 19.5481 7.94038 19.5481 10.2481C19.5481 11.0493 19.3798 11.8785 19.0432 12.7356C18.7067 13.5926 18.2513 14.4606 17.6769 15.3394C17.1025 16.2183 16.4243 17.0942 15.6423 17.9673C14.8602 18.8404 14.0205 19.6903 13.1231 20.5173C12.9677 20.6583 12.7911 20.7641 12.5933 20.8346C12.3956 20.9051 12.1978 20.9403 12 20.9403ZM12.0017 11.8654C12.4993 11.8654 12.9247 11.6882 13.2779 11.3339C13.6311 10.9795 13.8077 10.5536 13.8077 10.056C13.8077 9.55839 13.6305 9.133 13.2762 8.7798C12.9219 8.4266 12.4959 8.25 11.9983 8.25C11.5007 8.25 11.0753 8.42717 10.7221 8.7815C10.3689 9.13583 10.1923 9.56179 10.1923 10.0594C10.1923 10.557 10.3695 10.9824 10.7238 11.3356C11.0782 11.6888 11.5041 11.8654 12.0017 11.8654Z" fill="#E31837"/>
</g>
</svg>
