<svg width="24" height="24" viewBox="0 0 24 24" fill="none" xmlns="http://www.w3.org/2000/svg">
<mask id="mask0_344_361" style="mask-type:alpha" maskUnits="userSpaceOnUse" x="0" y="0" width="24" height="24">
<rect width="24" height="24" fill="#D9D9D9"/>
</mask>
<g mask="url(#mask0_344_361)">
<path d="M9.74997 14.3461C9.57819 14.3461 9.43588 14.2897 9.32305 14.1769C9.21023 14.0641 9.15382 13.9218 9.15382 13.75C9.15382 13.5782 9.21023 13.4359 9.32305 13.3231C9.43588 13.2102 9.57819 13.1538 9.74997 13.1538H14.25C14.4218 13.1538 14.5641 13.2102 14.6769 13.3231C14.7897 13.4359 14.8461 13.5782 14.8461 13.75C14.8461 13.9218 14.7897 14.0641 14.6769 14.1769C14.5641 14.2897 14.4218 14.3461 14.25 14.3461H9.74997ZM8.74997 11.3461C8.57819 11.3461 8.43588 11.2897 8.32305 11.1769C8.21023 11.0641 8.15382 10.9218 8.15382 10.75C8.15382 10.5782 8.21023 10.4359 8.32305 10.3231C8.43588 10.2102 8.57819 10.1538 8.74997 10.1538H15.25C15.4218 10.1538 15.5641 10.2102 15.6769 10.3231C15.7897 10.4359 15.8461 10.5782 15.8461 10.75C15.8461 10.9218 15.7897 11.0641 15.6769 11.1769C15.5641 11.2897 15.4218 11.3461 15.25 11.3461H8.74997ZM7.3077 22.4999C6.80257 22.4999 6.375 22.3249 6.025 21.9749C5.675 21.6249 5.5 21.1974 5.5 20.6923V3.3077C5.5 2.80257 5.675 2.375 6.025 2.025C6.375 1.675 6.80257 1.5 7.3077 1.5H16.6922C17.1974 1.5 17.625 1.675 17.975 2.025C18.325 2.375 18.5 2.80257 18.5 3.3077V20.6923C18.5 21.1974 18.325 21.625 17.975 21.975C17.625 22.325 17.1974 22.5 16.6922 22.5L7.3077 22.4999ZM6.99997 19.75V20.6923C6.99997 20.7692 7.03202 20.8397 7.09613 20.9039C7.16024 20.968 7.23077 21 7.3077 21H16.6922C16.7692 21 16.8397 20.968 16.9038 20.9039C16.9679 20.8397 17 20.7692 17 20.6923V19.75H6.99997ZM6.99997 18.25H17V5.74998H6.99997V18.25ZM6.99997 4.25003H17V3.30773C17 3.23079 16.9679 3.16027 16.9038 3.09615C16.8397 3.03205 16.7692 3 16.6922 3H7.3077C7.23077 3 7.16024 3.03205 7.09613 3.09615C7.03202 3.16027 6.99997 3.23079 6.99997 3.30773V4.25003Z" fill="#E31837"/>
</g>
</svg>
