<svg width="25" height="25" viewBox="0 0 25 25" fill="none" xmlns="http://www.w3.org/2000/svg">
<mask id="mask0_4437_33437" style="mask-type:alpha" maskUnits="userSpaceOnUse" x="0" y="0" width="25" height="25">
<rect x="0.984375" y="0.351562" width="24" height="24" fill="#D9D9D9"/>
</mask>
<g mask="url(#mask0_4437_33437)">
<path d="M12.2351 21.7984V20.8176C10.1518 20.6035 8.39795 19.7843 6.97358 18.3599C5.54923 16.9355 4.73001 15.1817 4.51591 13.0984H3.53513C3.32263 13.0984 3.14451 13.0265 3.00078 12.8827C2.85703 12.7388 2.78516 12.5606 2.78516 12.3481C2.78516 12.1355 2.85703 11.9574 3.00078 11.8138C3.14453 11.6702 3.32265 11.5984 3.53513 11.5984H4.51591C4.73001 9.51508 5.54923 7.76123 6.97358 6.33686C8.39795 4.91251 10.1518 4.09329 12.2351 3.87919V2.89841C12.2351 2.68593 12.307 2.50781 12.4508 2.36406C12.5946 2.22031 12.7728 2.14844 12.9854 2.14844C13.198 2.14844 13.3761 2.22031 13.5197 2.36406C13.6633 2.50781 13.7351 2.68593 13.7351 2.89841V3.87919C15.8184 4.09329 17.5723 4.91251 18.9966 6.33686C20.421 7.76123 21.2402 9.51508 21.4543 11.5984H22.4351C22.6476 11.5984 22.8257 11.6703 22.9694 11.8141C23.1132 11.9579 23.1851 12.1361 23.1851 12.3487C23.1851 12.5613 23.1132 12.7394 22.9694 12.883C22.8257 13.0266 22.6476 13.0984 22.4351 13.0984H21.4543C21.2402 15.1817 20.421 16.9355 18.9966 18.3599C17.5723 19.7843 15.8184 20.6035 13.7351 20.8176V21.7984C13.7351 22.0109 13.6632 22.189 13.5194 22.3327C13.3756 22.4765 13.1974 22.5483 12.9848 22.5483C12.7722 22.5483 12.5941 22.4765 12.4505 22.3327C12.3069 22.189 12.2351 22.0108 12.2351 21.7984ZM12.9851 19.3484C14.9184 19.3484 16.5684 18.6651 17.9351 17.2984C19.3018 15.9317 19.9851 14.2817 19.9851 12.3484C19.9851 10.4151 19.3018 8.76505 17.9351 7.39839C16.5684 6.03172 14.9184 5.34839 12.9851 5.34839C11.0518 5.34839 9.40177 6.03172 8.03511 7.39839C6.66844 8.76505 5.98511 10.4151 5.98511 12.3484C5.98511 14.2817 6.66844 15.9317 8.03511 17.2984C9.40177 18.6651 11.0518 19.3484 12.9851 19.3484ZM12.9851 15.8484C12.0226 15.8484 11.1987 15.5057 10.5133 14.8202C9.82784 14.1348 9.48513 13.3109 9.48513 12.3484C9.48513 11.3859 9.82784 10.562 10.5133 9.87654C11.1987 9.19112 12.0226 8.84841 12.9851 8.84841C13.9476 8.84841 14.7715 9.19112 15.457 9.87654C16.1424 10.562 16.4851 11.3859 16.4851 12.3484C16.4851 13.3109 16.1424 14.1348 15.457 14.8202C14.7715 15.5057 13.9476 15.8484 12.9851 15.8484ZM12.9851 14.3484C13.5351 14.3484 14.0059 14.1526 14.3976 13.7609C14.7893 13.3692 14.9851 12.8984 14.9851 12.3484C14.9851 11.7984 14.7893 11.3276 14.3976 10.9359C14.0059 10.5442 13.5351 10.3484 12.9851 10.3484C12.4351 10.3484 11.9643 10.5442 11.5726 10.9359C11.1809 11.3276 10.9851 11.7984 10.9851 12.3484C10.9851 12.8984 11.1809 13.3692 11.5726 13.7609C11.9643 14.1526 12.4351 14.3484 12.9851 14.3484Z" fill="#691A1E"/>
</g>
</svg>
