<svg width="18" height="18" viewBox="0 0 18 18" fill="none" xmlns="http://www.w3.org/2000/svg">
<path d="M9.00974 17.5C7.82976 17.5 6.72451 17.2769 5.69399 16.8307C4.66347 16.3846 3.76488 15.7782 2.99822 15.0115C2.23155 14.2449 1.62514 13.3463 1.17899 12.3159C0.732841 11.2855 0.509766 10.1804 0.509766 9.00055C0.509766 7.8207 0.732841 6.71539 1.17899 5.68462C1.62514 4.65386 2.23155 3.75514 2.99822 2.98847C3.76488 2.22182 4.66347 1.61542 5.69399 1.16927C6.72451 0.723107 7.82976 0.500023 9.00974 0.500023C10.2674 0.500023 11.4623 0.764448 12.5943 1.2933C13.7264 1.82215 14.6982 2.56542 15.5097 3.5231V1.90385C15.5097 1.69135 15.5816 1.51322 15.7254 1.36947C15.8692 1.22572 16.0474 1.15385 16.26 1.15385C16.4726 1.15385 16.6507 1.22572 16.7943 1.36947C16.9379 1.51322 17.0097 1.69135 17.0097 1.90385V5.32687C17.0097 5.58296 16.923 5.79762 16.7498 5.97085C16.5766 6.1441 16.3619 6.23072 16.1058 6.23072H12.6828C12.4703 6.23072 12.2922 6.15881 12.1484 6.015C12.0047 5.87118 11.9328 5.69298 11.9328 5.4804C11.9328 5.2678 12.0047 5.08971 12.1484 4.94612C12.2922 4.80254 12.4703 4.73075 12.6828 4.73075H14.5482C13.8584 3.88075 13.036 3.21312 12.0809 2.72787C11.1257 2.24262 10.102 2 9.00974 2C7.05974 2 5.40557 2.67917 4.04724 4.0375C2.68891 5.39583 2.00974 7.05 2.00974 9C2.00974 10.95 2.68891 12.6042 4.04724 13.9625C5.40557 15.3208 7.05974 16 9.00974 16C10.6251 16 12.0626 15.5042 13.3222 14.5125C14.5819 13.5208 15.402 12.2526 15.7828 10.7077C15.8469 10.4987 15.96 10.3404 16.1222 10.2327C16.2844 10.125 16.4677 10.0846 16.6722 10.1115C16.8895 10.1385 17.0575 10.2353 17.176 10.4019C17.2946 10.5686 17.327 10.7513 17.2732 10.95C16.8411 12.8628 15.8584 14.4327 14.3251 15.6596C12.7918 16.8865 11.02 17.5 9.00974 17.5ZM9.75972 8.69615L12.5097 11.4462C12.6482 11.5846 12.719 11.7587 12.7222 11.9683C12.7254 12.1779 12.6546 12.3551 12.5097 12.5C12.3649 12.6449 12.1892 12.7173 11.9828 12.7173C11.7764 12.7173 11.6008 12.6449 11.4559 12.5L8.53089 9.575C8.43731 9.4814 8.36872 9.37942 8.32514 9.26905C8.28154 9.15868 8.25974 9.04464 8.25974 8.92692V4.74997C8.25974 4.53749 8.33165 4.35937 8.47547 4.21562C8.61928 4.07187 8.79748 4 9.01007 4C9.22267 4 9.40076 4.07187 9.54434 4.21562C9.68792 4.35937 9.75972 4.53749 9.75972 4.74997V8.69615Z" fill="#691A1E"/>
</svg>
