<svg width="19" height="19" viewBox="0 0 19 19" fill="none" xmlns="http://www.w3.org/2000/svg">
<path d="M12.0512 9.78919L12.0513 9.78917L12.0505 9.78818C11.961 9.68083 11.8519 9.6256 11.7241 9.6256C11.5963 9.6256 11.4871 9.68083 11.3977 9.78818L11.3971 9.78888L8.34567 13.7303L6.2918 10.9158L6.29184 10.9157L6.29081 10.9145C6.20136 10.8072 6.09222 10.7519 5.96443 10.7519C5.83663 10.7519 5.7275 10.8072 5.63804 10.9145L5.63803 10.9145L5.63742 10.9153L3.43596 13.7823L3.43586 13.7822L3.43458 13.7843C3.3453 13.9271 3.33114 14.0724 3.39448 14.2171C3.42597 14.2891 3.47051 14.3445 3.5287 14.3818C3.58684 14.419 3.65682 14.4369 3.73737 14.4369H14.7191C14.8077 14.4369 14.8848 14.4192 14.9491 14.3824C15.0135 14.3456 15.0637 14.2905 15.0998 14.2183C15.1359 14.1461 15.1499 14.0729 15.1407 13.9992C15.1315 13.9257 15.0994 13.8535 15.0463 13.7825L12.0512 9.78919ZM1.5359 18.4058C1.13339 18.4058 0.781257 18.2552 0.478449 17.9524C0.175641 17.6496 0.025 17.2975 0.025 16.8949V1.5359C0.025 1.13339 0.175641 0.781257 0.478449 0.478449C0.781257 0.175641 1.13339 0.025 1.5359 0.025H16.8949C17.2975 0.025 17.6496 0.175641 17.9524 0.478449C18.2552 0.781257 18.4058 1.13339 18.4058 1.5359V16.8949C18.4058 17.2975 18.2552 17.6496 17.9524 17.9524C17.6496 18.2552 17.2975 18.4058 16.8949 18.4058H1.5359Z" fill="#3B3B3B" stroke="black" stroke-width="0.05"/>
</svg>
