<svg width="16" height="16" viewBox="0 0 16 16" fill="none" xmlns="http://www.w3.org/2000/svg">
<g id="upload">
<mask id="mask0_3061_6297" style="mask-type:alpha" maskUnits="userSpaceOnUse" x="0" y="0" width="16" height="16">
<rect id="Bounding box" width="16" height="16" fill="white"/>
</mask>
<g mask="url(#mask0_3061_6297)">
<path id="upload_2" d="M4.20513 12.9987C3.86838 12.9987 3.58333 12.882 3.35 12.6487C3.11667 12.4154 3 12.1303 3 11.7936V10.4859C3 10.344 3.04787 10.2252 3.1436 10.1295C3.23932 10.0337 3.35812 9.98588 3.5 9.98588C3.64188 9.98588 3.76068 10.0337 3.8564 10.1295C3.95212 10.2252 3.99998 10.344 3.99998 10.4859V11.7936C3.99998 11.8448 4.02135 11.8919 4.06408 11.9346C4.10683 11.9773 4.15384 11.9987 4.20513 11.9987H11.7948C11.8461 11.9987 11.8931 11.9773 11.9359 11.9346C11.9786 11.8919 12 11.8448 12 11.7936V10.4859C12 10.344 12.0478 10.2252 12.1436 10.1295C12.2393 10.0337 12.3581 9.98588 12.5 9.98588C12.6418 9.98588 12.7606 10.0337 12.8564 10.1295C12.9521 10.2252 13 10.344 13 10.4859V11.7936C13 12.1303 12.8833 12.4154 12.65 12.6487C12.4166 12.882 12.1316 12.9987 11.7948 12.9987H4.20513ZM7.5 4.92432L6.21795 6.20637C6.11881 6.30551 6.00107 6.35444 5.86475 6.35317C5.72843 6.35188 5.60856 6.29953 5.50513 6.19612C5.40856 6.09269 5.35856 5.97561 5.35515 5.84485C5.35173 5.71408 5.40172 5.59699 5.50513 5.49357L7.5782 3.42052C7.64059 3.35813 7.7064 3.31411 7.77563 3.28847C7.84486 3.26282 7.91964 3.25 7.99998 3.25C8.08033 3.25 8.15511 3.26282 8.22433 3.28847C8.29357 3.31411 8.35938 3.35813 8.42177 3.42052L10.4948 5.49357C10.594 5.59271 10.6429 5.70873 10.6416 5.84163C10.6403 5.97453 10.5914 6.09269 10.4948 6.19612C10.3914 6.29953 10.2726 6.35295 10.1384 6.35637C10.0042 6.35979 9.88544 6.30979 9.78202 6.20637L8.49997 4.92432V10.0244C8.49997 10.1662 8.45211 10.285 8.35638 10.3808C8.26066 10.4765 8.14186 10.5243 7.99998 10.5243C7.85811 10.5243 7.73931 10.4765 7.64358 10.3808C7.54786 10.285 7.5 10.1662 7.5 10.0244V4.92432Z" fill="#E31837"/>
</g>
</g>
</svg>
