<svg width="16" height="16" viewBox="0 0 16 16" fill="none" xmlns="http://www.w3.org/2000/svg">
<mask id="mask0_840_1937" style="mask-type:alpha" maskUnits="userSpaceOnUse" x="0" y="0" width="16" height="16">
<rect width="16" height="16" fill="#D9D9D9"/>
</mask>
<g mask="url(#mask0_840_1937)">
<path d="M7.30019 8.71055L6.21812 7.63875C6.12582 7.54645 6.01151 7.49923 5.87519 7.49709C5.73887 7.49495 5.619 7.5456 5.51559 7.64902C5.419 7.7456 5.37071 7.86269 5.37071 8.00029C5.37071 8.13789 5.419 8.25497 5.51559 8.35155L6.87841 9.71437C6.99892 9.83488 7.13951 9.89514 7.30019 9.89514C7.46087 9.89514 7.60146 9.83488 7.72197 9.71437L10.4848 6.95155C10.5839 6.85242 10.6329 6.7364 10.6316 6.60349C10.6303 6.47059 10.5814 6.35243 10.4848 6.24902C10.3814 6.1456 10.2626 6.09217 10.1284 6.08875C9.99421 6.08534 9.87541 6.13534 9.77199 6.23875L7.30019 8.71055ZM5.60661 14.1221L4.68482 12.5721L2.94124 12.1977C2.79166 12.1686 2.67222 12.09 2.58291 11.9618C2.4936 11.8336 2.45791 11.6947 2.47586 11.5451L2.64637 9.75155L1.46047 8.39515C1.35792 8.28575 1.30664 8.15413 1.30664 8.00029C1.30664 7.84644 1.35792 7.71482 1.46047 7.60542L2.64637 6.24902L2.47586 4.45544C2.45791 4.30586 2.4936 4.16697 2.58291 4.03877C2.67222 3.91056 2.79166 3.83192 2.94124 3.80287L4.68482 3.42852L5.60661 1.87852C5.68695 1.7469 5.79636 1.65715 5.93482 1.60928C6.07328 1.56143 6.21387 1.5687 6.35661 1.63109L8.00019 2.32595L9.64377 1.63109C9.78651 1.5687 9.9271 1.56143 10.0656 1.60928C10.204 1.65715 10.3134 1.7469 10.3938 1.87852L11.3156 3.42852L13.0591 3.80287C13.2087 3.83192 13.3282 3.91056 13.4175 4.03877C13.5068 4.16697 13.5425 4.30586 13.5245 4.45544L13.354 6.24902L14.5399 7.60542C14.6425 7.71482 14.6938 7.84644 14.6938 8.00029C14.6938 8.15413 14.6425 8.28575 14.5399 8.39515L13.354 9.75155L13.5245 11.5451C13.5425 11.6947 13.5068 11.8336 13.4175 11.9618C13.3282 12.09 13.2087 12.1686 13.0591 12.1977L11.3156 12.5721L10.3938 14.1221C10.3134 14.2537 10.204 14.3434 10.0656 14.3913C9.9271 14.4392 9.78651 14.4319 9.64377 14.3695L8.00019 13.6746L6.35661 14.3695C6.21387 14.4319 6.07328 14.4391 5.93482 14.3913C5.79636 14.3434 5.68695 14.2537 5.60661 14.1221ZM6.30019 13.3003L8.00019 12.5798L9.72071 13.3003L10.6669 11.7003L12.5002 11.2798L12.3335 9.40029L13.5669 8.00029L12.3335 6.57977L12.5002 4.70029L10.6669 4.30029L9.70019 2.70029L8.00019 3.4208L6.27967 2.70029L5.33352 4.30029L3.50019 4.70029L3.66686 6.57977L2.43352 8.00029L3.66686 9.40029L3.50019 11.3003L5.33352 11.7003L6.30019 13.3003Z" fill="#691A1E"/>
</g>
</svg>
