<svg width="24" height="24" viewBox="0 0 24 24" fill="none" xmlns="http://www.w3.org/2000/svg">
<mask id="mask0_1973_18637" style="mask-type:alpha" maskUnits="userSpaceOnUse" x="0" y="0" width="24" height="24">
<rect width="24" height="24" fill="#D9D9D9"/>
</mask>
<g mask="url(#mask0_1973_18637)">
<path d="M13.8731 20.6019C13.9052 20.6147 13.934 20.6212 13.9597 20.6212C13.9853 20.6212 14.0142 20.6147 14.0462 20.6019L19.9289 18.7808C19.8776 18.5538 19.7718 18.3798 19.6115 18.2586C19.4512 18.1375 19.2698 18.0769 19.0674 18.0769H14.1701C13.7337 18.0769 13.3629 18.0602 13.0578 18.0269C12.7526 17.9936 12.4392 17.9205 12.1174 17.8077L10.5481 17.2942C10.3464 17.2301 10.2015 17.1019 10.1132 16.9096C10.025 16.7173 10.0129 16.5215 10.077 16.3221C10.1411 16.1228 10.2651 15.9766 10.4491 15.8837C10.6331 15.7907 10.8263 15.7763 11.0289 15.8404L12.3289 16.2962C12.6315 16.3923 12.9699 16.4606 13.3443 16.501C13.7186 16.5414 14.2039 16.5667 14.7999 16.577H15.0674C15.0674 16.3295 15.0116 16.116 14.9001 15.9366C14.7885 15.7571 14.6417 15.6359 14.4597 15.5731L8.65775 13.4423C8.63852 13.4359 8.62088 13.4311 8.60485 13.4279C8.58883 13.4247 8.57121 13.4231 8.55198 13.4231H6.70195V18.5769L13.8731 20.6019ZM13.4828 22.0711L6.70195 20.1269C6.58785 20.541 6.3558 20.8733 6.0058 21.124C5.6558 21.3746 5.28529 21.5 4.89428 21.5H3.5097C3.01258 21.5 2.58703 21.3229 2.23303 20.9689C1.87903 20.6149 1.70203 20.1894 1.70203 19.6923V13.7308C1.70203 13.2337 1.87903 12.8081 2.23303 12.4541C2.58703 12.1001 3.01258 11.9231 3.5097 11.9231H8.5409C8.64572 11.9231 8.75197 11.9347 8.85965 11.9577C8.96735 11.9808 9.06735 12.0077 9.15965 12.0385L14.9866 14.1847C15.4404 14.3526 15.8173 14.6497 16.1173 15.076C16.4173 15.5023 16.5673 16.0026 16.5673 16.577H19.0674C19.7853 16.577 20.3702 16.8087 20.8222 17.2721C21.2741 17.7356 21.5 18.3372 21.5 19.0769C21.5 19.3602 21.425 19.5884 21.275 19.7615C21.125 19.9346 20.8981 20.0718 20.5943 20.173L14.527 22.0557C14.3629 22.1096 14.1904 22.1381 14.0097 22.1413C13.8289 22.1445 13.6533 22.1211 13.4828 22.0711ZM3.202 19.6923C3.202 19.782 3.23084 19.8557 3.28853 19.9134C3.34623 19.9711 3.41995 20 3.5097 20H4.89428C4.98403 20 5.05775 19.9759 5.11545 19.9279C5.17315 19.8798 5.202 19.8012 5.202 19.6923V13.4231H3.5097C3.41995 13.4231 3.34623 13.4519 3.28853 13.5096C3.23084 13.5673 3.202 13.6411 3.202 13.7308V19.6923Z" fill="white"/>
<mask id="mask1_1973_18637" style="mask-type:alpha" maskUnits="userSpaceOnUse" x="10" y="1" width="12" height="12">
<rect x="10" y="1" width="12" height="12" fill="#D9D9D9"/>
</mask>
<g mask="url(#mask1_1973_18637)">
<path d="M16.7125 11.35L13.6375 8.15C13.5958 8.10833 13.5625 8.05625 13.5375 7.99375C13.5125 7.93125 13.5 7.86667 13.5 7.8V7.5C13.5 7.35833 13.5479 7.23958 13.6438 7.14375C13.7396 7.04792 13.8583 7 14 7H15.25C15.6917 7 16.0729 6.85625 16.3937 6.56875C16.7146 6.28125 16.9083 5.925 16.975 5.5H13.5C13.3583 5.5 13.2396 5.45208 13.1437 5.35625C13.0479 5.26042 13 5.14167 13 5C13 4.85833 13.0479 4.73958 13.1437 4.64375C13.2396 4.54792 13.3583 4.5 13.5 4.5H16.825C16.6833 4.20833 16.4729 3.96875 16.1938 3.78125C15.9146 3.59375 15.6 3.5 15.25 3.5H13.5C13.3583 3.5 13.2396 3.45208 13.1437 3.35625C13.0479 3.26042 13 3.14167 13 3C13 2.85833 13.0479 2.73958 13.1437 2.64375C13.2396 2.54792 13.3583 2.5 13.5 2.5H18.5C18.6417 2.5 18.7604 2.54792 18.8563 2.64375C18.9521 2.73958 19 2.85833 19 3C19 3.14167 18.9521 3.26042 18.8563 3.35625C18.7604 3.45208 18.6417 3.5 18.5 3.5H17.375C17.4917 3.64167 17.5958 3.79583 17.6875 3.9625C17.7792 4.12917 17.85 4.30833 17.9 4.5H18.5C18.6417 4.5 18.7604 4.54792 18.8563 4.64375C18.9521 4.73958 19 4.85833 19 5C19 5.14167 18.9521 5.26042 18.8563 5.35625C18.7604 5.45208 18.6417 5.5 18.5 5.5H17.9875C17.9208 6.20833 17.6292 6.80208 17.1125 7.28125C16.5958 7.76042 15.975 8 15.25 8H14.8875L17.4375 10.65C17.5875 10.8083 17.6188 10.9896 17.5312 11.1938C17.4437 11.3979 17.2917 11.5 17.075 11.5C17.0083 11.5 16.9438 11.4875 16.8813 11.4625C16.8188 11.4375 16.7625 11.4 16.7125 11.35Z" fill="white"/>
</g>
</g>
</svg>
