<?xml version="1.0" encoding="UTF-8"?>
<svg xmlns="http://www.w3.org/2000/svg" xmlns:xlink="http://www.w3.org/1999/xlink" width="193pt" height="193pt" viewBox="0 0 193 193" version="1.1">
<g id="surface1">
<path style=" stroke:none;fill-rule:evenodd;fill:rgb(100%,100%,100%);fill-opacity:1;" d="M 0 0.242188 L 192.757813 0.242188 L 192.757813 193 L 0 193 L 0 0.242188 "/>
<path style=" stroke:none;fill-rule:evenodd;fill:rgb(62.69989%,61.199951%,77.598572%);fill-opacity:1;" d="M 141.402344 115.789063 L 174.089844 115.582031 C 174.089844 115.582031 174.097656 103.851563 171.949219 98.714844 C 169.585938 93.0625 166.453125 86.949219 159.757813 87.023438 C 153.667969 87.058594 150.324219 90.285156 146.480469 95.882813 C 142.324219 102.023438 141.402344 115.789063 141.402344 115.789063 Z M 141.402344 119.71875 C 141.402344 119.71875 139.398438 138.363281 149.167969 147.722656 C 156.59375 154.855469 166.597656 150.761719 171.949219 146.261719 C 178.507813 140.640625 180.933594 127.773438 180.933594 127.773438 L 182.8125 129.003906 C 182.8125 129.003906 181.714844 136.148438 177.851563 143.285156 C 176.011719 146.625 170.609375 155.589844 156.414063 155.453125 C 141.550781 155.453125 134.855469 146.941406 131.878906 135.011719 C 128.933594 123.0625 129.765625 109.554688 134.175781 98.953125 C 138.585938 88.328125 146.898438 84.234375 155.851563 83.472656 C 166.597656 82.460938 174.445313 86.703125 179.027344 94.816406 C 184.148438 103.808594 184.253906 119.449219 184.253906 119.449219 L 141.402344 119.71875 "/>
<path style=" stroke:none;fill-rule:evenodd;fill:rgb(62.69989%,61.199951%,77.598572%);fill-opacity:1;" d="M 46.027344 61.003906 L 9.289063 61.003906 C 9.289063 61.003906 9.195313 62.480469 9.289063 63.46875 C 9.402344 64.429688 9.402344 64.648438 11.722656 64.648438 C 13.992188 64.648438 17.34375 64.429688 18.542969 65.089844 C 19.753906 65.789063 22.175781 67.324219 22.175781 69.863281 C 22.175781 71.648438 22.429688 73.070313 22.429688 73.070313 L 22.429688 135.410156 C 22.429688 135.410156 22.703125 141.960938 21.636719 144.675781 C 20.550781 147.347656 19.066406 149.34375 15.585938 149.644531 C 12.117188 149.84375 11.167969 149.644531 10.375 149.644531 C 9.570313 149.644531 8.933594 149.644531 8.777344 150.136719 C 8.652344 150.660156 8.503906 152.832031 8.503906 152.832031 L 72.675781 152.832031 C 72.675781 152.832031 73.570313 137.164063 74.261719 131.917969 C 74.792969 128.21875 76.558594 114.996094 76.558594 114.996094 C 76.558594 114.996094 74.816406 114.757813 74.136719 114.996094 C 73.488281 115.289063 73.359375 114.996094 72.921875 117.328125 C 72.558594 119.65625 70.792969 134.875 65.570313 140.984375 C 60.335938 147.210938 56.730469 147.953125 51.226563 148.957031 C 45.765625 149.84375 39.851563 148.675781 38.515625 147.953125 C 37.175781 147.347656 34.621094 147.054688 34.210938 138.855469 C 33.8125 130.6875 34.210938 74.738281 34.210938 74.738281 C 34.210938 74.738281 33.679688 67.703125 35.808594 65.789063 C 37.773438 63.875 42.933594 63.980469 42.933594 63.980469 C 44.78125 63.980469 45.867188 64.117188 46.027344 63.46875 C 46.121094 62.761719 46.027344 61.003906 46.027344 61.003906 "/>
<path style=" stroke:none;fill-rule:evenodd;fill:rgb(62.69989%,61.199951%,77.598572%);fill-opacity:1;" d="M 98.003906 85.199219 C 98.003906 85.199219 92.476563 85.960938 86.71875 85.835938 C 80.988281 85.699219 76.039063 85.53125 76.039063 85.53125 L 75.753906 89.324219 C 75.753906 89.324219 80.988281 89.039063 83.128906 89.46875 C 85.261719 89.863281 85.886719 90.398438 86.441406 92.90625 C 86.867188 94.679688 86.71875 96.90625 86.71875 96.90625 L 86.71875 140.578125 C 86.71875 140.578125 86.867188 145.695313 85.261719 147.722656 C 84.058594 149.207031 81.375 149.34375 79.222656 149.46875 C 77.082031 149.644531 75.878906 149.207031 75.472656 149.742188 C 75.085938 150.28125 75.347656 152.539063 75.347656 152.539063 L 109.648438 152.539063 C 109.648438 152.539063 110.191406 150.417969 109.785156 149.84375 C 109.378906 149.34375 109.921875 149.207031 108.179688 149.050781 C 106.433594 148.957031 103.621094 149.644531 101.0625 148.382813 C 98.535156 147.210938 98.003906 145.019531 97.878906 140.347656 C 97.734375 135.660156 97.597656 109.953125 97.597656 106.191406 C 97.597656 102.453125 98.003906 85.199219 98.003906 85.199219 "/>
<path style=" stroke:none;fill-rule:evenodd;fill:rgb(62.69989%,61.199951%,77.598572%);fill-opacity:1;" d="M 121.566406 59.847656 C 121.566406 59.847656 121.046875 59.949219 120.261719 60.117188 C 119.429688 60.261719 118.886719 60.261719 118.886719 60.261719 C 118.886719 60.261719 118.570313 72.578125 113.285156 78.855469 C 108.050781 85.0625 100.78125 84.746094 100.78125 84.746094 L 100.523438 89.175781 L 110.035156 89.175781 L 110.035156 141.433594 C 110.035156 141.433594 109.515625 150.660156 114.171875 153.09375 C 118.886719 155.453125 124.304688 155.453125 128.140625 153.363281 C 130.917969 151.828125 133.382813 147.347656 133.382813 147.347656 L 132.820313 144.765625 C 132.820313 144.765625 130.386719 149.3125 126.121094 149.050781 C 122.027344 148.851563 120.773438 144.765625 120.261719 140.347656 C 119.6875 135.941406 120.261719 88.644531 120.261719 88.644531 L 137.675781 89.039063 C 137.675781 89.039063 137.675781 87.851563 137.789063 86.753906 C 137.9375 85.699219 138.050781 84.296875 138.050781 84.296875 L 120.355469 85.0625 L 121.566406 59.847656 "/>
<path style=" stroke:none;fill-rule:evenodd;fill:rgb(94.898987%,69.799805%,74.499512%);fill-opacity:1;" d="M 51.039063 31.460938 C 56.292969 34.839844 63.984375 40.324219 72.632813 48.230469 C 85.695313 60.179688 93.464844 71.679688 95.835938 75.414063 C 97.539063 75.078125 98.441406 73.589844 94.847656 68.359375 C 90.128906 61.433594 80.726563 51.308594 70.707031 43.457031 C 63.292969 37.648438 50.824219 29.488281 50.824219 29.488281 L 51.039063 31.460938 "/>
<path style=" stroke:none;fill-rule:evenodd;fill:rgb(95.298767%,70.599365%,74.499512%);fill-opacity:1;" d="M 51.074219 31.738281 C 56.320313 35.105469 63.9375 40.550781 72.484375 48.386719 C 85.449219 60.234375 93.203125 71.59375 95.660156 75.4375 C 95.703125 75.4375 95.734375 75.4375 95.769531 75.429688 C 97.515625 75.117188 98.484375 73.652344 94.847656 68.359375 C 90.128906 61.433594 80.726563 51.308594 70.707031 43.457031 C 63.292969 37.648438 50.824219 29.488281 50.824219 29.488281 L 51.074219 31.738281 "/>
<path style=" stroke:none;fill-rule:evenodd;fill:rgb(95.298767%,71.398926%,73.699951%);fill-opacity:1;" d="M 51.101563 31.996094 C 56.339844 35.390625 63.882813 40.820313 72.339844 48.59375 C 85.074219 60.25 92.804688 71.386719 95.398438 75.425781 C 95.539063 75.445313 95.664063 75.453125 95.769531 75.429688 C 97.347656 75.144531 98.300781 73.914063 95.765625 69.753906 C 93.816406 66.988281 91.074219 63.351563 87.515625 59.222656 C 82.773438 53.957031 76.855469 48.273438 70.707031 43.457031 C 63.292969 37.648438 50.824219 29.488281 50.824219 29.488281 L 51.101563 31.996094 "/>
<path style=" stroke:none;fill-rule:evenodd;fill:rgb(95.298767%,72.198486%,73.699951%);fill-opacity:1;" d="M 51.132813 32.265625 C 56.359375 35.671875 63.828125 41.054688 72.210938 48.742188 C 84.691406 60.167969 92.339844 71.105469 95.078125 75.359375 C 95.324219 75.425781 95.585938 75.472656 95.769531 75.429688 C 97.113281 75.1875 98.003906 74.257813 96.671875 71.421875 C 94.007813 67.5 89.28125 61.105469 82.421875 53.867188 C 78.808594 50.269531 74.804688 46.671875 70.707031 43.457031 C 63.292969 37.648438 50.824219 29.488281 50.824219 29.488281 L 51.132813 32.265625 "/>
<path style=" stroke:none;fill-rule:evenodd;fill:rgb(95.698547%,72.499084%,72.198486%);fill-opacity:1;" d="M 51.164063 32.535156 C 56.390625 35.945313 63.800781 41.308594 72.109375 48.949219 C 84.351563 60.128906 91.941406 70.902344 94.800781 75.28125 C 95.105469 75.378906 95.515625 75.488281 95.769531 75.429688 C 96.949219 75.214844 97.777344 74.472656 97.074219 72.390625 C 94.085938 67.917969 87.847656 59.3125 78.203125 49.835938 C 75.792969 47.621094 73.269531 45.464844 70.707031 43.457031 C 63.292969 37.648438 50.824219 29.488281 50.824219 29.488281 L 51.164063 32.535156 "/>
<path style=" stroke:none;fill-rule:evenodd;fill:rgb(95.698547%,73.298645%,71.398926%);fill-opacity:1;" d="M 51.195313 32.816406 C 56.410156 36.234375 63.753906 41.5625 71.964844 49.085938 C 84.015625 60.085938 91.558594 70.652344 94.527344 75.183594 C 94.785156 75.28125 95.421875 75.511719 95.769531 75.429688 C 96.828125 75.238281 97.613281 74.613281 97.242188 72.96875 C 94.046875 68.109375 86.496094 57.609375 74.335938 46.472656 C 74.085938 46.246094 73.84375 46.023438 73.597656 45.800781 C 72.644531 45.003906 71.675781 44.21875 70.707031 43.457031 C 63.292969 37.648438 50.824219 29.488281 50.824219 29.488281 L 51.195313 32.816406 "/>
<path style=" stroke:none;fill-rule:evenodd;fill:rgb(95.698547%,73.298645%,70.199585%);fill-opacity:1;" d="M 51.222656 33.074219 C 56.425781 36.492188 63.699219 41.792969 71.828125 49.230469 C 84.03125 60.359375 91.621094 71.066406 94.511719 75.503906 C 94.460938 75.277344 94.410156 75.148438 94.410156 75.148438 C 94.410156 75.148438 95.328125 75.53125 95.769531 75.429688 C 96.730469 75.257813 97.457031 74.726563 97.316406 73.417969 C 94.257813 68.71875 86.617188 58.011719 74.1875 46.632813 C 72.769531 45.332031 71.390625 44.101563 70.03125 42.933594 C 62.558594 37.171875 50.824219 29.488281 50.824219 29.488281 L 51.222656 33.074219 "/>
<path style=" stroke:none;fill-rule:evenodd;fill:rgb(96.099854%,74.099731%,68.598938%);fill-opacity:1;" d="M 51.25 33.300781 C 56.441406 36.695313 63.660156 41.933594 71.710938 49.296875 C 84.246094 60.800781 91.914063 71.871094 94.617188 76.0625 C 94.527344 75.511719 94.410156 75.148438 94.410156 75.148438 C 94.410156 75.148438 95.328125 75.53125 95.769531 75.429688 C 96.628906 75.277344 97.300781 74.835938 97.328125 73.804688 C 94.34375 69.222656 86.660156 58.332031 74.050781 46.796875 C 71.625 44.570313 69.285156 42.542969 67.046875 40.6875 C 59.800781 35.363281 50.824219 29.488281 50.824219 29.488281 L 51.25 33.300781 "/>
<path style=" stroke:none;fill-rule:evenodd;fill:rgb(96.099854%,74.899292%,67.799377%);fill-opacity:1;" d="M 51.277344 33.578125 C 56.460938 36.996094 63.609375 42.222656 71.566406 49.535156 C 84.4375 61.320313 92.1875 72.625 94.683594 76.542969 C 94.589844 75.742188 94.410156 75.148438 94.410156 75.148438 C 94.410156 75.148438 95.328125 75.53125 95.769531 75.429688 C 96.535156 75.289063 97.15625 74.925781 97.300781 74.117188 C 94.382813 69.574219 86.675781 58.609375 73.925781 46.933594 C 70.582031 43.859375 67.402344 41.160156 64.429688 38.792969 C 57.808594 34.0625 50.824219 29.488281 50.824219 29.488281 L 51.277344 33.578125 "/>
<path style=" stroke:none;fill-rule:evenodd;fill:rgb(96.099854%,74.499512%,65.499878%);fill-opacity:1;" d="M 51.308594 33.855469 C 56.472656 37.273438 63.546875 42.464844 71.417969 49.679688 C 84.65625 61.773438 92.429688 73.328125 94.722656 76.945313 C 94.652344 75.953125 94.410156 75.148438 94.410156 75.148438 C 94.410156 75.148438 95.328125 75.53125 95.769531 75.429688 C 96.4375 75.308594 97 75.011719 97.226563 74.398438 C 94.378906 69.949219 86.648438 58.882813 73.78125 47.089844 C 68.671875 42.417969 63.925781 38.597656 59.789063 35.539063 C 54.90625 32.167969 50.824219 29.488281 50.824219 29.488281 L 51.308594 33.855469 "/>
<path style=" stroke:none;fill-rule:evenodd;fill:rgb(96.499634%,76.098633%,64.698792%);fill-opacity:1;" d="M 51.335938 34.109375 C 56.484375 37.53125 63.5 42.691406 71.316406 49.816406 C 84.773438 62.210938 92.617188 73.929688 94.742188 77.3125 C 94.714844 76.164063 94.410156 75.148438 94.410156 75.148438 C 94.410156 75.148438 95.328125 75.53125 95.769531 75.429688 C 96.363281 75.324219 96.878906 75.078125 97.140625 74.597656 C 94.3125 70.195313 86.566406 59.0625 73.664063 47.21875 C 64.335938 38.722656 56.207031 33.003906 50.835938 29.613281 L 51.335938 34.109375 "/>
<path style=" stroke:none;fill-rule:evenodd;fill:rgb(97.599792%,76.098633%,62.69989%);fill-opacity:1;" d="M 51.371094 34.410156 C 56.511719 37.832031 63.460938 42.953125 71.167969 50.027344 C 84.898438 62.546875 92.816406 74.597656 94.738281 77.671875 C 94.777344 76.386719 94.410156 75.148438 94.410156 75.148438 C 94.410156 75.148438 95.328125 75.53125 95.769531 75.429688 C 96.28125 75.339844 96.730469 75.140625 97.011719 74.78125 C 94.222656 70.441406 86.480469 59.285156 73.539063 47.488281 C 64.300781 39.019531 56.234375 33.304688 50.867188 29.890625 L 51.371094 34.410156 "/>
<path style=" stroke:none;fill-rule:evenodd;fill:rgb(97.599792%,76.098633%,59.999084%);fill-opacity:1;" d="M 49.601563 33.472656 C 49.839844 33.625 50.078125 33.78125 50.328125 33.941406 L 49.558594 33.324219 Z M 51.398438 34.648438 C 56.527344 38.0625 63.421875 43.144531 71.074219 50.140625 C 85.105469 62.988281 93.027344 75.277344 94.722656 78.019531 C 94.847656 76.621094 94.410156 75.148438 94.410156 75.148438 C 94.410156 75.148438 95.328125 75.53125 95.769531 75.429688 C 96.214844 75.351563 96.609375 75.191406 96.890625 74.917969 C 94.074219 70.578125 86.332031 59.421875 73.394531 47.621094 C 64.257813 39.242188 56.261719 33.5625 50.894531 30.140625 L 51.398438 34.648438 "/>
<path style=" stroke:none;fill-rule:evenodd;fill:rgb(97.999573%,76.899719%,57.598877%);fill-opacity:1;" d="M 49.6875 33.773438 C 54.925781 37.164063 62.464844 42.574219 70.90625 50.316406 C 85.25 63.449219 93.230469 76 94.675781 78.375 C 94.925781 76.882813 94.410156 75.148438 94.410156 75.148438 C 94.410156 75.148438 95.328125 75.53125 95.769531 75.429688 C 96.125 75.363281 96.460938 75.246094 96.71875 75.0625 C 93.878906 70.644531 86.144531 59.519531 73.269531 47.726563 C 64.230469 39.457031 56.292969 33.824219 50.921875 30.402344 L 51.417969 34.816406 L 49.558594 33.324219 L 49.6875 33.773438 "/>
<path style=" stroke:none;fill-rule:evenodd;fill:rgb(97.999573%,77.2995%,56.098938%);fill-opacity:1;" d="M 49.769531 34.054688 C 55 37.464844 62.449219 42.851563 70.792969 50.515625 C 85.378906 63.875 93.367188 76.550781 94.625 78.609375 C 94.980469 77.070313 94.410156 75.148438 94.410156 75.148438 C 94.410156 75.148438 95.328125 75.53125 95.769531 75.429688 C 96.054688 75.378906 96.328125 75.285156 96.558594 75.160156 C 93.707031 70.691406 85.984375 59.664063 73.140625 47.914063 C 64.183594 39.710938 56.316406 34.09375 50.949219 30.640625 L 51.417969 34.816406 L 49.558594 33.324219 L 49.769531 34.054688 "/>
<path style=" stroke:none;fill-rule:evenodd;fill:rgb(97.999573%,77.999878%,54.098511%);fill-opacity:1;" d="M 49.867188 34.390625 C 55.082031 37.796875 62.429688 43.121094 70.644531 50.621094 C 85.570313 64.273438 93.574219 77.234375 94.550781 78.890625 C 95.054688 77.320313 94.410156 75.148438 94.410156 75.148438 C 94.410156 75.148438 95.328125 75.53125 95.769531 75.429688 C 95.980469 75.390625 96.1875 75.332031 96.371094 75.253906 C 93.488281 70.789063 85.792969 59.789063 73.007813 48.09375 C 64.140625 39.957031 56.339844 34.386719 50.980469 30.933594 L 51.417969 34.816406 L 49.558594 33.324219 L 49.867188 34.390625 "/>
<path style=" stroke:none;fill-rule:evenodd;fill:rgb(98.399353%,77.598572%,51.399231%);fill-opacity:1;" d="M 49.953125 34.679688 C 55.160156 38.082031 62.421875 43.355469 70.523438 50.78125 C 85.59375 64.5625 93.601563 77.6875 94.472656 79.117188 C 95.113281 77.539063 94.410156 75.148438 94.410156 75.148438 C 94.410156 75.148438 95.328125 75.53125 95.769531 75.429688 C 95.910156 75.40625 96.046875 75.363281 96.175781 75.324219 C 93.230469 70.753906 85.570313 59.847656 72.894531 48.230469 C 64.109375 40.171875 56.371094 34.625 51.007813 31.171875 L 51.417969 34.816406 L 49.558594 33.324219 L 49.953125 34.679688 "/>
<path style=" stroke:none;fill-rule:evenodd;fill:rgb(98.399353%,78.399658%,49.798584%);fill-opacity:1;" d="M 50.035156 34.960938 C 55.222656 38.378906 62.398438 43.621094 70.386719 50.933594 C 85.75 65.007813 93.78125 78.339844 94.359375 79.355469 C 95.1875 77.785156 94.410156 75.148438 94.410156 75.148438 C 94.410156 75.148438 95.328125 75.53125 95.769531 75.429688 C 95.851563 75.414063 95.933594 75.390625 96.015625 75.371094 C 93.035156 70.785156 85.363281 59.949219 72.734375 48.386719 C 64.042969 40.394531 56.386719 34.875 51.039063 31.417969 L 51.417969 34.816406 L 49.558594 33.324219 L 50.035156 34.960938 "/>
<path style=" stroke:none;fill-rule:evenodd;fill:rgb(98.799133%,79.199219%,47.099304%);fill-opacity:1;" d="M 50.128906 35.289063 C 55.300781 38.707031 62.394531 43.890625 70.269531 51.101563 C 85.761719 65.285156 93.816406 78.820313 94.269531 79.511719 C 95.238281 77.972656 94.410156 75.148438 94.410156 75.148438 C 94.410156 75.148438 95.328125 75.53125 95.769531 75.429688 C 95.785156 75.425781 95.796875 75.425781 95.8125 75.421875 C 92.777344 70.765625 85.105469 60 72.632813 48.554688 C 64.011719 40.660156 56.414063 35.175781 51.070313 31.707031 L 51.417969 34.816406 L 49.558594 33.324219 L 50.089844 35.152344 L 50.128906 35.289063 "/>
<path style=" stroke:none;fill-rule:evenodd;fill:rgb(98.799133%,78.799438%,43.899536%);fill-opacity:1;" d="M 50.207031 35.582031 C 55.351563 39.011719 62.355469 44.167969 70.132813 51.308594 C 85.507813 65.34375 93.535156 78.824219 94.128906 79.703125 C 95.308594 78.226563 94.410156 75.148438 94.410156 75.148438 C 94.410156 75.148438 95.070313 75.410156 95.542969 75.4375 C 92.433594 70.660156 84.820313 59.984375 72.484375 48.742188 C 63.957031 40.921875 56.429688 35.46875 51.101563 31.992188 L 51.417969 34.816406 L 49.558594 33.324219 L 50.089844 35.152344 L 50.207031 35.582031 "/>
<path style=" stroke:none;fill-rule:evenodd;fill:rgb(98.799133%,78.799438%,40.79895%);fill-opacity:1;" d="M 50.296875 35.898438 C 55.421875 39.316406 62.324219 44.414063 69.988281 51.445313 C 85.382813 65.535156 93.433594 78.875 93.996094 79.859375 C 95.382813 78.449219 94.410156 75.148438 94.410156 75.148438 C 94.410156 75.148438 94.902344 75.34375 95.335938 75.414063 C 92.164063 70.589844 84.578125 60.039063 72.359375 48.847656 C 63.917969 41.113281 56.449219 35.703125 51.128906 32.226563 L 51.417969 34.816406 L 49.558594 33.324219 L 50.089844 35.152344 L 50.296875 35.898438 "/>
<path style=" stroke:none;fill-rule:evenodd;fill:rgb(98.799133%,79.199219%,38.398743%);fill-opacity:1;" d="M 50.363281 36.15625 C 55.472656 39.5625 62.308594 44.632813 69.871094 51.601563 C 85.136719 65.582031 93.167969 78.863281 93.847656 79.992188 C 95.445313 78.675781 94.410156 75.148438 94.410156 75.148438 C 94.410156 75.148438 94.703125 75.265625 95.035156 75.351563 C 91.777344 70.410156 84.246094 59.988281 72.210938 49.023438 C 63.867188 41.371094 56.472656 35.988281 51.160156 32.511719 L 51.417969 34.816406 L 49.558594 33.324219 L 50.089844 35.152344 L 50.363281 36.15625 "/>
<path style=" stroke:none;fill-rule:evenodd;fill:rgb(98.799133%,79.998779%,34.899902%);fill-opacity:1;" d="M 50.460938 36.511719 C 55.542969 39.929688 62.289063 44.945313 69.769531 51.800781 C 84.914063 65.691406 92.929688 78.839844 93.667969 80.125 C 95.515625 78.929688 94.410156 75.148438 94.410156 75.148438 C 94.410156 75.148438 94.558594 75.203125 94.757813 75.265625 C 91.410156 70.257813 83.917969 60.015625 72.109375 49.230469 C 63.828125 41.625 56.492188 36.25 51.1875 32.757813 L 51.417969 34.816406 L 49.558594 33.324219 L 50.089844 35.152344 L 50.460938 36.511719 "/>
<path style=" stroke:none;fill-rule:evenodd;fill:rgb(97.999573%,79.598999%,30.999756%);fill-opacity:1;" d="M 57.003906 41.46875 C 60.839844 44.40625 65.003906 47.695313 69.625 51.894531 C 74.773438 56.640625 78.792969 61.066406 82.292969 65.171875 C 86.265625 68.902344 91.828125 74.121094 94.710938 76.832031 C 94.632813 75.894531 94.410156 75.148438 94.410156 75.148438 C 94.410156 75.148438 94.425781 75.152344 94.449219 75.160156 C 91.039063 70.054688 83.601563 59.980469 71.984375 49.347656 C 63.789063 41.855469 56.507813 36.515625 51.214844 33.019531 L 51.417969 34.816406 L 49.558594 33.324219 L 50.035156 34.960938 C 52.386719 37.160156 54.898438 39.511719 57.003906 41.46875 Z M 93.316406 80.308594 C 93.390625 80.277344 93.464844 80.242188 93.535156 80.207031 C 92.949219 79.265625 89.015625 73.113281 82.292969 65.171875 C 72.464844 56.019531 66.96875 50.78125 57.003906 41.46875 C 54.660156 39.703125 52.492188 38.167969 50.550781 36.847656 L 51.28125 39.527344 L 49.285156 38.054688 L 49.542969 39.03125 L 93.316406 80.308594 "/>
<path style=" stroke:none;fill-rule:evenodd;fill:rgb(97.999573%,79.598999%,30.999756%);fill-opacity:1;" d="M 57.003906 41.46875 C 60.839844 44.40625 65.003906 47.695313 69.625 51.894531 C 74.773438 56.640625 78.792969 61.066406 82.292969 65.171875 C 86.265625 68.902344 91.828125 74.121094 94.710938 76.832031 C 94.632813 75.894531 94.410156 75.148438 94.410156 75.148438 C 94.410156 75.148438 94.425781 75.152344 94.449219 75.160156 C 91.039063 70.054688 83.601563 59.980469 71.984375 49.347656 C 63.789063 41.855469 56.507813 36.515625 51.214844 33.019531 L 51.417969 34.816406 L 49.558594 33.324219 L 50.035156 34.960938 C 52.386719 37.160156 54.898438 39.511719 57.003906 41.46875 Z M 93.316406 80.308594 C 93.390625 80.277344 93.464844 80.242188 93.535156 80.207031 C 92.949219 79.265625 89.015625 73.113281 82.292969 65.171875 C 72.464844 56.019531 66.96875 50.78125 57.003906 41.46875 C 54.660156 39.703125 52.492188 38.167969 50.550781 36.847656 L 51.28125 39.527344 L 49.285156 38.054688 L 49.542969 39.03125 L 93.316406 80.308594 "/>
<path style=" stroke:none;fill-rule:evenodd;fill:rgb(99.198914%,81.599426%,36.099243%);fill-opacity:1;" d="M 50.722656 37.46875 C 55.722656 40.859375 62.203125 45.722656 69.339844 52.261719 C 83.699219 65.410156 91.664063 77.972656 93.132813 80.371094 C 94.898438 79.84375 94.851563 77.589844 94.640625 76.21875 C 91.445313 71.363281 83.867188 60.855469 71.710938 49.679688 C 63.683594 42.324219 56.542969 37.074219 51.28125 33.601563 L 51.417969 34.816406 L 49.558594 33.324219 L 50.089844 35.152344 L 50.722656 37.46875 "/>
<path style=" stroke:none;fill-rule:evenodd;fill:rgb(99.198914%,83.099365%,39.99939%);fill-opacity:1;" d="M 50.898438 38.125 C 55.84375 41.519531 62.171875 46.3125 69.121094 52.679688 C 82.988281 65.386719 90.894531 77.503906 92.710938 80.4375 C 92.757813 80.441406 92.800781 80.449219 92.84375 80.441406 C 94.507813 80.148438 94.800781 78.503906 94.734375 77.121094 C 91.773438 72.546875 84.089844 61.695313 71.453125 50.109375 C 63.589844 42.894531 56.578125 37.699219 51.347656 34.203125 L 51.417969 34.816406 L 49.558594 33.324219 L 50.089844 35.152344 L 50.898438 38.125 "/>
<path style=" stroke:none;fill-rule:evenodd;fill:rgb(99.198914%,84.698486%,43.899536%);fill-opacity:1;" d="M 51.09375 38.847656 C 55.964844 42.214844 62.105469 46.882813 68.828125 53.023438 C 81.839844 64.941406 89.617188 76.332031 92.03125 80.136719 C 92.300781 80.3125 92.605469 80.472656 92.84375 80.441406 C 94.210938 80.203125 94.65625 79.039063 94.730469 77.871094 C 91.96875 73.574219 84.207031 62.351563 71.199219 50.453125 C 63.5 43.410156 56.613281 38.292969 51.417969 34.8125 L 51.417969 34.816406 L 51.398438 34.800781 C 50.796875 34.394531 50.210938 34.019531 49.65625 33.65625 L 50.089844 35.152344 L 51.09375 38.847656 "/>
<path style=" stroke:none;fill-rule:evenodd;fill:rgb(97.999573%,85.899353%,48.199463%);fill-opacity:1;" d="M 49.320313 38.1875 C 54.398438 41.605469 61.125 46.613281 68.578125 53.433594 C 81.25 65.054688 88.957031 76.132813 91.574219 80.199219 C 91.539063 80.035156 91.484375 79.867188 91.433594 79.683594 C 91.433594 79.683594 92.3125 80.507813 92.84375 80.441406 C 93.9375 80.25 94.441406 79.472656 94.636719 78.570313 C 92.054688 74.476563 84.238281 63.054688 70.949219 50.800781 C 62.566406 43.152344 55.152344 37.75 49.835938 34.273438 L 50.089844 35.152344 L 51.28125 39.527344 L 49.285156 38.054688 L 49.320313 38.1875 "/>
<path style=" stroke:none;fill-rule:evenodd;fill:rgb(97.999573%,86.698914%,51.399231%);fill-opacity:1;" d="M 49.488281 38.832031 C 54.515625 42.234375 61.082031 47.144531 68.339844 53.796875 C 81.765625 66.085938 89.609375 77.871094 91.730469 81.269531 C 91.714844 80.855469 91.617188 80.355469 91.433594 79.683594 C 91.433594 79.683594 92.3125 80.507813 92.84375 80.441406 C 93.722656 80.289063 94.226563 79.75 94.488281 79.078125 C 92 75.117188 84.152344 63.539063 70.667969 51.246094 C 62.550781 43.808594 55.328125 38.496094 50.050781 35.003906 L 50.089844 35.152344 L 51.28125 39.527344 L 49.285156 38.054688 L 49.488281 38.832031 "/>
<path style=" stroke:none;fill-rule:evenodd;fill:rgb(97.999573%,87.799072%,55.299377%);fill-opacity:1;" d="M 49.660156 39.464844 C 54.628906 42.863281 61.027344 47.710938 68.074219 54.164063 C 81.953125 66.886719 89.859375 79.007813 91.675781 81.925781 C 91.785156 81.421875 91.726563 80.757813 91.433594 79.683594 C 91.433594 79.683594 92.3125 80.507813 92.84375 80.441406 C 93.523438 80.324219 93.976563 79.976563 94.265625 79.515625 C 91.828125 75.605469 83.984375 64.015625 70.425781 51.601563 C 62.507813 44.328125 55.457031 39.097656 50.21875 35.613281 L 51.28125 39.527344 L 49.285156 38.054688 L 49.660156 39.464844 "/>
<path style=" stroke:none;fill-rule:evenodd;fill:rgb(97.999573%,88.598633%,57.598877%);fill-opacity:1;" d="M 49.84375 40.1875 C 54.746094 43.574219 60.96875 48.308594 67.804688 54.5625 C 81.90625 67.472656 89.839844 79.742188 91.492188 82.449219 C 91.785156 81.875 91.84375 81.175781 91.433594 79.683594 C 91.433594 79.683594 92.3125 80.507813 92.84375 80.441406 C 93.335938 80.355469 93.714844 80.144531 93.992188 79.863281 C 91.53125 75.949219 83.664063 64.308594 70.164063 51.96875 C 62.46875 44.933594 55.59375 39.808594 50.410156 36.328125 L 51.28125 39.527344 L 49.285156 38.054688 L 49.765625 39.875 L 49.84375 40.1875 "/>
<path style=" stroke:none;fill-rule:evenodd;fill:rgb(97.999573%,90.19928%,61.199951%);fill-opacity:1;" d="M 50 40.835938 C 54.84375 44.191406 60.921875 48.824219 67.566406 54.902344 C 81.683594 67.824219 89.617188 80.164063 91.265625 82.832031 C 91.730469 82.15625 91.933594 81.511719 91.433594 79.683594 C 91.433594 79.683594 92.3125 80.507813 92.84375 80.441406 C 93.167969 80.386719 93.445313 80.269531 93.671875 80.121094 C 91.132813 76.105469 83.308594 64.59375 69.90625 52.335938 C 62.429688 45.496094 55.726563 40.464844 50.589844 36.996094 L 51.28125 39.527344 L 49.285156 38.054688 L 49.765625 39.875 L 50 40.835938 "/>
<path style=" stroke:none;fill-rule:evenodd;fill:rgb(97.999573%,90.99884%,64.698792%);fill-opacity:1;" d="M 50.164063 41.511719 C 54.929688 44.835938 60.84375 49.371094 67.292969 55.257813 C 81.355469 68.132813 89.285156 80.4375 90.972656 83.1875 C 91.027344 83.144531 91.066406 83.097656 91.109375 83.046875 C 91.675781 82.28125 91.984375 81.699219 91.433594 79.683594 C 91.433594 79.683594 92.3125 80.507813 92.84375 80.441406 C 93.003906 80.414063 93.15625 80.371094 93.289063 80.316406 C 90.636719 76.132813 82.859375 64.828125 69.644531 52.710938 C 62.386719 46.070313 55.855469 41.140625 50.777344 37.675781 L 51.28125 39.527344 L 49.285156 38.054688 L 49.765625 39.875 L 50.164063 41.511719 "/>
<path style=" stroke:none;fill-rule:evenodd;fill:rgb(97.299194%,91.799927%,67.799377%);fill-opacity:1;" d="M 50.320313 42.144531 C 55.019531 45.453125 60.769531 49.917969 67.035156 55.65625 C 80.867188 68.324219 88.769531 80.386719 90.636719 83.386719 C 90.84375 83.300781 91 83.191406 91.109375 83.046875 C 91.675781 82.28125 91.984375 81.699219 91.433594 79.683594 C 91.433594 79.683594 92.3125 80.507813 92.84375 80.441406 C 92.855469 80.4375 92.867188 80.433594 92.882813 80.433594 C 90.066406 76.082031 82.320313 64.960938 69.394531 53.085938 C 62.335938 46.617188 55.964844 41.773438 50.957031 38.335938 L 51.28125 39.527344 L 49.285156 38.054688 L 49.765625 39.875 L 50.320313 42.144531 "/>
<path style=" stroke:none;fill-rule:evenodd;fill:rgb(97.999573%,92.89856%,71.398926%);fill-opacity:1;" d="M 54.050781 45.503906 C 57.902344 48.386719 62.113281 51.800781 66.769531 56.054688 C 71.964844 60.777344 75.972656 65.171875 79.492188 69.378906 C 83.332031 72.964844 88.722656 77.972656 91.675781 80.722656 C 91.628906 80.421875 91.542969 80.085938 91.433594 79.683594 C 91.433594 79.683594 91.835938 80.054688 92.265625 80.277344 C 89.1875 75.59375 81.554688 64.851563 69.140625 53.472656 C 62.296875 47.199219 56.089844 42.445313 51.140625 39.015625 L 51.28125 39.527344 L 49.285156 38.054688 L 49.765625 39.875 L 50.273438 41.960938 C 51.597656 43.199219 52.886719 44.410156 54.050781 45.503906 Z M 89.558594 83.566406 C 89.777344 83.570313 89.988281 83.558594 90.183594 83.523438 C 88.796875 81.421875 85.144531 76.03125 79.492188 69.378906 C 69.625 60.066406 64.011719 54.863281 54.050781 45.503906 C 52.816406 44.578125 51.640625 43.726563 50.515625 42.925781 L 50.933594 44.648438 L 48.511719 42.789063 C 48.511719 42.789063 49.167969 44.328125 49.640625 45.984375 L 89.558594 83.566406 "/>
<path style=" stroke:none;fill-rule:evenodd;fill:rgb(97.999573%,92.89856%,71.398926%);fill-opacity:1;" d="M 54.050781 45.503906 C 57.902344 48.386719 62.113281 51.800781 66.769531 56.054688 C 71.964844 60.777344 75.972656 65.171875 79.492188 69.378906 C 83.332031 72.964844 88.722656 77.972656 91.675781 80.722656 C 91.628906 80.421875 91.542969 80.085938 91.433594 79.683594 C 91.433594 79.683594 91.835938 80.054688 92.265625 80.277344 C 89.1875 75.59375 81.554688 64.851563 69.140625 53.472656 C 62.296875 47.199219 56.089844 42.445313 51.140625 39.015625 L 51.28125 39.527344 L 49.285156 38.054688 L 49.765625 39.875 L 50.273438 41.960938 C 51.597656 43.199219 52.886719 44.410156 54.050781 45.503906 Z M 89.558594 83.566406 C 89.777344 83.570313 89.988281 83.558594 90.183594 83.523438 C 88.796875 81.421875 85.144531 76.03125 79.492188 69.378906 C 69.625 60.066406 64.011719 54.863281 54.050781 45.503906 C 52.816406 44.578125 51.640625 43.726563 50.515625 42.925781 L 50.933594 44.648438 L 48.511719 42.789063 C 48.511719 42.789063 49.167969 44.328125 49.640625 45.984375 L 89.558594 83.566406 "/>
<path style=" stroke:none;fill-rule:evenodd;fill:rgb(96.899414%,93.699646%,75.698853%);fill-opacity:1;" d="M 50.761719 43.941406 C 55.234375 47.148438 60.558594 51.332031 66.3125 56.605469 C 79.121094 68.316406 86.851563 79.589844 89.398438 83.558594 C 90.15625 83.609375 90.820313 83.425781 91.109375 83.046875 C 91.566406 82.421875 91.871094 81.910156 91.664063 80.660156 C 88.53125 75.882813 80.945313 65.28125 68.683594 54.007813 C 61.246094 47.210938 54.585938 42.207031 49.464844 38.738281 L 49.765625 39.875 L 50.761719 43.941406 "/>
<path style=" stroke:none;fill-rule:evenodd;fill:rgb(96.099854%,94.499207%,78.799438%);fill-opacity:1;" d="M 48.757813 43.390625 C 53.519531 46.730469 59.40625 51.28125 65.832031 57.191406 C 77.929688 68.242188 85.484375 78.855469 88.429688 83.359375 C 89.527344 83.742188 90.699219 83.589844 91.109375 83.046875 C 91.367188 82.695313 91.578125 82.378906 91.675781 81.949219 C 88.886719 77.566406 81.144531 66.414063 68.191406 54.589844 C 61.136719 48.136719 54.773438 43.304688 49.761719 39.863281 L 49.765625 39.875 L 50.933594 44.648438 L 48.511719 42.789063 C 48.511719 42.789063 48.617188 43.023438 48.757813 43.390625 "/>
<path style=" stroke:none;fill-rule:evenodd;fill:rgb(93.699646%,93.699646%,80.39856%);fill-opacity:1;" d="M 49.203125 44.621094 C 53.792969 47.882813 59.335938 52.203125 65.351563 57.703125 C 75.363281 66.898438 82.261719 75.773438 86.011719 81.121094 C 86.015625 81.027344 86.011719 80.976563 86.011719 80.976563 C 86.011719 80.976563 87.148438 82.519531 87.566406 82.941406 C 88.832031 83.804688 90.589844 83.734375 91.109375 83.046875 C 91.1875 82.941406 91.265625 82.835938 91.332031 82.730469 C 88.636719 78.507813 80.859375 67.238281 67.710938 55.15625 C 61 48.988281 54.910156 44.308594 50.015625 40.90625 L 50.933594 44.648438 L 48.511719 42.789063 C 48.511719 42.789063 48.84375 43.578125 49.203125 44.621094 "/>
<path style=" stroke:none;fill-rule:evenodd;fill:rgb(90.99884%,92.89856%,81.599426%);fill-opacity:1;" d="M 49.585938 45.800781 C 54.007813 48.984375 59.242188 53.105469 64.902344 58.277344 C 75.230469 67.753906 82.257813 76.894531 85.914063 82.164063 C 86 81.671875 86.011719 80.976563 86.011719 80.976563 C 86.011719 80.976563 87.148438 82.519531 87.566406 82.941406 C 88.660156 83.6875 90.121094 83.730469 90.835938 83.28125 C 88.140625 79.023438 80.363281 67.75 67.230469 55.730469 C 60.867188 49.898438 55.054688 45.394531 50.296875 42.042969 L 50.933594 44.648438 L 48.511719 42.789063 C 48.511719 42.789063 49.121094 44.21875 49.585938 45.800781 "/>
<path style=" stroke:none;fill-rule:evenodd;fill:rgb(87.799072%,91.799927%,83.099365%);fill-opacity:1;" d="M 49.890625 46.953125 C 54.136719 50.070313 59.085938 54.019531 64.410156 58.894531 C 74.859375 68.441406 81.929688 77.660156 85.5625 82.894531 C 85.65625 82.8125 85.730469 82.726563 85.792969 82.628906 L 85.761719 82.628906 C 85.960938 82.429688 86.011719 80.976563 86.011719 80.976563 C 86.011719 80.976563 87.148438 82.519531 87.566406 82.941406 C 88.386719 83.496094 89.414063 83.65625 90.171875 83.523438 C 87.308594 79.09375 79.582031 68.070313 66.769531 56.324219 C 60.71875 50.761719 55.171875 46.390625 50.550781 43.078125 L 50.933594 44.648438 L 48.511719 42.789063 C 48.511719 42.789063 49.292969 44.648438 49.765625 46.472656 C 49.804688 46.628906 49.851563 46.792969 49.890625 46.953125 "/>
<path style=" stroke:none;fill-rule:evenodd;fill:rgb(84.698486%,89.7995%,83.898926%);fill-opacity:1;" d="M 50.136719 48.03125 C 54.230469 51.050781 58.925781 54.816406 63.953125 59.429688 C 74.226563 68.878906 81.226563 77.980469 84.910156 83.257813 C 85.292969 83.132813 85.597656 82.917969 85.792969 82.628906 L 85.761719 82.628906 C 85.960938 82.429688 86.011719 80.976563 86.011719 80.976563 C 86.011719 80.976563 87.148438 82.519531 87.566406 82.941406 C 88.109375 83.3125 88.746094 83.496094 89.332031 83.550781 C 86.207031 78.75 78.601563 68.144531 66.3125 56.878906 C 60.578125 51.613281 55.300781 47.429688 50.824219 44.195313 L 50.933594 44.648438 L 48.511719 42.789063 C 48.511719 42.789063 49.292969 44.648438 49.765625 46.472656 C 49.890625 46.972656 50.023438 47.515625 50.136719 48.03125 "/>
<path style=" stroke:none;fill-rule:evenodd;fill:rgb(82.398987%,89.399719%,85.099792%);fill-opacity:1;" d="M 50.378906 49.132813 C 54.296875 52.070313 58.738281 55.675781 63.472656 60.023438 C 73.46875 69.183594 80.371094 78.027344 84.128906 83.363281 C 84.855469 83.390625 85.480469 83.097656 85.792969 82.628906 L 85.761719 82.628906 C 85.960938 82.429688 86.011719 80.976563 86.011719 80.976563 C 86.011719 80.976563 87.148438 82.519531 87.566406 82.941406 C 87.8125 83.109375 88.089844 83.234375 88.359375 83.335938 C 84.964844 78.257813 77.503906 68.117188 65.832031 57.410156 C 59.457031 51.570313 53.636719 47.054688 48.875 43.699219 C 49.144531 44.414063 49.5 45.445313 49.765625 46.472656 C 49.984375 47.34375 50.210938 48.347656 50.378906 49.132813 "/>
<path style=" stroke:none;fill-rule:evenodd;fill:rgb(79.199219%,88.198853%,85.899353%);fill-opacity:1;" d="M 50.625 50.320313 C 54.386719 53.175781 58.492188 56.445313 62.980469 60.605469 C 68.160156 65.308594 72.160156 69.757813 75.683594 73.871094 C 78.628906 76.625 82.46875 80.21875 85.429688 82.996094 C 85.578125 82.886719 85.695313 82.769531 85.792969 82.628906 L 85.761719 82.628906 C 85.914063 82.476563 85.988281 81.597656 86.011719 81.1875 C 82.082031 75.65625 75.21875 67.019531 65.351563 57.964844 C 59.375 52.507813 53.894531 48.210938 49.308594 44.929688 C 49.472656 45.417969 49.628906 45.945313 49.765625 46.472656 C 50.125 47.914063 50.496094 49.683594 50.625 50.320313 Z M 50.664063 50.558594 L 49.339844 49.359375 C 49.035156 49.132813 48.730469 48.914063 48.433594 48.695313 C 48.484375 49.152344 48.644531 50.492188 48.941406 52 C 49.078125 52.730469 49.171875 53.300781 49.226563 53.71875 L 58.304688 62.257813 C 59.664063 63.484375 61.125 64.855469 62.65625 66.351563 L 79.25 81.96875 C 79.875 81.191406 80.039063 79.890625 80.039063 79.890625 C 80.039063 79.890625 81.925781 82.355469 82.292969 82.628906 C 82.5 82.800781 82.722656 82.9375 82.9375 83.046875 C 81.101563 80.523438 78.660156 77.367188 75.683594 73.871094 C 65.933594 64.726563 60.378906 59.507813 50.636719 50.394531 C 50.65625 50.503906 50.664063 50.558594 50.664063 50.558594 "/>
<path style=" stroke:none;fill-rule:evenodd;fill:rgb(79.199219%,88.198853%,85.899353%);fill-opacity:1;" d="M 50.625 50.320313 C 54.386719 53.175781 58.492188 56.445313 62.980469 60.605469 C 68.160156 65.308594 72.160156 69.757813 75.683594 73.871094 C 78.628906 76.625 82.46875 80.21875 85.429688 82.996094 C 85.578125 82.886719 85.695313 82.769531 85.792969 82.628906 L 85.761719 82.628906 C 85.914063 82.476563 85.988281 81.597656 86.011719 81.1875 C 82.082031 75.65625 75.21875 67.019531 65.351563 57.964844 C 59.375 52.507813 53.894531 48.210938 49.308594 44.929688 C 49.472656 45.417969 49.628906 45.945313 49.765625 46.472656 C 50.125 47.914063 50.496094 49.683594 50.625 50.320313 Z M 50.664063 50.558594 L 49.339844 49.359375 C 49.035156 49.132813 48.730469 48.914063 48.433594 48.695313 C 48.484375 49.152344 48.644531 50.492188 48.941406 52 C 49.078125 52.730469 49.171875 53.300781 49.226563 53.71875 L 58.304688 62.257813 C 59.664063 63.484375 61.125 64.855469 62.65625 66.351563 L 79.25 81.96875 C 79.875 81.191406 80.039063 79.890625 80.039063 79.890625 C 80.039063 79.890625 81.925781 82.355469 82.292969 82.628906 C 82.5 82.800781 82.722656 82.9375 82.9375 83.046875 C 81.101563 80.523438 78.660156 77.367188 75.683594 73.871094 C 65.933594 64.726563 60.378906 59.507813 50.636719 50.394531 C 50.65625 50.503906 50.664063 50.558594 50.664063 50.558594 "/>
<path style=" stroke:none;fill-rule:evenodd;fill:rgb(79.199219%,87.5%,86.698914%);fill-opacity:1;" d="M 48.527344 49.445313 C 52.65625 52.484375 57.414063 56.296875 62.507813 60.960938 C 70.175781 68 76.019531 74.847656 80.015625 80.070313 C 80.039063 79.953125 80.039063 79.890625 80.039063 79.890625 C 80.039063 79.890625 81.925781 82.355469 82.292969 82.628906 C 83.648438 83.765625 85.226563 83.472656 85.792969 82.628906 L 85.761719 82.628906 C 85.824219 82.566406 85.878906 82.375 85.914063 82.152344 C 82.054688 76.660156 75.078125 67.753906 64.839844 58.414063 C 59.21875 53.253906 54.035156 49.140625 49.621094 45.933594 C 49.675781 46.117188 49.71875 46.289063 49.765625 46.472656 C 50.214844 48.261719 50.664063 50.558594 50.664063 50.558594 L 48.410156 48.523438 C 48.410156 48.523438 48.449219 48.882813 48.527344 49.445313 "/>
<path style=" stroke:none;fill-rule:evenodd;fill:rgb(81.199646%,87.098694%,87.5%);fill-opacity:1;" d="M 48.65625 50.320313 C 52.640625 53.289063 57.171875 56.960938 62.019531 61.398438 C 69.878906 68.574219 75.824219 75.558594 79.828125 80.816406 C 79.992188 80.304688 80.039063 79.890625 80.039063 79.890625 C 80.039063 79.890625 81.925781 82.355469 82.292969 82.628906 C 83.527344 83.660156 84.949219 83.503906 85.621094 82.835938 C 81.792969 77.367188 74.753906 68.324219 64.378906 58.808594 C 59.054688 53.929688 54.125 49.984375 49.867188 46.855469 C 50.28125 48.574219 50.664063 50.558594 50.664063 50.558594 L 48.410156 48.523438 C 48.410156 48.523438 48.496094 49.265625 48.65625 50.320313 "/>
<path style=" stroke:none;fill-rule:evenodd;fill:rgb(81.199646%,86.299133%,87.5%);fill-opacity:1;" d="M 48.789063 51.140625 C 52.632813 54.023438 56.957031 57.539063 61.570313 61.757813 C 69.542969 69.109375 75.546875 76.222656 79.550781 81.5 C 79.929688 80.757813 80.039063 79.890625 80.039063 79.890625 C 80.039063 79.890625 81.925781 82.355469 82.292969 82.628906 C 83.273438 83.449219 84.371094 83.515625 85.117188 83.175781 C 81.292969 77.710938 74.261719 68.699219 63.898438 59.238281 C 58.863281 54.621094 54.171875 50.832031 50.078125 47.777344 C 50.40625 49.214844 50.664063 50.558594 50.664063 50.558594 L 48.410156 48.523438 C 48.410156 48.523438 48.53125 49.675781 48.789063 51.140625 "/>
<path style=" stroke:none;fill-rule:evenodd;fill:rgb(79.998779%,83.898926%,86.299133%);fill-opacity:1;" d="M 48.960938 52.082031 C 52.628906 54.867188 56.71875 58.210938 61.058594 62.171875 C 69.117188 69.546875 75.171875 76.734375 79.183594 82.050781 C 79.867188 81.289063 80.039063 79.890625 80.039063 79.890625 C 80.039063 79.890625 81.925781 82.355469 82.292969 82.628906 C 83.015625 83.230469 83.808594 83.425781 84.46875 83.351563 C 80.601563 77.875 73.628906 68.976563 63.429688 59.601563 C 58.660156 55.238281 54.210938 51.621094 50.273438 48.660156 C 50.503906 49.722656 50.664063 50.558594 50.664063 50.558594 L 48.410156 48.523438 C 48.410156 48.523438 48.574219 50.140625 48.941406 52 C 48.949219 52.027344 48.953125 52.054688 48.960938 52.082031 "/>
<path style=" stroke:none;fill-rule:evenodd;fill:rgb(79.998779%,82.398987%,86.299133%);fill-opacity:1;" d="M 49.113281 52.933594 C 52.617188 55.628906 56.484375 58.828125 60.574219 62.582031 C 68.621094 69.949219 74.65625 77.128906 78.660156 82.4375 C 79.773438 81.96875 80.039063 79.890625 80.039063 79.890625 C 80.039063 79.890625 81.925781 82.355469 82.292969 82.628906 C 82.734375 82.996094 83.207031 83.203125 83.648438 83.300781 C 79.722656 77.761719 72.84375 69.097656 62.925781 60.023438 C 58.4375 55.894531 54.234375 52.433594 50.46875 49.566406 C 50.59375 50.164063 50.664063 50.558594 50.664063 50.558594 L 48.410156 48.523438 C 48.410156 48.523438 48.574219 50.140625 48.941406 52 C 49.007813 52.347656 49.070313 52.660156 49.113281 52.933594 "/>
<path style=" stroke:none;fill-rule:evenodd;fill:rgb(78.799438%,79.998779%,85.499573%);fill-opacity:1;" d="M 49.238281 53.804688 C 52.585938 56.394531 56.242188 59.4375 60.097656 62.96875 C 67.964844 70.203125 73.917969 77.234375 77.921875 82.503906 C 79.65625 82.851563 80.039063 79.890625 80.039063 79.890625 C 80.039063 79.890625 81.925781 82.355469 82.292969 82.628906 C 82.382813 82.703125 82.476563 82.765625 82.566406 82.828125 C 78.558594 77.296875 71.886719 69.046875 62.457031 60.429688 C 58.226563 56.550781 54.246094 53.25 50.65625 50.484375 C 50.664063 50.535156 50.664063 50.558594 50.664063 50.558594 L 50.164063 50.105469 C 49.582031 49.660156 49.003906 49.226563 48.441406 48.8125 C 48.503906 49.351563 48.667969 50.609375 48.941406 52 C 49.089844 52.785156 49.1875 53.378906 49.238281 53.804688 "/>
<path style=" stroke:none;fill-rule:evenodd;fill:rgb(78.799438%,78.799438%,84.698486%);fill-opacity:1;" d="M 49.300781 54.660156 C 52.496094 57.164063 55.960938 60.074219 59.605469 63.429688 C 66.972656 70.1875 72.667969 76.757813 76.652344 81.882813 C 77.03125 82.160156 77.386719 82.359375 77.726563 82.460938 C 79.144531 82.921875 79.734375 81.246094 79.945313 80.378906 C 75.863281 75.054688 69.886719 68.074219 61.976563 60.804688 C 57.105469 56.339844 52.5625 52.65625 48.558594 49.664063 C 48.644531 50.289063 48.765625 51.113281 48.941406 52 C 49.242188 53.597656 49.292969 54.363281 49.300781 54.660156 "/>
<path style=" stroke:none;fill-rule:evenodd;fill:rgb(78.799438%,76.899719%,83.499146%);fill-opacity:1;" d="M 79.722656 81.105469 C 75.632813 75.742188 69.578125 68.621094 61.496094 61.191406 C 56.867188 56.964844 52.542969 53.4375 48.691406 50.535156 C 48.761719 50.988281 48.839844 51.480469 48.941406 52 C 49.347656 54.164063 49.292969 54.800781 49.292969 54.800781 C 49.292969 54.800781 56.347656 59.875 64.839844 68.535156 C 71.417969 75.199219 75.097656 81.699219 77.726563 82.460938 C 78.804688 82.808594 79.402344 81.929688 79.722656 81.105469 "/>
</g>
</svg>
